<svg width="45" height="46" viewBox="0 0 45 46" fill="none" xmlns="http://www.w3.org/2000/svg">
<path d="M32.5125 10.4649C32.0675 10.4649 31.6325 10.5998 31.2625 10.8525C30.8925 11.1053 30.6041 11.4645 30.4338 11.8847C30.2635 12.305 30.2189 12.7675 30.3057 13.2136C30.3925 13.6598 30.6068 14.0696 30.9215 14.3913C31.2362 14.7129 31.6371 14.932 32.0735 15.0207C32.51 15.1095 32.9624 15.0639 33.3735 14.8898C33.7847 14.7158 34.1361 14.421 34.3833 14.0427C34.6305 13.6645 34.7625 13.2198 34.7625 12.7649C34.7625 12.1549 34.5254 11.5699 34.1035 11.1386C33.6815 10.7072 33.1092 10.4649 32.5125 10.4649ZM41.1375 15.1033C41.101 13.513 40.8097 11.9396 40.275 10.4458C39.7982 9.16759 39.0562 8.0102 38.1 7.05325C37.1715 6.07082 36.0367 5.31709 34.7812 4.84909C33.3237 4.28589 31.7828 3.98124 30.225 3.94825C28.2375 3.83325 27.6 3.83325 22.5 3.83325C17.4 3.83325 16.7625 3.83325 14.775 3.94825C13.2172 3.98124 11.6763 4.28589 10.2187 4.84909C8.96564 5.32183 7.83175 6.07491 6.9 7.05325C5.93892 8.00234 5.20158 9.16243 4.74375 10.4458C4.1928 11.9357 3.89477 13.5108 3.8625 15.1033C3.75 17.1349 3.75 17.7866 3.75 22.9999C3.75 28.2133 3.75 28.8649 3.8625 30.8966C3.89477 32.489 4.1928 34.0642 4.74375 35.5541C5.20158 36.8374 5.93892 37.9975 6.9 38.9466C7.83175 39.9249 8.96564 40.678 10.2187 41.1507C11.6763 41.7139 13.2172 42.0186 14.775 42.0516C16.7625 42.1666 17.4 42.1666 22.5 42.1666C27.6 42.1666 28.2375 42.1666 30.225 42.0516C31.7828 42.0186 33.3237 41.7139 34.7812 41.1507C36.0367 40.6827 37.1715 39.929 38.1 38.9466C39.0605 37.9932 39.8031 36.8348 40.275 35.5541C40.8097 34.0602 41.101 32.4868 41.1375 30.8966C41.1375 28.8649 41.25 28.2133 41.25 22.9999C41.25 17.7866 41.25 17.1349 41.1375 15.1033ZM37.7625 30.6666C37.7488 31.8832 37.5333 33.0887 37.125 34.2316C36.8256 35.0657 36.3448 35.8194 35.7187 36.4358C35.1106 37.0692 34.3748 37.5597 33.5625 37.8733C32.4444 38.2906 31.2652 38.511 30.075 38.5249C28.2 38.6208 27.5063 38.6399 22.575 38.6399C17.6437 38.6399 16.95 38.6399 15.075 38.5249C13.8392 38.5486 12.6086 38.354 11.4375 37.9499C10.6608 37.6204 9.95879 37.1311 9.375 36.5124C8.75267 35.8967 8.27783 35.1424 7.9875 34.3083C7.52973 33.149 7.27583 31.9161 7.2375 30.6666C7.2375 28.7499 7.125 28.0408 7.125 22.9999C7.125 17.9591 7.125 17.2499 7.2375 15.3333C7.2459 14.0894 7.46803 12.8568 7.89375 11.6916C8.22384 10.8826 8.7305 10.1614 9.375 9.58325C9.94465 8.92424 10.6487 8.40085 11.4375 8.04992C12.5804 7.62834 13.785 7.40799 15 7.39825C16.875 7.39825 17.5687 7.28325 22.5 7.28325C27.4312 7.28325 28.125 7.28325 30 7.39825C31.1902 7.41221 32.3694 7.63256 33.4875 8.04992C34.3396 8.37317 35.1043 8.89871 35.7187 9.58325C36.3332 10.172 36.8133 10.8918 37.125 11.6916C37.5417 12.8587 37.7574 14.0908 37.7625 15.3333C37.8563 17.2499 37.875 17.9591 37.875 22.9999C37.875 28.0408 37.8563 28.7499 37.7625 30.6666ZM22.5 13.1674C20.5984 13.1712 18.7406 13.7511 17.1612 14.8338C15.5819 15.9165 14.352 17.4535 13.6268 19.2504C12.9017 21.0474 12.7139 23.0238 13.0871 24.9299C13.4604 26.8359 14.3779 28.5861 15.7239 29.9593C17.0698 31.3325 18.7838 32.267 20.6491 32.6449C22.5145 33.0227 24.4475 32.8269 26.204 32.0821C27.9605 31.3374 29.4616 30.0771 30.5177 28.4606C31.5738 26.844 32.1375 24.9438 32.1375 22.9999C32.14 21.7064 31.8923 20.4251 31.4086 19.2298C30.9249 18.0344 30.2148 16.9486 29.3191 16.0348C28.4235 15.1211 27.3599 14.3973 26.1896 13.9052C25.0193 13.4131 23.7654 13.1624 22.5 13.1674ZM22.5 29.3824C21.2651 29.3824 20.0579 29.0081 19.0312 28.3068C18.0044 27.6055 17.2041 26.6086 16.7315 25.4424C16.259 24.2761 16.1353 22.9928 16.3762 21.7548C16.6171 20.5167 17.2118 19.3794 18.085 18.4868C18.9582 17.5942 20.0707 16.9863 21.2819 16.7401C22.4931 16.4938 23.7485 16.6202 24.8894 17.1033C26.0303 17.5863 27.0054 18.4044 27.6915 19.454C28.3776 20.5036 28.7437 21.7376 28.7437 22.9999C28.7437 23.8381 28.5823 24.668 28.2685 25.4424C27.9547 26.2168 27.4948 26.9204 26.915 27.513C26.3352 28.1057 25.6469 28.5758 24.8894 28.8966C24.1319 29.2173 23.3199 29.3824 22.5 29.3824Z" fill="black"/>
</svg>
