<svg xmlns="http://www.w3.org/2000/svg" width="20" height="21" viewBox="0 0 20 21" fill="none">
  <path d="M19.2 9.59152C19.2 4.73505 15.0643 0.8 10 0.8C4.93568 0.8 0.8 4.73505 0.8 9.59152C0.8 12.0138 1.85874 14.3225 3.67368 15.9703H3.09602C2.85684 15.9703 2.64723 16.1576 2.64723 16.4078V17.5145C2.07013 17.575 1.60736 18.0447 1.60736 18.6302V19.7625C1.60736 20.0127 1.81697 20.2 2.05615 20.2H17.9441C18.1833 20.2 18.3929 20.0127 18.3929 19.7625V18.6302C18.3929 18.0447 17.93 17.5749 17.3528 17.5145V16.4078C17.3528 16.1576 17.1432 15.9703 16.904 15.9703H16.3271C18.1413 14.3225 19.2 12.012 19.2 9.59152ZM17.2266 18.3829C17.3836 18.3829 17.4953 18.5027 17.4953 18.6302V19.325H2.50494V18.6302C2.50494 18.5027 2.61667 18.3829 2.77361 18.3829H17.2266ZM16.4552 16.8453V17.5079H3.54482V16.8453H16.4552ZM14.9179 15.9703H5.08224C2.95963 14.4797 1.69758 12.0985 1.69758 9.59152C1.69758 5.23512 5.41343 1.675 10 1.675C14.5866 1.675 18.3024 5.23512 18.3024 9.59152C18.3024 12.0968 17.0398 14.4803 14.9179 15.9703ZM14.8424 16.0359C14.8422 16.0361 14.8428 16.0354 14.8438 16.0342L14.843 16.0351L14.8424 16.0359Z" fill="black" stroke="black" stroke-width="0.4"/>
</svg>