<svg xmlns="http://www.w3.org/2000/svg" width="30" height="30" viewBox="0 0 30 30" fill="none">
  <path d="M20.4768 27.9309H9.52167C8.75132 27.9332 8.00783 27.648 7.43671 27.131C6.86559 26.614 6.50793 25.9025 6.43374 25.1358L4.6596 7.34369C4.64497 7.19985 4.66071 7.05455 4.7058 6.91719C4.75089 6.77982 4.82434 6.65346 4.92137 6.54629C5.0184 6.43911 5.13687 6.35351 5.26908 6.29503C5.4013 6.23654 5.54433 6.20648 5.68891 6.20679H24.3096C24.4541 6.2068 24.597 6.23708 24.729 6.29567C24.8611 6.35426 24.9794 6.43986 25.0764 6.54697C25.1734 6.65407 25.2468 6.7803 25.292 6.91752C25.3372 7.05474 25.3532 7.19992 25.3389 7.34369L23.5648 25.1347C23.4906 25.9016 23.133 26.6132 22.5619 27.1303C21.9908 27.6475 21.2473 27.933 20.4768 27.9309ZM6.83098 8.27575L8.49236 24.9299C8.51731 25.1854 8.63658 25.4225 8.8269 25.5948C9.01722 25.7672 9.26492 25.8624 9.52167 25.862H20.4768C20.7336 25.8624 20.9813 25.7672 21.1716 25.5948C21.3619 25.4225 21.4812 25.1854 21.5062 24.9299L23.1675 8.27575H6.83098Z" fill="black"/>
  <path d="M26.8959 8.27575H3.10284C2.82848 8.27575 2.56536 8.16676 2.37135 7.97276C2.17735 7.77876 2.06836 7.51563 2.06836 7.24127C2.06836 6.96691 2.17735 6.70378 2.37135 6.50978C2.56536 6.31578 2.82848 6.20679 3.10284 6.20679H26.8959C27.1703 6.20679 27.4334 6.31578 27.6274 6.50978C27.8214 6.70378 27.9304 6.96691 27.9304 7.24127C27.9304 7.51563 27.8214 7.77876 27.6274 7.97276C27.4334 8.16676 27.1703 8.27575 26.8959 8.27575ZM14.9994 23.793C14.725 23.793 14.4619 23.684 14.2679 23.49C14.0739 23.296 13.9649 23.0329 13.9649 22.7585V11.3792C13.9649 11.1048 14.0739 10.8417 14.2679 10.6477C14.4619 10.4537 14.725 10.3447 14.9994 10.3447C15.2738 10.3447 15.5369 10.4537 15.7309 10.6477C15.9249 10.8417 16.0339 11.1048 16.0339 11.3792V22.7585C16.0339 23.0329 15.9249 23.296 15.7309 23.49C15.5369 23.684 15.2738 23.793 14.9994 23.793ZM11.3777 23.793C11.1196 23.7927 10.8709 23.6961 10.6805 23.5219C10.49 23.3477 10.3716 23.1086 10.3484 22.8516L9.31388 11.4723C9.28916 11.1992 9.37388 10.9275 9.54944 10.7168C9.72499 10.5061 9.977 10.3738 10.2501 10.3489C10.5233 10.3247 10.7951 10.4097 11.0058 10.5854C11.2165 10.761 11.3491 11.013 11.3746 11.2861L12.409 22.6654C12.422 22.8086 12.4049 22.9529 12.359 23.0892C12.313 23.2254 12.2391 23.3506 12.1421 23.4567C12.045 23.5628 11.9269 23.6475 11.7953 23.7054C11.6637 23.7633 11.5215 23.7931 11.3777 23.793ZM18.6211 23.793C18.4773 23.7931 18.3351 23.7633 18.2035 23.7054C18.0718 23.6475 17.9537 23.5628 17.8567 23.4567C17.7596 23.3506 17.6858 23.2254 17.6398 23.0892C17.5939 22.9529 17.5768 22.8086 17.5897 22.6654L18.6242 11.2861C18.677 10.7171 19.1735 10.3075 19.7487 10.3489C20.0218 10.3738 20.2738 10.5061 20.4494 10.7168C20.6249 10.9275 20.7096 11.1992 20.6849 11.4723L19.6504 22.8516C19.6272 23.1086 19.5087 23.3477 19.3183 23.5219C19.1279 23.6961 18.8792 23.7927 18.6211 23.793Z" fill="black"/>
  <path d="M19.6554 8.27574H10.345C10.0707 8.27574 9.80754 8.16675 9.61354 7.97275C9.41954 7.77875 9.31055 7.51562 9.31055 7.24126V3.10333C9.31055 2.82897 9.41954 2.56584 9.61354 2.37184C9.80754 2.17784 10.0707 2.06885 10.345 2.06885H19.6554C19.9297 2.06885 20.1929 2.17784 20.3869 2.37184C20.5809 2.56584 20.6899 2.82897 20.6899 3.10333V7.24126C20.6899 7.51562 20.5809 7.77875 20.3869 7.97275C20.1929 8.16675 19.9297 8.27574 19.6554 8.27574ZM11.3795 6.20678H18.6209V4.13781H11.3795V6.20678Z" fill="black"/>
</svg>