<svg xmlns="http://www.w3.org/2000/svg" width="18" height="16" viewBox="0 0 18 16" fill="none">
  <path d="M18 8C18 8 14.625 2.5 9 2.5C3.375 2.5 0 8 0 8C0 8 3.375 13.5 9 13.5C14.625 13.5 18 8 18 8ZM1.31963 8C1.86358 7.26512 2.48922 6.58069 3.18712 5.957C4.635 4.668 6.615 3.5 9 3.5C11.385 3.5 13.3639 4.668 14.814 5.957C15.5119 6.58069 16.1375 7.26512 16.6815 8C16.6163 8.087 16.5443 8.183 16.4621 8.288C16.0853 8.768 15.5284 9.408 14.814 10.043C13.3639 11.332 11.3839 12.5 9 12.5C6.615 12.5 4.63613 11.332 3.186 10.043C2.4881 9.41931 1.86246 8.73487 1.3185 8H1.31963Z" fill="#1D1D1B"/>
  <path d="M9 5.5C8.25408 5.5 7.53871 5.76339 7.01126 6.23223C6.48382 6.70107 6.1875 7.33696 6.1875 8C6.1875 8.66304 6.48382 9.29893 7.01126 9.76777C7.53871 10.2366 8.25408 10.5 9 10.5C9.74592 10.5 10.4613 10.2366 10.9887 9.76777C11.5162 9.29893 11.8125 8.66304 11.8125 8C11.8125 7.33696 11.5162 6.70107 10.9887 6.23223C10.4613 5.76339 9.74592 5.5 9 5.5ZM5.0625 8C5.0625 7.07174 5.47734 6.1815 6.21577 5.52513C6.95419 4.86875 7.95571 4.5 9 4.5C10.0443 4.5 11.0458 4.86875 11.7842 5.52513C12.5227 6.1815 12.9375 7.07174 12.9375 8C12.9375 8.92826 12.5227 9.8185 11.7842 10.4749C11.0458 11.1313 10.0443 11.5 9 11.5C7.95571 11.5 6.95419 11.1313 6.21577 10.4749C5.47734 9.8185 5.0625 8.92826 5.0625 8Z" fill="#1D1D1B"/>
</svg>