<svg width="77" height="88" viewBox="0 0 77 88" fill="none" xmlns="http://www.w3.org/2000/svg">
<ellipse cx="38.4999" cy="35.7385" rx="37.0191" ry="34.3825" fill="#F2EDE7"/>
<rect x="10.3655" y="65.9951" width="56.2691" height="12.3777" fill="#DA9B3C"/>
<rect x="4.44238" y="78.3728" width="68.1152" height="8.2518" fill="#DA9B3C"/>
<path d="M22.2114 16.4846L24.4103 21.8023L29.6153 24.0488L24.4103 26.2952L22.2114 31.6129L20.0126 26.2952L14.8076 24.0488L20.0126 21.8023L22.2114 16.4846Z" fill="#DA9B3C"/>
<path d="M28.8749 48.1165L31.2308 52.1172L35.5383 54.3053L31.2308 56.4934L28.8749 60.4942L26.519 56.4934L22.2114 54.3053L26.519 52.1172L28.8749 48.1165Z" fill="#383531"/>
<path d="M54.7882 23.3608L57.8666 29.162L65.1536 31.6126L57.8666 34.0633L54.7882 39.8644L51.7099 34.0633L44.4229 31.6126L51.7099 29.162L54.7882 23.3608Z" fill="#F2AEAD"/>
<path d="M7.61248e-06 35.7386C-0.00380544 41.368 1.42489 46.9185 4.16959 51.9376C6.9143 56.9566 10.8973 61.3022 15.7939 64.6199H13.3269C11.756 64.6199 10.2495 65.1995 9.13866 66.2312C8.02787 67.2628 7.40384 68.6621 7.40384 70.1211V72.8717C7.40926 73.8633 7.70568 74.8347 8.2612 75.6814C6.41712 75.8227 4.69724 76.6015 3.4417 77.8639C2.18616 79.1262 1.48638 80.7803 1.48077 82.4988V86.6247C1.48077 86.9895 1.63678 87.3393 1.91448 87.5972C2.19218 87.8551 2.56882 88 2.96154 88H74.0383C74.431 88 74.8077 87.8551 75.0854 87.5972C75.3631 87.3393 75.5191 86.9895 75.5191 86.6247V82.4988C75.5135 80.7803 74.8137 79.1262 73.5582 77.8639C72.3026 76.6015 70.5827 75.8227 68.7386 75.6814C69.2942 74.8347 69.5906 73.8633 69.596 72.8717V70.1211C69.596 68.6621 68.972 67.2628 67.8612 66.2312C66.7504 65.1995 65.2438 64.6199 63.6729 64.6199H61.206C68.032 59.9869 73.0276 53.397 75.4223 45.8663C77.817 38.3356 77.478 30.2823 74.4574 22.9483C74.3897 22.777 74.2861 22.6198 74.1524 22.486C74.0187 22.3523 73.8577 22.2445 73.6787 22.1692C73.4998 22.0938 73.3065 22.0522 73.11 22.0469C72.9136 22.0416 72.718 22.0727 72.5346 22.1383C72.3513 22.2039 72.1838 22.3028 72.042 22.4291C71.9002 22.5555 71.7869 22.7068 71.7086 22.8742C71.6304 23.0416 71.5889 23.2218 71.5864 23.4043C71.5839 23.5868 71.6206 23.768 71.6943 23.9372C74.7545 31.3709 74.8205 39.5812 71.8801 47.0566C68.9396 54.5319 63.1907 60.7691 55.6916 64.6199H26.6538C26.2611 64.6199 25.8844 64.7648 25.6067 65.0227C25.329 65.2806 25.173 65.6305 25.173 65.9952C25.173 66.36 25.329 66.7098 25.6067 66.9677C25.8844 67.2256 26.2611 67.3705 26.6538 67.3705H63.6729C64.4584 67.3705 65.2117 67.6603 65.7671 68.1761C66.3225 68.692 66.6345 69.3916 66.6345 70.1211V72.8717C66.6345 73.6012 66.3225 74.3008 65.7671 74.8167C65.2117 75.3325 64.4584 75.6223 63.6729 75.6223C63.2802 75.6223 62.9036 75.7672 62.6259 76.0251C62.3482 76.283 62.1922 76.6328 62.1922 76.9976C62.1922 77.3624 62.3482 77.7122 62.6259 77.9701C62.9036 78.228 63.2802 78.3729 63.6729 78.3729H68.1152C69.2934 78.3729 70.4233 78.8076 71.2564 79.5814C72.0895 80.3551 72.5575 81.4045 72.5575 82.4988V85.2494H4.44231V82.4988C4.44231 81.4045 4.91033 80.3551 5.74342 79.5814C6.57652 78.8076 7.70643 78.3729 8.8846 78.3729H57.7499C58.1426 78.3729 58.5192 78.228 58.7969 77.9701C59.0746 77.7122 59.2306 77.3624 59.2306 76.9976C59.2306 76.6328 59.0746 76.283 58.7969 76.0251C58.5192 75.7672 58.1426 75.6223 57.7499 75.6223H13.3269C12.5415 75.6223 11.7882 75.3325 11.2328 74.8167C10.6774 74.3008 10.3654 73.6012 10.3654 72.8717V70.1211C10.3654 69.3916 10.6774 68.692 11.2328 68.1761C11.7882 67.6603 12.5415 67.3705 13.3269 67.3705H20.9114C21.2572 67.3632 21.5897 67.2454 21.853 67.0369C22.1162 66.8285 22.2941 66.5422 22.3566 66.2263C22.3993 65.945 22.3519 65.6583 22.2202 65.402C22.0885 65.1457 21.8784 64.9311 21.6162 64.7849C16.7821 62.3638 12.618 58.9349 9.4507 54.7675C6.28342 50.6002 4.1992 45.8077 3.36165 40.7663C2.52409 35.725 2.956 30.5719 4.62346 25.7116C6.29092 20.8514 9.14855 16.4162 12.972 12.7543C16.7955 9.09235 21.4808 6.30331 26.6601 4.60611C31.8394 2.90891 37.3718 2.34973 42.8229 2.97246C48.274 3.5952 53.4956 5.3829 58.0777 8.19525C62.6598 11.0076 66.4777 14.768 69.2317 19.1814C69.4295 19.4947 69.7527 19.7226 70.1307 19.8154C70.5087 19.9083 70.9109 19.8585 71.2496 19.6769C71.5882 19.4953 71.8358 19.1967 71.9382 18.8462C72.0407 18.4957 71.9897 18.1218 71.7964 17.8061C67.5464 11.0061 61.0017 5.6967 53.1752 2.69964C45.3487 -0.297422 36.6768 -0.815056 28.5016 1.22685C20.3265 3.26876 13.1038 7.75635 7.95153 13.9951C2.79923 20.2339 0.00455139 27.8759 7.61248e-06 35.7386Z" fill="black"/>
<path d="M44.4229 19.2354C44.8156 19.2354 45.1923 19.0905 45.47 18.8326C45.7477 18.5747 45.9037 18.2249 45.9037 17.8601V16.4848H47.3844C47.7772 16.4848 48.1538 16.3399 48.4315 16.082C48.7092 15.8241 48.8652 15.4743 48.8652 15.1095C48.8652 14.7448 48.7092 14.395 48.4315 14.1371C48.1538 13.8791 47.7772 13.7342 47.3844 13.7342H45.9037V12.3589C45.9037 11.9942 45.7477 11.6444 45.47 11.3865C45.1923 11.1285 44.8156 10.9836 44.4229 10.9836C44.0302 10.9836 43.6535 11.1285 43.3758 11.3865C43.0981 11.6444 42.9421 11.9942 42.9421 12.3589V13.7342H41.4614C41.0686 13.7342 40.692 13.8791 40.4143 14.1371C40.1366 14.395 39.9806 14.7448 39.9806 15.1095C39.9806 15.4743 40.1366 15.8241 40.4143 16.082C40.692 16.3399 41.0686 16.4848 41.4614 16.4848H42.9421V17.8601C42.9421 18.2249 43.0981 18.5747 43.3758 18.8326C43.6535 19.0905 44.0302 19.2354 44.4229 19.2354ZM38.4998 38.4896C38.4998 38.1249 38.3438 37.7751 38.0661 37.5171C37.7884 37.2592 37.4118 37.1143 37.0191 37.1143H35.5383V35.739C35.5383 35.3743 35.3823 35.0245 35.1046 34.7666C34.8269 34.5086 34.4503 34.3637 34.0575 34.3637C33.6648 34.3637 33.2882 34.5086 33.0105 34.7666C32.7328 35.0245 32.5768 35.3743 32.5768 35.739V37.1143H31.096C30.7033 37.1143 30.3266 37.2592 30.0489 37.5171C29.7712 37.7751 29.6152 38.1249 29.6152 38.4896C29.6152 38.8544 29.7712 39.2042 30.0489 39.4621C30.3266 39.72 30.7033 39.8649 31.096 39.8649H32.5768V41.2402C32.5768 41.605 32.7328 41.9548 33.0105 42.2127C33.2882 42.4706 33.6648 42.6155 34.0575 42.6155C34.4503 42.6155 34.8269 42.4706 35.1046 42.2127C35.3823 41.9548 35.5383 41.605 35.5383 41.2402V39.8649H37.0191C37.4118 39.8649 37.7884 39.72 38.0661 39.4621C38.3438 39.2042 38.4998 38.8544 38.4998 38.4896ZM54.7883 56.3685C55.181 56.3685 55.5576 56.2236 55.8353 55.9657C56.113 55.7078 56.269 55.358 56.269 54.9932V53.6179H57.7498C58.1425 53.6179 58.5192 53.473 58.7969 53.2151C59.0746 52.9572 59.2306 52.6074 59.2306 52.2426C59.2306 51.8779 59.0746 51.5281 58.7969 51.2701C58.5192 51.0122 58.1425 50.8673 57.7498 50.8673H56.269V49.492C56.269 49.1273 56.113 48.7775 55.8353 48.5195C55.5576 48.2616 55.181 48.1167 54.7883 48.1167C54.3955 48.1167 54.0189 48.2616 53.7412 48.5195C53.4635 48.7775 53.3075 49.1273 53.3075 49.492V50.8673H51.8267C51.434 50.8673 51.0574 51.0122 50.7797 51.2701C50.502 51.5281 50.346 51.8779 50.346 52.2426C50.346 52.6074 50.502 52.9572 50.7797 53.2151C51.0574 53.473 51.434 53.6179 51.8267 53.6179H53.3075V54.9932C53.3075 55.358 53.4635 55.7078 53.7412 55.9657C54.0189 56.2236 54.3955 56.3685 54.7883 56.3685Z" fill="black"/>
<path d="M24.8338 31.0945L26.5056 28.0056L29.8314 26.4611C30.3234 26.2327 30.7373 25.8815 31.0265 25.4469C31.3157 25.0124 31.4689 24.5116 31.4689 24.0007C31.4689 23.4898 31.3157 22.989 31.0265 22.5544C30.7373 22.1198 30.3234 21.7687 29.8314 21.5403L26.5056 19.9958L24.8412 16.9069C24.5953 16.4499 24.2172 16.0655 23.7493 15.7969C23.2814 15.5283 22.7422 15.386 22.1921 15.386C21.6421 15.386 21.1029 15.5283 20.635 15.7969C20.1671 16.0655 19.789 16.4499 19.543 16.9069L17.8727 19.9958L14.5484 21.5403C14.0564 21.7687 13.6425 22.1198 13.3533 22.5544C13.0641 22.989 12.9109 23.4898 12.9109 24.0007C12.9109 24.5116 13.0641 25.0124 13.3533 25.4469C13.6425 25.8815 14.0564 26.2327 14.5484 26.4611L17.8742 28.0056L19.5371 31.0945C19.783 31.5515 20.1611 31.9358 20.629 32.2045C21.0969 32.4731 21.6361 32.6154 22.1862 32.6154C22.7363 32.6154 23.2755 32.4731 23.7434 32.2045C24.2113 31.9358 24.5879 31.5515 24.8338 31.0945ZM22.1847 29.865L20.5218 26.7747C20.2342 26.2434 19.77 25.8123 19.198 25.5451L15.8722 24.0007L19.198 22.4562C19.7701 22.1885 20.2343 21.757 20.5218 21.2253L22.1847 18.135L23.8476 21.2239C24.1363 21.7553 24.6008 22.1868 25.1729 22.4548L28.5076 23.9952L25.1729 25.5451C24.6008 25.8126 24.1363 26.2436 23.8476 26.7747L22.1847 29.865ZM23.0673 56.4412L25.4054 57.5277L26.5752 59.698C26.8211 60.155 27.1992 60.5393 27.6671 60.8079C28.135 61.0766 28.6742 61.2189 29.2243 61.2189C29.7744 61.2189 30.3136 61.0766 30.7815 60.8079C31.2494 60.5393 31.6275 60.155 31.8734 59.698L33.0432 57.5264L35.3813 56.4399C35.8734 56.2115 36.2872 55.8603 36.5764 55.4257C36.8656 54.9912 37.0188 54.4904 37.0188 53.9795C37.0188 53.4686 36.8656 52.9678 36.5764 52.5332C36.2872 52.0986 35.8734 51.7475 35.3813 51.519L33.0432 50.4339L31.8734 48.261C31.6275 47.804 31.2494 47.4196 30.7815 47.151C30.3136 46.8824 29.7744 46.7401 29.2243 46.7401C28.6742 46.7401 28.135 46.8824 27.6671 47.151C27.1992 47.4196 26.8211 47.804 26.5752 48.261L25.4069 50.4353L23.0658 51.5204C22.5737 51.7488 22.1599 52.1 21.8707 52.5346C21.5815 52.9691 21.4283 53.4699 21.4283 53.9808C21.4283 54.4917 21.5815 54.9925 21.8707 55.4271C22.1599 55.8617 22.5752 56.2128 23.0673 56.4412ZM26.7336 52.8943C27.3057 52.6282 27.7693 52.1968 28.0545 51.6648L29.2243 49.4919L30.3941 51.6648C30.6788 52.2005 31.1442 52.6352 31.7194 52.9026L34.0664 53.9836H34.0575L31.7194 55.0701C31.1467 55.3368 30.6819 55.768 30.3941 56.2996L29.2243 58.4712L28.0545 56.2996C27.7673 55.7681 27.303 55.3368 26.7307 55.0701L24.3911 53.9836L26.7336 52.8943ZM59.8924 36.1033L63.1827 34.574C63.7748 34.2991 64.2728 33.8765 64.6209 33.3535C64.9689 32.8305 65.1533 32.2278 65.1533 31.613C65.1533 30.9981 64.9689 30.3954 64.6209 29.8725C64.2728 29.3495 63.7748 28.9268 63.1827 28.6519L59.8895 27.1212C59.774 27.0679 59.6804 26.981 59.6229 26.8737L57.9763 23.8164C57.6803 23.2664 57.2253 22.8039 56.6622 22.4806C56.0991 22.1574 55.4502 21.9862 54.7882 21.9862C54.1263 21.9862 53.4774 22.1574 52.9143 22.4806C52.3512 22.8039 51.8961 23.2664 51.6001 23.8164L49.9535 26.8737C49.8956 26.9819 49.8009 27.0694 49.684 27.1226L46.3938 28.6519C45.8016 28.9268 45.3037 29.3495 44.9556 29.8725C44.6075 30.3954 44.4232 30.9981 44.4232 31.613C44.4232 32.2278 44.6075 32.8305 44.9556 33.3535C45.3037 33.8765 45.8016 34.2991 46.3938 34.574L49.687 36.1047C49.8025 36.158 49.8961 36.245 49.9535 36.3522L51.6001 39.4095C51.8961 39.9595 52.3512 40.422 52.9143 40.7453C53.4774 41.0685 54.1263 41.2398 54.7882 41.2398C55.4502 41.2398 56.0991 41.0685 56.6622 40.7453C57.2253 40.422 57.6803 39.9595 57.9763 39.4095L59.6229 36.3522C59.6809 36.244 59.7756 36.1565 59.8924 36.1033ZM56.9738 35.1227L55.3272 38.1786C55.2764 38.2708 55.1992 38.3481 55.1041 38.4021C55.009 38.4561 54.8997 38.4846 54.7882 38.4846C54.6768 38.4846 54.5675 38.4561 54.4724 38.4021C54.3773 38.3481 54.3001 38.2708 54.2492 38.1786L52.6026 35.1227C52.2572 34.4828 51.6983 33.9637 51.0093 33.6429L47.7176 32.1136C47.6184 32.0664 47.5351 31.9946 47.477 31.9063C47.4189 31.818 47.3881 31.7165 47.3881 31.613C47.3881 31.5094 47.4189 31.4079 47.477 31.3196C47.5351 31.2313 47.6184 31.1596 47.7176 31.1124L51.0064 29.5844C51.6965 29.2635 52.2565 28.7439 52.6026 28.1032L54.2492 25.0473C54.3004 24.9556 54.3778 24.8787 54.4728 24.825C54.5679 24.7713 54.677 24.7429 54.7882 24.7429C54.8995 24.7429 55.0086 24.7713 55.1036 24.825C55.1987 24.8787 55.276 24.9556 55.3272 25.0473L56.9738 28.1032C57.3193 28.7431 57.8782 29.2622 58.5671 29.583L61.8589 31.1124C61.9577 31.1599 62.0405 31.2317 62.0982 31.32C62.156 31.4083 62.1866 31.5096 62.1866 31.613C62.1866 31.7163 62.156 31.8176 62.0982 31.9059C62.0405 31.9942 61.9577 32.066 61.8589 32.1136L58.5701 33.6415C57.8799 33.9624 57.32 34.482 56.9738 35.1227Z" fill="black"/>
</svg>
