<svg xmlns="http://www.w3.org/2000/svg" width="43" height="51" viewBox="0 0 43 51" fill="none">
  <ellipse cx="21.2427" cy="20.7124" rx="20.4263" ry="19.9262" fill="#F2EDE7"/>
  <rect x="5.72266" y="38.2471" width="31.048" height="7.17344" fill="#DA9B3C"/>
  <rect x="2.45312" y="45.4204" width="37.5844" height="4.78229" fill="#DA9B3C"/>
  <path d="M12.2571 9.55371L13.4704 12.6356L16.3424 13.9375L13.4704 15.2394L12.2571 18.3212L11.0439 15.2394L8.17188 13.9375L11.0439 12.6356L12.2571 9.55371Z" fill="#DA9B3C"/>
  <path d="M15.9326 27.8857L17.2325 30.2044L19.6093 31.4725L17.2325 32.7406L15.9326 35.0592L14.6327 32.7406L12.2559 31.4725L14.6327 30.2044L15.9326 27.8857Z" fill="#383531"/>
  <path d="M30.2311 13.5386L31.9297 16.9006L35.9505 18.3209L31.9297 19.7411L30.2311 23.1032L28.5325 19.7411L24.5117 18.3209L28.5325 16.9006L30.2311 13.5386Z" fill="#F2AEAD"/>
  <path d="M4.20039e-06 20.7122C-0.00209975 23.9746 0.786219 27.1914 2.30068 30.1002C3.81515 33.009 6.01288 35.5274 8.71469 37.4502H7.35348C6.48669 37.4502 5.65541 37.7861 5.0425 38.384C4.42959 38.9819 4.08527 39.7928 4.08527 40.6384V42.2325C4.08826 42.8071 4.25182 43.3701 4.55834 43.8608C3.54082 43.9427 2.59183 44.394 1.89905 45.1256C1.20627 45.8573 0.820152 46.8158 0.817057 47.8118V50.2029C0.817057 50.4143 0.903139 50.6171 1.05637 50.7666C1.20959 50.916 1.41741 51 1.63411 51H40.8526C41.0693 51 41.2771 50.916 41.4304 50.7666C41.5836 50.6171 41.6697 50.4143 41.6697 50.2029V47.8118C41.6666 46.8158 41.2805 45.8573 40.5877 45.1256C39.8949 44.394 38.9459 43.9427 37.9284 43.8608C38.2349 43.3701 38.3985 42.8071 38.4015 42.2325V40.6384C38.4015 39.7928 38.0571 38.9819 37.4442 38.384C36.8313 37.7861 36 37.4502 35.1333 37.4502H33.7721C37.5385 34.7651 40.2949 30.946 41.6163 26.5816C42.9376 22.2172 42.7505 17.55 41.0839 13.2996C41.0465 13.2003 40.9893 13.1092 40.9156 13.0317C40.8418 12.9542 40.753 12.8917 40.6542 12.848C40.5555 12.8043 40.4488 12.7803 40.3404 12.7772C40.232 12.7741 40.1241 12.7921 40.0229 12.8302C39.9218 12.8682 39.8294 12.9255 39.7511 12.9987C39.6729 13.0719 39.6103 13.1596 39.5672 13.2566C39.524 13.3537 39.5011 13.4581 39.4997 13.5639C39.4984 13.6696 39.5186 13.7746 39.5592 13.8727C41.2478 18.1809 41.2842 22.9391 39.6618 27.2714C38.0393 31.6037 34.8672 35.2185 30.7293 37.4502H14.707C14.4903 37.4502 14.2824 37.5341 14.1292 37.6836C13.976 37.8331 13.8899 38.0358 13.8899 38.2472C13.8899 38.4586 13.976 38.6613 14.1292 38.8108C14.2824 38.9603 14.4903 39.0443 14.707 39.0443H35.1333C35.5667 39.0443 35.9823 39.2122 36.2887 39.5112C36.5952 39.8101 36.7674 40.2156 36.7674 40.6384V42.2325C36.7674 42.6552 36.5952 43.0607 36.2887 43.3597C35.9823 43.6586 35.5667 43.8266 35.1333 43.8266C34.9166 43.8266 34.7087 43.9105 34.5555 44.06C34.4023 44.2095 34.3162 44.4122 34.3162 44.6236C34.3162 44.835 34.4023 45.0377 34.5555 45.1872C34.7087 45.3367 34.9166 45.4207 35.1333 45.4207H37.5844C38.2345 45.4207 38.858 45.6726 39.3176 46.121C39.7773 46.5694 40.0356 47.1776 40.0356 47.8118V49.4059H2.45116V47.8118C2.45116 47.1776 2.70941 46.5694 3.16909 46.121C3.62877 45.6726 4.25223 45.4207 4.90232 45.4207H31.8651C32.0817 45.4207 32.2896 45.3367 32.4428 45.1872C32.596 45.0377 32.6821 44.835 32.6821 44.6236C32.6821 44.4122 32.596 44.2095 32.4428 44.06C32.2896 43.9105 32.0817 43.8266 31.8651 43.8266H7.35348C6.92008 43.8266 6.50445 43.6586 6.19799 43.3597C5.89154 43.0607 5.71937 42.6552 5.71937 42.2325V40.6384C5.71937 40.2156 5.89154 39.8101 6.19799 39.5112C6.50445 39.2122 6.92008 39.0443 7.35348 39.0443H11.5384C11.7292 39.04 11.9127 38.9717 12.058 38.851C12.2032 38.7302 12.3013 38.5642 12.3359 38.3811C12.3594 38.2181 12.3332 38.052 12.2606 37.9034C12.1879 37.7549 12.072 37.6305 11.9273 37.5458C9.25998 36.1426 6.96231 34.1555 5.21468 31.7403C3.46705 29.3251 2.31702 26.5476 1.85488 23.6259C1.39274 20.7042 1.63105 17.7178 2.55112 14.9011C3.47118 12.0843 5.04796 9.51394 7.15767 7.39168C9.26739 5.26943 11.8526 3.65306 14.7104 2.66945C17.5683 1.68584 20.6209 1.36177 23.6287 1.72268C26.6365 2.08358 29.5176 3.11964 32.0459 4.74952C34.5742 6.3794 36.6809 8.55874 38.2005 11.1165C38.3096 11.2981 38.4879 11.4302 38.6965 11.484C38.9051 11.5377 39.127 11.5089 39.3139 11.4036C39.5007 11.2984 39.6373 11.1253 39.6938 10.9222C39.7504 10.7191 39.7223 10.5024 39.6156 10.3194C37.2705 6.37852 33.6593 3.3015 29.3408 1.56456C25.0224 -0.17237 20.2374 -0.472362 15.7265 0.711015C11.2157 1.89439 7.23039 4.49516 4.38747 8.1108C1.54455 11.7264 0.00251135 16.1554 4.20039e-06 20.7122Z" fill="black"/>
  <path d="M24.5104 11.148C24.7271 11.148 24.9349 11.064 25.0881 10.9146C25.2413 10.7651 25.3274 10.5624 25.3274 10.351V9.55392H26.1445C26.3612 9.55392 26.569 9.46994 26.7222 9.32047C26.8754 9.17099 26.9615 8.96826 26.9615 8.75687C26.9615 8.54548 26.8754 8.34275 26.7222 8.19327C26.569 8.04379 26.3612 7.95982 26.1445 7.95982H25.3274V7.16277C25.3274 6.95138 25.2413 6.74865 25.0881 6.59917C24.9349 6.4497 24.7271 6.36572 24.5104 6.36572C24.2937 6.36572 24.0859 6.4497 23.9326 6.59917C23.7794 6.74865 23.6933 6.95138 23.6933 7.16277V7.95982H22.8763C22.6596 7.95982 22.4517 8.04379 22.2985 8.19327C22.1453 8.34275 22.0592 8.54548 22.0592 8.75687C22.0592 8.96826 22.1453 9.17099 22.2985 9.32047C22.4517 9.46994 22.6596 9.55392 22.8763 9.55392H23.6933V10.351C23.6933 10.5624 23.7794 10.7651 23.9326 10.9146C24.0859 11.064 24.2937 11.148 24.5104 11.148ZM21.2422 22.3067C21.2422 22.0953 21.1561 21.8926 21.0029 21.7431C20.8496 21.5936 20.6418 21.5096 20.4251 21.5096H19.6081V20.7126C19.6081 20.5012 19.522 20.2985 19.3687 20.149C19.2155 19.9995 19.0077 19.9156 18.791 19.9156C18.5743 19.9156 18.3665 19.9995 18.2133 20.149C18.06 20.2985 17.9739 20.5012 17.9739 20.7126V21.5096H17.1569C16.9402 21.5096 16.7324 21.5936 16.5792 21.7431C16.4259 21.8926 16.3398 22.0953 16.3398 22.3067C16.3398 22.5181 16.4259 22.7208 16.5792 22.8703C16.7324 23.0198 16.9402 23.1037 17.1569 23.1037H17.9739V23.9008C17.9739 24.1122 18.06 24.3149 18.2133 24.4644C18.3665 24.6139 18.5743 24.6978 18.791 24.6978C19.0077 24.6978 19.2155 24.6139 19.3687 24.4644C19.522 24.3149 19.6081 24.1122 19.6081 23.9008V23.1037H20.4251C20.6418 23.1037 20.8496 23.0198 21.0029 22.8703C21.1561 22.7208 21.2422 22.5181 21.2422 22.3067ZM30.2297 32.6683C30.4464 32.6683 30.6543 32.5844 30.8075 32.4349C30.9607 32.2854 31.0468 32.0827 31.0468 31.8713V31.0742H31.8638C32.0805 31.0742 32.2884 30.9903 32.4416 30.8408C32.5948 30.6913 32.6809 30.4886 32.6809 30.2772C32.6809 30.0658 32.5948 29.8631 32.4416 29.7136C32.2884 29.5641 32.0805 29.4801 31.8638 29.4801H31.0468V28.6831C31.0468 28.4717 30.9607 28.269 30.8075 28.1195C30.6543 27.97 30.4464 27.886 30.2297 27.886C30.013 27.886 29.8052 27.97 29.652 28.1195C29.4988 28.269 29.4127 28.4717 29.4127 28.6831V29.4801H28.5956C28.3789 29.4801 28.1711 29.5641 28.0179 29.7136C27.8647 29.8631 27.7786 30.0658 27.7786 30.2772C27.7786 30.4886 27.8647 30.6913 28.0179 30.8408C28.1711 30.9903 28.3789 31.0742 28.5956 31.0742H29.4127V31.8713C29.4127 32.0827 29.4988 32.2854 29.652 32.4349C29.8052 32.5844 30.013 32.6683 30.2297 32.6683Z" fill="black"/>
  <path d="M13.7018 18.0208L14.6243 16.2306L16.4594 15.3355C16.7309 15.2031 16.9592 14.9996 17.1188 14.7478C17.2784 14.4959 17.3629 14.2057 17.3629 13.9096C17.3629 13.6135 17.2784 13.3233 17.1188 13.0714C16.9592 12.8196 16.7309 12.616 16.4594 12.4837L14.6243 11.5886L13.7059 9.79842C13.5702 9.53357 13.3616 9.31082 13.1034 9.15514C12.8453 8.99946 12.5477 8.91699 12.2442 8.91699C11.9407 8.91699 11.6432 8.99946 11.385 9.15514C11.1268 9.31082 10.9182 9.53357 10.7825 9.79842L9.86088 11.5886L8.0266 12.4837C7.7551 12.616 7.52676 12.8196 7.36717 13.0714C7.20758 13.3233 7.12305 13.6135 7.12305 13.9096C7.12305 14.2057 7.20758 14.4959 7.36717 14.7478C7.52676 14.9996 7.7551 15.2031 8.0266 15.3355L9.8617 16.2306L10.7792 18.0208C10.9149 18.2856 11.1236 18.5084 11.3817 18.6641C11.6399 18.8197 11.9374 18.9022 12.241 18.9022C12.5445 18.9022 12.842 18.8197 13.1002 18.6641C13.3583 18.5084 13.5661 18.2856 13.7018 18.0208ZM12.2401 17.3082L11.3226 15.5172C11.1639 15.2094 10.9078 14.9595 10.5921 14.8047L8.75704 13.9096L10.5921 13.0145C10.9078 12.8594 11.1639 12.6093 11.3226 12.3012L12.2401 10.5102L13.1577 12.3004C13.3169 12.6083 13.5733 12.8584 13.8889 13.0137L15.729 13.9064L13.8889 14.8047C13.5733 14.9597 13.3169 15.2095 13.1577 15.5172L12.2401 17.3082ZM12.7271 32.7104L14.0172 33.34L14.6627 34.5978C14.7984 34.8626 15.007 35.0854 15.2652 35.2411C15.5234 35.3968 15.8209 35.4792 16.1244 35.4792C16.4279 35.4792 16.7254 35.3968 16.9836 35.2411C17.2418 35.0854 17.4504 34.8626 17.5861 34.5978L18.2316 33.3393L19.5217 32.7096C19.7932 32.5772 20.0215 32.3737 20.1811 32.1218C20.3407 31.87 20.4253 31.5798 20.4253 31.2837C20.4253 30.9876 20.3407 30.6973 20.1811 30.4455C20.0215 30.1936 19.7932 29.9901 19.5217 29.8577L18.2316 29.2289L17.5861 27.9695C17.4504 27.7047 17.2418 27.4819 16.9836 27.3263C16.7254 27.1706 16.4279 27.0881 16.1244 27.0881C15.8209 27.0881 15.5234 27.1706 15.2652 27.3263C15.007 27.4819 14.7984 27.7047 14.6627 27.9695L14.018 29.2297L12.7263 29.8585C12.4548 29.9909 12.2264 30.1944 12.0669 30.4463C11.9073 30.6981 11.8227 30.9884 11.8227 31.2845C11.8227 31.5805 11.9073 31.8708 12.0669 32.1226C12.2264 32.3745 12.4556 32.578 12.7271 32.7104ZM14.7501 30.6548C15.0658 30.5006 15.3216 30.2505 15.4789 29.9422L16.1244 28.6829L16.7699 29.9422C16.927 30.2527 17.1838 30.5046 17.5011 30.6596L18.7962 31.2861H18.7913L17.5011 31.9157C17.1851 32.0703 16.9287 32.3202 16.7699 32.6283L16.1244 33.8868L15.4789 32.6283C15.3205 32.3202 15.0643 32.0703 14.7485 31.9157L13.4575 31.2861L14.7501 30.6548ZM33.0464 20.9236L34.8619 20.0373C35.1886 19.878 35.4634 19.6331 35.6554 19.33C35.8475 19.0269 35.9492 18.6776 35.9492 18.3213C35.9492 17.9649 35.8475 17.6157 35.6554 17.3126C35.4634 17.0095 35.1886 16.7645 34.8619 16.6052L33.0447 15.7181C32.981 15.6872 32.9294 15.6368 32.8977 15.5746L31.9891 13.8028C31.8258 13.4841 31.5747 13.216 31.264 13.0287C30.9533 12.8413 30.5953 12.7421 30.23 12.7421C29.8647 12.7421 29.5067 12.8413 29.196 13.0287C28.8853 13.216 28.6342 13.4841 28.4709 13.8028L27.5623 15.5746C27.5303 15.6374 27.4781 15.6881 27.4136 15.7189L25.5981 16.6052C25.2714 16.7645 24.9966 17.0095 24.8046 17.3126C24.6125 17.6157 24.5108 17.9649 24.5108 18.3213C24.5108 18.6776 24.6125 19.0269 24.8046 19.33C24.9966 19.6331 25.2714 19.878 25.5981 20.0373L27.4153 20.9244C27.479 20.9553 27.5306 21.0057 27.5623 21.0679L28.4709 22.8397C28.6342 23.1585 28.8853 23.4265 29.196 23.6139C29.5067 23.8012 29.8647 23.9004 30.23 23.9004C30.5953 23.9004 30.9533 23.8012 31.264 23.6139C31.5747 23.4265 31.8258 23.1585 31.9891 22.8397L32.8977 21.0679C32.9297 21.0052 32.9819 20.9545 33.0464 20.9236ZM31.436 20.3553L30.5274 22.1264C30.4994 22.1798 30.4568 22.2246 30.4043 22.2559C30.3518 22.2872 30.2915 22.3037 30.23 22.3037C30.1685 22.3037 30.1082 22.2872 30.0557 22.2559C30.0032 22.2246 29.9606 22.1798 29.9326 22.1264L29.024 20.3553C28.8334 19.9845 28.525 19.6836 28.1449 19.4977L26.3286 18.6114C26.2738 18.584 26.2279 18.5425 26.1958 18.4913C26.1638 18.4401 26.1468 18.3813 26.1468 18.3213C26.1468 18.2613 26.1638 18.2024 26.1958 18.1512C26.2279 18.1001 26.2738 18.0585 26.3286 18.0311L28.1432 17.1456C28.5241 16.9597 28.833 16.6585 29.024 16.2872L29.9326 14.5162C29.9608 14.463 30.0035 14.4184 30.056 14.3873C30.1084 14.3562 30.1686 14.3398 30.23 14.3398C30.2914 14.3398 30.3516 14.3562 30.404 14.3873C30.4565 14.4184 30.4992 14.463 30.5274 14.5162L31.436 16.2872C31.6266 16.6581 31.935 16.9589 32.3151 17.1448L34.1314 18.0311C34.1859 18.0587 34.2316 18.1003 34.2635 18.1515C34.2954 18.2027 34.3123 18.2614 34.3123 18.3213C34.3123 18.3811 34.2954 18.4399 34.2635 18.491C34.2316 18.5422 34.1859 18.5838 34.1314 18.6114L32.3168 19.4969C31.9359 19.6829 31.627 19.984 31.436 20.3553Z" fill="black"/>
</svg>