<svg width="27" height="27" viewBox="0 0 27 27" fill="none" xmlns="http://www.w3.org/2000/svg">
<path d="M25.8768 16.5026C25.453 16.1161 25.117 15.6565 24.8883 15.1503C24.6595 14.6441 24.5425 14.1013 24.5441 13.5534V10.1229C24.5441 7.43813 23.3805 4.86333 21.3092 2.96492C19.2379 1.06652 16.4286 0 13.4994 0C10.5701 0 7.76088 1.06652 5.6896 2.96492C3.61831 4.86333 2.45468 7.43813 2.45468 10.1229V13.5534C2.45624 14.1013 2.33926 14.6441 2.1105 15.1503C1.88174 15.6565 1.54574 16.1161 1.12195 16.5026C0.586245 16.9935 0.221419 17.619 0.0736113 18.3C-0.0741967 18.981 0.00165173 19.6868 0.291564 20.3283C0.581477 20.9698 1.07243 21.5181 1.70233 21.9038C2.33224 22.2895 3.0728 22.4954 3.83036 22.4953H7.48615C7.76781 23.7666 8.52034 24.9096 9.61624 25.7305C10.7121 26.5515 12.084 27 13.4994 27C14.9148 27 16.2866 26.5515 17.3825 25.7305C18.4784 24.9096 19.231 23.7666 19.5126 22.4953H23.1696C23.9272 22.4954 24.6678 22.2895 25.2977 21.9038C25.9276 21.5181 26.4185 20.9698 26.7084 20.3283C26.9983 19.6868 27.0742 18.981 26.9264 18.3C26.7786 17.619 26.4125 16.9935 25.8768 16.5026ZM13.4994 24.7448C12.7407 24.7419 12.0014 24.5243 11.3829 24.1216C10.7643 23.7189 10.2965 23.1509 10.0436 22.4953H16.9552C16.7022 23.1509 16.2345 23.7189 15.6159 24.1216C14.9973 24.5243 14.2581 24.7419 13.4994 24.7448ZM23.1684 20.2458H3.83036C3.55815 20.2459 3.29202 20.1721 3.06564 20.0335C2.83926 19.895 2.66281 19.698 2.55862 19.4675C2.45443 19.237 2.42719 18.9834 2.48034 18.7387C2.53348 18.494 2.66464 18.2693 2.85719 18.093C3.50963 17.4982 4.0269 16.7907 4.3791 16.0115C4.7313 15.2323 4.91142 14.3968 4.90906 13.5534V10.1229C4.90906 8.03474 5.81411 6.03212 7.42511 4.55558C9.0361 3.07904 11.2211 2.24953 13.4994 2.24953C15.7777 2.24953 17.9627 3.07904 19.5737 4.55558C21.1847 6.03212 22.0897 8.03474 22.0897 10.1229V13.5534C22.0873 14.3968 22.2675 15.2323 22.6197 16.0115C22.9719 16.7907 23.4891 17.4982 24.1416 18.093C24.3341 18.2693 24.4653 18.494 24.5184 18.7387C24.5716 18.9834 24.5443 19.237 24.4402 19.4675C24.336 19.698 24.1595 19.895 23.9331 20.0335C23.7068 20.1721 23.4406 20.2459 23.1684 20.2458Z" fill="black"/>
</svg>
