<svg xmlns="http://www.w3.org/2000/svg" width="24" height="21" viewBox="0 0 24 21" fill="none">
  <path d="M3.49676 0.85C2.02579 0.85 0.85 2.13177 0.85 3.68726C0.85 3.95122 1.05156 4.18405 1.32242 4.18405H5.19867V17.3127C5.19867 18.8682 6.37419 20.15 7.84518 20.15H20.5035C21.9745 20.15 23.15 18.8682 23.15 17.3127C23.15 17.0489 22.9488 16.8159 22.6778 16.8159H18.8016V3.68726C18.8016 2.13179 17.6261 0.85 16.1551 0.85H3.49676ZM6.14327 3.68726C6.14327 2.98504 5.9046 2.34056 5.50809 1.84385H16.1551C17.084 1.84385 17.857 2.6594 17.857 3.68726V16.8159H10.0195C9.74833 16.8159 9.54709 17.0489 9.54709 17.3127C9.54709 18.3406 8.77415 19.1561 7.84518 19.1561C6.91621 19.1561 6.14327 18.3406 6.14327 17.3127V3.68726ZM20.5035 19.1561H9.85644C10.1575 18.7793 10.3675 18.3175 10.4513 17.8098H10.4555H10.4631H10.471H10.479H10.4872H10.4956H10.5042H10.513H10.522H10.5312H10.5406H10.5501H10.5599H10.5699H10.58H10.5904H10.6009H10.6116H10.6225H10.6336H10.6449H10.6563H10.668H10.6798H10.6918H10.704H10.7163H10.7289H10.7416H10.7545H10.7676H10.7809H10.7943H10.8079H10.8217H10.8357H10.8498H10.8641H10.8786H10.8932H10.908H10.923H10.9381H10.9535H10.9689H10.9846H11.0004H11.0164H11.0325H11.0488H11.0653H11.0819H11.0987H11.1156H11.1327H11.15H11.1674H11.1849H11.2027H11.2205H11.2386H11.2567H11.2751H11.2936H11.3122H11.331H11.3499H11.369H11.3882H11.4076H11.4271H11.4468H11.4666H11.4865H11.5066H11.5268H11.5472H11.5677H11.5884H11.6092H11.6301H11.6511H11.6723H11.6937H11.7151H11.7367H11.7585H11.7803H11.8023H11.8244H11.8467H11.8691H11.8916H11.9142H11.937H11.9599H11.9829H12.006H12.0293H12.0526H12.0761H12.0997H12.1235H12.1473H12.1713H12.1954H12.2196H12.2439H12.2684H12.2929H12.3176H12.3424H12.3673H12.3923H12.4174H12.4426H12.4679H12.4933H12.5189H12.5445H12.5703H12.5961H12.6221H12.6482H12.6743H12.7006H12.7269H12.7534H12.78H12.8066H12.8334H12.8602H12.8872H12.9142H12.9414H12.9686H12.9959H13.0233H13.0508H13.0784H13.1061H13.1339H13.1617H13.1897H13.2177H13.2458H13.274H13.3023H13.3307H13.3591H13.3876H13.4163H13.4449H13.4737H13.5025H13.5315H13.5605H13.5895H13.6187H13.6479H13.6772H13.7066H13.736H13.7655H13.7951H13.8247H13.8544H13.8842H13.9141H13.944H13.9739H14.004H14.0341H14.0642H14.0945H14.1248H14.1551H14.1855H14.216H14.2465H14.2771H14.3077H14.3384H14.3692H14.4H14.4308H14.4617H14.4927H14.5237H14.5547H14.5858H14.617H14.6482H14.6794H14.7107H14.7421H14.7734H14.8049H14.8363H14.8678H14.8994H14.931H14.9626H14.9943H15.026H15.0577H15.0895H15.1213H15.1531H15.185H15.2169H15.2488H15.2808H15.3128H15.3449H15.3769H15.409H15.4411H15.4733H15.5054H15.5376H15.5698H15.6021H15.6343H15.6666H15.6989H15.7312H15.7636H15.7959H15.8283H15.8607H15.8931H15.9256H15.958H15.9904H16.0229H16.0554H16.0879H16.1204H16.1529H16.1854H16.2179H16.2505H16.283H16.3155H16.3481H16.3806H16.4132H16.4457H16.4783H16.5109H16.5434H16.576H16.6085H16.6411H16.6736H16.7062H16.7387H16.7712H16.8038H16.8363H16.8688H16.9013H16.9338H16.9663H16.9987H17.0312H17.0636H17.0961H17.1285H17.1609H17.1933H17.2256H17.258H17.2903H17.3226H17.3549H17.3872H17.4194H17.4516H17.4838H17.516H17.5482H17.5803H17.6124H17.6445H17.6765H17.7085H17.7405H17.7724H17.8044H17.8362H17.8681H17.8999H17.9317H17.9635H17.9952H18.0268H18.0585H18.0901H18.1216H18.1532H18.1846H18.2161H18.2475H18.2788H18.3101H18.3414H18.3726H18.4037H18.4349H18.4659H18.497H18.5279H18.5588H18.5897H18.6205H18.6513H18.682H18.7127H18.7433H18.7738H18.8043H18.8347H18.8651H18.8954H18.9256H18.9558H18.9859H19.016H19.046H19.0759H19.1058H19.1356H19.1653H19.195H19.2246H19.2541H19.2836H19.3129H19.3423H19.3715H19.4007H19.4298H19.4588H19.4877H19.5166H19.5454H19.5741H19.6027H19.6313H19.6597H19.6881H19.7164H19.7447H19.7728H19.8009H19.8288H19.8567H19.8845H19.9122H19.9398H19.9674H19.9948H20.0222H20.0494H20.0766H20.1037H20.1306H20.1575H20.1843H20.211H20.2376H20.2641H20.2905H20.3168H20.343H20.369H20.395H20.4209H20.4467H20.4724H20.498H20.5234H20.5488H20.574H20.5992H20.6242H20.6491H20.6739H20.6986H20.7232H20.7477H20.7721H20.7963H20.8204H20.8444H20.8683H20.8921H20.9158H20.9393H20.9627H20.986H21.0092H21.0322H21.0551H21.0779H21.1006H21.1232H21.1456H21.1679H21.19H21.2121H21.234H21.2557H21.2774H21.2989H21.3203H21.3415H21.3626H21.3836H21.4044H21.4251H21.4456H21.466H21.4863H21.5064H21.5264H21.5463H21.566H21.5856H21.605H21.6242H21.6434H21.6623H21.6812H21.6998H21.7184H21.7368H21.755H21.7731H21.791H21.8088H21.8264H21.8438H21.8611H21.8783H21.8953H21.9121H21.9288H21.9453H21.9616H21.9778H21.9938H22.0097H22.0254H22.0409H22.0563H22.0715H22.0865H22.1014H22.1161H22.1306H22.1429C21.941 18.5923 21.2769 19.1561 20.5035 19.1561ZM3.49676 1.84385C4.26992 1.84385 4.93401 2.40745 5.13592 3.1902H1.85735C2.05928 2.40765 2.72338 1.84385 3.49676 1.84385Z" fill="black" stroke="black" stroke-width="0.3"/>
</svg>