<svg xmlns="http://www.w3.org/2000/svg" width="22" height="21" viewBox="0 0 22 21" fill="none">
  <path d="M21.6386 18.9989L17.4844 15.0452C18.8247 13.4152 19.552 11.4024 19.5493 9.33033C19.5493 7.48497 18.976 5.68104 17.9019 4.14668C16.8279 2.61231 15.3013 1.41642 13.5152 0.710233C11.7291 0.00404265 9.76379 -0.180729 7.8677 0.179284C5.9716 0.539296 4.22993 1.42792 2.86293 2.73279C1.49592 4.03766 0.564977 5.70017 0.187821 7.51007C-0.189335 9.31998 0.00423516 11.196 0.744053 12.9009C1.48387 14.6058 2.73671 16.063 4.34414 17.0882C5.95157 18.1134 7.84139 18.6607 9.77463 18.6607C11.9454 18.6632 14.054 17.969 15.7616 16.6896L19.9036 20.655C20.0172 20.7643 20.1523 20.8511 20.3012 20.9103C20.4501 20.9695 20.6098 21 20.7711 21C20.9324 21 21.0921 20.9695 21.241 20.9103C21.3899 20.8511 21.525 20.7643 21.6386 20.655C21.7531 20.5466 21.844 20.4176 21.906 20.2755C21.9681 20.1334 22 19.9809 22 19.8269C22 19.673 21.9681 19.5205 21.906 19.3784C21.844 19.2363 21.7531 19.1073 21.6386 18.9989ZM2.44366 9.33033C2.44366 7.94631 2.87362 6.59337 3.67915 5.44259C4.48469 4.29182 5.62963 3.3949 6.96919 2.86526C8.30875 2.33561 9.78276 2.19704 11.2048 2.46705C12.6269 2.73705 13.9332 3.40353 14.9584 4.38218C15.9837 5.36083 16.6819 6.60771 16.9647 7.96514C17.2476 9.32257 17.1024 10.7296 16.5476 12.0083C15.9927 13.2869 15.0531 14.3798 13.8475 15.1487C12.6419 15.9177 11.2246 16.3281 9.77463 16.3281C7.83034 16.3281 5.96568 15.5908 4.59085 14.2785C3.21603 12.9662 2.44366 11.1862 2.44366 9.33033Z" fill="black"/>
</svg>