<svg width="59" height="65" viewBox="0 0 59 65" fill="none" xmlns="http://www.w3.org/2000/svg">
<path d="M58.2605 54.4963C57.3903 50.444 55.7772 46.6164 53.5147 43.235C51.2522 39.8536 48.3851 36.9855 45.0793 34.7966C47.316 31.6694 48.6902 27.9356 49.0467 24.0171C49.4033 20.0986 48.7279 16.1515 47.0969 12.6219C45.4659 9.09224 42.9443 6.1207 39.8171 4.043C36.6898 1.96531 33.0814 0.864258 29.3997 0.864258C25.718 0.864258 22.1097 1.96531 18.9824 4.043C15.8551 6.1207 13.3335 9.09224 11.7025 12.6219C10.0715 16.1515 9.39617 20.0986 9.7527 24.0171C10.1092 27.9356 11.4835 31.6694 13.7202 34.7966C10.4115 36.9818 7.54192 39.8484 5.27824 43.2298C3.01456 46.6112 1.4019 50.44 0.533975 54.4937C0.2803 55.6628 0.277731 56.8783 0.52646 58.0487C0.775189 59.2191 1.26875 60.314 1.97004 61.2511C2.65935 62.1845 3.53788 62.9383 4.53935 63.4557C5.54083 63.9731 6.6391 64.2406 7.75134 64.2379H51.0308C52.1431 64.2406 53.2413 63.9731 54.2428 63.4557C55.2443 62.9383 56.1228 62.1845 56.8121 61.2511C57.5155 60.3156 58.0113 59.2217 58.2622 58.0517C58.5131 56.8817 58.5125 55.666 58.2605 54.4963ZM29.3911 6.18912C32.3192 6.18912 35.1816 7.11762 37.6162 8.8572C40.0509 10.5968 41.9484 13.0693 43.069 15.9622C44.1895 18.855 44.4827 22.0382 43.9115 25.1092C43.3402 28.1802 41.9302 31.0011 39.8597 33.2152C37.7892 35.4292 35.1512 36.9371 32.2794 37.5479C29.4075 38.1588 26.4307 37.8453 23.7255 36.647C21.0203 35.4488 18.7081 33.4196 17.0813 30.8161C15.4545 28.2127 14.5862 25.1518 14.5862 22.0206C14.5902 17.8231 16.1512 13.7988 18.9268 10.8307C21.7024 7.86261 25.4658 6.19331 29.3911 6.18912ZM52.953 57.966C52.7249 58.2778 52.4331 58.5296 52.0999 58.7021C51.7667 58.8745 51.401 58.963 51.0308 58.9608H7.75134C7.38117 58.963 7.01545 58.8745 6.68225 58.7021C6.34905 58.5296 6.05723 58.2778 5.82917 57.966C5.59052 57.6479 5.42217 57.2762 5.33672 56.8787C5.25127 56.4812 5.25091 56.0681 5.33568 55.6705C6.1016 52.0958 7.56284 48.7336 9.62428 45.8027C11.6857 42.8718 14.3012 40.438 17.3005 38.6595C20.7543 41.5571 25.0173 43.1319 29.4071 43.1319C33.797 43.1319 38.06 41.5571 41.5138 38.6595C44.5064 40.4452 47.1152 42.8827 49.1715 45.8143C51.2279 48.7459 52.6859 52.1063 53.4514 55.6784C53.5347 56.0752 53.5331 56.4871 53.4468 56.8832C53.3605 57.2793 53.1917 57.6494 52.953 57.966Z" fill="#1D1D1B"/>
</svg>
