<svg width="194" height="92" viewBox="0 0 194 92" fill="none" xmlns="http://www.w3.org/2000/svg">
<rect x="1.5" y="1.5" width="191" height="89" rx="8.5" fill="#1D1D1B" stroke="black" stroke-width="3"/>
<path d="M40.6878 69.184L41.2398 69.04C41.6238 68.944 41.8958 68.816 42.0558 68.656C42.2318 68.496 42.3198 68.272 42.3198 67.984C42.3198 67.728 42.2318 67.336 42.0558 66.808L40.9038 63.448H35.3598L34.7838 65.2C34.4158 66.304 34.2318 67.144 34.2318 67.72C34.2318 68.264 34.3438 68.752 34.5678 69.184L34.7838 69.616L34.3278 70H29.9118L29.6238 69.184L30.1758 69.04C30.8158 68.864 31.2798 68.632 31.5678 68.344C31.8558 68.056 32.1278 67.544 32.3838 66.808L36.1518 55.96C36.3278 55.432 36.4158 55.04 36.4158 54.784C36.4158 54.496 36.3278 54.272 36.1518 54.112C35.9918 53.952 35.7198 53.824 35.3358 53.728L34.7838 53.584L35.0718 52.768H39.7038L44.5278 66.688C44.7838 67.424 45.0638 67.984 45.3678 68.368C45.6718 68.752 46.1118 69.168 46.6878 69.616L46.3758 70H40.9758L40.6878 69.184ZM35.8638 61.96H40.3998L38.0958 55.24L35.8638 61.96ZM49.5691 58.072C49.5691 55.944 49.9451 54.272 50.6971 53.056C51.4491 51.84 52.5611 51.232 54.0331 51.232C55.0731 51.232 55.9291 51.48 56.6011 51.976C57.2731 52.472 57.6091 53.112 57.6091 53.896C57.6091 54.584 57.3851 55.152 56.9371 55.6C56.5051 56.032 55.9451 56.248 55.2571 56.248C54.9531 56.248 54.8011 56.16 54.8011 55.984C54.8011 55.936 54.8571 55.824 54.9691 55.648C55.0811 55.472 55.1771 55.256 55.2571 55C55.3371 54.744 55.3771 54.416 55.3771 54.016C55.3771 53.504 55.2331 53.096 54.9451 52.792C54.6571 52.472 54.2651 52.312 53.7691 52.312C53.0651 52.312 52.5451 52.664 52.2091 53.368C51.8891 54.056 51.7291 55.016 51.7291 56.248V58.072H55.0891C55.0891 58.408 55.0411 58.712 54.9451 58.984C54.8491 59.256 54.7131 59.456 54.5371 59.584H51.7291V70.312C51.7291 71.976 51.3611 73.288 50.6251 74.248C49.9051 75.224 48.8331 75.712 47.4091 75.712C46.5451 75.712 45.8331 75.488 45.2731 75.04C44.7131 74.608 44.4331 74.016 44.4331 73.264C44.4331 72.656 44.6571 72.144 45.1051 71.728C45.5531 71.312 46.1131 71.104 46.7851 71.104C47.0891 71.104 47.2411 71.192 47.2411 71.368C47.2411 71.416 47.1771 71.52 47.0491 71.68C46.9211 71.856 46.8091 72.048 46.7131 72.256C46.6171 72.48 46.5691 72.76 46.5691 73.096C46.5691 73.592 46.6971 73.976 46.9531 74.248C47.1931 74.536 47.5051 74.68 47.8891 74.68C48.3691 74.68 48.7691 74.464 49.0891 74.032C49.4091 73.616 49.5691 72.992 49.5691 72.16V59.584H47.4571C47.4571 59.152 47.4891 58.872 47.5531 58.744C47.6171 58.616 47.7771 58.52 48.0331 58.456L49.5691 58.072ZM57.5848 58.072C57.5848 55.944 57.9608 54.272 58.7128 53.056C59.4648 51.84 60.5768 51.232 62.0488 51.232C63.0888 51.232 63.9448 51.48 64.6168 51.976C65.2888 52.472 65.6248 53.112 65.6248 53.896C65.6248 54.584 65.4008 55.152 64.9528 55.6C64.5208 56.032 63.9608 56.248 63.2728 56.248C62.9688 56.248 62.8168 56.16 62.8168 55.984C62.8168 55.936 62.8728 55.824 62.9848 55.648C63.0968 55.472 63.1928 55.256 63.2728 55C63.3528 54.744 63.3928 54.416 63.3928 54.016C63.3928 53.504 63.2488 53.096 62.9608 52.792C62.6728 52.472 62.2808 52.312 61.7848 52.312C61.0808 52.312 60.5608 52.664 60.2248 53.368C59.9048 54.056 59.7448 55.016 59.7448 56.248V58.072H63.1048C63.1048 58.408 63.0568 58.712 62.9608 58.984C62.8648 59.256 62.7288 59.456 62.5528 59.584H59.7448V70.312C59.7448 71.976 59.3768 73.288 58.6408 74.248C57.9208 75.224 56.8488 75.712 55.4248 75.712C54.5608 75.712 53.8487 75.488 53.2887 75.04C52.7287 74.608 52.4487 74.016 52.4487 73.264C52.4487 72.656 52.6727 72.144 53.1207 71.728C53.5687 71.312 54.1287 71.104 54.8007 71.104C55.1047 71.104 55.2568 71.192 55.2568 71.368C55.2568 71.416 55.1928 71.52 55.0648 71.68C54.9367 71.856 54.8247 72.048 54.7287 72.256C54.6327 72.48 54.5847 72.76 54.5847 73.096C54.5847 73.592 54.7127 73.976 54.9688 74.248C55.2088 74.536 55.5208 74.68 55.9048 74.68C56.3848 74.68 56.7848 74.464 57.1048 74.032C57.4248 73.616 57.5848 72.992 57.5848 72.16V59.584H55.4728C55.4728 59.152 55.5048 58.872 55.5688 58.744C55.6328 58.616 55.7928 58.52 56.0488 58.456L57.5848 58.072ZM65.1924 54.208C65.1924 53.904 65.3604 53.568 65.6964 53.2C66.0484 52.816 66.3684 52.624 66.6564 52.624C66.9604 52.624 67.2884 52.808 67.6404 53.176C67.9924 53.544 68.1684 53.888 68.1684 54.208C68.1684 54.512 67.9924 54.848 67.6404 55.216C67.2884 55.584 66.9604 55.768 66.6564 55.768C66.3844 55.768 66.0724 55.584 65.7204 55.216C65.3684 54.848 65.1924 54.512 65.1924 54.208ZM67.7364 67.888C67.7364 68.432 67.9764 68.704 68.4564 68.704C68.8564 68.704 69.2564 68.536 69.6564 68.2L70.1124 68.824C69.6964 69.288 69.2484 69.656 68.7684 69.928C68.2884 70.2 67.8404 70.336 67.4244 70.336C66.7684 70.336 66.2964 70.136 66.0084 69.736C65.7204 69.336 65.5764 68.688 65.5764 67.792V60.352C65.5764 60.16 65.5364 60.024 65.4564 59.944C65.3924 59.864 65.2724 59.824 65.0964 59.824H64.0404L63.8244 59.2C64.2884 58.784 64.8164 58.44 65.4084 58.168C66.0004 57.896 66.5284 57.76 66.9924 57.76C67.2164 57.76 67.4004 57.832 67.5444 57.976C67.6884 58.12 67.7604 58.304 67.7604 58.528L67.7364 67.888ZM75.5009 61.336C75.7729 60.264 76.1889 59.4 76.7489 58.744C77.3249 58.088 77.9489 57.76 78.6209 57.76C79.2929 57.76 79.8449 57.984 80.2769 58.432C80.7249 58.864 80.9489 59.456 80.9489 60.208C80.9489 60.816 80.7249 61.328 80.2769 61.744C79.8289 62.16 79.2689 62.368 78.5969 62.368C78.2929 62.368 78.1409 62.28 78.1409 62.104C78.1409 62.056 78.2049 61.936 78.3329 61.744C78.4769 61.552 78.5889 61.352 78.6689 61.144C78.7649 60.936 78.8129 60.704 78.8129 60.448C78.8129 60.16 78.7329 59.936 78.5729 59.776C78.4289 59.6 78.2449 59.512 78.0209 59.512C77.6369 59.512 77.2369 59.744 76.8209 60.208C76.4209 60.656 76.0769 61.392 75.7889 62.416C75.5009 63.424 75.3569 64.704 75.3569 66.256C75.3569 66.976 75.4129 67.56 75.5249 68.008C75.6369 68.44 75.8369 68.856 76.1249 69.256L76.4129 69.64L76.1249 70H71.9249L71.6609 69.256L72.1649 69.136C72.5649 69.04 72.8289 68.872 72.9569 68.632C73.1009 68.376 73.1729 67.944 73.1729 67.336V60.592C73.1729 60.4 73.1329 60.264 73.0529 60.184C72.9889 60.104 72.8689 60.064 72.6929 60.064H71.6369L71.4209 59.44C71.8849 59.024 72.4129 58.68 73.0049 58.408C73.6129 58.136 74.1409 58 74.5889 58C74.8129 58 74.9969 58.072 75.1409 58.216C75.2849 58.36 75.3569 58.544 75.3569 58.768V61.336H75.5009ZM85.8335 66.16C85.8335 66.912 85.8895 67.512 86.0015 67.96C86.1135 68.408 86.3135 68.84 86.6015 69.256L86.8895 69.64L86.6015 70H82.4015L82.1375 69.256L82.6415 69.136C83.0415 69.04 83.3055 68.872 83.4335 68.632C83.5775 68.376 83.6495 67.944 83.6495 67.336V60.592C83.6495 60.4 83.6095 60.264 83.5295 60.184C83.4655 60.104 83.3455 60.064 83.1695 60.064H82.1135L81.8975 59.44C82.3615 59.024 82.8895 58.68 83.4815 58.408C84.0895 58.136 84.6175 58 85.0655 58C85.2895 58 85.4735 58.072 85.6175 58.216C85.7615 58.36 85.8335 58.544 85.8335 58.768V61.336C86.2495 60.28 86.8575 59.424 87.6575 58.768C88.4575 58.096 89.2975 57.76 90.1775 57.76C91.1535 57.76 91.8895 58.048 92.3855 58.624C92.8815 59.2 93.1695 60.104 93.2495 61.336C93.6655 60.28 94.2735 59.424 95.0735 58.768C95.8735 58.096 96.7135 57.76 97.5935 57.76C98.6655 57.76 99.4415 58.104 99.9215 58.792C100.418 59.48 100.666 60.576 100.666 62.08V67.888C100.666 68.432 100.906 68.704 101.386 68.704C101.754 68.704 102.154 68.536 102.586 68.2L103.042 68.824C102.626 69.288 102.178 69.656 101.698 69.928C101.218 70.2 100.77 70.336 100.354 70.336C99.6975 70.336 99.2255 70.136 98.9375 69.736C98.6495 69.336 98.5055 68.688 98.5055 67.792V62.08C98.5055 60.448 97.9135 59.632 96.7295 59.632C96.0575 59.632 95.4655 59.896 94.9535 60.424C94.4415 60.936 94.0335 61.664 93.7295 62.608C93.4255 63.552 93.2655 64.64 93.2495 65.872V66.16C93.2495 66.992 93.3135 67.656 93.4415 68.152C93.5855 68.632 93.8735 69.128 94.3055 69.64L94.0175 70H91.0895V62.08C91.0895 60.448 90.4975 59.632 89.3135 59.632C88.6255 59.632 88.0175 59.904 87.4895 60.448C86.9775 60.992 86.5695 61.76 86.2655 62.752C85.9775 63.744 85.8335 64.88 85.8335 66.16ZM113.155 67.792C112.499 68.72 111.827 69.376 111.139 69.76C110.451 70.144 109.707 70.336 108.907 70.336C108.139 70.336 107.427 70.12 106.771 69.688C106.115 69.24 105.587 68.576 105.187 67.696C104.803 66.816 104.611 65.752 104.611 64.504C104.611 63.128 104.859 61.936 105.355 60.928C105.867 59.904 106.587 59.12 107.515 58.576C108.459 58.032 109.563 57.76 110.827 57.76C111.451 57.76 112.331 57.864 113.467 58.072C114.427 58.232 115.147 58.328 115.627 58.36L115.891 58.672L115.603 59.104C115.491 59.264 115.411 59.416 115.363 59.56C115.315 59.688 115.291 59.848 115.291 60.04V67.888C115.291 68.384 115.531 68.632 116.011 68.632C116.411 68.632 116.811 68.488 117.211 68.2L117.667 68.824C117.251 69.288 116.803 69.656 116.323 69.928C115.843 70.2 115.403 70.336 115.003 70.336C114.347 70.336 113.875 70.136 113.587 69.736C113.299 69.336 113.155 68.688 113.155 67.792ZM107.131 64.048C107.131 65.568 107.387 66.688 107.899 67.408C108.427 68.128 109.083 68.488 109.867 68.488C110.507 68.488 111.107 68.312 111.667 67.96C112.227 67.592 112.723 67.04 113.155 66.304V59.824C112.419 59.328 111.635 59.08 110.803 59.08C109.635 59.08 108.731 59.52 108.091 60.4C107.451 61.264 107.131 62.48 107.131 64.048ZM125.696 58.072C125.696 58.408 125.648 58.712 125.552 58.984C125.456 59.256 125.32 59.456 125.144 59.584H122.576V67.312C122.576 67.808 122.648 68.16 122.792 68.368C122.936 68.576 123.168 68.68 123.488 68.68C123.968 68.68 124.512 68.424 125.12 67.912L125.576 68.536C125.16 69.08 124.664 69.52 124.088 69.856C123.512 70.176 122.968 70.336 122.456 70.336C121.8 70.336 121.288 70.136 120.92 69.736C120.568 69.32 120.392 68.752 120.392 68.032V59.584H118.28C118.28 59.152 118.312 58.872 118.376 58.744C118.44 58.616 118.6 58.52 118.856 58.456C119.704 58.232 120.304 57.872 120.656 57.376C121.024 56.864 121.288 56.208 121.448 55.408C121.496 55.152 121.576 54.992 121.688 54.928C121.816 54.864 122.112 54.832 122.576 54.832V58.072H125.696ZM128.403 54.208C128.403 53.904 128.571 53.568 128.907 53.2C129.259 52.816 129.579 52.624 129.867 52.624C130.171 52.624 130.499 52.808 130.851 53.176C131.203 53.544 131.379 53.888 131.379 54.208C131.379 54.512 131.203 54.848 130.851 55.216C130.499 55.584 130.171 55.768 129.867 55.768C129.595 55.768 129.283 55.584 128.931 55.216C128.579 54.848 128.403 54.512 128.403 54.208ZM130.947 67.888C130.947 68.432 131.187 68.704 131.667 68.704C132.067 68.704 132.467 68.536 132.867 68.2L133.323 68.824C132.907 69.288 132.459 69.656 131.979 69.928C131.499 70.2 131.051 70.336 130.635 70.336C129.979 70.336 129.507 70.136 129.219 69.736C128.931 69.336 128.787 68.688 128.787 67.792V60.352C128.787 60.16 128.747 60.024 128.667 59.944C128.603 59.864 128.483 59.824 128.307 59.824H127.251L127.035 59.2C127.499 58.784 128.027 58.44 128.619 58.168C129.211 57.896 129.739 57.76 130.203 57.76C130.427 57.76 130.611 57.832 130.755 57.976C130.899 58.12 130.971 58.304 130.971 58.528L130.947 67.888ZM134.752 64.048C134.752 62.768 134.984 61.656 135.448 60.712C135.928 59.768 136.608 59.04 137.488 58.528C138.384 58.016 139.424 57.76 140.608 57.76C141.792 57.76 142.824 58.016 143.704 58.528C144.584 59.04 145.264 59.768 145.744 60.712C146.224 61.656 146.464 62.768 146.464 64.048C146.464 65.312 146.224 66.424 145.744 67.384C145.264 68.328 144.584 69.056 143.704 69.568C142.824 70.08 141.792 70.336 140.608 70.336C139.424 70.336 138.384 70.08 137.488 69.568C136.608 69.056 135.928 68.328 135.448 67.384C134.984 66.424 134.752 65.312 134.752 64.048ZM143.944 64.12C143.944 63.368 143.84 62.6 143.632 61.816C143.424 61.032 143.072 60.368 142.576 59.824C142.096 59.28 141.464 59.008 140.68 59.008C140.008 59.008 139.408 59.224 138.88 59.656C138.368 60.072 137.968 60.664 137.68 61.432C137.392 62.2 137.248 63.08 137.248 64.072C137.248 65.592 137.544 66.8 138.136 67.696C138.728 68.592 139.528 69.04 140.536 69.04C141.192 69.04 141.776 68.84 142.288 68.44C142.816 68.024 143.224 67.448 143.512 66.712C143.8 65.96 143.944 65.096 143.944 64.12ZM152.443 66.16C152.443 66.912 152.499 67.512 152.611 67.96C152.723 68.408 152.923 68.84 153.211 69.256L153.499 69.64L153.211 70H149.011L148.747 69.256L149.251 69.136C149.651 69.04 149.915 68.872 150.043 68.632C150.187 68.376 150.259 67.944 150.259 67.336V60.592C150.259 60.4 150.219 60.264 150.139 60.184C150.075 60.104 149.955 60.064 149.779 60.064H148.723L148.507 59.44C148.971 59.024 149.499 58.68 150.091 58.408C150.699 58.136 151.227 58 151.675 58C151.899 58 152.083 58.072 152.227 58.216C152.371 58.36 152.443 58.544 152.443 58.768V61.336C152.859 60.296 153.483 59.44 154.315 58.768C155.147 58.096 156.019 57.76 156.931 57.76C158.051 57.76 158.867 58.104 159.379 58.792C159.891 59.48 160.147 60.576 160.147 62.08V67.888C160.147 68.432 160.387 68.704 160.867 68.704C161.235 68.704 161.635 68.536 162.067 68.2L162.523 68.824C162.107 69.288 161.659 69.656 161.179 69.928C160.699 70.2 160.251 70.336 159.835 70.336C159.179 70.336 158.707 70.136 158.419 69.736C158.131 69.336 157.987 68.688 157.987 67.792V62.08C157.987 60.448 157.299 59.632 155.923 59.632C155.235 59.632 154.627 59.904 154.099 60.448C153.587 60.992 153.179 61.76 152.875 62.752C152.587 63.744 152.443 64.88 152.443 66.16Z" fill="#F2EDE7"/>
<path d="M98.4582 12.6486L98.46 12.6465C98.6751 12.3898 99.1483 12.4839 99.2115 12.8881C99.6262 15.6063 100.731 18.1543 102.375 20.3173V21.1658C99.8396 20.5225 97.5532 19.1747 95.7833 17.2782C96.417 15.5479 97.3237 13.9874 98.4582 12.6486ZM104.721 24.4198L105.25 24.4512V23.9206V20.4403C105.25 18.1259 107.125 16.2471 109.438 16.2471H115.191L113.678 19.2734L113.625 19.3789V19.497V28.8775C113.625 33.7805 109.654 37.7464 104.75 37.7464H100.245H100.059L99.9185 37.8673L96.0983 41.1544L96.0965 41.1559C95.8322 41.3856 95.4869 41.509 95.1493 41.4966C89.9018 41.2815 87.5203 38.7183 86.5733 37.2543C86.4046 36.9925 86.5422 36.6543 86.8319 36.5809C86.832 36.5809 86.8321 36.5809 86.8323 36.5808L95.2626 34.4718L96.2815 34.2169L95.4413 33.5867C94.7028 33.0329 93.9636 32.4309 93.2087 31.7046L93.2085 31.7044C90.297 28.9071 88.3759 25.1579 88.3759 21.1727C88.3759 18.8235 88.9092 16.5995 89.8513 14.6074L89.8515 14.6069C89.9939 14.3049 90.477 14.2765 90.6406 14.6472C93.0583 20.1597 98.4131 24.0452 104.721 24.4198ZM108 20.4403C108 21.232 108.646 21.8778 109.438 21.8778C110.229 21.8778 110.875 21.232 110.875 20.4403C110.875 19.6485 110.229 19.0028 109.438 19.0028C108.646 19.0028 108 19.6485 108 20.4403Z" fill="#DA9B3C" stroke="#1D1D1B"/>
</svg>
