<svg width="92" height="28" viewBox="0 0 92 28" fill="none" xmlns="http://www.w3.org/2000/svg">
<path d="M26.2596 21V20.118H26.5296C26.7576 20.118 26.9496 20.082 27.1056 20.01C27.2616 19.938 27.4056 19.806 27.5376 19.614C27.6696 19.422 27.8076 19.14 27.9516 18.768L31.8936 8.148H33.9456L37.8336 18.948C37.9416 19.26 38.0556 19.5 38.1756 19.668C38.3076 19.836 38.4516 19.956 38.6076 20.028C38.7756 20.088 38.9616 20.118 39.1656 20.118H39.4536V21H33.8916V20.118H34.4856C34.7256 20.118 34.9296 20.058 35.0976 19.938C35.2776 19.818 35.3676 19.626 35.3676 19.362C35.3676 19.278 35.3556 19.194 35.3316 19.11C35.3196 19.014 35.3016 18.93 35.2776 18.858C35.2656 18.774 35.2416 18.696 35.2056 18.624L34.5576 16.734H30.0396L29.4636 18.426C29.4276 18.522 29.3916 18.624 29.3556 18.732C29.3316 18.84 29.3076 18.948 29.2836 19.056C29.2716 19.164 29.2656 19.26 29.2656 19.344C29.2656 19.608 29.3556 19.806 29.5356 19.938C29.7156 20.058 29.9436 20.118 30.2196 20.118H30.8316V21H26.2596ZM30.3996 15.726H34.1976L33.1896 12.684C33.0936 12.384 32.9916 12.072 32.8836 11.748C32.7876 11.424 32.6916 11.106 32.5956 10.794C32.5116 10.482 32.4336 10.188 32.3616 9.912C32.3136 10.104 32.2536 10.308 32.1816 10.524C32.1216 10.74 32.0556 10.962 31.9836 11.19C31.9236 11.418 31.8516 11.652 31.7676 11.892C31.6956 12.12 31.6176 12.348 31.5336 12.576L30.3996 15.726ZM39.73 21V20.118H39.964C40.18 20.118 40.39 20.094 40.594 20.046C40.798 19.986 40.966 19.872 41.098 19.704C41.242 19.524 41.314 19.26 41.314 18.912V9.336C41.314 9 41.242 8.754 41.098 8.598C40.954 8.43 40.78 8.322 40.576 8.274C40.372 8.226 40.168 8.202 39.964 8.202H39.73V7.32H43.654V18.912C43.654 19.26 43.72 19.524 43.852 19.704C43.996 19.872 44.17 19.986 44.374 20.046C44.59 20.094 44.8 20.118 45.004 20.118H45.238V21H39.73ZM49.8628 21.18C49.0108 21.18 48.3568 20.97 47.9008 20.55C47.4568 20.13 47.2348 19.398 47.2348 18.354V12.504H45.8668V11.658C46.1908 11.658 46.4968 11.592 46.7848 11.46C47.0728 11.328 47.3128 11.166 47.5048 10.974C47.6848 10.77 47.8468 10.518 47.9908 10.218C48.1348 9.918 48.2488 9.552 48.3328 9.12H49.5748V11.352H51.8968V12.504H49.5748V18.264C49.5748 18.828 49.6768 19.248 49.8808 19.524C50.0968 19.788 50.4088 19.92 50.8168 19.92C51.0568 19.92 51.2728 19.908 51.4648 19.884C51.6688 19.848 51.8668 19.806 52.0588 19.758V20.784C51.8788 20.868 51.5908 20.952 51.1948 21.036C50.8108 21.132 50.3668 21.18 49.8628 21.18ZM52.7746 21V20.118H52.8646C53.1406 20.118 53.3806 20.088 53.5846 20.028C53.8006 19.968 53.9746 19.848 54.1066 19.668C54.2386 19.488 54.3046 19.218 54.3046 18.858L54.2866 9.336C54.2866 9 54.2146 8.754 54.0706 8.598C53.9266 8.43 53.7526 8.322 53.5486 8.274C53.3446 8.226 53.1406 8.202 52.9366 8.202H52.7386V7.32H56.6266V10.668C56.6266 10.944 56.6146 11.238 56.5906 11.55C56.5786 11.85 56.5606 12.114 56.5366 12.342C56.5246 12.558 56.5186 12.666 56.5186 12.666H56.6446C56.8606 12.246 57.1066 11.928 57.3826 11.712C57.6586 11.484 57.9586 11.334 58.2826 11.262C58.6186 11.178 58.9786 11.136 59.3626 11.136C60.3226 11.136 61.0666 11.412 61.5946 11.964C62.1346 12.516 62.4046 13.404 62.4046 14.628V18.84C62.4046 19.212 62.4526 19.488 62.5486 19.668C62.6566 19.848 62.8066 19.968 62.9986 20.028C63.1906 20.088 63.4186 20.118 63.6826 20.118H63.7366V21H60.0646V14.97C60.0646 14.19 59.9446 13.59 59.7046 13.17C59.4646 12.738 59.0386 12.522 58.4266 12.522C57.9946 12.522 57.6466 12.648 57.3826 12.9C57.1186 13.152 56.9266 13.494 56.8066 13.926C56.6866 14.358 56.6266 14.838 56.6266 15.366L56.6446 18.93C56.6446 19.278 56.6986 19.536 56.8066 19.704C56.9266 19.872 57.0886 19.986 57.2926 20.046C57.4966 20.094 57.7306 20.118 57.9946 20.118H58.0486V21H52.7746ZM69.6095 21.18C68.1695 21.18 67.0595 20.748 66.2795 19.884C65.5115 19.008 65.1275 17.79 65.1275 16.23C65.1275 14.55 65.4995 13.284 66.2435 12.432C66.9995 11.568 68.0555 11.136 69.4115 11.136C70.6715 11.136 71.6555 11.502 72.3635 12.234C73.0835 12.954 73.4435 14.028 73.4435 15.456V16.338H67.5035C67.5275 17.178 67.6355 17.862 67.8275 18.39C68.0315 18.906 68.3135 19.29 68.6735 19.542C69.0455 19.794 69.4955 19.92 70.0235 19.92C70.4435 19.92 70.8155 19.86 71.1395 19.74C71.4755 19.608 71.7635 19.44 72.0035 19.236C72.2435 19.02 72.4355 18.786 72.5795 18.534C72.7115 18.594 72.8135 18.696 72.8855 18.84C72.9695 18.972 73.0115 19.128 73.0115 19.308C73.0115 19.608 72.8855 19.902 72.6335 20.19C72.3935 20.478 72.0215 20.718 71.5175 20.91C71.0255 21.09 70.3895 21.18 69.6095 21.18ZM71.0495 15.258C71.0495 14.646 70.9955 14.112 70.8875 13.656C70.7795 13.2 70.6055 12.852 70.3655 12.612C70.1375 12.36 69.8255 12.234 69.4295 12.234C69.0455 12.234 68.7155 12.348 68.4395 12.576C68.1755 12.804 67.9655 13.146 67.8095 13.602C67.6655 14.046 67.5755 14.598 67.5395 15.258H71.0495ZM77.9011 21.18C77.3731 21.18 76.8931 21.078 76.4611 20.874C76.0411 20.658 75.7051 20.334 75.4531 19.902C75.2131 19.47 75.0931 18.924 75.0931 18.264C75.0931 17.304 75.4291 16.59 76.1011 16.122C76.7731 15.654 77.7871 15.396 79.1431 15.348L80.6371 15.294V14.268C80.6371 13.86 80.6071 13.5 80.5471 13.188C80.4871 12.864 80.3611 12.612 80.1691 12.432C79.9891 12.252 79.7011 12.162 79.3051 12.162C78.9451 12.162 78.6631 12.246 78.4591 12.414C78.2551 12.582 78.1171 12.816 78.0451 13.116C77.9731 13.404 77.9371 13.734 77.9371 14.106C77.2411 14.106 76.7191 14.022 76.3711 13.854C76.0231 13.674 75.8491 13.368 75.8491 12.936C75.8491 12.504 76.0051 12.156 76.3171 11.892C76.6411 11.628 77.0731 11.436 77.6131 11.316C78.1531 11.196 78.7411 11.136 79.3771 11.136C80.5771 11.136 81.4771 11.37 82.0771 11.838C82.6771 12.294 82.9771 13.086 82.9771 14.214V18.84C82.9771 19.164 83.0071 19.422 83.0671 19.614C83.1391 19.794 83.2591 19.926 83.4271 20.01C83.5951 20.082 83.8111 20.118 84.0751 20.118H84.1291V21H81.1411L80.7811 19.65H80.6371C80.3731 19.974 80.1211 20.25 79.8811 20.478C79.6531 20.706 79.3831 20.88 79.0711 21C78.7711 21.12 78.3811 21.18 77.9011 21.18ZM78.6751 19.938C79.0831 19.938 79.4311 19.842 79.7191 19.65C80.0071 19.458 80.2291 19.182 80.3851 18.822C80.5531 18.462 80.6371 18.042 80.6371 17.562V16.176L79.7011 16.23C79.1371 16.254 78.6931 16.35 78.3691 16.518C78.0571 16.686 77.8291 16.92 77.6851 17.22C77.5531 17.52 77.4871 17.892 77.4871 18.336C77.4871 18.696 77.5291 18.996 77.6131 19.236C77.6971 19.464 77.8291 19.638 78.0091 19.758C78.1891 19.878 78.4111 19.938 78.6751 19.938Z" fill="#F2EDE7"/>
<path d="M19.2 13.5915C19.2 8.73505 15.0643 4.8 10 4.8C4.93568 4.8 0.8 8.73505 0.8 13.5915C0.8 16.0138 1.85874 18.3225 3.67368 19.9703H3.09602C2.85684 19.9703 2.64723 20.1576 2.64723 20.4078V21.5145C2.07013 21.575 1.60736 22.0447 1.60736 22.6302V23.7625C1.60736 24.0127 1.81697 24.2 2.05615 24.2H17.9441C18.1833 24.2 18.3929 24.0127 18.3929 23.7625V22.6302C18.3929 22.0447 17.93 21.5749 17.3528 21.5145V20.4078C17.3528 20.1576 17.1432 19.9703 16.904 19.9703H16.3271C18.1413 18.3225 19.2 16.012 19.2 13.5915ZM17.2266 22.3829C17.3836 22.3829 17.4953 22.5027 17.4953 22.6302V23.325H2.50494V22.6302C2.50494 22.5027 2.61667 22.3829 2.77361 22.3829H17.2266ZM16.4552 20.8453V21.5079H3.54482V20.8453H16.4552ZM14.9179 19.9703H5.08224C2.95963 18.4797 1.69758 16.0985 1.69758 13.5915C1.69758 9.23512 5.41343 5.675 10 5.675C14.5866 5.675 18.3024 9.23512 18.3024 13.5915C18.3024 16.0968 17.0398 18.4803 14.9179 19.9703ZM14.8424 20.0359C14.8422 20.0361 14.8428 20.0354 14.8438 20.0342L14.843 20.0351L14.8424 20.0359Z" fill="#DA9B3C" stroke="#DA9B3C" stroke-width="0.4"/>
</svg>
