<svg width="396" height="67" viewBox="0 0 396 67" fill="none" xmlns="http://www.w3.org/2000/svg">
<rect x="11.5" y="0.5" width="384" height="66" rx="14.5" fill="#DA9B3C"/>
<rect x="11.5" y="0.5" width="384" height="66" rx="14.5" stroke="black"/>
<path d="M43.68 40L40.152 29.536L36.696 40H33.96L29.28 26.08C29.04 25.344 28.768 24.784 28.464 24.4C28.16 24.016 27.712 23.6 27.12 23.152L27.432 22.768H32.832L33.12 23.584L32.568 23.728C32.184 23.824 31.904 23.952 31.728 24.112C31.568 24.272 31.488 24.496 31.488 24.784C31.488 25.04 31.576 25.432 31.752 25.96L35.664 38.008L39.24 26.848L39 26.08C38.76 25.344 38.488 24.784 38.184 24.4C37.88 24.016 37.432 23.6 36.84 23.152L37.152 22.768H42.552L42.84 23.584L42.288 23.728C41.904 23.824 41.624 23.952 41.448 24.112C41.288 24.272 41.208 24.496 41.208 24.784C41.208 25.04 41.296 25.432 41.472 25.96L45.384 38.008L48.744 27.568C49.048 26.608 49.2 25.864 49.2 25.336C49.168 24.456 48.808 23.92 48.12 23.728L47.568 23.584L47.856 22.768H52.416L52.728 23.152L52.368 23.584C51.776 24.288 51.336 25.088 51.048 25.984L46.416 40H43.68ZM62.1645 38.2C61.5725 38.888 60.8685 39.416 60.0525 39.784C59.2365 40.152 58.3565 40.336 57.4125 40.336C56.3085 40.336 55.3405 40.08 54.5085 39.568C53.6765 39.056 53.0285 38.336 52.5645 37.408C52.1165 36.48 51.8925 35.408 51.8925 34.192C51.8925 32.912 52.1485 31.792 52.6605 30.832C53.1725 29.856 53.8925 29.104 54.8205 28.576C55.7645 28.032 56.8605 27.76 58.1085 27.76C58.9885 27.76 59.7325 27.928 60.3405 28.264C60.9645 28.584 61.4285 29.016 61.7325 29.56C62.0365 30.088 62.1885 30.664 62.1885 31.288C62.1885 31.96 62.0045 32.608 61.6365 33.232C61.2845 33.856 60.7645 34.368 60.0765 34.768C59.3885 35.152 58.5645 35.344 57.6045 35.344C57.0925 35.344 56.5245 35.248 55.9005 35.056C55.2765 34.864 54.9645 34.584 54.9645 34.216C54.9645 34.088 54.9965 33.968 55.0605 33.856C55.1405 33.744 55.2285 33.688 55.3245 33.688C55.3725 33.688 55.5325 33.744 55.8045 33.856C56.0765 33.952 56.4285 34 56.8605 34C57.8205 34 58.5645 33.728 59.0925 33.184C59.6365 32.64 59.9085 32 59.9085 31.264C59.9085 30.64 59.7085 30.104 59.3085 29.656C58.9085 29.192 58.3485 28.96 57.6285 28.96C56.6045 28.96 55.8045 29.416 55.2285 30.328C54.6525 31.224 54.3645 32.512 54.3645 34.192C54.3645 35.616 54.6685 36.736 55.2765 37.552C55.8845 38.352 56.7645 38.752 57.9165 38.752C59.3245 38.752 60.4925 38.296 61.4205 37.384C61.4845 37.32 61.5565 37.288 61.6365 37.288C61.7645 37.288 61.9005 37.368 62.0445 37.528C62.1885 37.672 62.2605 37.824 62.2605 37.984C62.2605 38.064 62.2285 38.136 62.1645 38.2ZM68.0276 37.888C68.0276 38.432 68.2676 38.704 68.7476 38.704C69.1476 38.704 69.5476 38.536 69.9476 38.2L70.4036 38.824C69.9876 39.288 69.5396 39.656 69.0596 39.928C68.5796 40.2 68.1316 40.336 67.7156 40.336C67.0596 40.336 66.5876 40.136 66.2996 39.736C66.0116 39.336 65.8676 38.688 65.8676 37.792V23.824C65.8676 23.632 65.8276 23.496 65.7476 23.416C65.6836 23.336 65.5636 23.296 65.3876 23.296H64.3316L64.1156 22.672C64.5796 22.256 65.1076 21.912 65.6996 21.64C66.2916 21.368 66.8196 21.232 67.2836 21.232C67.5076 21.232 67.6916 21.304 67.8356 21.448C67.9796 21.592 68.0516 21.776 68.0516 22L68.0276 37.888ZM81.1978 37.528C81.2458 37.48 81.3178 37.456 81.4138 37.456C81.5418 37.456 81.6698 37.528 81.7978 37.672C81.9418 37.816 82.0138 37.968 82.0138 38.128C82.0138 38.224 81.9898 38.296 81.9418 38.344C81.3818 38.984 80.7258 39.48 79.9738 39.832C79.2378 40.168 78.4538 40.336 77.6218 40.336C76.5178 40.336 75.5258 40.072 74.6458 39.544C73.7658 39 73.0778 38.256 72.5818 37.312C72.0858 36.352 71.8378 35.272 71.8378 34.072C71.8378 32.808 72.0778 31.704 72.5578 30.76C73.0378 29.8 73.7098 29.064 74.5738 28.552C75.4538 28.024 76.4778 27.76 77.6458 27.76C78.8778 27.76 79.8858 28.064 80.6698 28.672C81.4698 29.264 81.8698 30.032 81.8698 30.976C81.8698 31.664 81.6458 32.232 81.1978 32.68C80.7658 33.112 80.2058 33.328 79.5178 33.328C79.2138 33.328 79.0618 33.24 79.0618 33.064C79.0618 33.016 79.1178 32.904 79.2298 32.728C79.3418 32.552 79.4378 32.336 79.5178 32.08C79.5978 31.824 79.6378 31.496 79.6378 31.096C79.6378 30.456 79.4298 29.952 79.0138 29.584C78.6138 29.2 78.0698 29.008 77.3818 29.008C76.4698 29.008 75.7338 29.456 75.1738 30.352C74.6138 31.248 74.3338 32.424 74.3338 33.88C74.3338 35.368 74.6618 36.552 75.3178 37.432C75.9898 38.296 76.8938 38.728 78.0298 38.728C79.1818 38.728 80.2378 38.328 81.1978 37.528ZM84.0488 34.048C84.0488 32.768 84.2808 31.656 84.7448 30.712C85.2248 29.768 85.9048 29.04 86.7848 28.528C87.6808 28.016 88.7208 27.76 89.9048 27.76C91.0888 27.76 92.1208 28.016 93.0008 28.528C93.8808 29.04 94.5608 29.768 95.0408 30.712C95.5208 31.656 95.7608 32.768 95.7608 34.048C95.7608 35.312 95.5208 36.424 95.0408 37.384C94.5608 38.328 93.8808 39.056 93.0008 39.568C92.1208 40.08 91.0888 40.336 89.9048 40.336C88.7208 40.336 87.6808 40.08 86.7848 39.568C85.9048 39.056 85.2248 38.328 84.7448 37.384C84.2808 36.424 84.0488 35.312 84.0488 34.048ZM93.2408 34.12C93.2408 33.368 93.1368 32.6 92.9288 31.816C92.7208 31.032 92.3688 30.368 91.8728 29.824C91.3928 29.28 90.7608 29.008 89.9768 29.008C89.3048 29.008 88.7048 29.224 88.1768 29.656C87.6648 30.072 87.2648 30.664 86.9768 31.432C86.6888 32.2 86.5448 33.08 86.5448 34.072C86.5448 35.592 86.8408 36.8 87.4328 37.696C88.0248 38.592 88.8248 39.04 89.8328 39.04C90.4888 39.04 91.0728 38.84 91.5848 38.44C92.1128 38.024 92.5208 37.448 92.8088 36.712C93.0968 35.96 93.2408 35.096 93.2408 34.12ZM101.74 36.16C101.74 36.912 101.796 37.512 101.908 37.96C102.02 38.408 102.22 38.84 102.508 39.256L102.796 39.64L102.508 40H98.3078L98.0438 39.256L98.5478 39.136C98.9478 39.04 99.2118 38.872 99.3398 38.632C99.4838 38.376 99.5558 37.944 99.5558 37.336V30.592C99.5558 30.4 99.5158 30.264 99.4358 30.184C99.3718 30.104 99.2518 30.064 99.0758 30.064H98.0198L97.8038 29.44C98.2678 29.024 98.7958 28.68 99.3878 28.408C99.9958 28.136 100.524 28 100.972 28C101.196 28 101.38 28.072 101.524 28.216C101.668 28.36 101.74 28.544 101.74 28.768V31.336C102.156 30.28 102.764 29.424 103.564 28.768C104.364 28.096 105.204 27.76 106.084 27.76C107.06 27.76 107.796 28.048 108.292 28.624C108.788 29.2 109.076 30.104 109.156 31.336C109.572 30.28 110.18 29.424 110.98 28.768C111.78 28.096 112.62 27.76 113.5 27.76C114.572 27.76 115.348 28.104 115.828 28.792C116.324 29.48 116.572 30.576 116.572 32.08V37.888C116.572 38.432 116.812 38.704 117.292 38.704C117.66 38.704 118.06 38.536 118.492 38.2L118.948 38.824C118.532 39.288 118.084 39.656 117.604 39.928C117.124 40.2 116.676 40.336 116.26 40.336C115.604 40.336 115.132 40.136 114.844 39.736C114.556 39.336 114.412 38.688 114.412 37.792V32.08C114.412 30.448 113.82 29.632 112.636 29.632C111.964 29.632 111.372 29.896 110.86 30.424C110.348 30.936 109.94 31.664 109.636 32.608C109.332 33.552 109.172 34.64 109.156 35.872V36.16C109.156 36.992 109.22 37.656 109.348 38.152C109.492 38.632 109.78 39.128 110.212 39.64L109.924 40H106.996V32.08C106.996 30.448 106.404 29.632 105.22 29.632C104.532 29.632 103.924 29.904 103.396 30.448C102.884 30.992 102.476 31.76 102.172 32.752C101.884 33.744 101.74 34.88 101.74 36.16ZM130.79 38.2C130.198 38.888 129.494 39.416 128.678 39.784C127.862 40.152 126.982 40.336 126.038 40.336C124.934 40.336 123.966 40.08 123.134 39.568C122.302 39.056 121.654 38.336 121.19 37.408C120.742 36.48 120.518 35.408 120.518 34.192C120.518 32.912 120.774 31.792 121.286 30.832C121.798 29.856 122.518 29.104 123.446 28.576C124.39 28.032 125.486 27.76 126.734 27.76C127.614 27.76 128.358 27.928 128.966 28.264C129.59 28.584 130.054 29.016 130.358 29.56C130.662 30.088 130.814 30.664 130.814 31.288C130.814 31.96 130.63 32.608 130.262 33.232C129.91 33.856 129.39 34.368 128.702 34.768C128.014 35.152 127.19 35.344 126.23 35.344C125.718 35.344 125.15 35.248 124.526 35.056C123.902 34.864 123.59 34.584 123.59 34.216C123.59 34.088 123.622 33.968 123.686 33.856C123.766 33.744 123.854 33.688 123.95 33.688C123.998 33.688 124.158 33.744 124.43 33.856C124.702 33.952 125.054 34 125.486 34C126.446 34 127.19 33.728 127.718 33.184C128.262 32.64 128.534 32 128.534 31.264C128.534 30.64 128.334 30.104 127.934 29.656C127.534 29.192 126.974 28.96 126.254 28.96C125.23 28.96 124.43 29.416 123.854 30.328C123.278 31.224 122.99 32.512 122.99 34.192C122.99 35.616 123.294 36.736 123.902 37.552C124.51 38.352 125.39 38.752 126.542 38.752C127.95 38.752 129.118 38.296 130.046 37.384C130.11 37.32 130.182 37.288 130.262 37.288C130.39 37.288 130.526 37.368 130.67 37.528C130.814 37.672 130.886 37.824 130.886 37.984C130.886 38.064 130.854 38.136 130.79 38.2ZM135.093 21.592C135.717 21.592 136.221 21.792 136.605 22.192C136.605 23.104 136.517 24.688 136.341 26.944C136.165 29.2 135.949 31.608 135.693 34.168C135.613 34.888 135.413 35.248 135.093 35.248C134.773 35.248 134.573 34.888 134.493 34.168C134.237 31.608 134.021 29.2 133.845 26.944C133.669 24.688 133.581 23.104 133.581 22.192C133.933 21.792 134.437 21.592 135.093 21.592ZM133.629 38.776C133.629 38.472 133.797 38.136 134.133 37.768C134.485 37.384 134.805 37.192 135.093 37.192C135.397 37.192 135.725 37.376 136.077 37.744C136.429 38.112 136.605 38.456 136.605 38.776C136.605 39.08 136.429 39.416 136.077 39.784C135.725 40.152 135.397 40.336 135.093 40.336C134.821 40.336 134.509 40.152 134.157 39.784C133.805 39.416 133.629 39.08 133.629 38.776ZM145.616 39.184L146.168 39.04C146.776 38.864 147.184 38.632 147.392 38.344C147.6 38.056 147.704 37.544 147.704 36.808V25.96C147.704 25.224 147.6 24.712 147.392 24.424C147.184 24.136 146.776 23.904 146.168 23.728L145.616 23.584L145.904 22.768H151.16L151.472 23.152L151.16 23.584C150.76 24.112 150.48 24.672 150.32 25.264C150.16 25.856 150.08 26.632 150.08 27.592V36.976C150.08 37.664 150.176 38.144 150.368 38.416C150.56 38.688 150.952 38.912 151.544 39.088L152.048 39.232L151.784 40H145.904L145.616 39.184ZM169.351 37.792C168.695 38.72 168.023 39.376 167.335 39.76C166.647 40.144 165.903 40.336 165.103 40.336C164.335 40.336 163.623 40.12 162.967 39.688C162.311 39.24 161.783 38.576 161.383 37.696C160.999 36.816 160.807 35.752 160.807 34.504C160.807 33.128 161.055 31.936 161.551 30.928C162.063 29.904 162.783 29.12 163.711 28.576C164.655 28.032 165.759 27.76 167.023 27.76C167.647 27.76 168.527 27.864 169.663 28.072C170.623 28.232 171.343 28.328 171.823 28.36L172.087 28.672L171.799 29.104C171.687 29.264 171.607 29.416 171.559 29.56C171.511 29.688 171.487 29.848 171.487 30.04V37.888C171.487 38.384 171.727 38.632 172.207 38.632C172.607 38.632 173.007 38.488 173.407 38.2L173.863 38.824C173.447 39.288 172.999 39.656 172.519 39.928C172.039 40.2 171.599 40.336 171.199 40.336C170.543 40.336 170.071 40.136 169.783 39.736C169.495 39.336 169.351 38.688 169.351 37.792ZM163.327 34.048C163.327 35.568 163.583 36.688 164.095 37.408C164.623 38.128 165.279 38.488 166.063 38.488C166.703 38.488 167.303 38.312 167.863 37.96C168.423 37.592 168.919 37.04 169.351 36.304V29.824C168.615 29.328 167.831 29.08 166.999 29.08C165.831 29.08 164.927 29.52 164.287 30.4C163.647 31.264 163.327 32.48 163.327 34.048ZM179.107 36.16C179.107 36.912 179.163 37.512 179.275 37.96C179.387 38.408 179.587 38.84 179.875 39.256L180.163 39.64L179.875 40H175.675L175.411 39.256L175.915 39.136C176.315 39.04 176.579 38.872 176.707 38.632C176.851 38.376 176.923 37.944 176.923 37.336V30.592C176.923 30.4 176.883 30.264 176.803 30.184C176.739 30.104 176.619 30.064 176.443 30.064H175.387L175.171 29.44C175.635 29.024 176.163 28.68 176.755 28.408C177.363 28.136 177.891 28 178.339 28C178.563 28 178.747 28.072 178.891 28.216C179.035 28.36 179.107 28.544 179.107 28.768V31.336C179.523 30.28 180.131 29.424 180.931 28.768C181.731 28.096 182.571 27.76 183.451 27.76C184.427 27.76 185.163 28.048 185.659 28.624C186.155 29.2 186.443 30.104 186.523 31.336C186.939 30.28 187.547 29.424 188.347 28.768C189.147 28.096 189.987 27.76 190.867 27.76C191.939 27.76 192.715 28.104 193.195 28.792C193.691 29.48 193.939 30.576 193.939 32.08V37.888C193.939 38.432 194.179 38.704 194.659 38.704C195.027 38.704 195.427 38.536 195.859 38.2L196.315 38.824C195.899 39.288 195.451 39.656 194.971 39.928C194.491 40.2 194.043 40.336 193.627 40.336C192.971 40.336 192.499 40.136 192.211 39.736C191.923 39.336 191.779 38.688 191.779 37.792V32.08C191.779 30.448 191.187 29.632 190.003 29.632C189.331 29.632 188.739 29.896 188.227 30.424C187.715 30.936 187.307 31.664 187.003 32.608C186.699 33.552 186.539 34.64 186.523 35.872V36.16C186.523 36.992 186.587 37.656 186.715 38.152C186.859 38.632 187.147 39.128 187.579 39.64L187.291 40H184.363V32.08C184.363 30.448 183.771 29.632 182.587 29.632C181.899 29.632 181.291 29.904 180.763 30.448C180.251 30.992 179.843 31.76 179.539 32.752C179.251 33.744 179.107 34.88 179.107 36.16ZM222.782 35.344C222.862 36.336 223.022 37.168 223.262 37.84C223.518 38.496 223.91 39.088 224.438 39.616L224.126 40H218.87L218.582 39.184L219.134 39.04C219.646 38.88 219.998 38.68 220.19 38.44C220.398 38.184 220.502 37.808 220.502 37.312L220.454 36.424L219.758 26.416L214.742 38.272H213.446L208.43 26.416L207.902 33.808C207.806 34.928 207.758 35.712 207.758 36.16C207.758 36.816 207.822 37.376 207.95 37.84C208.094 38.288 208.318 38.736 208.622 39.184L208.91 39.616L208.55 40H204.038L203.774 39.184L204.326 39.04C204.95 38.848 205.374 38.608 205.598 38.32C205.838 38.032 205.982 37.528 206.03 36.808L206.678 27.304C206.694 27.096 206.718 26.808 206.75 26.44C206.782 26.072 206.798 25.744 206.798 25.456C206.798 24.912 206.694 24.52 206.486 24.28C206.294 24.04 205.934 23.856 205.406 23.728L204.854 23.584L205.118 22.768H209.486L214.43 34.84L219.518 22.768H222.974L223.334 23.152L223.046 23.584C222.742 24.032 222.518 24.488 222.374 24.952C222.246 25.4 222.182 25.952 222.182 26.608C222.182 26.848 222.222 27.568 222.302 28.768L222.782 35.344ZM235.14 37.792C234.484 38.72 233.812 39.376 233.124 39.76C232.436 40.144 231.692 40.336 230.892 40.336C230.124 40.336 229.412 40.12 228.756 39.688C228.1 39.24 227.572 38.576 227.172 37.696C226.788 36.816 226.596 35.752 226.596 34.504C226.596 33.128 226.844 31.936 227.34 30.928C227.852 29.904 228.572 29.12 229.5 28.576C230.444 28.032 231.548 27.76 232.812 27.76C233.436 27.76 234.316 27.864 235.452 28.072C236.412 28.232 237.132 28.328 237.612 28.36L237.876 28.672L237.588 29.104C237.476 29.264 237.396 29.416 237.348 29.56C237.3 29.688 237.276 29.848 237.276 30.04V37.888C237.276 38.384 237.516 38.632 237.996 38.632C238.396 38.632 238.796 38.488 239.196 38.2L239.652 38.824C239.236 39.288 238.788 39.656 238.308 39.928C237.828 40.2 237.388 40.336 236.988 40.336C236.332 40.336 235.86 40.136 235.572 39.736C235.284 39.336 235.14 38.688 235.14 37.792ZM229.116 34.048C229.116 35.568 229.372 36.688 229.884 37.408C230.412 38.128 231.068 38.488 231.852 38.488C232.492 38.488 233.092 38.312 233.652 37.96C234.212 37.592 234.708 37.04 235.14 36.304V29.824C234.404 29.328 233.62 29.08 232.788 29.08C231.62 29.08 230.716 29.52 230.076 30.4C229.436 31.264 229.116 32.48 229.116 34.048ZM251.76 37.888C251.76 38.384 252 38.632 252.48 38.632C252.88 38.632 253.28 38.488 253.68 38.2L254.136 38.824C253.72 39.288 253.272 39.656 252.792 39.928C252.312 40.2 251.872 40.336 251.472 40.336C250.816 40.336 250.344 40.136 250.056 39.736C249.768 39.336 249.624 38.688 249.624 37.792C248.968 38.72 248.296 39.376 247.608 39.76C246.92 40.144 246.176 40.336 245.376 40.336C244.608 40.336 243.896 40.12 243.24 39.688C242.584 39.24 242.056 38.576 241.656 37.696C241.272 36.816 241.08 35.752 241.08 34.504C241.08 33.128 241.328 31.936 241.824 30.928C242.336 29.904 243.056 29.12 243.984 28.576C244.928 28.032 246.032 27.76 247.296 27.76C248.128 27.76 248.888 27.864 249.576 28.072V23.824C249.576 23.632 249.536 23.496 249.456 23.416C249.392 23.336 249.272 23.296 249.096 23.296H248.04L247.824 22.672C248.288 22.256 248.816 21.912 249.408 21.64C250.016 21.368 250.544 21.232 250.992 21.232C251.216 21.232 251.4 21.304 251.544 21.448C251.688 21.592 251.76 21.776 251.76 22V37.888ZM243.6 34.048C243.6 35.568 243.856 36.688 244.368 37.408C244.896 38.128 245.552 38.488 246.336 38.488C246.976 38.488 247.576 38.312 248.136 37.96C248.696 37.592 249.192 37.04 249.624 36.304V29.824C248.888 29.328 248.104 29.08 247.272 29.08C246.104 29.08 245.2 29.52 244.56 30.4C243.92 31.264 243.6 32.48 243.6 34.048ZM264.108 37.792C263.452 38.72 262.78 39.376 262.092 39.76C261.404 40.144 260.66 40.336 259.86 40.336C259.092 40.336 258.38 40.12 257.724 39.688C257.068 39.24 256.54 38.576 256.14 37.696C255.756 36.816 255.564 35.752 255.564 34.504C255.564 33.128 255.812 31.936 256.308 30.928C256.82 29.904 257.54 29.12 258.468 28.576C259.412 28.032 260.516 27.76 261.78 27.76C262.404 27.76 263.284 27.864 264.42 28.072C265.38 28.232 266.1 28.328 266.58 28.36L266.844 28.672L266.556 29.104C266.444 29.264 266.364 29.416 266.316 29.56C266.268 29.688 266.244 29.848 266.244 30.04V37.888C266.244 38.384 266.484 38.632 266.964 38.632C267.364 38.632 267.764 38.488 268.164 38.2L268.62 38.824C268.204 39.288 267.756 39.656 267.276 39.928C266.796 40.2 266.356 40.336 265.956 40.336C265.3 40.336 264.828 40.136 264.54 39.736C264.252 39.336 264.108 38.688 264.108 37.792ZM258.084 34.048C258.084 35.568 258.34 36.688 258.852 37.408C259.38 38.128 260.036 38.488 260.82 38.488C261.46 38.488 262.06 38.312 262.62 37.96C263.18 37.592 263.676 37.04 264.108 36.304V29.824C263.372 29.328 262.588 29.08 261.756 29.08C260.588 29.08 259.684 29.52 259.044 30.4C258.404 31.264 258.084 32.48 258.084 34.048ZM273.865 36.16C273.865 36.912 273.921 37.512 274.033 37.96C274.145 38.408 274.345 38.84 274.633 39.256L274.921 39.64L274.633 40H270.433L270.169 39.256L270.673 39.136C271.073 39.04 271.337 38.872 271.465 38.632C271.609 38.376 271.681 37.944 271.681 37.336V30.592C271.681 30.4 271.641 30.264 271.561 30.184C271.497 30.104 271.377 30.064 271.201 30.064H270.145L269.929 29.44C270.393 29.024 270.921 28.68 271.513 28.408C272.121 28.136 272.649 28 273.097 28C273.321 28 273.505 28.072 273.649 28.216C273.793 28.36 273.865 28.544 273.865 28.768V31.336C274.281 30.28 274.889 29.424 275.689 28.768C276.489 28.096 277.329 27.76 278.209 27.76C279.185 27.76 279.921 28.048 280.417 28.624C280.913 29.2 281.201 30.104 281.281 31.336C281.697 30.28 282.305 29.424 283.105 28.768C283.905 28.096 284.745 27.76 285.625 27.76C286.697 27.76 287.473 28.104 287.953 28.792C288.449 29.48 288.697 30.576 288.697 32.08V37.888C288.697 38.432 288.937 38.704 289.417 38.704C289.785 38.704 290.185 38.536 290.617 38.2L291.073 38.824C290.657 39.288 290.209 39.656 289.729 39.928C289.249 40.2 288.801 40.336 288.385 40.336C287.729 40.336 287.257 40.136 286.969 39.736C286.681 39.336 286.537 38.688 286.537 37.792V32.08C286.537 30.448 285.945 29.632 284.761 29.632C284.089 29.632 283.497 29.896 282.985 30.424C282.473 30.936 282.065 31.664 281.761 32.608C281.457 33.552 281.297 34.64 281.281 35.872V36.16C281.281 36.992 281.345 37.656 281.473 38.152C281.617 38.632 281.905 39.128 282.337 39.64L282.049 40H279.121V32.08C279.121 30.448 278.529 29.632 277.345 29.632C276.657 29.632 276.049 29.904 275.521 30.448C275.009 30.992 274.601 31.76 274.297 32.752C274.009 33.744 273.865 34.88 273.865 36.16ZM308.852 39.184L309.404 39.04C309.788 38.944 310.06 38.816 310.22 38.656C310.396 38.496 310.484 38.272 310.484 37.984C310.484 37.728 310.396 37.336 310.22 36.808L309.068 33.448H303.524L302.948 35.2C302.58 36.304 302.396 37.144 302.396 37.72C302.396 38.264 302.508 38.752 302.732 39.184L302.948 39.616L302.492 40H298.076L297.788 39.184L298.34 39.04C298.98 38.864 299.444 38.632 299.732 38.344C300.02 38.056 300.292 37.544 300.548 36.808L304.316 25.96C304.492 25.432 304.58 25.04 304.58 24.784C304.58 24.496 304.492 24.272 304.316 24.112C304.156 23.952 303.884 23.824 303.5 23.728L302.948 23.584L303.236 22.768H307.868L312.692 36.688C312.948 37.424 313.228 37.984 313.532 38.368C313.836 38.752 314.276 39.168 314.852 39.616L314.54 40H309.14L308.852 39.184ZM304.028 31.96H308.564L306.26 25.24L304.028 31.96ZM319.629 37.888C319.629 38.432 319.869 38.704 320.349 38.704C320.749 38.704 321.149 38.536 321.549 38.2L322.005 38.824C321.589 39.288 321.141 39.656 320.661 39.928C320.181 40.2 319.733 40.336 319.317 40.336C318.661 40.336 318.189 40.136 317.901 39.736C317.613 39.336 317.469 38.688 317.469 37.792V23.824C317.469 23.632 317.429 23.496 317.349 23.416C317.285 23.336 317.165 23.296 316.989 23.296H315.933L315.717 22.672C316.181 22.256 316.709 21.912 317.301 21.64C317.893 21.368 318.421 21.232 318.885 21.232C319.109 21.232 319.293 21.304 319.437 21.448C319.581 21.592 319.653 21.776 319.653 22L319.629 37.888ZM330.039 28.072C330.039 28.408 329.991 28.712 329.895 28.984C329.799 29.256 329.663 29.456 329.487 29.584H326.919V37.312C326.919 37.808 326.991 38.16 327.135 38.368C327.279 38.576 327.511 38.68 327.831 38.68C328.311 38.68 328.855 38.424 329.463 37.912L329.919 38.536C329.503 39.08 329.007 39.52 328.431 39.856C327.855 40.176 327.311 40.336 326.799 40.336C326.143 40.336 325.631 40.136 325.263 39.736C324.911 39.32 324.735 38.752 324.735 38.032V29.584H322.623C322.623 29.152 322.655 28.872 322.719 28.744C322.783 28.616 322.943 28.52 323.199 28.456C324.047 28.232 324.647 27.872 324.999 27.376C325.367 26.864 325.631 26.208 325.791 25.408C325.839 25.152 325.919 24.992 326.031 24.928C326.159 24.864 326.455 24.832 326.919 24.832V28.072H330.039ZM333.131 23.824C333.131 23.632 333.091 23.496 333.011 23.416C332.947 23.336 332.827 23.296 332.651 23.296H331.595L331.379 22.672C331.843 22.256 332.371 21.912 332.963 21.64C333.571 21.368 334.099 21.232 334.547 21.232C334.771 21.232 334.955 21.304 335.099 21.448C335.243 21.592 335.315 21.776 335.315 22V31.336C335.731 30.296 336.355 29.44 337.187 28.768C338.019 28.096 338.891 27.76 339.803 27.76C340.971 27.76 341.795 28.104 342.275 28.792C342.771 29.48 343.019 30.592 343.019 32.128V37.936C343.019 38.48 343.259 38.752 343.739 38.752C344.139 38.752 344.539 38.584 344.939 38.248L345.395 38.872C344.979 39.336 344.531 39.704 344.051 39.976C343.571 40.248 343.123 40.384 342.707 40.384C342.051 40.384 341.579 40.184 341.291 39.784C341.003 39.384 340.859 38.736 340.859 37.84V32.128C340.859 31.28 340.699 30.656 340.379 30.256C340.075 29.84 339.547 29.632 338.795 29.632C338.107 29.632 337.499 29.904 336.971 30.448C336.459 30.992 336.051 31.76 335.747 32.752C335.459 33.744 335.315 34.88 335.315 36.16C335.315 36.912 335.371 37.512 335.483 37.96C335.595 38.408 335.795 38.84 336.083 39.256L336.371 39.64L336.083 40H331.883L331.619 39.256L332.123 39.136C332.523 39.04 332.787 38.872 332.915 38.632C333.059 38.376 333.131 37.944 333.131 37.336V23.824ZM357.219 38.2C356.627 38.888 355.923 39.416 355.107 39.784C354.291 40.152 353.411 40.336 352.467 40.336C351.363 40.336 350.395 40.08 349.563 39.568C348.731 39.056 348.083 38.336 347.619 37.408C347.171 36.48 346.947 35.408 346.947 34.192C346.947 32.912 347.203 31.792 347.715 30.832C348.227 29.856 348.947 29.104 349.875 28.576C350.819 28.032 351.915 27.76 353.163 27.76C354.043 27.76 354.787 27.928 355.395 28.264C356.019 28.584 356.483 29.016 356.787 29.56C357.091 30.088 357.243 30.664 357.243 31.288C357.243 31.96 357.059 32.608 356.691 33.232C356.339 33.856 355.819 34.368 355.131 34.768C354.443 35.152 353.619 35.344 352.659 35.344C352.147 35.344 351.579 35.248 350.955 35.056C350.331 34.864 350.019 34.584 350.019 34.216C350.019 34.088 350.051 33.968 350.115 33.856C350.195 33.744 350.283 33.688 350.379 33.688C350.427 33.688 350.587 33.744 350.859 33.856C351.131 33.952 351.483 34 351.915 34C352.875 34 353.619 33.728 354.147 33.184C354.691 32.64 354.963 32 354.963 31.264C354.963 30.64 354.763 30.104 354.363 29.656C353.963 29.192 353.403 28.96 352.683 28.96C351.659 28.96 350.859 29.416 350.283 30.328C349.707 31.224 349.419 32.512 349.419 34.192C349.419 35.616 349.723 36.736 350.331 37.552C350.939 38.352 351.819 38.752 352.971 38.752C354.379 38.752 355.547 38.296 356.475 37.384C356.539 37.32 356.611 37.288 356.691 37.288C356.819 37.288 356.955 37.368 357.099 37.528C357.243 37.672 357.315 37.824 357.315 37.984C357.315 38.064 357.283 38.136 357.219 38.2ZM368.194 37.792C367.538 38.72 366.866 39.376 366.178 39.76C365.49 40.144 364.746 40.336 363.946 40.336C363.178 40.336 362.466 40.12 361.81 39.688C361.154 39.24 360.626 38.576 360.226 37.696C359.842 36.816 359.65 35.752 359.65 34.504C359.65 33.128 359.898 31.936 360.394 30.928C360.906 29.904 361.626 29.12 362.554 28.576C363.498 28.032 364.602 27.76 365.866 27.76C366.49 27.76 367.37 27.864 368.506 28.072C369.466 28.232 370.186 28.328 370.666 28.36L370.93 28.672L370.642 29.104C370.53 29.264 370.45 29.416 370.402 29.56C370.354 29.688 370.33 29.848 370.33 30.04V37.888C370.33 38.384 370.57 38.632 371.05 38.632C371.45 38.632 371.85 38.488 372.25 38.2L372.706 38.824C372.29 39.288 371.842 39.656 371.362 39.928C370.882 40.2 370.442 40.336 370.042 40.336C369.386 40.336 368.914 40.136 368.626 39.736C368.338 39.336 368.194 38.688 368.194 37.792ZM362.17 34.048C362.17 35.568 362.426 36.688 362.938 37.408C363.466 38.128 364.122 38.488 364.906 38.488C365.546 38.488 366.146 38.312 366.706 37.96C367.266 37.592 367.762 37.04 368.194 36.304V29.824C367.458 29.328 366.674 29.08 365.842 29.08C364.674 29.08 363.77 29.52 363.13 30.4C362.49 31.264 362.17 32.48 362.17 34.048ZM373.847 38.776C373.847 38.472 374.015 38.136 374.351 37.768C374.703 37.384 375.023 37.192 375.311 37.192C375.615 37.192 375.943 37.376 376.295 37.744C376.647 38.112 376.823 38.456 376.823 38.776C376.823 39.08 376.647 39.416 376.295 39.784C375.943 40.152 375.615 40.336 375.311 40.336C375.039 40.336 374.727 40.152 374.375 39.784C374.023 39.416 373.847 39.08 373.847 38.776Z" fill="black"/>
<path d="M12 15.4142L12 32.5564L0.928932 23.9853L12 15.4142Z" fill="black"/>
</svg>
