<svg width="681" height="82" viewBox="0 0 681 82" fill="none" xmlns="http://www.w3.org/2000/svg">
<rect x="11.5" y="0.5" width="669" height="81" rx="14.5" fill="#DA9B3C"/>
<rect x="11.5" y="0.5" width="669" height="81" rx="14.5" stroke="black"/>
<path d="M39.84 26.272C39.68 25.68 39.504 25.24 39.312 24.952C39.136 24.648 38.888 24.44 38.568 24.328C38.248 24.2 37.8 24.136 37.224 24.136H36.144C35.808 24.136 35.584 24.256 35.472 24.496C35.376 24.72 35.328 25.208 35.328 25.96V36.808C35.328 37.544 35.432 38.056 35.64 38.344C35.848 38.632 36.256 38.864 36.864 39.04L37.416 39.184L37.128 40H31.872L31.56 39.616L31.872 39.184C32.272 38.656 32.552 38.096 32.712 37.504C32.872 36.912 32.952 36.136 32.952 35.176V25.96C32.952 25.208 32.896 24.72 32.784 24.496C32.688 24.256 32.472 24.136 32.136 24.136H31.056C30.48 24.136 30.032 24.2 29.712 24.328C29.392 24.44 29.136 24.648 28.944 24.952C28.768 25.24 28.6 25.68 28.44 26.272L28.296 26.824L27.48 26.536V22.264L27.864 21.952L28.296 22.264C28.744 22.6 29.656 22.768 31.032 22.768H37.248C38.624 22.768 39.536 22.6 39.984 22.264L40.416 21.952L40.8 22.264V26.536L39.984 26.824L39.84 26.272ZM50.9379 38.2C50.3459 38.888 49.6419 39.416 48.8259 39.784C48.0099 40.152 47.1299 40.336 46.1859 40.336C45.0819 40.336 44.1139 40.08 43.2819 39.568C42.4499 39.056 41.8019 38.336 41.3379 37.408C40.8899 36.48 40.6659 35.408 40.6659 34.192C40.6659 32.912 40.9219 31.792 41.4339 30.832C41.9459 29.856 42.6659 29.104 43.5939 28.576C44.5379 28.032 45.6339 27.76 46.8819 27.76C47.7619 27.76 48.5059 27.928 49.1139 28.264C49.7379 28.584 50.2019 29.016 50.5059 29.56C50.8099 30.088 50.9619 30.664 50.9619 31.288C50.9619 31.96 50.7779 32.608 50.4099 33.232C50.0579 33.856 49.5379 34.368 48.8499 34.768C48.1619 35.152 47.3379 35.344 46.3779 35.344C45.8659 35.344 45.2979 35.248 44.6739 35.056C44.0499 34.864 43.7379 34.584 43.7379 34.216C43.7379 34.088 43.7699 33.968 43.8339 33.856C43.9139 33.744 44.0019 33.688 44.0979 33.688C44.1459 33.688 44.3059 33.744 44.5779 33.856C44.8499 33.952 45.2019 34 45.6339 34C46.5939 34 47.3379 33.728 47.8659 33.184C48.4099 32.64 48.6819 32 48.6819 31.264C48.6819 30.64 48.4819 30.104 48.0819 29.656C47.6819 29.192 47.1219 28.96 46.4019 28.96C45.3779 28.96 44.5779 29.416 44.0019 30.328C43.4259 31.224 43.1379 32.512 43.1379 34.192C43.1379 35.616 43.4419 36.736 44.0499 37.552C44.6579 38.352 45.5379 38.752 46.6899 38.752C48.0979 38.752 49.2659 38.296 50.1939 37.384C50.2579 37.32 50.3299 37.288 50.4099 37.288C50.5379 37.288 50.6739 37.368 50.8179 37.528C50.9619 37.672 51.0339 37.824 51.0339 37.984C51.0339 38.064 51.0019 38.136 50.9379 38.2ZM56.8011 37.888C56.8011 38.432 57.0411 38.704 57.5211 38.704C57.9211 38.704 58.3211 38.536 58.7211 38.2L59.1771 38.824C58.7611 39.288 58.3131 39.656 57.8331 39.928C57.3531 40.2 56.9051 40.336 56.4891 40.336C55.8331 40.336 55.3611 40.136 55.0731 39.736C54.7851 39.336 54.6411 38.688 54.6411 37.792V23.824C54.6411 23.632 54.6011 23.496 54.5211 23.416C54.4571 23.336 54.3371 23.296 54.1611 23.296H53.1051L52.8891 22.672C53.3531 22.256 53.8811 21.912 54.4731 21.64C55.0651 21.368 55.5931 21.232 56.0571 21.232C56.2811 21.232 56.4651 21.304 56.6091 21.448C56.7531 21.592 56.8251 21.776 56.8251 22L56.8011 37.888ZM64.0433 37.888C64.0433 38.432 64.2833 38.704 64.7633 38.704C65.1633 38.704 65.5633 38.536 65.9633 38.2L66.4193 38.824C66.0033 39.288 65.5553 39.656 65.0753 39.928C64.5953 40.2 64.1473 40.336 63.7313 40.336C63.0753 40.336 62.6033 40.136 62.3153 39.736C62.0273 39.336 61.8833 38.688 61.8833 37.792V23.824C61.8833 23.632 61.8433 23.496 61.7633 23.416C61.6993 23.336 61.5793 23.296 61.4033 23.296H60.3473L60.1313 22.672C60.5953 22.256 61.1233 21.912 61.7153 21.64C62.3073 21.368 62.8353 21.232 63.2993 21.232C63.5233 21.232 63.7073 21.304 63.8513 21.448C63.9953 21.592 64.0673 21.776 64.0673 22L64.0433 37.888ZM78.2788 36.16C78.2788 36.912 78.3348 37.512 78.4468 37.96C78.5588 38.408 78.7588 38.84 79.0468 39.256L79.3348 39.64L79.0468 40H74.8468L74.5828 39.256L75.0868 39.136C75.4868 39.04 75.7508 38.872 75.8788 38.632C76.0228 38.376 76.0948 37.944 76.0948 37.336V30.592C76.0948 30.4 76.0548 30.264 75.9748 30.184C75.9108 30.104 75.7908 30.064 75.6148 30.064H74.5588L74.3428 29.44C74.8068 29.024 75.3348 28.68 75.9268 28.408C76.5348 28.136 77.0628 28 77.5108 28C77.7348 28 77.9188 28.072 78.0628 28.216C78.2068 28.36 78.2788 28.544 78.2788 28.768V31.336C78.6948 30.28 79.3028 29.424 80.1028 28.768C80.9028 28.096 81.7428 27.76 82.6228 27.76C83.5988 27.76 84.3348 28.048 84.8308 28.624C85.3268 29.2 85.6148 30.104 85.6948 31.336C86.1108 30.28 86.7188 29.424 87.5188 28.768C88.3188 28.096 89.1588 27.76 90.0388 27.76C91.1108 27.76 91.8868 28.104 92.3668 28.792C92.8628 29.48 93.1108 30.576 93.1108 32.08V37.888C93.1108 38.432 93.3508 38.704 93.8308 38.704C94.1988 38.704 94.5988 38.536 95.0308 38.2L95.4868 38.824C95.0708 39.288 94.6228 39.656 94.1428 39.928C93.6628 40.2 93.2148 40.336 92.7988 40.336C92.1428 40.336 91.6708 40.136 91.3828 39.736C91.0948 39.336 90.9508 38.688 90.9508 37.792V32.08C90.9508 30.448 90.3588 29.632 89.1748 29.632C88.5028 29.632 87.9108 29.896 87.3988 30.424C86.8868 30.936 86.4788 31.664 86.1748 32.608C85.8708 33.552 85.7108 34.64 85.6948 35.872V36.16C85.6948 36.992 85.7588 37.656 85.8868 38.152C86.0308 38.632 86.3188 39.128 86.7508 39.64L86.4628 40H83.5348V32.08C83.5348 30.448 82.9428 29.632 81.7588 29.632C81.0708 29.632 80.4628 29.904 79.9348 30.448C79.4228 30.992 79.0148 31.76 78.7108 32.752C78.4228 33.744 78.2788 34.88 78.2788 36.16ZM107.329 38.2C106.737 38.888 106.033 39.416 105.217 39.784C104.401 40.152 103.521 40.336 102.577 40.336C101.473 40.336 100.505 40.08 99.6726 39.568C98.8406 39.056 98.1926 38.336 97.7286 37.408C97.2806 36.48 97.0566 35.408 97.0566 34.192C97.0566 32.912 97.3126 31.792 97.8246 30.832C98.3366 29.856 99.0566 29.104 99.9846 28.576C100.929 28.032 102.025 27.76 103.273 27.76C104.153 27.76 104.897 27.928 105.505 28.264C106.129 28.584 106.593 29.016 106.897 29.56C107.201 30.088 107.353 30.664 107.353 31.288C107.353 31.96 107.169 32.608 106.801 33.232C106.449 33.856 105.929 34.368 105.241 34.768C104.553 35.152 103.729 35.344 102.769 35.344C102.257 35.344 101.689 35.248 101.065 35.056C100.441 34.864 100.129 34.584 100.129 34.216C100.129 34.088 100.161 33.968 100.225 33.856C100.305 33.744 100.393 33.688 100.489 33.688C100.537 33.688 100.697 33.744 100.969 33.856C101.241 33.952 101.593 34 102.025 34C102.985 34 103.729 33.728 104.257 33.184C104.801 32.64 105.073 32 105.073 31.264C105.073 30.64 104.873 30.104 104.473 29.656C104.073 29.192 103.513 28.96 102.793 28.96C101.769 28.96 100.969 29.416 100.393 30.328C99.8166 31.224 99.5286 32.512 99.5286 34.192C99.5286 35.616 99.8326 36.736 100.441 37.552C101.049 38.352 101.929 38.752 103.081 38.752C104.489 38.752 105.657 38.296 106.585 37.384C106.649 37.32 106.721 37.288 106.801 37.288C106.929 37.288 107.065 37.368 107.209 37.528C107.353 37.672 107.425 37.824 107.425 37.984C107.425 38.064 107.393 38.136 107.329 38.2ZM109.544 37.432C110.04 37.24 110.488 37.144 110.888 37.144C111.352 37.144 111.728 37.272 112.016 37.528C112.304 37.784 112.448 38.192 112.448 38.752C112.448 39.2 112.28 39.664 111.944 40.144C111.624 40.64 111.136 41.24 110.48 41.944L109.544 42.952L108.848 42.496L109.952 40.336C110.144 39.952 110.24 39.624 110.24 39.352C110.24 39.032 110.056 38.736 109.688 38.464L109.256 38.176L109.136 37.6L109.544 37.432ZM132.723 26.272C132.563 25.68 132.387 25.24 132.195 24.952C132.019 24.648 131.771 24.44 131.451 24.328C131.131 24.2 130.683 24.136 130.107 24.136H129.027C128.691 24.136 128.467 24.256 128.355 24.496C128.259 24.72 128.211 25.208 128.211 25.96V36.808C128.211 37.544 128.315 38.056 128.523 38.344C128.731 38.632 129.139 38.864 129.747 39.04L130.299 39.184L130.011 40H124.755L124.443 39.616L124.755 39.184C125.155 38.656 125.435 38.096 125.595 37.504C125.755 36.912 125.835 36.136 125.835 35.176V25.96C125.835 25.208 125.779 24.72 125.667 24.496C125.571 24.256 125.355 24.136 125.019 24.136H123.939C123.363 24.136 122.915 24.2 122.595 24.328C122.275 24.44 122.019 24.648 121.827 24.952C121.651 25.24 121.483 25.68 121.323 26.272L121.179 26.824L120.363 26.536V22.264L120.747 21.952L121.179 22.264C121.627 22.6 122.539 22.768 123.915 22.768H130.131C131.507 22.768 132.419 22.6 132.867 22.264L133.299 21.952L133.683 22.264V26.536L132.867 26.824L132.723 26.272ZM137.157 31.336C137.429 30.264 137.845 29.4 138.405 28.744C138.981 28.088 139.605 27.76 140.277 27.76C140.949 27.76 141.501 27.984 141.933 28.432C142.381 28.864 142.605 29.456 142.605 30.208C142.605 30.816 142.381 31.328 141.933 31.744C141.485 32.16 140.925 32.368 140.253 32.368C139.949 32.368 139.797 32.28 139.797 32.104C139.797 32.056 139.861 31.936 139.989 31.744C140.133 31.552 140.245 31.352 140.325 31.144C140.421 30.936 140.469 30.704 140.469 30.448C140.469 30.16 140.389 29.936 140.229 29.776C140.085 29.6 139.901 29.512 139.677 29.512C139.293 29.512 138.893 29.744 138.477 30.208C138.077 30.656 137.733 31.392 137.445 32.416C137.157 33.424 137.013 34.704 137.013 36.256C137.013 36.976 137.069 37.56 137.181 38.008C137.293 38.44 137.493 38.856 137.781 39.256L138.069 39.64L137.781 40H133.581L133.317 39.256L133.821 39.136C134.221 39.04 134.485 38.872 134.613 38.632C134.757 38.376 134.829 37.944 134.829 37.336V30.592C134.829 30.4 134.789 30.264 134.709 30.184C134.645 30.104 134.525 30.064 134.349 30.064H133.293L133.077 29.44C133.541 29.024 134.069 28.68 134.661 28.408C135.269 28.136 135.797 28 136.245 28C136.469 28 136.653 28.072 136.797 28.216C136.941 28.36 137.013 28.544 137.013 28.768V31.336H137.157ZM152.218 37.792C151.562 38.72 150.89 39.376 150.202 39.76C149.514 40.144 148.77 40.336 147.97 40.336C147.202 40.336 146.49 40.12 145.834 39.688C145.178 39.24 144.65 38.576 144.25 37.696C143.866 36.816 143.674 35.752 143.674 34.504C143.674 33.128 143.922 31.936 144.418 30.928C144.93 29.904 145.65 29.12 146.578 28.576C147.522 28.032 148.626 27.76 149.89 27.76C150.514 27.76 151.394 27.864 152.53 28.072C153.49 28.232 154.21 28.328 154.69 28.36L154.954 28.672L154.666 29.104C154.554 29.264 154.474 29.416 154.426 29.56C154.378 29.688 154.354 29.848 154.354 30.04V37.888C154.354 38.384 154.594 38.632 155.074 38.632C155.474 38.632 155.874 38.488 156.274 38.2L156.73 38.824C156.314 39.288 155.866 39.656 155.386 39.928C154.906 40.2 154.466 40.336 154.066 40.336C153.41 40.336 152.938 40.136 152.65 39.736C152.362 39.336 152.218 38.688 152.218 37.792ZM146.194 34.048C146.194 35.568 146.45 36.688 146.962 37.408C147.49 38.128 148.146 38.488 148.93 38.488C149.57 38.488 150.17 38.312 150.73 37.96C151.29 37.592 151.786 37.04 152.218 36.304V29.824C151.482 29.328 150.698 29.08 149.866 29.08C148.698 29.08 147.794 29.52 147.154 30.4C146.514 31.264 146.194 32.48 146.194 34.048ZM163.774 38.776C164.766 38.776 165.518 38.208 166.03 37.072C166.558 35.936 166.822 34.56 166.822 32.944C166.822 32.176 166.734 31.432 166.558 30.712C166.382 29.992 166.118 29.352 165.766 28.792L165.526 28.408L165.814 28.096L168.67 27.76C168.75 28.752 168.79 29.6 168.79 30.304C168.79 32.432 168.55 34.256 168.07 35.776C167.59 37.28 166.942 38.416 166.126 39.184C165.326 39.952 164.454 40.336 163.51 40.336C162.678 40.336 162.006 40.184 161.494 39.88C160.998 39.56 160.598 39.056 160.294 38.368C159.99 37.664 159.75 36.688 159.574 35.44L158.83 30.352C158.798 30.144 158.75 30.008 158.686 29.944C158.622 29.864 158.51 29.824 158.35 29.824H157.294L157.078 29.2C157.494 28.784 157.99 28.44 158.566 28.168C159.142 27.896 159.654 27.76 160.102 27.76C160.534 27.76 160.79 28.016 160.87 28.528L161.95 36.016C162.094 37.008 162.302 37.72 162.574 38.152C162.846 38.568 163.246 38.776 163.774 38.776ZM181.696 38.2C181.104 38.888 180.4 39.416 179.584 39.784C178.768 40.152 177.888 40.336 176.944 40.336C175.84 40.336 174.872 40.08 174.04 39.568C173.208 39.056 172.56 38.336 172.096 37.408C171.648 36.48 171.424 35.408 171.424 34.192C171.424 32.912 171.68 31.792 172.192 30.832C172.704 29.856 173.424 29.104 174.352 28.576C175.296 28.032 176.392 27.76 177.64 27.76C178.52 27.76 179.264 27.928 179.872 28.264C180.496 28.584 180.96 29.016 181.264 29.56C181.568 30.088 181.72 30.664 181.72 31.288C181.72 31.96 181.536 32.608 181.168 33.232C180.816 33.856 180.296 34.368 179.608 34.768C178.92 35.152 178.096 35.344 177.136 35.344C176.624 35.344 176.056 35.248 175.432 35.056C174.808 34.864 174.496 34.584 174.496 34.216C174.496 34.088 174.528 33.968 174.592 33.856C174.672 33.744 174.76 33.688 174.856 33.688C174.904 33.688 175.064 33.744 175.336 33.856C175.608 33.952 175.96 34 176.392 34C177.352 34 178.096 33.728 178.624 33.184C179.168 32.64 179.44 32 179.44 31.264C179.44 30.64 179.24 30.104 178.84 29.656C178.44 29.192 177.88 28.96 177.16 28.96C176.136 28.96 175.336 29.416 174.76 30.328C174.184 31.224 173.896 32.512 173.896 34.192C173.896 35.616 174.2 36.736 174.808 37.552C175.416 38.352 176.296 38.752 177.448 38.752C178.856 38.752 180.024 38.296 180.952 37.384C181.016 37.32 181.088 37.288 181.168 37.288C181.296 37.288 181.432 37.368 181.576 37.528C181.72 37.672 181.792 37.824 181.792 37.984C181.792 38.064 181.76 38.136 181.696 38.2ZM187.559 37.888C187.559 38.432 187.799 38.704 188.279 38.704C188.679 38.704 189.079 38.536 189.479 38.2L189.935 38.824C189.519 39.288 189.071 39.656 188.591 39.928C188.111 40.2 187.663 40.336 187.247 40.336C186.591 40.336 186.119 40.136 185.831 39.736C185.543 39.336 185.399 38.688 185.399 37.792V23.824C185.399 23.632 185.359 23.496 185.279 23.416C185.215 23.336 185.095 23.296 184.919 23.296H183.863L183.647 22.672C184.111 22.256 184.639 21.912 185.231 21.64C185.823 21.368 186.351 21.232 186.815 21.232C187.039 21.232 187.223 21.304 187.367 21.448C187.511 21.592 187.583 21.776 187.583 22L187.559 37.888ZM201.641 38.2C201.049 38.888 200.345 39.416 199.529 39.784C198.713 40.152 197.833 40.336 196.889 40.336C195.785 40.336 194.817 40.08 193.985 39.568C193.153 39.056 192.505 38.336 192.041 37.408C191.593 36.48 191.369 35.408 191.369 34.192C191.369 32.912 191.625 31.792 192.137 30.832C192.649 29.856 193.369 29.104 194.297 28.576C195.241 28.032 196.337 27.76 197.585 27.76C198.465 27.76 199.209 27.928 199.817 28.264C200.441 28.584 200.905 29.016 201.209 29.56C201.513 30.088 201.665 30.664 201.665 31.288C201.665 31.96 201.481 32.608 201.113 33.232C200.761 33.856 200.241 34.368 199.553 34.768C198.865 35.152 198.041 35.344 197.081 35.344C196.569 35.344 196.001 35.248 195.377 35.056C194.753 34.864 194.441 34.584 194.441 34.216C194.441 34.088 194.473 33.968 194.537 33.856C194.617 33.744 194.705 33.688 194.801 33.688C194.849 33.688 195.009 33.744 195.281 33.856C195.553 33.952 195.905 34 196.337 34C197.297 34 198.041 33.728 198.569 33.184C199.113 32.64 199.385 32 199.385 31.264C199.385 30.64 199.185 30.104 198.785 29.656C198.385 29.192 197.825 28.96 197.105 28.96C196.081 28.96 195.281 29.416 194.705 30.328C194.129 31.224 193.841 32.512 193.841 34.192C193.841 35.616 194.145 36.736 194.753 37.552C195.361 38.352 196.241 38.752 197.393 38.752C198.801 38.752 199.969 38.296 200.897 37.384C200.961 37.32 201.033 37.288 201.113 37.288C201.241 37.288 201.377 37.368 201.521 37.528C201.665 37.672 201.737 37.824 201.737 37.984C201.737 38.064 201.705 38.136 201.641 38.2ZM208.032 31.336C208.304 30.264 208.72 29.4 209.28 28.744C209.856 28.088 210.48 27.76 211.152 27.76C211.824 27.76 212.376 27.984 212.808 28.432C213.256 28.864 213.48 29.456 213.48 30.208C213.48 30.816 213.256 31.328 212.808 31.744C212.36 32.16 211.8 32.368 211.128 32.368C210.824 32.368 210.672 32.28 210.672 32.104C210.672 32.056 210.736 31.936 210.864 31.744C211.008 31.552 211.12 31.352 211.2 31.144C211.296 30.936 211.344 30.704 211.344 30.448C211.344 30.16 211.264 29.936 211.104 29.776C210.96 29.6 210.776 29.512 210.552 29.512C210.168 29.512 209.768 29.744 209.352 30.208C208.952 30.656 208.608 31.392 208.32 32.416C208.032 33.424 207.888 34.704 207.888 36.256C207.888 36.976 207.944 37.56 208.056 38.008C208.168 38.44 208.368 38.856 208.656 39.256L208.944 39.64L208.656 40H204.456L204.192 39.256L204.696 39.136C205.096 39.04 205.36 38.872 205.488 38.632C205.632 38.376 205.704 37.944 205.704 37.336V30.592C205.704 30.4 205.664 30.264 205.584 30.184C205.52 30.104 205.4 30.064 205.224 30.064H204.168L203.952 29.44C204.416 29.024 204.944 28.68 205.536 28.408C206.144 28.136 206.672 28 207.12 28C207.344 28 207.528 28.072 207.672 28.216C207.816 28.36 207.888 28.544 207.888 28.768V31.336H208.032ZM214.261 38.776C214.261 38.472 214.429 38.136 214.765 37.768C215.117 37.384 215.437 37.192 215.725 37.192C216.029 37.192 216.357 37.376 216.709 37.744C217.061 38.112 217.237 38.456 217.237 38.776C217.237 39.08 217.061 39.416 216.709 39.784C216.357 40.152 216.029 40.336 215.725 40.336C215.453 40.336 215.141 40.152 214.789 39.784C214.437 39.416 214.261 39.08 214.261 38.776ZM214.261 30.136C214.261 29.832 214.429 29.496 214.765 29.128C215.117 28.744 215.437 28.552 215.725 28.552C216.029 28.552 216.357 28.736 216.709 29.104C217.061 29.472 217.237 29.816 217.237 30.136C217.237 30.44 217.061 30.776 216.709 31.144C216.357 31.512 216.029 31.696 215.725 31.696C215.453 31.696 215.141 31.512 214.789 31.144C214.437 30.776 214.261 30.44 214.261 30.136ZM231.368 38.776C231.88 38.776 232.336 38.504 232.736 37.96C233.136 37.4 233.44 36.672 233.648 35.776C233.872 34.864 233.984 33.912 233.984 32.92C233.984 32.152 233.896 31.408 233.72 30.688C233.544 29.968 233.28 29.328 232.928 28.768L232.688 28.384L232.976 28.072L235.784 27.76C235.864 28.752 235.904 29.6 235.904 30.304C235.904 31.04 235.864 31.824 235.784 32.656L236.288 36.016C236.432 37.008 236.648 37.72 236.936 38.152C237.224 38.568 237.648 38.776 238.208 38.776C238.72 38.776 239.176 38.504 239.576 37.96C239.976 37.4 240.28 36.672 240.488 35.776C240.712 34.864 240.824 33.912 240.824 32.92C240.824 32.152 240.736 31.408 240.56 30.688C240.384 29.968 240.12 29.328 239.768 28.768L239.528 28.384L239.816 28.072L242.624 27.76C242.704 28.752 242.744 29.6 242.744 30.304C242.744 32.432 242.528 34.256 242.096 35.776C241.664 37.28 241.088 38.416 240.368 39.184C239.648 39.952 238.872 40.336 238.04 40.336C237.112 40.336 236.384 40.112 235.856 39.664C235.344 39.2 234.944 38.416 234.656 37.312C234.224 38.304 233.696 39.056 233.072 39.568C232.464 40.08 231.808 40.336 231.104 40.336C230.272 40.336 229.6 40.184 229.088 39.88C228.592 39.56 228.192 39.056 227.888 38.368C227.584 37.664 227.344 36.688 227.168 35.44L226.424 30.352C226.392 30.144 226.344 30.008 226.28 29.944C226.216 29.864 226.104 29.824 225.944 29.824H224.888L224.672 29.2C225.088 28.784 225.584 28.44 226.16 28.168C226.736 27.896 227.248 27.76 227.696 27.76C228.128 27.76 228.384 28.016 228.464 28.528L229.544 36.016C229.688 37.008 229.896 37.72 230.168 38.152C230.44 38.568 230.84 38.776 231.368 38.776ZM246.787 23.824C246.787 23.632 246.747 23.496 246.667 23.416C246.603 23.336 246.483 23.296 246.307 23.296H245.251L245.035 22.672C245.499 22.256 246.027 21.912 246.619 21.64C247.227 21.368 247.755 21.232 248.203 21.232C248.427 21.232 248.611 21.304 248.755 21.448C248.899 21.592 248.971 21.776 248.971 22V31.336C249.387 30.296 250.011 29.44 250.843 28.768C251.675 28.096 252.547 27.76 253.459 27.76C254.627 27.76 255.451 28.104 255.931 28.792C256.427 29.48 256.675 30.592 256.675 32.128V37.936C256.675 38.48 256.915 38.752 257.395 38.752C257.795 38.752 258.195 38.584 258.595 38.248L259.051 38.872C258.635 39.336 258.187 39.704 257.707 39.976C257.227 40.248 256.779 40.384 256.363 40.384C255.707 40.384 255.235 40.184 254.947 39.784C254.659 39.384 254.515 38.736 254.515 37.84V32.128C254.515 31.28 254.355 30.656 254.035 30.256C253.731 29.84 253.203 29.632 252.451 29.632C251.763 29.632 251.155 29.904 250.627 30.448C250.115 30.992 249.707 31.76 249.403 32.752C249.115 33.744 248.971 34.88 248.971 36.16C248.971 36.912 249.027 37.512 249.139 37.96C249.251 38.408 249.451 38.84 249.739 39.256L250.027 39.64L249.739 40H245.539L245.275 39.256L245.779 39.136C246.179 39.04 246.443 38.872 246.571 38.632C246.715 38.376 246.787 37.944 246.787 37.336V23.824ZM269.147 37.792C268.491 38.72 267.819 39.376 267.131 39.76C266.443 40.144 265.699 40.336 264.899 40.336C264.131 40.336 263.419 40.12 262.763 39.688C262.107 39.24 261.579 38.576 261.179 37.696C260.795 36.816 260.603 35.752 260.603 34.504C260.603 33.128 260.851 31.936 261.347 30.928C261.859 29.904 262.579 29.12 263.507 28.576C264.451 28.032 265.555 27.76 266.819 27.76C267.443 27.76 268.323 27.864 269.459 28.072C270.419 28.232 271.139 28.328 271.619 28.36L271.883 28.672L271.595 29.104C271.483 29.264 271.403 29.416 271.355 29.56C271.307 29.688 271.283 29.848 271.283 30.04V37.888C271.283 38.384 271.523 38.632 272.003 38.632C272.403 38.632 272.803 38.488 273.203 38.2L273.659 38.824C273.243 39.288 272.795 39.656 272.315 39.928C271.835 40.2 271.395 40.336 270.995 40.336C270.339 40.336 269.867 40.136 269.579 39.736C269.291 39.336 269.147 38.688 269.147 37.792ZM263.123 34.048C263.123 35.568 263.379 36.688 263.891 37.408C264.419 38.128 265.075 38.488 265.859 38.488C266.499 38.488 267.099 38.312 267.659 37.96C268.219 37.592 268.715 37.04 269.147 36.304V29.824C268.411 29.328 267.627 29.08 266.795 29.08C265.627 29.08 264.723 29.52 264.083 30.4C263.443 31.264 263.123 32.48 263.123 34.048ZM281.688 28.072C281.688 28.408 281.64 28.712 281.544 28.984C281.448 29.256 281.312 29.456 281.136 29.584H278.568V37.312C278.568 37.808 278.64 38.16 278.784 38.368C278.928 38.576 279.16 38.68 279.48 38.68C279.96 38.68 280.504 38.424 281.112 37.912L281.568 38.536C281.152 39.08 280.656 39.52 280.08 39.856C279.504 40.176 278.96 40.336 278.448 40.336C277.792 40.336 277.28 40.136 276.912 39.736C276.56 39.32 276.384 38.752 276.384 38.032V29.584H274.272C274.272 29.152 274.304 28.872 274.368 28.744C274.432 28.616 274.592 28.52 274.848 28.456C275.696 28.232 276.296 27.872 276.648 27.376C277.016 26.864 277.28 26.208 277.44 25.408C277.488 25.152 277.568 24.992 277.68 24.928C277.808 24.864 278.104 24.832 278.568 24.832V28.072H281.688ZM295.901 45.424C296.893 45.424 297.621 45.016 298.085 44.2C298.549 43.384 298.781 42.288 298.781 40.912V37.096C298.125 38.024 297.453 38.68 296.765 39.064C296.077 39.448 295.333 39.64 294.533 39.64C293.765 39.64 293.053 39.448 292.397 39.064C291.741 38.664 291.213 38.08 290.813 37.312C290.429 36.544 290.237 35.608 290.237 34.504C290.237 33.128 290.485 31.936 290.981 30.928C291.493 29.904 292.213 29.12 293.141 28.576C294.085 28.032 295.189 27.76 296.453 27.76C297.077 27.76 297.957 27.864 299.093 28.072C300.053 28.232 300.773 28.328 301.253 28.36L301.517 28.672L301.229 29.104C301.117 29.264 301.037 29.416 300.989 29.56C300.941 29.688 300.917 29.848 300.917 30.04V40.528C300.917 42.496 300.437 44.008 299.477 45.064C298.533 46.136 297.237 46.672 295.589 46.672C294.709 46.672 293.957 46.504 293.333 46.168C292.709 45.848 292.245 45.424 291.941 44.896C291.637 44.384 291.485 43.832 291.485 43.24C291.485 42.44 291.757 41.752 292.301 41.176C292.845 40.616 293.589 40.336 294.533 40.336C294.693 40.336 294.805 40.36 294.869 40.408C294.949 40.472 294.989 40.536 294.989 40.6C294.989 40.664 294.877 40.816 294.653 41.056C294.429 41.296 294.229 41.584 294.053 41.92C293.893 42.256 293.813 42.68 293.813 43.192C293.813 43.832 293.997 44.36 294.365 44.776C294.749 45.208 295.261 45.424 295.901 45.424ZM292.757 34.048C292.757 35.328 293.013 36.272 293.525 36.88C294.053 37.488 294.709 37.792 295.493 37.792C296.133 37.792 296.733 37.616 297.293 37.264C297.853 36.896 298.349 36.344 298.781 35.608V29.824C298.045 29.328 297.261 29.08 296.429 29.08C295.261 29.08 294.357 29.52 293.717 30.4C293.077 31.264 292.757 32.48 292.757 34.048ZM304.314 34.048C304.314 32.768 304.546 31.656 305.01 30.712C305.49 29.768 306.17 29.04 307.05 28.528C307.946 28.016 308.986 27.76 310.17 27.76C311.354 27.76 312.386 28.016 313.266 28.528C314.146 29.04 314.826 29.768 315.306 30.712C315.786 31.656 316.026 32.768 316.026 34.048C316.026 35.312 315.786 36.424 315.306 37.384C314.826 38.328 314.146 39.056 313.266 39.568C312.386 40.08 311.354 40.336 310.17 40.336C308.986 40.336 307.946 40.08 307.05 39.568C306.17 39.056 305.49 38.328 305.01 37.384C304.546 36.424 304.314 35.312 304.314 34.048ZM313.506 34.12C313.506 33.368 313.402 32.6 313.194 31.816C312.986 31.032 312.634 30.368 312.138 29.824C311.658 29.28 311.026 29.008 310.242 29.008C309.57 29.008 308.97 29.224 308.442 29.656C307.93 30.072 307.53 30.664 307.242 31.432C306.954 32.2 306.81 33.08 306.81 34.072C306.81 35.592 307.106 36.8 307.698 37.696C308.29 38.592 309.09 39.04 310.098 39.04C310.754 39.04 311.338 38.84 311.85 38.44C312.378 38.024 312.786 37.448 313.074 36.712C313.362 35.96 313.506 35.096 313.506 34.12ZM318.189 34.048C318.189 32.768 318.421 31.656 318.885 30.712C319.365 29.768 320.045 29.04 320.925 28.528C321.821 28.016 322.861 27.76 324.045 27.76C325.229 27.76 326.261 28.016 327.141 28.528C328.021 29.04 328.701 29.768 329.181 30.712C329.661 31.656 329.901 32.768 329.901 34.048C329.901 35.312 329.661 36.424 329.181 37.384C328.701 38.328 328.021 39.056 327.141 39.568C326.261 40.08 325.229 40.336 324.045 40.336C322.861 40.336 321.821 40.08 320.925 39.568C320.045 39.056 319.365 38.328 318.885 37.384C318.421 36.424 318.189 35.312 318.189 34.048ZM327.381 34.12C327.381 33.368 327.277 32.6 327.069 31.816C326.861 31.032 326.509 30.368 326.013 29.824C325.533 29.28 324.901 29.008 324.117 29.008C323.445 29.008 322.845 29.224 322.317 29.656C321.805 30.072 321.405 30.664 321.117 31.432C320.829 32.2 320.685 33.08 320.685 34.072C320.685 35.592 320.981 36.8 321.573 37.696C322.165 38.592 322.965 39.04 323.973 39.04C324.629 39.04 325.213 38.84 325.725 38.44C326.253 38.024 326.661 37.448 326.949 36.712C327.237 35.96 327.381 35.096 327.381 34.12ZM342.744 37.888C342.744 38.384 342.984 38.632 343.464 38.632C343.864 38.632 344.264 38.488 344.664 38.2L345.12 38.824C344.704 39.288 344.256 39.656 343.776 39.928C343.296 40.2 342.856 40.336 342.456 40.336C341.8 40.336 341.328 40.136 341.04 39.736C340.752 39.336 340.608 38.688 340.608 37.792C339.952 38.72 339.28 39.376 338.592 39.76C337.904 40.144 337.16 40.336 336.36 40.336C335.592 40.336 334.88 40.12 334.224 39.688C333.568 39.24 333.04 38.576 332.64 37.696C332.256 36.816 332.064 35.752 332.064 34.504C332.064 33.128 332.312 31.936 332.808 30.928C333.32 29.904 334.04 29.12 334.968 28.576C335.912 28.032 337.016 27.76 338.28 27.76C339.112 27.76 339.872 27.864 340.56 28.072V23.824C340.56 23.632 340.52 23.496 340.44 23.416C340.376 23.336 340.256 23.296 340.08 23.296H339.024L338.808 22.672C339.272 22.256 339.8 21.912 340.392 21.64C341 21.368 341.528 21.232 341.976 21.232C342.2 21.232 342.384 21.304 342.528 21.448C342.672 21.592 342.744 21.776 342.744 22V37.888ZM334.584 34.048C334.584 35.568 334.84 36.688 335.352 37.408C335.88 38.128 336.536 38.488 337.32 38.488C337.96 38.488 338.56 38.312 339.12 37.96C339.68 37.592 340.176 37.04 340.608 36.304V29.824C339.872 29.328 339.088 29.08 338.256 29.08C337.088 29.08 336.184 29.52 335.544 30.4C334.904 31.264 334.584 32.48 334.584 34.048ZM354.694 28.072C354.694 25.944 355.07 24.272 355.822 23.056C356.574 21.84 357.686 21.232 359.158 21.232C360.198 21.232 361.054 21.48 361.726 21.976C362.398 22.472 362.734 23.112 362.734 23.896C362.734 24.584 362.51 25.152 362.062 25.6C361.63 26.032 361.07 26.248 360.382 26.248C360.078 26.248 359.926 26.16 359.926 25.984C359.926 25.936 359.982 25.824 360.094 25.648C360.206 25.472 360.302 25.256 360.382 25C360.462 24.744 360.502 24.416 360.502 24.016C360.502 23.504 360.358 23.096 360.07 22.792C359.782 22.472 359.39 22.312 358.894 22.312C358.19 22.312 357.67 22.664 357.334 23.368C357.014 24.056 356.854 25.016 356.854 26.248V28.072H360.214C360.214 28.408 360.166 28.712 360.07 28.984C359.974 29.256 359.838 29.456 359.662 29.584H356.854V40.312C356.854 41.976 356.486 43.288 355.75 44.248C355.03 45.224 353.958 45.712 352.534 45.712C351.67 45.712 350.958 45.488 350.398 45.04C349.838 44.608 349.558 44.016 349.558 43.264C349.558 42.656 349.782 42.144 350.23 41.728C350.678 41.312 351.238 41.104 351.91 41.104C352.214 41.104 352.366 41.192 352.366 41.368C352.366 41.416 352.302 41.52 352.174 41.68C352.046 41.856 351.934 42.048 351.838 42.256C351.742 42.48 351.694 42.76 351.694 43.096C351.694 43.592 351.822 43.976 352.078 44.248C352.318 44.536 352.63 44.68 353.014 44.68C353.494 44.68 353.894 44.464 354.214 44.032C354.534 43.616 354.694 42.992 354.694 42.16V29.584H352.582C352.582 29.152 352.614 28.872 352.678 28.744C352.742 28.616 352.902 28.52 353.158 28.456L354.694 28.072ZM361.174 34.048C361.174 32.768 361.406 31.656 361.87 30.712C362.35 29.768 363.03 29.04 363.91 28.528C364.806 28.016 365.846 27.76 367.03 27.76C368.214 27.76 369.246 28.016 370.126 28.528C371.006 29.04 371.686 29.768 372.166 30.712C372.646 31.656 372.886 32.768 372.886 34.048C372.886 35.312 372.646 36.424 372.166 37.384C371.686 38.328 371.006 39.056 370.126 39.568C369.246 40.08 368.214 40.336 367.03 40.336C365.846 40.336 364.806 40.08 363.91 39.568C363.03 39.056 362.35 38.328 361.87 37.384C361.406 36.424 361.174 35.312 361.174 34.048ZM370.366 34.12C370.366 33.368 370.262 32.6 370.054 31.816C369.846 31.032 369.494 30.368 368.998 29.824C368.518 29.28 367.886 29.008 367.102 29.008C366.43 29.008 365.83 29.224 365.302 29.656C364.79 30.072 364.39 30.664 364.102 31.432C363.814 32.2 363.67 33.08 363.67 34.072C363.67 35.592 363.966 36.8 364.558 37.696C365.15 38.592 365.95 39.04 366.958 39.04C367.614 39.04 368.198 38.84 368.71 38.44C369.238 38.024 369.646 37.448 369.934 36.712C370.222 35.96 370.366 35.096 370.366 34.12ZM379.009 31.336C379.281 30.264 379.697 29.4 380.257 28.744C380.833 28.088 381.457 27.76 382.129 27.76C382.801 27.76 383.353 27.984 383.785 28.432C384.233 28.864 384.457 29.456 384.457 30.208C384.457 30.816 384.233 31.328 383.785 31.744C383.337 32.16 382.777 32.368 382.105 32.368C381.801 32.368 381.649 32.28 381.649 32.104C381.649 32.056 381.713 31.936 381.841 31.744C381.985 31.552 382.097 31.352 382.177 31.144C382.273 30.936 382.321 30.704 382.321 30.448C382.321 30.16 382.241 29.936 382.081 29.776C381.937 29.6 381.753 29.512 381.529 29.512C381.145 29.512 380.745 29.744 380.329 30.208C379.929 30.656 379.585 31.392 379.297 32.416C379.009 33.424 378.865 34.704 378.865 36.256C378.865 36.976 378.921 37.56 379.033 38.008C379.145 38.44 379.345 38.856 379.633 39.256L379.921 39.64L379.633 40H375.433L375.169 39.256L375.673 39.136C376.073 39.04 376.337 38.872 376.465 38.632C376.609 38.376 376.681 37.944 376.681 37.336V30.592C376.681 30.4 376.641 30.264 376.561 30.184C376.497 30.104 376.377 30.064 376.201 30.064H375.145L374.929 29.44C375.393 29.024 375.921 28.68 376.513 28.408C377.121 28.136 377.649 28 378.097 28C378.321 28 378.505 28.072 378.649 28.216C378.793 28.36 378.865 28.544 378.865 28.768V31.336H379.009ZM392.125 28.072C392.125 28.408 392.077 28.712 391.981 28.984C391.885 29.256 391.749 29.456 391.573 29.584H389.005V37.312C389.005 37.808 389.077 38.16 389.221 38.368C389.365 38.576 389.597 38.68 389.917 38.68C390.397 38.68 390.941 38.424 391.549 37.912L392.005 38.536C391.589 39.08 391.093 39.52 390.517 39.856C389.941 40.176 389.397 40.336 388.885 40.336C388.229 40.336 387.717 40.136 387.349 39.736C386.997 39.32 386.821 38.752 386.821 38.032V29.584H384.709C384.709 29.152 384.741 28.872 384.805 28.744C384.869 28.616 385.029 28.52 385.285 28.456C386.133 28.232 386.733 27.872 387.085 27.376C387.453 26.864 387.717 26.208 387.877 25.408C387.925 25.152 388.005 24.992 388.117 24.928C388.245 24.864 388.541 24.832 389.005 24.832V28.072H392.125ZM404.985 37.888C404.985 38.384 405.217 38.632 405.681 38.632C406.049 38.632 406.441 38.488 406.857 38.2L407.313 38.824C406.945 39.272 406.513 39.64 406.017 39.928C405.537 40.2 405.089 40.336 404.673 40.336C404.033 40.336 403.561 40.152 403.257 39.784C402.969 39.416 402.825 38.832 402.825 38.032C402.457 38.736 401.905 39.296 401.169 39.712C400.449 40.128 399.649 40.336 398.769 40.336C397.617 40.336 396.713 39.992 396.057 39.304C395.417 38.6 395.097 37.616 395.097 36.352V30.352C395.097 30 394.937 29.824 394.617 29.824H393.561L393.345 29.2C393.761 28.784 394.265 28.44 394.857 28.168C395.465 27.896 396.017 27.76 396.513 27.76C396.737 27.76 396.921 27.832 397.065 27.976C397.209 28.12 397.281 28.304 397.281 28.528V35.8C397.281 36.76 397.473 37.488 397.857 37.984C398.257 38.48 398.833 38.728 399.585 38.728C400.657 38.728 401.489 38.264 402.081 37.336C402.689 36.408 402.993 35.128 402.993 33.496C402.993 32.312 402.921 31.392 402.777 30.736C402.649 30.064 402.409 29.424 402.057 28.816L401.769 28.432L402.057 28.072L404.985 27.76V37.888ZM412.685 36.16C412.685 36.912 412.741 37.512 412.853 37.96C412.965 38.408 413.165 38.84 413.453 39.256L413.741 39.64L413.453 40H409.253L408.989 39.256L409.493 39.136C409.893 39.04 410.157 38.872 410.285 38.632C410.429 38.376 410.501 37.944 410.501 37.336V30.592C410.501 30.4 410.461 30.264 410.381 30.184C410.317 30.104 410.197 30.064 410.021 30.064H408.965L408.749 29.44C409.213 29.024 409.741 28.68 410.333 28.408C410.941 28.136 411.469 28 411.917 28C412.141 28 412.325 28.072 412.469 28.216C412.613 28.36 412.685 28.544 412.685 28.768V31.336C413.101 30.296 413.725 29.44 414.557 28.768C415.389 28.096 416.261 27.76 417.173 27.76C418.293 27.76 419.109 28.104 419.621 28.792C420.133 29.48 420.389 30.576 420.389 32.08V37.888C420.389 38.432 420.629 38.704 421.109 38.704C421.477 38.704 421.877 38.536 422.309 38.2L422.765 38.824C422.349 39.288 421.901 39.656 421.421 39.928C420.941 40.2 420.493 40.336 420.077 40.336C419.421 40.336 418.949 40.136 418.661 39.736C418.373 39.336 418.229 38.688 418.229 37.792V32.08C418.229 30.448 417.541 29.632 416.165 29.632C415.477 29.632 414.869 29.904 414.341 30.448C413.829 30.992 413.421 31.76 413.117 32.752C412.829 33.744 412.685 34.88 412.685 36.16ZM434.586 38.2C433.994 38.888 433.29 39.416 432.474 39.784C431.658 40.152 430.778 40.336 429.834 40.336C428.73 40.336 427.762 40.08 426.93 39.568C426.098 39.056 425.45 38.336 424.986 37.408C424.538 36.48 424.314 35.408 424.314 34.192C424.314 32.912 424.57 31.792 425.082 30.832C425.594 29.856 426.314 29.104 427.242 28.576C428.186 28.032 429.282 27.76 430.53 27.76C431.41 27.76 432.154 27.928 432.762 28.264C433.386 28.584 433.85 29.016 434.154 29.56C434.458 30.088 434.61 30.664 434.61 31.288C434.61 31.96 434.426 32.608 434.058 33.232C433.706 33.856 433.186 34.368 432.498 34.768C431.81 35.152 430.986 35.344 430.026 35.344C429.514 35.344 428.946 35.248 428.322 35.056C427.698 34.864 427.386 34.584 427.386 34.216C427.386 34.088 427.418 33.968 427.482 33.856C427.562 33.744 427.65 33.688 427.746 33.688C427.794 33.688 427.954 33.744 428.226 33.856C428.498 33.952 428.85 34 429.282 34C430.242 34 430.986 33.728 431.514 33.184C432.058 32.64 432.33 32 432.33 31.264C432.33 30.64 432.13 30.104 431.73 29.656C431.33 29.192 430.77 28.96 430.05 28.96C429.026 28.96 428.226 29.416 427.65 30.328C427.074 31.224 426.786 32.512 426.786 34.192C426.786 35.616 427.09 36.736 427.698 37.552C428.306 38.352 429.186 38.752 430.338 38.752C431.746 38.752 432.914 38.296 433.842 37.384C433.906 37.32 433.978 37.288 434.058 37.288C434.186 37.288 434.322 37.368 434.466 37.528C434.61 37.672 434.682 37.824 434.682 37.984C434.682 38.064 434.65 38.136 434.586 38.2ZM454.307 37.888C454.307 38.384 454.547 38.632 455.027 38.632C455.427 38.632 455.827 38.488 456.227 38.2L456.683 38.824C456.267 39.288 455.819 39.656 455.339 39.928C454.859 40.2 454.419 40.336 454.019 40.336C453.363 40.336 452.891 40.136 452.603 39.736C452.315 39.336 452.171 38.688 452.171 37.792C451.515 38.72 450.843 39.376 450.155 39.76C449.467 40.144 448.723 40.336 447.923 40.336C447.155 40.336 446.443 40.12 445.787 39.688C445.131 39.24 444.603 38.576 444.203 37.696C443.819 36.816 443.627 35.752 443.627 34.504C443.627 33.128 443.875 31.936 444.371 30.928C444.883 29.904 445.603 29.12 446.531 28.576C447.475 28.032 448.579 27.76 449.843 27.76C450.675 27.76 451.435 27.864 452.123 28.072V23.824C452.123 23.632 452.083 23.496 452.003 23.416C451.939 23.336 451.819 23.296 451.643 23.296H450.587L450.371 22.672C450.835 22.256 451.363 21.912 451.955 21.64C452.563 21.368 453.091 21.232 453.539 21.232C453.763 21.232 453.947 21.304 454.091 21.448C454.235 21.592 454.307 21.776 454.307 22V37.888ZM446.147 34.048C446.147 35.568 446.403 36.688 446.915 37.408C447.443 38.128 448.099 38.488 448.883 38.488C449.523 38.488 450.123 38.312 450.683 37.96C451.243 37.592 451.739 37.04 452.171 36.304V29.824C451.435 29.328 450.651 29.08 449.819 29.08C448.651 29.08 447.747 29.52 447.107 30.4C446.467 31.264 446.147 32.48 446.147 34.048ZM458.111 34.048C458.111 32.768 458.343 31.656 458.807 30.712C459.287 29.768 459.967 29.04 460.847 28.528C461.743 28.016 462.783 27.76 463.967 27.76C465.151 27.76 466.183 28.016 467.063 28.528C467.943 29.04 468.623 29.768 469.103 30.712C469.583 31.656 469.823 32.768 469.823 34.048C469.823 35.312 469.583 36.424 469.103 37.384C468.623 38.328 467.943 39.056 467.063 39.568C466.183 40.08 465.151 40.336 463.967 40.336C462.783 40.336 461.743 40.08 460.847 39.568C459.967 39.056 459.287 38.328 458.807 37.384C458.343 36.424 458.111 35.312 458.111 34.048ZM467.303 34.12C467.303 33.368 467.199 32.6 466.991 31.816C466.783 31.032 466.431 30.368 465.935 29.824C465.455 29.28 464.823 29.008 464.039 29.008C463.367 29.008 462.767 29.224 462.239 29.656C461.727 30.072 461.327 30.664 461.039 31.432C460.751 32.2 460.607 33.08 460.607 34.072C460.607 35.592 460.903 36.8 461.495 37.696C462.087 38.592 462.887 39.04 463.895 39.04C464.551 39.04 465.135 38.84 465.647 38.44C466.175 38.024 466.583 37.448 466.871 36.712C467.159 35.96 467.303 35.096 467.303 34.12ZM484.5 46.672C483.62 46.672 482.868 46.504 482.244 46.168C481.62 45.848 481.156 45.424 480.852 44.896C480.548 44.384 480.396 43.832 480.396 43.24C480.396 42.44 480.668 41.752 481.212 41.176C481.756 40.616 482.5 40.336 483.444 40.336C483.604 40.336 483.716 40.36 483.78 40.408C483.86 40.472 483.9 40.536 483.9 40.6C483.9 40.664 483.788 40.816 483.564 41.056C483.34 41.296 483.14 41.584 482.964 41.92C482.804 42.256 482.724 42.68 482.724 43.192C482.724 43.832 482.908 44.36 483.276 44.776C483.66 45.208 484.172 45.424 484.812 45.424C485.804 45.424 486.532 45.016 486.996 44.2C487.46 43.384 487.692 42.288 487.692 40.912V37.36C487.324 38.064 486.772 38.624 486.036 39.04C485.3 39.44 484.492 39.64 483.612 39.64C482.476 39.64 481.588 39.296 480.948 38.608C480.308 37.904 479.988 36.92 479.988 35.656V30.328C479.988 30.136 479.948 30 479.868 29.92C479.804 29.84 479.684 29.8 479.508 29.8H478.452L478.236 29.176C478.652 28.76 479.156 28.416 479.748 28.144C480.356 27.872 480.908 27.736 481.404 27.736C481.628 27.736 481.812 27.808 481.956 27.952C482.1 28.096 482.172 28.28 482.172 28.504V35.104C482.172 36.064 482.364 36.792 482.748 37.288C483.132 37.784 483.692 38.032 484.428 38.032C485.5 38.032 486.332 37.632 486.924 36.832C487.532 36.016 487.836 34.896 487.836 33.472C487.836 32.16 487.78 31.184 487.668 30.544C487.556 29.904 487.3 29.32 486.9 28.792L486.612 28.408L486.9 28.048L489.828 27.736V40.528C489.828 42.496 489.348 44.008 488.388 45.064C487.444 46.136 486.148 46.672 484.5 46.672ZM493.244 34.048C493.244 32.768 493.476 31.656 493.94 30.712C494.42 29.768 495.1 29.04 495.98 28.528C496.876 28.016 497.916 27.76 499.1 27.76C500.284 27.76 501.316 28.016 502.196 28.528C503.076 29.04 503.756 29.768 504.236 30.712C504.716 31.656 504.956 32.768 504.956 34.048C504.956 35.312 504.716 36.424 504.236 37.384C503.756 38.328 503.076 39.056 502.196 39.568C501.316 40.08 500.284 40.336 499.1 40.336C497.916 40.336 496.876 40.08 495.98 39.568C495.1 39.056 494.42 38.328 493.94 37.384C493.476 36.424 493.244 35.312 493.244 34.048ZM502.436 34.12C502.436 33.368 502.332 32.6 502.124 31.816C501.916 31.032 501.564 30.368 501.068 29.824C500.588 29.28 499.956 29.008 499.172 29.008C498.5 29.008 497.9 29.224 497.372 29.656C496.86 30.072 496.46 30.664 496.172 31.432C495.884 32.2 495.74 33.08 495.74 34.072C495.74 35.592 496.036 36.8 496.628 37.696C497.22 38.592 498.02 39.04 499.028 39.04C499.684 39.04 500.268 38.84 500.78 38.44C501.308 38.024 501.716 37.448 502.004 36.712C502.292 35.96 502.436 35.096 502.436 34.12ZM518.399 37.888C518.399 38.384 518.631 38.632 519.095 38.632C519.463 38.632 519.855 38.488 520.271 38.2L520.727 38.824C520.359 39.272 519.927 39.64 519.431 39.928C518.951 40.2 518.503 40.336 518.087 40.336C517.447 40.336 516.975 40.152 516.671 39.784C516.383 39.416 516.239 38.832 516.239 38.032C515.871 38.736 515.319 39.296 514.583 39.712C513.863 40.128 513.063 40.336 512.183 40.336C511.031 40.336 510.127 39.992 509.471 39.304C508.831 38.6 508.511 37.616 508.511 36.352V30.352C508.511 30 508.351 29.824 508.031 29.824H506.975L506.759 29.2C507.175 28.784 507.679 28.44 508.271 28.168C508.879 27.896 509.431 27.76 509.927 27.76C510.151 27.76 510.335 27.832 510.479 27.976C510.623 28.12 510.695 28.304 510.695 28.528V35.8C510.695 36.76 510.887 37.488 511.271 37.984C511.671 38.48 512.247 38.728 512.999 38.728C514.071 38.728 514.903 38.264 515.495 37.336C516.103 36.408 516.407 35.128 516.407 33.496C516.407 32.312 516.335 31.392 516.191 30.736C516.063 30.064 515.823 29.424 515.471 28.816L515.183 28.432L515.471 28.072L518.399 27.76V37.888ZM533.597 39.16C534.253 39.16 534.789 38.984 535.205 38.632C535.637 38.264 535.853 37.792 535.853 37.216C535.853 36.704 535.629 36.288 535.181 35.968C534.749 35.648 534.101 35.304 533.237 34.936C532.453 34.616 531.797 34.304 531.269 34C530.757 33.696 530.317 33.304 529.949 32.824C529.581 32.328 529.396 31.72 529.396 31C529.396 30.04 529.805 29.264 530.621 28.672C531.453 28.064 532.501 27.76 533.765 27.76C534.901 27.76 535.845 27.984 536.597 28.432C537.349 28.88 537.725 29.48 537.725 30.232C537.725 30.84 537.533 31.344 537.149 31.744C536.781 32.128 536.301 32.32 535.709 32.32C535.373 32.32 535.205 32.216 535.205 32.008C535.205 31.944 535.261 31.784 535.373 31.528C535.501 31.256 535.565 30.968 535.565 30.664C535.565 30.072 535.365 29.632 534.965 29.344C534.565 29.056 534.109 28.912 533.597 28.912C532.941 28.912 532.421 29.08 532.037 29.416C531.669 29.736 531.485 30.152 531.485 30.664C531.485 31.256 531.717 31.736 532.181 32.104C532.661 32.456 533.365 32.824 534.293 33.208C535.061 33.528 535.701 33.832 536.213 34.12C536.725 34.392 537.157 34.744 537.509 35.176C537.861 35.608 538.037 36.128 538.037 36.736C538.037 37.824 537.605 38.696 536.741 39.352C535.877 40.008 534.725 40.336 533.285 40.336C532.069 40.336 531.069 40.064 530.285 39.52C529.501 38.976 529.109 38.248 529.109 37.336C529.109 36.792 529.293 36.344 529.661 35.992C530.029 35.64 530.509 35.464 531.101 35.464C531.437 35.464 531.605 35.56 531.605 35.752C531.605 35.8 531.557 35.952 531.461 36.208C531.365 36.448 531.317 36.744 531.317 37.096C531.317 37.768 531.549 38.28 532.013 38.632C532.493 38.984 533.021 39.16 533.597 39.16ZM550.719 38.2C550.127 38.888 549.423 39.416 548.607 39.784C547.791 40.152 546.911 40.336 545.967 40.336C544.863 40.336 543.895 40.08 543.063 39.568C542.231 39.056 541.583 38.336 541.119 37.408C540.671 36.48 540.447 35.408 540.447 34.192C540.447 32.912 540.703 31.792 541.215 30.832C541.727 29.856 542.447 29.104 543.375 28.576C544.319 28.032 545.415 27.76 546.663 27.76C547.543 27.76 548.287 27.928 548.895 28.264C549.519 28.584 549.983 29.016 550.287 29.56C550.591 30.088 550.743 30.664 550.743 31.288C550.743 31.96 550.559 32.608 550.191 33.232C549.839 33.856 549.319 34.368 548.631 34.768C547.943 35.152 547.119 35.344 546.159 35.344C545.647 35.344 545.079 35.248 544.455 35.056C543.831 34.864 543.519 34.584 543.519 34.216C543.519 34.088 543.551 33.968 543.615 33.856C543.695 33.744 543.783 33.688 543.879 33.688C543.927 33.688 544.087 33.744 544.359 33.856C544.631 33.952 544.983 34 545.415 34C546.375 34 547.119 33.728 547.647 33.184C548.191 32.64 548.463 32 548.463 31.264C548.463 30.64 548.263 30.104 547.863 29.656C547.463 29.192 546.903 28.96 546.183 28.96C545.159 28.96 544.359 29.416 543.783 30.328C543.207 31.224 542.919 32.512 542.919 34.192C542.919 35.616 543.223 36.736 543.831 37.552C544.439 38.352 545.319 38.752 546.471 38.752C547.879 38.752 549.047 38.296 549.975 37.384C550.039 37.32 550.111 37.288 550.191 37.288C550.319 37.288 550.455 37.368 550.599 37.528C550.743 37.672 550.815 37.824 550.815 37.984C550.815 38.064 550.783 38.136 550.719 38.2ZM563.422 38.2C562.83 38.888 562.126 39.416 561.31 39.784C560.494 40.152 559.614 40.336 558.67 40.336C557.566 40.336 556.598 40.08 555.766 39.568C554.934 39.056 554.286 38.336 553.822 37.408C553.374 36.48 553.15 35.408 553.15 34.192C553.15 32.912 553.406 31.792 553.918 30.832C554.43 29.856 555.15 29.104 556.078 28.576C557.022 28.032 558.118 27.76 559.366 27.76C560.246 27.76 560.99 27.928 561.598 28.264C562.222 28.584 562.686 29.016 562.99 29.56C563.294 30.088 563.446 30.664 563.446 31.288C563.446 31.96 563.262 32.608 562.894 33.232C562.542 33.856 562.022 34.368 561.334 34.768C560.646 35.152 559.822 35.344 558.862 35.344C558.35 35.344 557.782 35.248 557.158 35.056C556.534 34.864 556.222 34.584 556.222 34.216C556.222 34.088 556.254 33.968 556.318 33.856C556.398 33.744 556.486 33.688 556.582 33.688C556.63 33.688 556.79 33.744 557.062 33.856C557.334 33.952 557.686 34 558.118 34C559.078 34 559.822 33.728 560.35 33.184C560.894 32.64 561.166 32 561.166 31.264C561.166 30.64 560.966 30.104 560.566 29.656C560.166 29.192 559.606 28.96 558.886 28.96C557.862 28.96 557.062 29.416 556.486 30.328C555.91 31.224 555.622 32.512 555.622 34.192C555.622 35.616 555.926 36.736 556.534 37.552C557.142 38.352 558.022 38.752 559.174 38.752C560.582 38.752 561.75 38.296 562.678 37.384C562.742 37.32 562.814 37.288 562.894 37.288C563.022 37.288 563.158 37.368 563.302 37.528C563.446 37.672 563.518 37.824 563.518 37.984C563.518 38.064 563.486 38.136 563.422 38.2ZM570.845 34.336C570.541 34.256 570.389 34.088 570.389 33.832C570.389 33.704 570.413 33.6 570.461 33.52C570.525 33.424 570.621 33.376 570.749 33.376C570.797 33.376 570.957 33.416 571.229 33.496C571.501 33.56 571.853 33.592 572.285 33.592C572.877 33.592 573.381 33.472 573.797 33.232C574.213 32.992 574.525 32.68 574.733 32.296C574.941 31.912 575.045 31.52 575.045 31.12C575.045 30.64 574.901 30.24 574.613 29.92C574.341 29.584 573.949 29.416 573.437 29.416C572.653 29.416 571.965 29.696 571.373 30.256C570.781 30.816 570.325 31.608 570.005 32.632C569.701 33.656 569.549 34.832 569.549 36.16C569.549 36.928 569.605 37.544 569.717 38.008C569.829 38.456 570.029 38.872 570.317 39.256L570.605 39.64L570.317 40H566.117L565.853 39.256L566.357 39.136C566.757 39.04 567.021 38.872 567.149 38.632C567.293 38.376 567.365 37.944 567.365 37.336V23.824C567.365 23.632 567.325 23.496 567.245 23.416C567.181 23.336 567.061 23.296 566.885 23.296H565.829L565.613 22.672C566.077 22.256 566.605 21.912 567.197 21.64C567.805 21.368 568.333 21.232 568.781 21.232C569.005 21.232 569.189 21.304 569.333 21.448C569.477 21.592 569.549 21.776 569.549 22V31.336C569.949 30.28 570.549 29.424 571.349 28.768C572.165 28.096 573.013 27.76 573.893 27.76C574.949 27.76 575.765 28.064 576.341 28.672C576.917 29.28 577.205 30.024 577.205 30.904C577.205 31.464 577.061 32.016 576.773 32.56C576.501 33.088 576.093 33.544 575.549 33.928C575.021 34.296 574.389 34.52 573.653 34.6L575.525 38.152C575.653 38.408 575.797 38.584 575.957 38.68C576.117 38.776 576.309 38.824 576.533 38.824C576.741 38.824 576.957 38.768 577.181 38.656C577.405 38.544 577.613 38.392 577.805 38.2L578.309 38.824C577.573 39.832 576.717 40.336 575.741 40.336C575.261 40.336 574.853 40.24 574.517 40.048C574.197 39.856 573.917 39.592 573.677 39.256C573.453 38.92 573.173 38.432 572.837 37.792L571.061 34.408L570.845 34.336ZM593.078 28.072C593.078 28.408 593.03 28.712 592.934 28.984C592.838 29.256 592.702 29.456 592.526 29.584H589.958V37.312C589.958 37.808 590.03 38.16 590.174 38.368C590.318 38.576 590.55 38.68 590.87 38.68C591.35 38.68 591.894 38.424 592.502 37.912L592.958 38.536C592.542 39.08 592.046 39.52 591.47 39.856C590.894 40.176 590.35 40.336 589.838 40.336C589.182 40.336 588.67 40.136 588.302 39.736C587.95 39.32 587.774 38.752 587.774 38.032V29.584H585.662C585.662 29.152 585.694 28.872 585.758 28.744C585.822 28.616 585.982 28.52 586.238 28.456C587.086 28.232 587.686 27.872 588.038 27.376C588.406 26.864 588.67 26.208 588.83 25.408C588.878 25.152 588.958 24.992 589.07 24.928C589.198 24.864 589.494 24.832 589.958 24.832V28.072H593.078ZM594.658 34.048C594.658 32.768 594.89 31.656 595.354 30.712C595.834 29.768 596.514 29.04 597.394 28.528C598.29 28.016 599.33 27.76 600.514 27.76C601.698 27.76 602.73 28.016 603.61 28.528C604.49 29.04 605.17 29.768 605.65 30.712C606.13 31.656 606.37 32.768 606.37 34.048C606.37 35.312 606.13 36.424 605.65 37.384C605.17 38.328 604.49 39.056 603.61 39.568C602.73 40.08 601.698 40.336 600.514 40.336C599.33 40.336 598.29 40.08 597.394 39.568C596.514 39.056 595.834 38.328 595.354 37.384C594.89 36.424 594.658 35.312 594.658 34.048ZM603.85 34.12C603.85 33.368 603.746 32.6 603.538 31.816C603.33 31.032 602.978 30.368 602.482 29.824C602.002 29.28 601.37 29.008 600.586 29.008C599.914 29.008 599.314 29.224 598.786 29.656C598.274 30.072 597.874 30.664 597.586 31.432C597.298 32.2 597.154 33.08 597.154 34.072C597.154 35.592 597.45 36.8 598.042 37.696C598.634 38.592 599.434 39.04 600.442 39.04C601.098 39.04 601.682 38.84 602.194 38.44C602.722 38.024 603.13 37.448 603.418 36.712C603.706 35.96 603.85 35.096 603.85 34.12ZM619.213 37.888C619.213 38.384 619.453 38.632 619.933 38.632C620.333 38.632 620.733 38.488 621.133 38.2L621.589 38.824C621.173 39.288 620.725 39.656 620.245 39.928C619.765 40.2 619.325 40.336 618.925 40.336C618.269 40.336 617.797 40.136 617.509 39.736C617.221 39.336 617.077 38.688 617.077 37.792C616.421 38.72 615.749 39.376 615.061 39.76C614.373 40.144 613.629 40.336 612.829 40.336C612.061 40.336 611.349 40.12 610.693 39.688C610.037 39.24 609.509 38.576 609.109 37.696C608.725 36.816 608.533 35.752 608.533 34.504C608.533 33.128 608.781 31.936 609.277 30.928C609.789 29.904 610.509 29.12 611.437 28.576C612.381 28.032 613.485 27.76 614.749 27.76C615.581 27.76 616.341 27.864 617.029 28.072V23.824C617.029 23.632 616.989 23.496 616.909 23.416C616.845 23.336 616.725 23.296 616.549 23.296H615.493L615.277 22.672C615.741 22.256 616.269 21.912 616.861 21.64C617.469 21.368 617.997 21.232 618.445 21.232C618.669 21.232 618.853 21.304 618.997 21.448C619.141 21.592 619.213 21.776 619.213 22V37.888ZM611.053 34.048C611.053 35.568 611.309 36.688 611.821 37.408C612.349 38.128 613.005 38.488 613.789 38.488C614.429 38.488 615.029 38.312 615.589 37.96C616.149 37.592 616.645 37.04 617.077 36.304V29.824C616.341 29.328 615.557 29.08 614.725 29.08C613.557 29.08 612.653 29.52 612.013 30.4C611.373 31.264 611.053 32.48 611.053 34.048ZM631.562 37.792C630.906 38.72 630.234 39.376 629.546 39.76C628.858 40.144 628.114 40.336 627.314 40.336C626.546 40.336 625.834 40.12 625.178 39.688C624.522 39.24 623.994 38.576 623.594 37.696C623.21 36.816 623.018 35.752 623.018 34.504C623.018 33.128 623.266 31.936 623.762 30.928C624.274 29.904 624.994 29.12 625.922 28.576C626.866 28.032 627.97 27.76 629.234 27.76C629.858 27.76 630.738 27.864 631.874 28.072C632.834 28.232 633.554 28.328 634.034 28.36L634.298 28.672L634.01 29.104C633.898 29.264 633.818 29.416 633.77 29.56C633.722 29.688 633.698 29.848 633.698 30.04V37.888C633.698 38.384 633.938 38.632 634.418 38.632C634.818 38.632 635.218 38.488 635.618 38.2L636.074 38.824C635.658 39.288 635.21 39.656 634.73 39.928C634.25 40.2 633.81 40.336 633.41 40.336C632.754 40.336 632.282 40.136 631.994 39.736C631.706 39.336 631.562 38.688 631.562 37.792ZM625.538 34.048C625.538 35.568 625.794 36.688 626.306 37.408C626.834 38.128 627.49 38.488 628.273 38.488C628.914 38.488 629.514 38.312 630.074 37.96C630.634 37.592 631.13 37.04 631.562 36.304V29.824C630.826 29.328 630.042 29.08 629.21 29.08C628.042 29.08 627.138 29.52 626.498 30.4C625.858 31.264 625.538 32.48 625.538 34.048ZM643.406 46.672C642.526 46.672 641.774 46.504 641.15 46.168C640.526 45.848 640.062 45.424 639.758 44.896C639.454 44.384 639.302 43.832 639.302 43.24C639.302 42.44 639.574 41.752 640.118 41.176C640.662 40.616 641.406 40.336 642.35 40.336C642.51 40.336 642.622 40.36 642.686 40.408C642.766 40.472 642.806 40.536 642.806 40.6C642.806 40.664 642.694 40.816 642.47 41.056C642.246 41.296 642.046 41.584 641.87 41.92C641.71 42.256 641.63 42.68 641.63 43.192C641.63 43.832 641.814 44.36 642.182 44.776C642.566 45.208 643.078 45.424 643.718 45.424C644.71 45.424 645.438 45.016 645.902 44.2C646.366 43.384 646.598 42.288 646.598 40.912V37.36C646.23 38.064 645.678 38.624 644.942 39.04C644.206 39.44 643.398 39.64 642.518 39.64C641.382 39.64 640.494 39.296 639.854 38.608C639.214 37.904 638.894 36.92 638.894 35.656V30.328C638.894 30.136 638.854 30 638.774 29.92C638.71 29.84 638.59 29.8 638.414 29.8H637.358L637.142 29.176C637.558 28.76 638.062 28.416 638.654 28.144C639.262 27.872 639.814 27.736 640.31 27.736C640.534 27.736 640.718 27.808 640.862 27.952C641.006 28.096 641.078 28.28 641.078 28.504V35.104C641.078 36.064 641.27 36.792 641.654 37.288C642.038 37.784 642.598 38.032 643.334 38.032C644.406 38.032 645.238 37.632 645.83 36.832C646.438 36.016 646.742 34.896 646.742 33.472C646.742 32.16 646.686 31.184 646.574 30.544C646.462 29.904 646.206 29.32 645.806 28.792L645.518 28.408L645.806 28.048L648.734 27.736V40.528C648.734 42.496 648.254 44.008 647.294 45.064C646.35 46.136 645.054 46.672 643.406 46.672ZM659.062 31.768C658.438 32.36 657.982 32.832 657.694 33.184C657.406 33.52 657.198 33.912 657.07 34.36L656.95 34.816H656.494L655.03 33.328C656.342 32.176 657.342 31.168 658.03 30.304C658.718 29.424 659.166 28.672 659.374 28.048C659.598 27.408 659.71 26.768 659.71 26.128C659.71 25.152 659.446 24.416 658.918 23.92C658.39 23.408 657.678 23.152 656.782 23.152C656.094 23.152 655.542 23.344 655.126 23.728C654.726 24.096 654.526 24.6 654.526 25.24C654.526 25.656 654.566 25.992 654.646 26.248C654.742 26.504 654.838 26.72 654.934 26.896C655.046 27.056 655.102 27.16 655.102 27.208C655.102 27.384 654.95 27.472 654.646 27.472C653.958 27.472 653.39 27.256 652.942 26.824C652.51 26.376 652.294 25.808 652.294 25.12C652.294 24.48 652.51 23.904 652.942 23.392C653.374 22.88 653.974 22.488 654.742 22.216C655.51 21.928 656.382 21.784 657.358 21.784C658.286 21.784 659.134 21.952 659.902 22.288C660.686 22.608 661.302 23.088 661.75 23.728C662.214 24.352 662.446 25.104 662.446 25.984C662.446 27.68 661.318 29.608 659.062 31.768ZM655.198 38.776C655.198 38.472 655.366 38.136 655.702 37.768C656.054 37.384 656.374 37.192 656.662 37.192C656.966 37.192 657.294 37.376 657.646 37.744C657.998 38.112 658.174 38.456 658.174 38.776C658.174 39.08 657.998 39.416 657.646 39.784C657.294 40.152 656.966 40.336 656.662 40.336C656.39 40.336 656.078 40.152 655.726 39.784C655.374 39.416 655.198 39.08 655.198 38.776Z" fill="black"/>
<path d="M12 15.4142L12 32.5564L0.928932 23.9853L12 15.4142Z" fill="black"/>
</svg>
