<svg width="133" height="28" viewBox="0 0 133 28" fill="none" xmlns="http://www.w3.org/2000/svg">
<path fill-rule="evenodd" clip-rule="evenodd" d="M11.4997 10.0638C13.4935 8.10438 18.4773 11.535 11.4997 15.9446C4.52209 11.535 9.5059 8.10575 11.4997 10.0665V10.0638Z" fill="#DA9B3C"/>
<path d="M2.875 6.75C2.875 6.02065 3.1779 5.32118 3.71707 4.80546C4.25623 4.28973 4.9875 4 5.75 4H17.25C18.0125 4 18.7438 4.28973 19.2829 4.80546C19.8221 5.32118 20.125 6.02065 20.125 6.75V25.3125C20.1249 25.4369 20.0896 25.5589 20.0228 25.6655C19.9559 25.7722 19.8601 25.8595 19.7455 25.9182C19.6309 25.9769 19.5018 26.0048 19.3719 25.9989C19.242 25.9929 19.1163 25.9534 19.0081 25.8845L11.5 22.0139L3.99194 25.8845C3.8837 25.9534 3.75796 25.9929 3.62809 25.9989C3.49823 26.0048 3.36912 25.9769 3.2545 25.9182C3.13988 25.8595 3.04406 25.7722 2.97723 25.6655C2.9104 25.5589 2.87507 25.4369 2.875 25.3125V6.75ZM5.75 5.375C5.36875 5.375 5.00312 5.51987 4.73353 5.77773C4.46395 6.03559 4.3125 6.38533 4.3125 6.75V24.0282L11.1018 20.6155C11.2198 20.5404 11.3583 20.5004 11.5 20.5004C11.6417 20.5004 11.7802 20.5404 11.8982 20.6155L18.6875 24.0282V6.75C18.6875 6.38533 18.536 6.03559 18.2665 5.77773C17.9969 5.51987 17.6312 5.375 17.25 5.375H5.75Z" fill="#DA9B3C"/>
<path d="M27.9246 21V20.118H28.4646C28.6806 20.118 28.8726 20.094 29.0406 20.046C29.2206 19.986 29.3586 19.872 29.4546 19.704C29.5626 19.524 29.6166 19.26 29.6166 18.912V10.2C29.6166 9.864 29.5626 9.612 29.4546 9.444C29.3466 9.276 29.2026 9.168 29.0226 9.12C28.8546 9.06 28.6686 9.03 28.4646 9.03H27.9246V8.148H33.0186C34.6746 8.148 35.9106 8.412 36.7266 8.94C37.5546 9.468 37.9686 10.29 37.9686 11.406C37.9686 11.934 37.8726 12.378 37.6806 12.738C37.4886 13.098 37.2246 13.392 36.8886 13.62C36.5526 13.848 36.1566 14.034 35.7006 14.178V14.268C36.2526 14.376 36.7386 14.574 37.1586 14.862C37.5786 15.138 37.9086 15.498 38.1486 15.942C38.3886 16.374 38.5086 16.89 38.5086 17.49C38.5086 18.666 38.0946 19.548 37.2666 20.136C36.4386 20.712 35.2026 21 33.5586 21H27.9246ZM33.4686 19.974C34.3566 19.974 34.9806 19.782 35.3406 19.398C35.7126 19.014 35.8986 18.36 35.8986 17.436C35.8986 16.836 35.8206 16.344 35.6646 15.96C35.5206 15.564 35.2746 15.27 34.9266 15.078C34.5906 14.886 34.1166 14.79 33.5046 14.79H32.0646V19.974H33.4686ZM32.9646 13.764C33.5766 13.764 34.0506 13.686 34.3866 13.53C34.7346 13.362 34.9806 13.104 35.1246 12.756C35.2806 12.408 35.3586 11.958 35.3586 11.406C35.3586 10.566 35.1726 9.984 34.8006 9.66C34.4406 9.336 33.8166 9.174 32.9286 9.174H32.0646V13.764H32.9646ZM44.6833 21.18C43.3033 21.18 42.2113 20.766 41.4073 19.938C40.6153 19.11 40.2193 17.844 40.2193 16.14C40.2193 14.46 40.5973 13.206 41.3533 12.378C42.1213 11.55 43.2493 11.136 44.7373 11.136C46.1293 11.136 47.2213 11.55 48.0133 12.378C48.8053 13.206 49.2013 14.46 49.2013 16.14C49.2013 17.844 48.8173 19.11 48.0493 19.938C47.2933 20.766 46.1713 21.18 44.6833 21.18ZM44.7193 20.118C45.2353 20.118 45.6433 19.974 45.9433 19.686C46.2553 19.386 46.4773 18.936 46.6093 18.336C46.7413 17.736 46.8073 17.004 46.8073 16.14C46.8073 15.264 46.7353 14.538 46.5913 13.962C46.4593 13.386 46.2373 12.954 45.9253 12.666C45.6253 12.366 45.2173 12.216 44.7013 12.216C44.1973 12.216 43.7893 12.366 43.4773 12.666C43.1653 12.954 42.9433 13.386 42.8113 13.962C42.6793 14.538 42.6133 15.264 42.6133 16.14C42.6133 17.016 42.6793 17.748 42.8113 18.336C42.9553 18.924 43.1773 19.368 43.4773 19.668C43.7893 19.968 44.2033 20.118 44.7193 20.118ZM55.4587 21.18C54.0787 21.18 52.9867 20.766 52.1827 19.938C51.3907 19.11 50.9947 17.844 50.9947 16.14C50.9947 14.46 51.3727 13.206 52.1287 12.378C52.8967 11.55 54.0247 11.136 55.5127 11.136C56.9047 11.136 57.9967 11.55 58.7887 12.378C59.5807 13.206 59.9767 14.46 59.9767 16.14C59.9767 17.844 59.5927 19.11 58.8247 19.938C58.0687 20.766 56.9467 21.18 55.4587 21.18ZM55.4947 20.118C56.0107 20.118 56.4187 19.974 56.7187 19.686C57.0307 19.386 57.2527 18.936 57.3847 18.336C57.5167 17.736 57.5827 17.004 57.5827 16.14C57.5827 15.264 57.5107 14.538 57.3667 13.962C57.2347 13.386 57.0127 12.954 56.7007 12.666C56.4007 12.366 55.9927 12.216 55.4767 12.216C54.9727 12.216 54.5647 12.366 54.2527 12.666C53.9407 12.954 53.7187 13.386 53.5867 13.962C53.4547 14.538 53.3887 15.264 53.3887 16.14C53.3887 17.016 53.4547 17.748 53.5867 18.336C53.7307 18.924 53.9527 19.368 54.2527 19.668C54.5647 19.968 54.9787 20.118 55.4947 20.118ZM61.1761 21V20.118H61.3741C61.5901 20.118 61.8001 20.094 62.0041 20.046C62.2081 19.986 62.3761 19.872 62.5081 19.704C62.6521 19.524 62.7241 19.26 62.7241 18.912V9.336C62.7241 9 62.6521 8.754 62.5081 8.598C62.3641 8.43 62.1901 8.322 61.9861 8.274C61.7821 8.226 61.5781 8.202 61.3741 8.202H61.1761V7.32H65.0641V14.268C65.0641 14.424 65.0581 14.616 65.0461 14.844C65.0341 15.072 65.0221 15.3 65.0101 15.528C65.0101 15.744 65.0041 15.924 64.9921 16.068C64.9801 16.212 64.9741 16.284 64.9741 16.284L67.2421 13.782C67.4221 13.578 67.5601 13.41 67.6561 13.278C67.7521 13.134 67.8181 13.014 67.8541 12.918C67.9021 12.81 67.9261 12.714 67.9261 12.63C67.9261 12.474 67.8481 12.366 67.6921 12.306C67.5361 12.234 67.3081 12.198 67.0081 12.198V11.352H71.3281V12.198C71.1241 12.198 70.9201 12.234 70.7161 12.306C70.5121 12.366 70.3081 12.462 70.1041 12.594C69.9001 12.726 69.6901 12.894 69.4741 13.098C69.2581 13.29 69.0301 13.518 68.7901 13.782L67.6021 15.132L69.9961 18.696C70.2121 19.008 70.4221 19.272 70.6261 19.488C70.8421 19.692 71.0581 19.848 71.2741 19.956C71.4901 20.064 71.7061 20.118 71.9221 20.118H71.9761V21H71.7241C71.1241 21 70.6141 20.988 70.1941 20.964C69.7861 20.928 69.4381 20.856 69.1501 20.748C68.8741 20.64 68.6221 20.478 68.3941 20.262C68.1661 20.034 67.9321 19.728 67.6921 19.344L66.0181 16.716L65.0641 17.418V18.93C65.0641 19.278 65.1301 19.536 65.2621 19.704C65.4061 19.872 65.5801 19.986 65.7841 20.046C66.0001 20.094 66.2101 20.118 66.4141 20.118H66.5761V21H61.1761ZM72.3935 21V20.118H72.5015C72.7775 20.118 73.0175 20.088 73.2215 20.028C73.4375 19.968 73.6055 19.848 73.7255 19.668C73.8455 19.488 73.9055 19.218 73.9055 18.858V13.386C73.9055 13.038 73.8455 12.78 73.7255 12.612C73.6175 12.444 73.4615 12.336 73.2575 12.288C73.0655 12.228 72.8375 12.198 72.5735 12.198H72.5195V11.352H75.9395L76.1735 12.702H76.2635C76.5035 12.246 76.7615 11.91 77.0375 11.694C77.3135 11.466 77.6135 11.316 77.9375 11.244C78.2735 11.172 78.6275 11.136 78.9995 11.136C79.4195 11.136 79.8035 11.19 80.1515 11.298C80.4995 11.406 80.8055 11.574 81.0695 11.802C81.3335 12.018 81.5375 12.318 81.6815 12.702H81.8255C82.0655 12.246 82.3355 11.91 82.6355 11.694C82.9355 11.466 83.2535 11.316 83.5895 11.244C83.9375 11.172 84.3035 11.136 84.6875 11.136C85.6115 11.136 86.3315 11.412 86.8475 11.964C87.3755 12.516 87.6395 13.404 87.6395 14.628V18.84C87.6395 19.212 87.6875 19.488 87.7835 19.668C87.8915 19.848 88.0415 19.968 88.2335 20.028C88.4255 20.088 88.6535 20.118 88.9175 20.118H88.9715V21H85.2995V14.97C85.2995 14.19 85.1795 13.59 84.9395 13.17C84.6995 12.738 84.2855 12.522 83.6975 12.522C83.2775 12.522 82.9355 12.642 82.6715 12.882C82.4195 13.122 82.2335 13.44 82.1135 13.836C82.0055 14.232 81.9515 14.664 81.9515 15.132V18.84C81.9515 19.2 81.9995 19.476 82.0955 19.668C82.2035 19.848 82.3535 19.968 82.5455 20.028C82.7375 20.088 82.9655 20.118 83.2295 20.118H83.2835V21H79.6115V14.97C79.6115 14.19 79.4915 13.59 79.2515 13.17C79.0115 12.738 78.5975 12.522 78.0095 12.522C77.5655 12.522 77.2115 12.654 76.9475 12.918C76.6955 13.182 76.5155 13.53 76.4075 13.962C76.2995 14.394 76.2455 14.862 76.2455 15.366V18.93C76.2455 19.278 76.3055 19.536 76.4255 19.704C76.5455 19.872 76.7075 19.986 76.9115 20.046C77.1155 20.094 77.3495 20.118 77.6135 20.118H77.6675V21H72.3935ZM93.0886 21.18C92.5606 21.18 92.0806 21.078 91.6486 20.874C91.2286 20.658 90.8926 20.334 90.6406 19.902C90.4006 19.47 90.2806 18.924 90.2806 18.264C90.2806 17.304 90.6166 16.59 91.2886 16.122C91.9606 15.654 92.9746 15.396 94.3306 15.348L95.8246 15.294V14.268C95.8246 13.86 95.7946 13.5 95.7346 13.188C95.6746 12.864 95.5486 12.612 95.3566 12.432C95.1766 12.252 94.8886 12.162 94.4926 12.162C94.1326 12.162 93.8506 12.246 93.6466 12.414C93.4426 12.582 93.3046 12.816 93.2326 13.116C93.1606 13.404 93.1246 13.734 93.1246 14.106C92.4286 14.106 91.9066 14.022 91.5586 13.854C91.2106 13.674 91.0366 13.368 91.0366 12.936C91.0366 12.504 91.1926 12.156 91.5046 11.892C91.8286 11.628 92.2606 11.436 92.8006 11.316C93.3406 11.196 93.9286 11.136 94.5646 11.136C95.7646 11.136 96.6646 11.37 97.2646 11.838C97.8646 12.294 98.1646 13.086 98.1646 14.214V18.84C98.1646 19.164 98.1946 19.422 98.2546 19.614C98.3266 19.794 98.4466 19.926 98.6146 20.01C98.7826 20.082 98.9986 20.118 99.2626 20.118H99.3166V21H96.3286L95.9686 19.65H95.8246C95.5606 19.974 95.3086 20.25 95.0686 20.478C94.8406 20.706 94.5706 20.88 94.2586 21C93.9586 21.12 93.5686 21.18 93.0886 21.18ZM93.8626 19.938C94.2706 19.938 94.6186 19.842 94.9066 19.65C95.1946 19.458 95.4166 19.182 95.5726 18.822C95.7406 18.462 95.8246 18.042 95.8246 17.562V16.176L94.8886 16.23C94.3246 16.254 93.8806 16.35 93.5566 16.518C93.2446 16.686 93.0166 16.92 92.8726 17.22C92.7406 17.52 92.6746 17.892 92.6746 18.336C92.6746 18.696 92.7166 18.996 92.8006 19.236C92.8846 19.464 93.0166 19.638 93.1966 19.758C93.3766 19.878 93.5986 19.938 93.8626 19.938ZM100.414 21V20.118H100.468C100.744 20.118 100.984 20.088 101.188 20.028C101.404 19.968 101.572 19.848 101.692 19.668C101.824 19.476 101.89 19.194 101.89 18.822V13.458C101.89 13.098 101.83 12.834 101.71 12.666C101.59 12.486 101.428 12.372 101.224 12.324C101.02 12.264 100.786 12.234 100.522 12.234H100.468V11.352H103.78L104.122 12.9H104.212C104.368 12.54 104.542 12.228 104.734 11.964C104.938 11.7 105.196 11.502 105.508 11.37C105.82 11.226 106.228 11.154 106.732 11.154C107.416 11.154 107.92 11.274 108.244 11.514C108.58 11.754 108.748 12.102 108.748 12.558C108.748 13.038 108.574 13.422 108.226 13.71C107.878 13.986 107.368 14.124 106.696 14.124C106.696 13.788 106.666 13.518 106.606 13.314C106.558 13.098 106.468 12.936 106.336 12.828C106.204 12.72 106.024 12.666 105.796 12.666C105.472 12.666 105.208 12.786 105.004 13.026C104.8 13.254 104.638 13.542 104.518 13.89C104.41 14.238 104.332 14.598 104.284 14.97C104.248 15.342 104.23 15.654 104.23 15.906V18.912C104.23 19.26 104.29 19.524 104.41 19.704C104.53 19.872 104.692 19.986 104.896 20.046C105.1 20.094 105.322 20.118 105.562 20.118H106.12V21H100.414ZM109.323 21V20.118H109.521C109.737 20.118 109.947 20.094 110.151 20.046C110.355 19.986 110.523 19.872 110.655 19.704C110.799 19.524 110.871 19.26 110.871 18.912V9.336C110.871 9 110.799 8.754 110.655 8.598C110.511 8.43 110.337 8.322 110.133 8.274C109.929 8.226 109.725 8.202 109.521 8.202H109.323V7.32H113.211V14.268C113.211 14.424 113.205 14.616 113.193 14.844C113.181 15.072 113.169 15.3 113.157 15.528C113.157 15.744 113.151 15.924 113.139 16.068C113.127 16.212 113.121 16.284 113.121 16.284L115.389 13.782C115.569 13.578 115.707 13.41 115.803 13.278C115.899 13.134 115.965 13.014 116.001 12.918C116.049 12.81 116.073 12.714 116.073 12.63C116.073 12.474 115.995 12.366 115.839 12.306C115.683 12.234 115.455 12.198 115.155 12.198V11.352H119.475V12.198C119.271 12.198 119.067 12.234 118.863 12.306C118.659 12.366 118.455 12.462 118.251 12.594C118.047 12.726 117.837 12.894 117.621 13.098C117.405 13.29 117.177 13.518 116.937 13.782L115.749 15.132L118.143 18.696C118.359 19.008 118.569 19.272 118.773 19.488C118.989 19.692 119.205 19.848 119.421 19.956C119.637 20.064 119.853 20.118 120.069 20.118H120.123V21H119.871C119.271 21 118.761 20.988 118.341 20.964C117.933 20.928 117.585 20.856 117.297 20.748C117.021 20.64 116.769 20.478 116.541 20.262C116.313 20.034 116.079 19.728 115.839 19.344L114.165 16.716L113.211 17.418V18.93C113.211 19.278 113.277 19.536 113.409 19.704C113.553 19.872 113.727 19.986 113.931 20.046C114.147 20.094 114.357 20.118 114.561 20.118H114.723V21H109.323ZM124.14 21.18C123.372 21.18 122.736 21.096 122.232 20.928C121.74 20.76 121.374 20.526 121.134 20.226C120.894 19.914 120.774 19.554 120.774 19.146C120.774 18.774 120.858 18.498 121.026 18.318C121.194 18.126 121.392 18 121.62 17.94C121.848 17.868 122.052 17.832 122.232 17.832C122.232 18.3 122.304 18.714 122.448 19.074C122.604 19.422 122.826 19.698 123.114 19.902C123.402 20.094 123.756 20.19 124.176 20.19C124.812 20.19 125.28 20.058 125.58 19.794C125.88 19.53 126.03 19.2 126.03 18.804C126.03 18.528 125.964 18.294 125.832 18.102C125.712 17.91 125.49 17.724 125.166 17.544C124.842 17.364 124.392 17.166 123.816 16.95C123.192 16.71 122.664 16.458 122.232 16.194C121.8 15.918 121.476 15.6 121.26 15.24C121.044 14.88 120.936 14.43 120.936 13.89C120.936 12.99 121.272 12.312 121.944 11.856C122.616 11.388 123.504 11.154 124.608 11.154C125.304 11.154 125.868 11.232 126.3 11.388C126.732 11.544 127.05 11.754 127.254 12.018C127.458 12.27 127.56 12.54 127.56 12.828C127.56 13.2 127.428 13.488 127.164 13.692C126.912 13.896 126.504 13.998 125.94 13.998C125.94 13.398 125.808 12.936 125.544 12.612C125.28 12.276 124.884 12.108 124.356 12.108C124.056 12.108 123.786 12.156 123.546 12.252C123.318 12.348 123.138 12.492 123.006 12.684C122.874 12.864 122.808 13.086 122.808 13.35C122.808 13.614 122.88 13.848 123.024 14.052C123.168 14.244 123.414 14.43 123.762 14.61C124.11 14.79 124.584 14.988 125.184 15.204C125.76 15.42 126.246 15.66 126.642 15.924C127.05 16.176 127.362 16.482 127.578 16.842C127.794 17.202 127.902 17.634 127.902 18.138C127.902 19.11 127.566 19.86 126.894 20.388C126.234 20.916 125.316 21.18 124.14 21.18Z" fill="#F2EDE7"/>
</svg>
