<svg xmlns="http://www.w3.org/2000/svg" width="23" height="22" viewBox="0 0 23 22" fill="none">
  <path fill-rule="evenodd" clip-rule="evenodd" d="M11.4997 6.06369C13.4935 4.10432 18.4773 7.53494 11.4997 11.9446C4.52209 7.53494 9.5059 4.10569 11.4997 6.06644V6.06369Z" fill="#21272A"/>
  <path d="M2.875 2.75C2.875 2.02065 3.1779 1.32118 3.71707 0.805456C4.25623 0.289731 4.9875 0 5.75 0L17.25 0C18.0125 0 18.7438 0.289731 19.2829 0.805456C19.8221 1.32118 20.125 2.02065 20.125 2.75V21.3125C20.1249 21.4369 20.0896 21.5589 20.0228 21.6655C19.9559 21.7722 19.8601 21.8595 19.7455 21.9182C19.6309 21.9769 19.5018 22.0048 19.3719 21.9989C19.242 21.9929 19.1163 21.9534 19.0081 21.8845L11.5 18.0139L3.99194 21.8845C3.8837 21.9534 3.75796 21.9929 3.62809 21.9989C3.49823 22.0048 3.36912 21.9769 3.2545 21.9182C3.13988 21.8595 3.04406 21.7722 2.97723 21.6655C2.9104 21.5589 2.87507 21.4369 2.875 21.3125V2.75ZM5.75 1.375C5.36875 1.375 5.00312 1.51987 4.73353 1.77773C4.46395 2.03559 4.3125 2.38533 4.3125 2.75V20.0282L11.1018 16.6155C11.2198 16.5404 11.3583 16.5004 11.5 16.5004C11.6417 16.5004 11.7802 16.5404 11.8982 16.6155L18.6875 20.0282V2.75C18.6875 2.38533 18.536 2.03559 18.2665 1.77773C17.9969 1.51987 17.6312 1.375 17.25 1.375H5.75Z" fill="#21272A"/>
</svg>