<svg xmlns="http://www.w3.org/2000/svg" width="24" height="24" viewBox="0 0 24 24" fill="none">
  <path d="M10.4853 16.7299C10.354 16.7302 10.224 16.7045 10.1026 16.6544C9.98131 16.6043 9.87108 16.5307 9.77826 16.4379L5.53626 12.1949C5.44068 12.1027 5.36442 11.9924 5.31193 11.8705C5.25944 11.7485 5.23176 11.6173 5.23051 11.4845C5.22927 11.3517 5.25448 11.22 5.30467 11.0971C5.35486 10.9742 5.42904 10.8625 5.52286 10.7685C5.61669 10.6746 5.72829 10.6002 5.85115 10.5499C5.974 10.4995 6.10566 10.4741 6.23844 10.4752C6.37122 10.4762 6.50246 10.5037 6.6245 10.556C6.74654 10.6083 6.85694 10.6845 6.94926 10.7799L10.4843 14.3149L16.8493 7.95189C17.0368 7.76425 17.2911 7.65879 17.5564 7.65869C17.8217 7.6586 18.0761 7.76389 18.2638 7.95139C18.4514 8.1389 18.5569 8.39327 18.557 8.65854C18.5571 8.92381 18.4518 9.17825 18.2643 9.36589L11.1923 16.4379C11.0994 16.5307 10.9892 16.6043 10.8679 16.6544C10.7465 16.7045 10.6165 16.7302 10.4853 16.7299Z" fill="#25A249"/>
</svg>