<svg width="43" height="52" viewBox="0 0 43 52" fill="none" xmlns="http://www.w3.org/2000/svg">
<ellipse cx="21.4276" cy="20.8861" rx="20.1923" ry="20.0937" fill="#F2EDE7"/>
<rect x="6.08301" y="38.5688" width="30.6922" height="7.23372" fill="#DA9B3C"/>
<rect x="2.85156" y="45.8022" width="37.1538" height="4.82248" fill="#DA9B3C"/>
<path d="M12.5433 9.63379L13.7427 12.7415L16.5818 14.0544L13.7427 15.3672L12.5433 18.475L11.344 15.3672L8.50488 14.0544L11.344 12.7415L12.5433 9.63379Z" fill="#DA9B3C"/>
<path d="M16.1786 28.1196L17.4636 30.4577L19.8132 31.7365L17.4636 33.0152L16.1786 35.3533L14.8935 33.0152L12.5439 31.7365L14.8935 30.4577L16.1786 28.1196Z" fill="#383531"/>
<path d="M30.313 13.6523L31.9921 17.0426L35.9668 18.4748L31.9921 19.907L30.313 23.2973L28.6339 19.907L24.6592 18.4748L28.6339 17.0426L30.313 13.6523Z" fill="#F2AEAD"/>
<path d="M0.428715 20.8862C0.426635 24.1761 1.20592 27.4199 2.70303 30.3531C4.20015 33.2863 6.3727 35.826 9.04354 37.7649H7.69793C6.84108 37.7649 6.01932 38.1036 5.41344 38.7065C4.80755 39.3095 4.46717 40.1272 4.46717 40.9799V42.5874C4.47013 43.1668 4.63181 43.7346 4.93482 44.2294C3.92896 44.3119 2.99084 44.7671 2.306 45.5048C1.62116 46.2426 1.23947 47.2092 1.23641 48.2136V50.6248C1.23641 50.838 1.3215 51.0424 1.47297 51.1932C1.62444 51.3439 1.82988 51.4286 2.0441 51.4286H40.8132C41.0275 51.4286 41.2329 51.3439 41.3844 51.1932C41.5358 51.0424 41.6209 50.838 41.6209 50.6248V48.2136C41.6179 47.2092 41.2362 46.2426 40.5513 45.5048C39.8665 44.7671 38.9284 44.3119 37.9225 44.2294C38.2255 43.7346 38.3872 43.1668 38.3902 42.5874V40.9799C38.3902 40.1272 38.0498 39.3095 37.4439 38.7065C36.838 38.1036 36.0163 37.7649 35.1594 37.7649H33.8138C37.5371 35.0573 40.2619 31.206 41.5681 26.805C42.8744 22.4039 42.6894 17.6975 41.0418 13.4114C41.0049 13.3112 40.9484 13.2194 40.8755 13.1412C40.8025 13.063 40.7147 13.0001 40.6171 12.956C40.5195 12.9119 40.414 12.8877 40.3069 12.8846C40.1998 12.8815 40.0931 12.8996 39.9931 12.938C39.893 12.9763 39.8017 13.0341 39.7243 13.1079C39.647 13.1818 39.5852 13.2702 39.5425 13.368C39.4999 13.4659 39.4772 13.5712 39.4758 13.6779C39.4745 13.7845 39.4945 13.8904 39.5347 13.9893C41.2039 18.3336 41.2399 23.1319 39.636 27.5006C38.0321 31.8693 34.8964 35.5144 30.806 37.7649H14.9671C14.7529 37.7649 14.5475 37.8496 14.396 38.0003C14.2445 38.151 14.1595 38.3555 14.1595 38.5686C14.1595 38.7818 14.2445 38.9862 14.396 39.137C14.5475 39.2877 14.7529 39.3724 14.9671 39.3724H35.1594C35.5878 39.3724 35.9987 39.5417 36.3017 39.8432C36.6046 40.1447 36.7748 40.5535 36.7748 40.9799V42.5874C36.7748 43.0137 36.6046 43.4226 36.3017 43.724C35.9987 44.0255 35.5878 44.1949 35.1594 44.1949C34.9452 44.1949 34.7398 44.2795 34.5883 44.4303C34.4368 44.581 34.3517 44.7854 34.3517 44.9986C34.3517 45.2118 34.4368 45.4162 34.5883 45.5669C34.7398 45.7177 34.9452 45.8023 35.1594 45.8023H37.5825C38.2251 45.8023 38.8414 46.0564 39.2958 46.5086C39.7503 46.9608 40.0056 47.5741 40.0056 48.2136V49.8211H2.85179V48.2136C2.85179 47.5741 3.10707 46.9608 3.56149 46.5086C4.0159 46.0564 4.63222 45.8023 5.27486 45.8023H31.9286C32.1429 45.8023 32.3483 45.7177 32.4998 45.5669C32.6512 45.4162 32.7363 45.2118 32.7363 44.9986C32.7363 44.7854 32.6512 44.581 32.4998 44.4303C32.3483 44.2795 32.1429 44.1949 31.9286 44.1949H7.69793C7.2695 44.1949 6.85863 44.0255 6.55568 43.724C6.25274 43.4226 6.08255 43.0137 6.08255 42.5874V40.9799C6.08255 40.5535 6.25274 40.1447 6.55568 39.8432C6.85863 39.5417 7.2695 39.3724 7.69793 39.3724H11.8349C12.0235 39.3681 12.2049 39.2992 12.3485 39.1774C12.4921 39.0556 12.5891 38.8883 12.6232 38.7037C12.6465 38.5393 12.6206 38.3718 12.5488 38.222C12.477 38.0721 12.3624 37.9467 12.2194 37.8613C9.58259 36.4464 7.31124 34.4425 5.58364 32.007C3.85603 29.5715 2.71919 26.7707 2.26234 23.8245C1.80549 20.8782 2.04107 17.8667 2.9506 15.0263C3.86012 12.1859 5.41883 9.59389 7.50437 7.4538C9.58991 5.31371 12.1455 3.68375 14.9706 2.69188C17.7957 1.70001 20.8133 1.37322 23.7867 1.73715C26.76 2.10109 29.6081 3.14585 32.1074 4.78943C34.6068 6.43301 36.6893 8.63066 38.1915 11.2099C38.2993 11.393 38.4756 11.5262 38.6818 11.5805C38.888 11.6347 39.1074 11.6056 39.2921 11.4995C39.4768 11.3933 39.6119 11.2188 39.6677 11.014C39.7236 10.8092 39.6958 10.5907 39.5904 10.4061C37.2722 6.43212 33.7023 3.32924 29.4333 1.57771C25.1644 -0.173818 20.4342 -0.476331 15.9751 0.71699C11.5159 1.91031 7.57625 4.53293 4.76591 8.17896C1.95556 11.825 0.431194 16.2911 0.428715 20.8862Z" fill="black"/>
<path d="M24.6599 11.2414C24.8741 11.2414 25.0796 11.1567 25.231 11.006C25.3825 10.8553 25.4676 10.6508 25.4676 10.4377V9.63393H26.2753C26.4895 9.63393 26.6949 9.54925 26.8464 9.39852C26.9979 9.24779 27.083 9.04335 27.083 8.83018C27.083 8.61702 26.9979 8.41258 26.8464 8.26185C26.6949 8.11112 26.4895 8.02644 26.2753 8.02644H25.4676V7.22269C25.4676 7.00953 25.3825 6.80509 25.231 6.65436C25.0796 6.50363 24.8741 6.41895 24.6599 6.41895C24.4457 6.41895 24.2403 6.50363 24.0888 6.65436C23.9373 6.80509 23.8522 7.00953 23.8522 7.22269V8.02644H23.0445C22.8303 8.02644 22.6249 8.11112 22.4734 8.26185C22.3219 8.41258 22.2368 8.61702 22.2368 8.83018C22.2368 9.04335 22.3219 9.24779 22.4734 9.39852C22.6249 9.54925 22.8303 9.63393 23.0445 9.63393H23.8522V10.4377C23.8522 10.6508 23.9373 10.8553 24.0888 11.006C24.2403 11.1567 24.4457 11.2414 24.6599 11.2414ZM21.4292 22.4939C21.4292 22.2807 21.3441 22.0763 21.1926 21.9255C21.0411 21.7748 20.8357 21.6901 20.6215 21.6901H19.8138V20.8864C19.8138 20.6732 19.7287 20.4688 19.5772 20.318C19.4257 20.1673 19.2203 20.0826 19.0061 20.0826C18.7919 20.0826 18.5864 20.1673 18.435 20.318C18.2835 20.4688 18.1984 20.6732 18.1984 20.8864V21.6901H17.3907C17.1765 21.6901 16.971 21.7748 16.8196 21.9255C16.6681 22.0763 16.583 22.2807 16.583 22.4939C16.583 22.707 16.6681 22.9115 16.8196 23.0622C16.971 23.2129 17.1765 23.2976 17.3907 23.2976H18.1984V24.1014C18.1984 24.3145 18.2835 24.519 18.435 24.6697C18.5864 24.8204 18.7919 24.9051 19.0061 24.9051C19.2203 24.9051 19.4257 24.8204 19.5772 24.6697C19.7287 24.519 19.8138 24.3145 19.8138 24.1014V23.2976H20.6215C20.8357 23.2976 21.0411 23.2129 21.1926 23.0622C21.3441 22.9115 21.4292 22.707 21.4292 22.4939ZM30.3137 32.9426C30.528 32.9426 30.7334 32.8579 30.8849 32.7072C31.0363 32.5564 31.1214 32.352 31.1214 32.1388V31.3351H31.9291C32.1433 31.3351 32.3488 31.2504 32.5003 31.0997C32.6517 30.9489 32.7368 30.7445 32.7368 30.5313C32.7368 30.3182 32.6517 30.1137 32.5003 29.963C32.3488 29.8123 32.1433 29.7276 31.9291 29.7276H31.1214V28.9238C31.1214 28.7107 31.0363 28.5062 30.8849 28.3555C30.7334 28.2048 30.528 28.1201 30.3137 28.1201C30.0995 28.1201 29.8941 28.2048 29.7426 28.3555C29.5912 28.5062 29.5061 28.7107 29.5061 28.9238V29.7276H28.6984C28.4842 29.7276 28.2787 29.8123 28.1272 29.963C27.9758 30.1137 27.8907 30.3182 27.8907 30.5313C27.8907 30.7445 27.9758 30.9489 28.1272 31.0997C28.2787 31.2504 28.4842 31.3351 28.6984 31.3351H29.5061V32.1388C29.5061 32.352 29.5912 32.5564 29.7426 32.7072C29.8941 32.8579 30.0995 32.9426 30.3137 32.9426Z" fill="black"/>
<path d="M13.9741 18.172L14.886 16.3668L16.7001 15.4642C16.9685 15.3307 17.1942 15.1255 17.3519 14.8715C17.5097 14.6175 17.5933 14.3248 17.5933 14.0263C17.5933 13.7277 17.5097 13.435 17.3519 13.181C17.1942 12.9271 16.9685 12.7218 16.7001 12.5884L14.886 11.6857L13.9782 9.88053C13.844 9.61346 13.6378 9.38884 13.3826 9.23185C13.1273 9.07486 12.8332 8.9917 12.5332 8.9917C12.2332 8.9917 11.939 9.07486 11.6838 9.23185C11.4286 9.38884 11.2224 9.61346 11.0882 9.88053L10.1772 11.6857L8.3639 12.5884C8.09551 12.7218 7.86979 12.9271 7.71203 13.181C7.55427 13.435 7.4707 13.7277 7.4707 14.0263C7.4707 14.3248 7.55427 14.6175 7.71203 14.8715C7.86979 15.1255 8.09551 15.3307 8.3639 15.4642L10.178 16.3668L11.085 18.172C11.2191 18.4391 11.4254 18.6637 11.6806 18.8207C11.9358 18.9777 12.2299 19.0608 12.53 19.0608C12.83 19.0608 13.1241 18.9777 13.3793 18.8207C13.6346 18.6637 13.84 18.4391 13.9741 18.172ZM12.5292 17.4534L11.6221 15.6474C11.4652 15.3369 11.212 15.085 10.9 14.9289L9.08597 14.0263L10.9 13.1237C11.2121 12.9672 11.4653 12.715 11.6221 12.4043L12.5292 10.5983L13.4362 12.4035C13.5936 12.7141 13.847 12.9662 14.1591 13.1228L15.978 14.023L14.1591 14.9289C13.847 15.0852 13.5936 15.3371 13.4362 15.6474L12.5292 17.4534ZM13.0105 32.985L14.2859 33.62L14.924 34.8883C15.0581 35.1554 15.2643 35.38 15.5196 35.537C15.7748 35.694 16.0689 35.7771 16.3689 35.7771C16.669 35.7771 16.9631 35.694 17.2183 35.537C17.4735 35.38 17.6797 35.1554 17.8139 34.8883L18.452 33.6192L19.7273 32.9842C19.9957 32.8507 20.2214 32.6455 20.3792 32.3916C20.5369 32.1376 20.6205 31.8449 20.6205 31.5463C20.6205 31.2478 20.5369 30.9551 20.3792 30.7011C20.2214 30.4471 19.9957 30.2419 19.7273 30.1084L18.452 29.4743L17.8139 28.2044C17.6797 27.9373 17.4735 27.7127 17.2183 27.5557C16.9631 27.3987 16.669 27.3155 16.3689 27.3155C16.0689 27.3155 15.7748 27.3987 15.5196 27.5557C15.2643 27.7127 15.0581 27.9373 14.924 28.2044L14.2867 29.4751L13.0097 30.1092C12.7413 30.2427 12.5156 30.4479 12.3579 30.7019C12.2001 30.9559 12.1165 31.2486 12.1165 31.5471C12.1165 31.8457 12.2001 32.1384 12.3579 32.3924C12.5156 32.6463 12.7422 32.8516 13.0105 32.985ZM15.0104 30.9122C15.3224 30.7567 15.5753 30.5045 15.7308 30.1936L16.3689 28.9237L17.007 30.1936C17.1623 30.5067 17.4161 30.7607 17.7299 30.917L19.0101 31.5487H19.0052L17.7299 32.1837C17.4175 32.3396 17.164 32.5916 17.007 32.9023L16.3689 34.1714L15.7308 32.9023C15.5742 32.5916 15.3209 32.3396 15.0088 32.1837L13.7326 31.5487L15.0104 30.9122ZM33.097 21.0992L34.8917 20.2055C35.2147 20.0448 35.4863 19.7978 35.6761 19.4922C35.866 19.1865 35.9665 18.8343 35.9665 18.475C35.9665 18.1157 35.866 17.7635 35.6761 17.4578C35.4863 17.1522 35.2147 16.9052 34.8917 16.7445L33.0954 15.85C33.0324 15.8188 32.9813 15.768 32.95 15.7053L32.0518 13.9186C31.8904 13.5972 31.6422 13.3269 31.3351 13.1379C31.0279 12.949 30.674 12.8489 30.3129 12.8489C29.9518 12.8489 29.5979 12.949 29.2907 13.1379C28.9836 13.3269 28.7354 13.5972 28.5739 13.9186L27.6758 15.7053C27.6442 15.7685 27.5925 15.8197 27.5288 15.8508L25.7341 16.7445C25.4111 16.9052 25.1395 17.1522 24.9496 17.4578C24.7598 17.7635 24.6592 18.1157 24.6592 18.475C24.6592 18.8343 24.7598 19.1865 24.9496 19.4922C25.1395 19.7978 25.4111 20.0448 25.7341 20.2055L27.5304 21.1C27.5934 21.1312 27.6444 21.182 27.6758 21.2447L28.5739 23.0314C28.7354 23.3528 28.9836 23.6231 29.2907 23.8121C29.5979 24.001 29.9518 24.1011 30.3129 24.1011C30.674 24.1011 31.0279 24.001 31.3351 23.8121C31.6422 23.6231 31.8904 23.3528 32.0518 23.0314L32.95 21.2447C32.9816 21.1815 33.0333 21.1303 33.097 21.0992ZM31.505 20.5262L30.6069 22.3121C30.5792 22.3659 30.537 22.4111 30.4852 22.4427C30.4333 22.4742 30.3737 22.4909 30.3129 22.4909C30.2521 22.4909 30.1925 22.4742 30.1406 22.4427C30.0887 22.4111 30.0466 22.3659 30.0189 22.3121L29.1207 20.5262C28.9323 20.1522 28.6275 19.8488 28.2517 19.6613L26.4562 18.7676C26.4021 18.74 26.3567 18.6981 26.3249 18.6464C26.2932 18.5948 26.2765 18.5355 26.2765 18.475C26.2765 18.4145 26.2932 18.3552 26.3249 18.3036C26.3567 18.2519 26.4021 18.21 26.4562 18.1824L28.25 17.2895C28.6265 17.1019 28.9319 16.7983 29.1207 16.4238L30.0189 14.6379C30.0468 14.5843 30.089 14.5394 30.1409 14.508C30.1927 14.4766 30.2522 14.46 30.3129 14.46C30.3736 14.46 30.4331 14.4766 30.4849 14.508C30.5368 14.5394 30.579 14.5843 30.6069 14.6379L31.505 16.4238C31.6935 16.7978 31.9983 17.1012 32.3741 17.2887L34.1696 18.1824C34.2235 18.2102 34.2686 18.2522 34.3002 18.3038C34.3317 18.3554 34.3484 18.4146 34.3484 18.475C34.3484 18.5354 34.3317 18.5946 34.3002 18.6462C34.2686 18.6978 34.2235 18.7398 34.1696 18.7676L32.3757 19.6605C31.9993 19.8481 31.6938 20.1517 31.505 20.5262Z" fill="black"/>
</svg>
