<svg width="20" height="20" viewBox="0 0 20 20" fill="none" xmlns="http://www.w3.org/2000/svg">
<path d="M13.6519 18.6205H6.34843C5.83486 18.622 5.33921 18.4318 4.95846 18.0872C4.57771 17.7425 4.33927 17.2682 4.28981 16.757L3.10705 4.89563C3.0973 4.79974 3.10779 4.70287 3.13785 4.61129C3.16791 4.51972 3.21688 4.43548 3.28156 4.36403C3.34625 4.29258 3.42523 4.23551 3.51337 4.19652C3.60152 4.15753 3.69687 4.13749 3.79326 4.1377H16.207C16.3034 4.13771 16.3986 4.15789 16.4867 4.19695C16.5747 4.23601 16.6536 4.29308 16.7182 4.36448C16.7829 4.43589 16.8319 4.52004 16.862 4.61152C16.8921 4.703 16.9028 4.79978 16.8933 4.89563L15.7105 16.7563C15.661 17.2676 15.4226 17.742 15.0419 18.0867C14.6612 18.4315 14.1655 18.6218 13.6519 18.6205ZM4.55464 5.51701L5.66222 16.6198C5.67886 16.7901 5.75837 16.9482 5.88525 17.0631C6.01213 17.1779 6.17726 17.2414 6.34843 17.2411H13.6519C13.823 17.2414 13.9882 17.1779 14.1151 17.0631C14.2419 16.9482 14.3214 16.7901 14.3381 16.6198L15.4457 5.51701H4.55464Z" fill="#DA9B3C"/>
<path d="M17.9306 5.51701H2.06856C1.88565 5.51701 1.71024 5.44435 1.5809 5.31501C1.45157 5.18567 1.37891 5.01026 1.37891 4.82735C1.37891 4.64444 1.45157 4.46903 1.5809 4.33969C1.71024 4.21036 1.88565 4.1377 2.06856 4.1377H17.9306C18.1135 4.1377 18.289 4.21036 18.4183 4.33969C18.5476 4.46903 18.6203 4.64444 18.6203 4.82735C18.6203 5.01026 18.5476 5.18567 18.4183 5.31501C18.289 5.44435 18.1135 5.51701 17.9306 5.51701ZM9.9996 15.8618C9.81669 15.8618 9.64127 15.7892 9.51194 15.6598C9.3826 15.5305 9.30994 15.3551 9.30994 15.1722V7.58597C9.30994 7.40306 9.3826 7.22765 9.51194 7.09831C9.64127 6.96898 9.81669 6.89632 9.9996 6.89632C10.1825 6.89632 10.3579 6.96898 10.4873 7.09831C10.6166 7.22765 10.6892 7.40306 10.6892 7.58597V15.1722C10.6892 15.3551 10.6166 15.5305 10.4873 15.6598C10.3579 15.7892 10.1825 15.8618 9.9996 15.8618ZM7.58511 15.8618C7.41306 15.8617 7.24728 15.7972 7.12032 15.6811C6.99336 15.565 6.91439 15.4056 6.89891 15.2342L6.20925 7.64804C6.19277 7.46597 6.24926 7.28481 6.36629 7.14437C6.48333 7.00392 6.65133 6.9157 6.83339 6.89907C7.01556 6.88297 7.1967 6.93966 7.33719 7.05675C7.47767 7.17385 7.56607 7.34181 7.58304 7.5239L8.2727 15.1101C8.28133 15.2056 8.26996 15.3018 8.23931 15.3926C8.20867 15.4835 8.15943 15.5669 8.09473 15.6376C8.03003 15.7084 7.95129 15.7648 7.86355 15.8034C7.7758 15.842 7.68097 15.8619 7.58511 15.8618ZM12.4141 15.8618C12.3182 15.8619 12.2234 15.842 12.1356 15.8034C12.0479 15.7648 11.9692 15.7084 11.9045 15.6376C11.8398 15.5669 11.7905 15.4835 11.7599 15.3926C11.7292 15.3018 11.7179 15.2056 11.7265 15.1101L12.4161 7.5239C12.4513 7.14459 12.7824 6.87149 13.1658 6.89907C13.3479 6.9157 13.5159 7.00392 13.6329 7.14437C13.7499 7.28481 13.8064 7.46597 13.7899 7.64804L13.1003 15.2342C13.0848 15.4056 13.0058 15.565 12.8789 15.6811C12.7519 15.7972 12.5861 15.8617 12.4141 15.8618Z" fill="#DA9B3C"/>
<path d="M13.1036 5.51733H6.89669C6.71378 5.51733 6.53836 5.44467 6.40903 5.31533C6.27969 5.186 6.20703 5.01058 6.20703 4.82767V2.06905C6.20703 1.88614 6.27969 1.71073 6.40903 1.58139C6.53836 1.45205 6.71378 1.37939 6.89669 1.37939H13.1036C13.2865 1.37939 13.4619 1.45205 13.5912 1.58139C13.7206 1.71073 13.7932 1.88614 13.7932 2.06905V4.82767C13.7932 5.01058 13.7206 5.186 13.5912 5.31533C13.4619 5.44467 13.2865 5.51733 13.1036 5.51733ZM7.58634 4.13802H12.4139V2.75871H7.58634V4.13802Z" fill="#DA9B3C"/>
</svg>
