<svg width="171" height="59" viewBox="0 0 171 59" fill="none" xmlns="http://www.w3.org/2000/svg">
<ellipse cx="29" cy="29.5" rx="29" ry="29.5" fill="#F2EDE7"/>
<path d="M38.5307 36.6135C38.2373 35.2071 37.6933 33.8787 36.9304 32.7051C36.1674 31.5316 35.2006 30.5362 34.0859 29.7765C34.8401 28.6912 35.3035 27.3954 35.4238 26.0354C35.544 24.6754 35.3162 23.3056 34.7663 22.0806C34.2163 20.8556 33.366 19.8243 32.3114 19.1032C31.2569 18.3821 30.0401 18 28.7986 18C27.5571 18 26.3403 18.3821 25.2858 19.1032C24.2312 19.8243 23.3809 20.8556 22.8309 22.0806C22.281 23.3056 22.0532 24.6754 22.1734 26.0354C22.2937 27.3954 22.7571 28.6912 23.5113 29.7765C22.3956 30.5349 21.4279 31.5298 20.6646 32.7034C19.9013 33.8769 19.3575 35.2057 19.0648 36.6126C18.9793 37.0183 18.9784 37.4402 19.0623 37.8464C19.1461 38.2526 19.3126 38.6325 19.5491 38.9578C19.7815 39.2817 20.0777 39.5434 20.4155 39.7229C20.7532 39.9025 21.1235 39.9953 21.4986 39.9944H36.0928C36.4679 39.9953 36.8382 39.9025 37.1759 39.7229C37.5136 39.5434 37.8099 39.2817 38.0423 38.9578C38.2795 38.6331 38.4467 38.2535 38.5313 37.8474C38.6159 37.4413 38.6157 37.0194 38.5307 36.6135ZM28.7957 19.848C29.7831 19.848 30.7483 20.1703 31.5693 20.774C32.3903 21.3778 33.0301 22.2359 33.408 23.2399C33.7859 24.2438 33.8847 25.3486 33.6921 26.4144C33.4995 27.4802 33.024 28.4593 32.3258 29.2277C31.6276 29.9961 30.7381 30.5194 29.7696 30.7314C28.8012 30.9434 27.7974 30.8346 26.8852 30.4187C25.973 30.0029 25.1933 29.2986 24.6447 28.3951C24.0962 27.4915 23.8034 26.4292 23.8034 25.3425C23.8047 23.8857 24.3311 22.489 25.267 21.4589C26.203 20.4288 27.472 19.8495 28.7957 19.848ZM36.741 37.8177C36.6641 37.9259 36.5657 38.0133 36.4533 38.0731C36.341 38.133 36.2176 38.1637 36.0928 38.1629H21.4986C21.3737 38.1637 21.2504 38.133 21.1381 38.0731C21.0257 38.0133 20.9273 37.9259 20.8504 37.8177C20.7699 37.7073 20.7132 37.5782 20.6843 37.4403C20.6555 37.3023 20.6554 37.159 20.684 37.021C20.9423 35.7803 21.435 34.6135 22.1301 33.5963C22.8253 32.5791 23.7072 31.7344 24.7186 31.1172C25.8833 32.1228 27.3208 32.6693 28.8011 32.6693C30.2814 32.6693 31.7189 32.1228 32.8836 31.1172C33.8927 31.7369 34.7724 32.5829 35.4658 33.6003C36.1593 34.6177 36.6509 35.784 36.9091 37.0237C36.9371 37.1615 36.9366 37.3044 36.9075 37.4419C36.8784 37.5793 36.8215 37.7078 36.741 37.8177Z" fill="#1D1D1B"/>
<path d="M72.6639 41.8V40.72H72.9439C73.4372 40.72 73.8772 40.6067 74.2639 40.38C74.6506 40.1667 74.9572 39.7933 75.1839 39.26C75.4239 38.74 75.5439 38.02 75.5439 37.1V24.96C75.5439 24.5867 75.4839 24.3133 75.3639 24.14C75.2439 23.9533 75.0906 23.8333 74.9039 23.78C74.7172 23.7267 74.5106 23.7 74.2839 23.7H73.6639V22.72H80.1639V23.7H79.5439C79.3172 23.7 79.1039 23.7333 78.9039 23.8C78.7039 23.8533 78.5439 23.9733 78.4239 24.16C78.3172 24.3467 78.2639 24.64 78.2639 25.04V37.08C78.2639 37.9867 78.1306 38.74 77.8639 39.34C77.5972 39.9533 77.2306 40.4333 76.7639 40.78C76.2972 41.14 75.7572 41.4 75.1439 41.56C74.5306 41.72 73.8972 41.8 73.2439 41.8H72.6639ZM84.7006 37.2C84.114 37.2 83.5806 37.0867 83.1006 36.86C82.634 36.62 82.2606 36.26 81.9806 35.78C81.714 35.3 81.5806 34.6933 81.5806 33.96C81.5806 32.8933 81.954 32.1 82.7006 31.58C83.4473 31.06 84.574 30.7733 86.0806 30.72L87.7406 30.66V29.52C87.7406 29.0667 87.7073 28.6667 87.6406 28.32C87.574 27.96 87.434 27.68 87.2206 27.48C87.0206 27.28 86.7006 27.18 86.2606 27.18C85.8606 27.18 85.5473 27.2733 85.3206 27.46C85.094 27.6467 84.9406 27.9067 84.8606 28.24C84.7806 28.56 84.7406 28.9267 84.7406 29.34C83.9673 29.34 83.3873 29.2467 83.0006 29.06C82.614 28.86 82.4206 28.52 82.4206 28.04C82.4206 27.56 82.594 27.1733 82.9406 26.88C83.3006 26.5867 83.7806 26.3733 84.3806 26.24C84.9806 26.1067 85.634 26.04 86.3406 26.04C87.674 26.04 88.674 26.3 89.3406 26.82C90.0073 27.3267 90.3406 28.2067 90.3406 29.46V34.6C90.3406 34.96 90.374 35.2467 90.4406 35.46C90.5206 35.66 90.654 35.8067 90.8406 35.9C91.0273 35.98 91.2673 36.02 91.5606 36.02H91.6206V37H88.3006L87.9006 35.5H87.7406C87.4473 35.86 87.1673 36.1667 86.9006 36.42C86.6473 36.6733 86.3473 36.8667 86.0006 37C85.6673 37.1333 85.234 37.2 84.7006 37.2ZM85.5606 35.82C86.014 35.82 86.4006 35.7133 86.7206 35.5C87.0406 35.2867 87.2873 34.98 87.4606 34.58C87.6473 34.18 87.7406 33.7133 87.7406 33.18V31.64L86.7006 31.7C86.074 31.7267 85.5806 31.8333 85.2206 32.02C84.874 32.2067 84.6206 32.4667 84.4606 32.8C84.314 33.1333 84.2406 33.5467 84.2406 34.04C84.2406 34.44 84.2873 34.7733 84.3806 35.04C84.474 35.2933 84.6206 35.4867 84.8206 35.62C85.0206 35.7533 85.2673 35.82 85.5606 35.82ZM92.7998 37V36.02H92.8798C93.1865 36.02 93.4598 35.9867 93.6998 35.92C93.9398 35.8533 94.1265 35.72 94.2598 35.52C94.4065 35.32 94.4798 35.02 94.4798 34.62V28.58C94.4798 28.1933 94.4132 27.9067 94.2798 27.72C94.1465 27.5333 93.9665 27.4133 93.7398 27.36C93.5265 27.2933 93.2732 27.26 92.9798 27.26H92.8998V26.28H96.7398L96.9998 27.78H97.0998C97.3665 27.2733 97.6532 26.9 97.9598 26.66C98.2798 26.4067 98.6198 26.24 98.9798 26.16C99.3532 26.08 99.7532 26.04 100.18 26.04C101.22 26.04 102.033 26.3467 102.62 26.96C103.207 27.5733 103.5 28.56 103.5 29.92V34.6C103.5 35.0133 103.553 35.32 103.66 35.52C103.78 35.72 103.94 35.8533 104.14 35.92C104.353 35.9867 104.607 36.02 104.9 36.02H104.98V37H100.9V30.3C100.9 29.4333 100.76 28.7667 100.48 28.3C100.213 27.82 99.7465 27.58 99.0798 27.58C98.5732 27.58 98.1732 27.7267 97.8798 28.02C97.5998 28.3133 97.3932 28.7 97.2598 29.18C97.1398 29.66 97.0798 30.18 97.0798 30.74V34.7C97.0798 35.0867 97.1398 35.3733 97.2598 35.56C97.3932 35.7467 97.5732 35.8733 97.7998 35.94C98.0265 35.9933 98.2865 36.02 98.5798 36.02H98.6598V37H92.7998ZM111.503 37.2C109.903 37.2 108.67 36.72 107.803 35.76C106.95 34.7867 106.523 33.4333 106.523 31.7C106.523 29.8333 106.937 28.4267 107.763 27.48C108.603 26.52 109.777 26.04 111.283 26.04C112.683 26.04 113.777 26.4467 114.563 27.26C115.363 28.06 115.763 29.2533 115.763 30.84V31.82H109.163C109.19 32.7533 109.31 33.5133 109.523 34.1C109.75 34.6733 110.063 35.1 110.463 35.38C110.877 35.66 111.377 35.8 111.963 35.8C112.43 35.8 112.843 35.7333 113.203 35.6C113.577 35.4533 113.897 35.2667 114.163 35.04C114.43 34.8 114.643 34.54 114.803 34.26C114.95 34.3267 115.063 34.44 115.143 34.6C115.237 34.7467 115.283 34.92 115.283 35.12C115.283 35.4533 115.143 35.78 114.863 36.1C114.597 36.42 114.183 36.6867 113.623 36.9C113.077 37.1 112.37 37.2 111.503 37.2ZM113.103 30.62C113.103 29.94 113.043 29.3467 112.923 28.84C112.803 28.3333 112.61 27.9467 112.343 27.68C112.09 27.4 111.743 27.26 111.303 27.26C110.877 27.26 110.51 27.3867 110.203 27.64C109.91 27.8933 109.677 28.2733 109.503 28.78C109.343 29.2733 109.243 29.8867 109.203 30.62H113.103ZM122.492 37V36.02H123.112C123.352 36.02 123.565 35.9933 123.752 35.94C123.938 35.8733 124.085 35.7467 124.192 35.56C124.312 35.36 124.372 35.0667 124.372 34.68V24.96C124.372 24.5867 124.312 24.3133 124.192 24.14C124.072 23.9533 123.918 23.8333 123.732 23.78C123.545 23.7267 123.338 23.7 123.112 23.7H122.492V22.72H128.912C130.352 22.72 131.578 22.9867 132.592 23.52C133.618 24.04 134.405 24.82 134.952 25.86C135.498 26.9 135.772 28.18 135.772 29.7C135.772 31.1533 135.512 32.4267 134.992 33.52C134.485 34.6133 133.725 35.4667 132.712 36.08C131.698 36.6933 130.425 37 128.892 37H122.492ZM128.452 35.84C129.425 35.84 130.232 35.6 130.872 35.12C131.525 34.6267 132.012 33.92 132.332 33C132.665 32.08 132.832 30.9733 132.832 29.68C132.832 28.3867 132.665 27.3133 132.332 26.46C132.012 25.5933 131.525 24.9467 130.872 24.52C130.232 24.08 129.432 23.86 128.472 23.86H127.092V35.84H128.452ZM142.851 37.2C141.317 37.2 140.104 36.74 139.211 35.82C138.331 34.9 137.891 33.4933 137.891 31.6C137.891 29.7333 138.311 28.34 139.151 27.42C140.004 26.5 141.257 26.04 142.911 26.04C144.457 26.04 145.671 26.5 146.551 27.42C147.431 28.34 147.871 29.7333 147.871 31.6C147.871 33.4933 147.444 34.9 146.591 35.82C145.751 36.74 144.504 37.2 142.851 37.2ZM142.891 36.02C143.464 36.02 143.917 35.86 144.251 35.54C144.597 35.2067 144.844 34.7067 144.991 34.04C145.137 33.3733 145.211 32.56 145.211 31.6C145.211 30.6267 145.131 29.82 144.971 29.18C144.824 28.54 144.577 28.06 144.231 27.74C143.897 27.4067 143.444 27.24 142.871 27.24C142.311 27.24 141.857 27.4067 141.511 27.74C141.164 28.06 140.917 28.54 140.771 29.18C140.624 29.82 140.551 30.6267 140.551 31.6C140.551 32.5733 140.624 33.3867 140.771 34.04C140.931 34.6933 141.177 35.1867 141.511 35.52C141.857 35.8533 142.317 36.02 142.891 36.02ZM154.843 37.2C153.243 37.2 152.01 36.72 151.143 35.76C150.29 34.7867 149.863 33.4333 149.863 31.7C149.863 29.8333 150.277 28.4267 151.103 27.48C151.943 26.52 153.117 26.04 154.623 26.04C156.023 26.04 157.117 26.4467 157.903 27.26C158.703 28.06 159.103 29.2533 159.103 30.84V31.82H152.503C152.53 32.7533 152.65 33.5133 152.863 34.1C153.09 34.6733 153.403 35.1 153.803 35.38C154.217 35.66 154.717 35.8 155.303 35.8C155.77 35.8 156.183 35.7333 156.543 35.6C156.917 35.4533 157.237 35.2667 157.503 35.04C157.77 34.8 157.983 34.54 158.143 34.26C158.29 34.3267 158.403 34.44 158.483 34.6C158.577 34.7467 158.623 34.92 158.623 35.12C158.623 35.4533 158.483 35.78 158.203 36.1C157.937 36.42 157.523 36.6867 156.963 36.9C156.417 37.1 155.71 37.2 154.843 37.2ZM156.443 30.62C156.443 29.94 156.383 29.3467 156.263 28.84C156.143 28.3333 155.95 27.9467 155.683 27.68C155.43 27.4 155.083 27.26 154.643 27.26C154.217 27.26 153.85 27.3867 153.543 27.64C153.25 27.8933 153.017 28.2733 152.843 28.78C152.683 29.2733 152.583 29.8867 152.543 30.62H156.443Z" fill="#F2EDE7"/>
</svg>
