<svg width="194" height="92" viewBox="0 0 194 92" fill="none" xmlns="http://www.w3.org/2000/svg">
<rect x="1.5" y="1.5" width="191" height="89" rx="8.5" fill="#1D1D1B" stroke="black" stroke-width="3"/>
<path d="M38.4748 66.176C38.4748 67.152 38.5548 67.936 38.7148 68.528C38.8748 69.104 39.1548 69.656 39.5548 70.184L39.8668 70.616L39.5548 71H34.2988L34.0108 70.184L34.5628 70.04C35.1708 69.88 35.5788 69.648 35.7868 69.344C35.9948 69.04 36.0988 68.528 36.0988 67.808V55.952C36.0988 55.744 36.0588 55.6 35.9788 55.52C35.8988 55.424 35.7628 55.376 35.5708 55.376H34.1788L33.8908 54.488C34.5788 54.216 35.4828 53.976 36.6028 53.768C37.7388 53.544 38.8268 53.432 39.8668 53.432C42.2348 53.432 43.9948 53.968 45.1468 55.04C46.2988 56.096 46.8748 57.464 46.8748 59.144C46.8748 60.184 46.6668 61.128 46.2508 61.976C45.8348 62.808 45.1948 63.48 44.3308 63.992C43.4668 64.488 42.3948 64.736 41.1148 64.736C40.5228 64.736 40.0188 64.664 39.6028 64.52C39.2028 64.376 39.0028 64.168 39.0028 63.896C39.0028 63.736 39.0348 63.6 39.0988 63.488C39.1628 63.376 39.2588 63.32 39.3868 63.32C39.4508 63.32 39.5788 63.352 39.7708 63.416C39.9788 63.464 40.2428 63.488 40.5628 63.488C41.7628 63.488 42.6988 63.104 43.3708 62.336C44.0428 61.568 44.3788 60.528 44.3788 59.216C44.3788 57.92 44.0188 56.856 43.2988 56.024C42.5948 55.192 41.5948 54.776 40.2988 54.776C39.0828 54.776 38.4748 55.144 38.4748 55.88V66.176ZM49.9397 54.824C49.9397 54.632 49.8997 54.496 49.8197 54.416C49.7557 54.336 49.6357 54.296 49.4597 54.296H48.4037L48.1877 53.672C48.6517 53.256 49.1797 52.912 49.7717 52.64C50.3797 52.368 50.9077 52.232 51.3557 52.232C51.5797 52.232 51.7637 52.304 51.9077 52.448C52.0517 52.592 52.1237 52.776 52.1237 53V62.336C52.5397 61.296 53.1637 60.44 53.9957 59.768C54.8277 59.096 55.6997 58.76 56.6117 58.76C57.7797 58.76 58.6037 59.104 59.0837 59.792C59.5797 60.48 59.8277 61.592 59.8277 63.128V68.936C59.8277 69.48 60.0677 69.752 60.5477 69.752C60.9477 69.752 61.3477 69.584 61.7477 69.248L62.2037 69.872C61.7877 70.336 61.3397 70.704 60.8597 70.976C60.3797 71.248 59.9317 71.384 59.5157 71.384C58.8597 71.384 58.3877 71.184 58.0997 70.784C57.8117 70.384 57.6677 69.736 57.6677 68.84V63.128C57.6677 62.28 57.5077 61.656 57.1877 61.256C56.8837 60.84 56.3557 60.632 55.6037 60.632C54.9157 60.632 54.3077 60.904 53.7797 61.448C53.2677 61.992 52.8597 62.76 52.5557 63.752C52.2677 64.744 52.1237 65.88 52.1237 67.16C52.1237 67.912 52.1797 68.512 52.2917 68.96C52.4037 69.408 52.6037 69.84 52.8917 70.256L53.1797 70.64L52.8917 71H48.6917L48.4277 70.256L48.9317 70.136C49.3317 70.04 49.5957 69.872 49.7237 69.632C49.8677 69.376 49.9397 68.944 49.9397 68.336V54.824ZM64.8838 55.208C64.8838 54.904 65.0518 54.568 65.3878 54.2C65.7398 53.816 66.0598 53.624 66.3478 53.624C66.6518 53.624 66.9798 53.808 67.3318 54.176C67.6838 54.544 67.8598 54.888 67.8598 55.208C67.8598 55.512 67.6838 55.848 67.3318 56.216C66.9798 56.584 66.6518 56.768 66.3478 56.768C66.0758 56.768 65.7638 56.584 65.4118 56.216C65.0598 55.848 64.8838 55.512 64.8838 55.208ZM67.4278 68.888C67.4278 69.432 67.6678 69.704 68.1478 69.704C68.5478 69.704 68.9478 69.536 69.3478 69.2L69.8038 69.824C69.3878 70.288 68.9398 70.656 68.4598 70.928C67.9798 71.2 67.5318 71.336 67.1158 71.336C66.4598 71.336 65.9878 71.136 65.6998 70.736C65.4118 70.336 65.2678 69.688 65.2678 68.792V61.352C65.2678 61.16 65.2278 61.024 65.1478 60.944C65.0838 60.864 64.9638 60.824 64.7878 60.824H63.7318L63.5158 60.2C63.9798 59.784 64.5078 59.44 65.0998 59.168C65.6918 58.896 66.2198 58.76 66.6838 58.76C66.9078 58.76 67.0918 58.832 67.2358 58.976C67.3798 59.12 67.4518 59.304 67.4518 59.528L67.4278 68.888ZM74.6643 68.888C74.6643 69.432 74.9043 69.704 75.3843 69.704C75.7843 69.704 76.1843 69.536 76.5843 69.2L77.0403 69.824C76.6243 70.288 76.1763 70.656 75.6963 70.928C75.2163 71.2 74.7683 71.336 74.3523 71.336C73.6963 71.336 73.2243 71.136 72.9363 70.736C72.6483 70.336 72.5043 69.688 72.5043 68.792V54.824C72.5043 54.632 72.4643 54.496 72.3843 54.416C72.3203 54.336 72.2003 54.296 72.0243 54.296H70.9683L70.7523 53.672C71.2163 53.256 71.7443 52.912 72.3363 52.64C72.9283 52.368 73.4563 52.232 73.9203 52.232C74.1443 52.232 74.3283 52.304 74.4723 52.448C74.6163 52.592 74.6883 52.776 74.6883 53L74.6643 68.888ZM78.4745 65.048C78.4745 63.768 78.7065 62.656 79.1705 61.712C79.6505 60.768 80.3305 60.04 81.2105 59.528C82.1065 59.016 83.1465 58.76 84.3305 58.76C85.5145 58.76 86.5465 59.016 87.4265 59.528C88.3065 60.04 88.9865 60.768 89.4665 61.712C89.9465 62.656 90.1865 63.768 90.1865 65.048C90.1865 66.312 89.9465 67.424 89.4665 68.384C88.9865 69.328 88.3065 70.056 87.4265 70.568C86.5465 71.08 85.5145 71.336 84.3305 71.336C83.1465 71.336 82.1065 71.08 81.2105 70.568C80.3305 70.056 79.6505 69.328 79.1705 68.384C78.7065 67.424 78.4745 66.312 78.4745 65.048ZM87.6665 65.12C87.6665 64.368 87.5625 63.6 87.3545 62.816C87.1465 62.032 86.7945 61.368 86.2985 60.824C85.8185 60.28 85.1865 60.008 84.4025 60.008C83.7305 60.008 83.1305 60.224 82.6025 60.656C82.0905 61.072 81.6905 61.664 81.4025 62.432C81.1145 63.2 80.9705 64.08 80.9705 65.072C80.9705 66.592 81.2665 67.8 81.8585 68.696C82.4505 69.592 83.2505 70.04 84.2585 70.04C84.9145 70.04 85.4985 69.84 86.0105 69.44C86.5385 69.024 86.9465 68.448 87.2345 67.712C87.5225 66.96 87.6665 66.096 87.6665 65.12ZM97.0535 70.16C97.7095 70.16 98.2455 69.984 98.6615 69.632C99.0935 69.264 99.3095 68.792 99.3095 68.216C99.3095 67.704 99.0855 67.288 98.6375 66.968C98.2055 66.648 97.5575 66.304 96.6935 65.936C95.9095 65.616 95.2535 65.304 94.7255 65C94.2135 64.696 93.7735 64.304 93.4055 63.824C93.0375 63.328 92.8535 62.72 92.8535 62C92.8535 61.04 93.2615 60.264 94.0775 59.672C94.9095 59.064 95.9575 58.76 97.2215 58.76C98.3575 58.76 99.3015 58.984 100.054 59.432C100.806 59.88 101.182 60.48 101.182 61.232C101.182 61.84 100.99 62.344 100.606 62.744C100.238 63.128 99.7575 63.32 99.1655 63.32C98.8295 63.32 98.6615 63.216 98.6615 63.008C98.6615 62.944 98.7175 62.784 98.8295 62.528C98.9575 62.256 99.0215 61.968 99.0215 61.664C99.0215 61.072 98.8215 60.632 98.4215 60.344C98.0215 60.056 97.5655 59.912 97.0535 59.912C96.3975 59.912 95.8775 60.08 95.4935 60.416C95.1255 60.736 94.9415 61.152 94.9415 61.664C94.9415 62.256 95.1735 62.736 95.6375 63.104C96.1175 63.456 96.8215 63.824 97.7495 64.208C98.5175 64.528 99.1575 64.832 99.6695 65.12C100.182 65.392 100.614 65.744 100.966 66.176C101.318 66.608 101.494 67.128 101.494 67.736C101.494 68.824 101.062 69.696 100.198 70.352C99.3335 71.008 98.1815 71.336 96.7415 71.336C95.5255 71.336 94.5255 71.064 93.7415 70.52C92.9575 69.976 92.5655 69.248 92.5655 68.336C92.5655 67.792 92.7495 67.344 93.1175 66.992C93.4855 66.64 93.9655 66.464 94.5575 66.464C94.8935 66.464 95.0615 66.56 95.0615 66.752C95.0615 66.8 95.0135 66.952 94.9175 67.208C94.8215 67.448 94.7735 67.744 94.7735 68.096C94.7735 68.768 95.0055 69.28 95.4695 69.632C95.9495 69.984 96.4775 70.16 97.0535 70.16ZM103.904 65.048C103.904 63.768 104.136 62.656 104.6 61.712C105.08 60.768 105.76 60.04 106.64 59.528C107.536 59.016 108.576 58.76 109.76 58.76C110.944 58.76 111.976 59.016 112.856 59.528C113.736 60.04 114.416 60.768 114.896 61.712C115.376 62.656 115.616 63.768 115.616 65.048C115.616 66.312 115.376 67.424 114.896 68.384C114.416 69.328 113.736 70.056 112.856 70.568C111.976 71.08 110.944 71.336 109.76 71.336C108.576 71.336 107.536 71.08 106.64 70.568C105.76 70.056 105.08 69.328 104.6 68.384C104.136 67.424 103.904 66.312 103.904 65.048ZM113.096 65.12C113.096 64.368 112.992 63.6 112.784 62.816C112.576 62.032 112.224 61.368 111.728 60.824C111.248 60.28 110.616 60.008 109.832 60.008C109.16 60.008 108.56 60.224 108.032 60.656C107.52 61.072 107.12 61.664 106.832 62.432C106.544 63.2 106.4 64.08 106.4 65.072C106.4 66.592 106.696 67.8 107.288 68.696C107.88 69.592 108.68 70.04 109.688 70.04C110.344 70.04 110.928 69.84 111.44 69.44C111.968 69.024 112.376 68.448 112.664 67.712C112.952 66.96 113.096 66.096 113.096 65.12ZM121.331 60.272C122.371 59.264 123.523 58.76 124.787 58.76C125.779 58.76 126.659 59.008 127.427 59.504C128.211 60 128.819 60.688 129.251 61.568C129.683 62.448 129.899 63.448 129.899 64.568C129.899 65.848 129.667 67.008 129.203 68.048C128.755 69.072 128.131 69.88 127.331 70.472C126.531 71.048 125.627 71.336 124.619 71.336C123.675 71.336 122.875 71.12 122.219 70.688C122.075 70.592 122.003 70.448 122.003 70.256C122.003 70.096 122.027 69.96 122.075 69.848C122.139 69.72 122.235 69.656 122.363 69.656C122.427 69.656 122.603 69.72 122.891 69.848C123.195 69.976 123.587 70.04 124.067 70.04C124.691 70.04 125.251 69.824 125.747 69.392C126.259 68.96 126.651 68.368 126.923 67.616C127.211 66.848 127.355 65.992 127.355 65.048C127.355 64.136 127.211 63.328 126.923 62.624C126.651 61.904 126.259 61.344 125.747 60.944C125.251 60.544 124.675 60.344 124.019 60.344C123.043 60.344 122.147 60.656 121.331 61.28V74.72C121.331 75.328 121.395 75.752 121.523 75.992C121.667 76.248 121.939 76.424 122.339 76.52L122.843 76.64L122.579 77.384H118.403L118.115 77.024L118.403 76.64C118.691 76.224 118.891 75.792 119.003 75.344C119.115 74.896 119.171 74.296 119.171 73.544V61.856C119.171 61.6 119.131 61.416 119.051 61.304C118.987 61.192 118.859 61.112 118.667 61.064L117.419 60.8V60.008C117.675 59.784 118.163 59.568 118.883 59.36C119.603 59.152 120.227 59.048 120.755 59.048C121.139 59.048 121.331 59.416 121.331 60.152V60.272ZM133.565 54.824C133.565 54.632 133.525 54.496 133.445 54.416C133.381 54.336 133.261 54.296 133.085 54.296H132.029L131.813 53.672C132.277 53.256 132.805 52.912 133.397 52.64C134.005 52.368 134.533 52.232 134.981 52.232C135.205 52.232 135.389 52.304 135.533 52.448C135.677 52.592 135.749 52.776 135.749 53V62.336C136.165 61.296 136.789 60.44 137.621 59.768C138.453 59.096 139.325 58.76 140.237 58.76C141.405 58.76 142.229 59.104 142.709 59.792C143.205 60.48 143.453 61.592 143.453 63.128V68.936C143.453 69.48 143.693 69.752 144.173 69.752C144.573 69.752 144.973 69.584 145.373 69.248L145.829 69.872C145.413 70.336 144.965 70.704 144.485 70.976C144.005 71.248 143.557 71.384 143.141 71.384C142.485 71.384 142.013 71.184 141.725 70.784C141.437 70.384 141.293 69.736 141.293 68.84V63.128C141.293 62.28 141.133 61.656 140.813 61.256C140.509 60.84 139.981 60.632 139.229 60.632C138.541 60.632 137.933 60.904 137.405 61.448C136.893 61.992 136.485 62.76 136.181 63.752C135.893 64.744 135.749 65.88 135.749 67.16C135.749 67.912 135.805 68.512 135.917 68.96C136.029 69.408 136.229 69.84 136.517 70.256L136.805 70.64L136.517 71H132.317L132.053 70.256L132.557 70.136C132.957 70.04 133.221 69.872 133.349 69.632C133.493 69.376 133.565 68.944 133.565 68.336V54.824ZM153.285 77.672C152.405 77.672 151.653 77.504 151.029 77.168C150.405 76.848 149.941 76.424 149.637 75.896C149.333 75.384 149.181 74.832 149.181 74.24C149.181 73.44 149.453 72.752 149.997 72.176C150.541 71.616 151.285 71.336 152.229 71.336C152.389 71.336 152.501 71.36 152.565 71.408C152.645 71.472 152.685 71.536 152.685 71.6C152.685 71.664 152.573 71.816 152.349 72.056C152.125 72.296 151.925 72.584 151.749 72.92C151.589 73.256 151.509 73.68 151.509 74.192C151.509 74.832 151.693 75.36 152.061 75.776C152.445 76.208 152.957 76.424 153.597 76.424C154.589 76.424 155.317 76.016 155.781 75.2C156.245 74.384 156.477 73.288 156.477 71.912V68.36C156.109 69.064 155.557 69.624 154.821 70.04C154.085 70.44 153.277 70.64 152.397 70.64C151.261 70.64 150.373 70.296 149.733 69.608C149.093 68.904 148.773 67.92 148.773 66.656V61.328C148.773 61.136 148.733 61 148.653 60.92C148.589 60.84 148.469 60.8 148.293 60.8H147.237L147.021 60.176C147.437 59.76 147.941 59.416 148.533 59.144C149.141 58.872 149.693 58.736 150.189 58.736C150.413 58.736 150.597 58.808 150.741 58.952C150.885 59.096 150.957 59.28 150.957 59.504V66.104C150.957 67.064 151.149 67.792 151.533 68.288C151.917 68.784 152.477 69.032 153.213 69.032C154.285 69.032 155.117 68.632 155.709 67.832C156.317 67.016 156.621 65.896 156.621 64.472C156.621 63.16 156.565 62.184 156.453 61.544C156.341 60.904 156.085 60.32 155.685 59.792L155.397 59.408L155.685 59.048L158.613 58.736V71.528C158.613 73.496 158.133 75.008 157.173 76.064C156.229 77.136 154.933 77.672 153.285 77.672Z" fill="#F2EDE7"/>
<path d="M89.6146 18.0104H90.0026L90.0989 17.6346C90.4143 16.4042 91.5133 15.5 92.8333 15.5C94.3957 15.5 95.6667 16.7709 95.6667 18.3333V37.9167C95.6667 39.7134 94.2134 41.1667 92.4167 41.1667C90.986 41.1667 89.7839 40.2361 89.3488 38.9446L89.2112 38.5358L88.7867 38.612C88.6004 38.6455 88.4236 38.6667 88.25 38.6667C86.4532 38.6667 85 37.2134 85 35.4167C85 35.2016 85.0224 34.989 85.0636 34.7783L85.1422 34.3767L84.7641 34.2203C83.4342 33.67 82.5 32.3585 82.5 30.8333C82.5 29.4762 83.2437 28.3029 84.3482 27.6678L84.7509 27.4362L84.5495 27.0176C84.311 26.5218 84.1667 25.9862 84.1667 25.4167C84.1667 23.8875 85.1048 22.5759 86.4453 22.025L86.843 21.8615L86.7409 21.4438C86.6927 21.2466 86.6667 21.0417 86.6667 20.8333C86.6667 19.2758 87.9298 18.0078 89.4855 18C89.4859 18.0001 89.4862 18.0001 89.4866 18.0002C89.4875 18.0003 89.4886 18.0005 89.4897 18.0006C89.5083 18.0033 89.5571 18.0104 89.6146 18.0104ZM109.452 27.0142L109.246 27.4345L109.652 27.6678C110.756 28.3029 111.5 29.4762 111.5 30.8333C111.5 32.3585 110.566 33.67 109.236 34.2203L108.858 34.3767L108.936 34.7783C108.978 34.989 109 35.2016 109 35.4167C109 37.2134 107.547 38.6667 105.75 38.6667C105.576 38.6667 105.4 38.6455 105.213 38.612L104.789 38.5358L104.651 38.9446C104.216 40.2361 103.014 41.1667 101.583 41.1667C99.7866 41.1667 98.3333 39.7134 98.3333 37.9167V18.3333C98.3333 16.7662 99.6038 15.5 101.167 15.5C102.487 15.5 103.586 16.4042 103.901 17.6346L103.997 18.0104H104.385C104.418 18.0104 104.446 18.0081 104.466 18.006C104.483 18.0042 104.499 18.0019 104.507 18.0008L104.509 18.0005C104.51 18.0003 104.512 18.0002 104.513 18C106.069 18.0069 107.333 19.2752 107.333 20.8333C107.333 21.0356 107.304 21.2423 107.257 21.454L107.165 21.865L107.555 22.025C108.895 22.5759 109.833 23.8875 109.833 25.4167C109.833 25.9886 109.693 26.5231 109.452 27.0142Z" fill="#DA9B3C" stroke="#1D1D1B"/>
</svg>
