<svg width="163" height="28" viewBox="0 0 163 28" fill="none" xmlns="http://www.w3.org/2000/svg">
<path d="M26.0936 21V20.118H26.6516C26.8676 20.118 27.0596 20.094 27.2276 20.046C27.3956 19.986 27.5276 19.872 27.6236 19.704C27.7316 19.524 27.7856 19.26 27.7856 18.912V10.164C27.7856 9.828 27.7316 9.582 27.6236 9.426C27.5156 9.258 27.3776 9.15 27.2096 9.102C27.0416 9.054 26.8556 9.03 26.6516 9.03H26.0936V8.148H31.4396C33.0476 8.148 34.2356 8.49 35.0036 9.174C35.7836 9.846 36.1736 10.77 36.1736 11.946C36.1736 12.486 36.0776 13.002 35.8856 13.494C35.7056 13.974 35.4116 14.412 35.0036 14.808C34.6076 15.192 34.0796 15.498 33.4196 15.726C32.7716 15.942 31.9796 16.05 31.0436 16.05H30.2336V19.002C30.2336 19.326 30.2876 19.572 30.3956 19.74C30.5036 19.896 30.6416 19.998 30.8096 20.046C30.9896 20.094 31.1816 20.118 31.3856 20.118H32.2856V21H26.0936ZM30.8636 15.078C31.3436 15.078 31.7516 15.024 32.0876 14.916C32.4356 14.796 32.7176 14.616 32.9336 14.376C33.1496 14.136 33.3056 13.824 33.4016 13.44C33.4976 13.044 33.5456 12.57 33.5456 12.018C33.5456 11.358 33.4676 10.818 33.3116 10.398C33.1556 9.978 32.8976 9.666 32.5376 9.462C32.1896 9.246 31.7216 9.138 31.1336 9.138H30.2336V15.078H30.8636ZM37.2176 21V20.118H37.2716C37.5476 20.118 37.7876 20.088 37.9916 20.028C38.2076 19.968 38.3756 19.848 38.4956 19.668C38.6276 19.476 38.6936 19.194 38.6936 18.822V13.458C38.6936 13.098 38.6336 12.834 38.5136 12.666C38.3936 12.486 38.2316 12.372 38.0276 12.324C37.8236 12.264 37.5896 12.234 37.3256 12.234H37.2716V11.352H40.5836L40.9256 12.9H41.0156C41.1716 12.54 41.3456 12.228 41.5376 11.964C41.7416 11.7 41.9996 11.502 42.3116 11.37C42.6236 11.226 43.0316 11.154 43.5356 11.154C44.2196 11.154 44.7236 11.274 45.0476 11.514C45.3836 11.754 45.5516 12.102 45.5516 12.558C45.5516 13.038 45.3776 13.422 45.0296 13.71C44.6816 13.986 44.1716 14.124 43.4996 14.124C43.4996 13.788 43.4696 13.518 43.4096 13.314C43.3616 13.098 43.2716 12.936 43.1396 12.828C43.0076 12.72 42.8276 12.666 42.5996 12.666C42.2756 12.666 42.0116 12.786 41.8076 13.026C41.6036 13.254 41.4416 13.542 41.3216 13.89C41.2136 14.238 41.1356 14.598 41.0876 14.97C41.0516 15.342 41.0336 15.654 41.0336 15.906V18.912C41.0336 19.26 41.0936 19.524 41.2136 19.704C41.3336 19.872 41.4956 19.986 41.6996 20.046C41.9036 20.094 42.1256 20.118 42.3656 20.118H42.9236V21H37.2176ZM51.1843 21.18C49.8043 21.18 48.7123 20.766 47.9083 19.938C47.1163 19.11 46.7203 17.844 46.7203 16.14C46.7203 14.46 47.0983 13.206 47.8543 12.378C48.6223 11.55 49.7503 11.136 51.2383 11.136C52.6303 11.136 53.7223 11.55 54.5143 12.378C55.3063 13.206 55.7023 14.46 55.7023 16.14C55.7023 17.844 55.3183 19.11 54.5503 19.938C53.7943 20.766 52.6723 21.18 51.1843 21.18ZM51.2203 20.118C51.7363 20.118 52.1443 19.974 52.4443 19.686C52.7563 19.386 52.9783 18.936 53.1103 18.336C53.2423 17.736 53.3083 17.004 53.3083 16.14C53.3083 15.264 53.2363 14.538 53.0923 13.962C52.9603 13.386 52.7383 12.954 52.4263 12.666C52.1263 12.366 51.7183 12.216 51.2023 12.216C50.6983 12.216 50.2903 12.366 49.9783 12.666C49.6663 12.954 49.4443 13.386 49.3123 13.962C49.1803 14.538 49.1143 15.264 49.1143 16.14C49.1143 17.016 49.1803 17.748 49.3123 18.336C49.4563 18.924 49.6783 19.368 49.9783 19.668C50.2903 19.968 50.7043 20.118 51.2203 20.118ZM56.9917 21V20.118H57.3337C57.5497 20.118 57.7597 20.094 57.9637 20.046C58.1677 19.986 58.3357 19.872 58.4677 19.704C58.6117 19.524 58.6837 19.26 58.6837 18.912V12.432H57.0637V11.352H58.6837V11.082C58.6837 10.266 58.8457 9.564 59.1697 8.976C59.5057 8.376 60.0157 7.92 60.6997 7.608C61.3837 7.284 62.2597 7.122 63.3277 7.122C63.9997 7.122 64.5757 7.158 65.0557 7.23C65.5357 7.302 65.9197 7.404 66.2077 7.536C66.5077 7.668 66.7237 7.83 66.8557 8.022C66.9997 8.214 67.0717 8.43 67.0717 8.67C67.0717 9.078 66.8857 9.414 66.5137 9.678C66.1537 9.93 65.5837 10.056 64.8037 10.056C64.8037 9.828 64.7497 9.558 64.6417 9.246C64.5457 8.934 64.3657 8.664 64.1017 8.436C63.8377 8.196 63.4657 8.076 62.9857 8.076C62.5177 8.076 62.1337 8.178 61.8337 8.382C61.5457 8.586 61.3357 8.88 61.2037 9.264C61.0837 9.648 61.0237 10.098 61.0237 10.614V11.352H67.3057V18.912C67.3057 19.26 67.3717 19.524 67.5037 19.704C67.6357 19.872 67.8097 19.986 68.0257 20.046C68.2417 20.094 68.4517 20.118 68.6557 20.118H68.8717V21H63.4537V20.118H63.6157C63.8197 20.118 64.0237 20.094 64.2277 20.046C64.4437 19.986 64.6177 19.872 64.7497 19.704C64.8937 19.536 64.9657 19.278 64.9657 18.93V12.432H61.0237V18.912C61.0237 19.26 61.0897 19.524 61.2217 19.704C61.3537 19.872 61.5277 19.986 61.7437 20.046C61.9597 20.094 62.1697 20.118 62.3737 20.118H62.8057V21H56.9917ZM69.4341 21V20.118H69.6681C69.8841 20.118 70.0941 20.094 70.2981 20.046C70.5021 19.986 70.6701 19.872 70.8021 19.704C70.9461 19.524 71.0181 19.26 71.0181 18.912V9.336C71.0181 9 70.9461 8.754 70.8021 8.598C70.6581 8.43 70.4841 8.322 70.2801 8.274C70.0761 8.226 69.8721 8.202 69.6681 8.202H69.4341V7.32H73.3581V18.912C73.3581 19.26 73.4241 19.524 73.5561 19.704C73.7001 19.872 73.8741 19.986 74.0781 20.046C74.2941 20.094 74.5041 20.118 74.7081 20.118H74.9421V21H69.4341ZM80.5929 21.18C79.1529 21.18 78.0429 20.748 77.2629 19.884C76.4949 19.008 76.1109 17.79 76.1109 16.23C76.1109 14.55 76.4829 13.284 77.2269 12.432C77.9829 11.568 79.0389 11.136 80.3949 11.136C81.6549 11.136 82.6389 11.502 83.3469 12.234C84.0669 12.954 84.4269 14.028 84.4269 15.456V16.338H78.4869C78.5109 17.178 78.6189 17.862 78.8109 18.39C79.0149 18.906 79.2969 19.29 79.6569 19.542C80.0289 19.794 80.4789 19.92 81.0069 19.92C81.4269 19.92 81.7989 19.86 82.1229 19.74C82.4589 19.608 82.7469 19.44 82.9869 19.236C83.2269 19.02 83.4189 18.786 83.5629 18.534C83.6949 18.594 83.7969 18.696 83.8689 18.84C83.9529 18.972 83.9949 19.128 83.9949 19.308C83.9949 19.608 83.8689 19.902 83.6169 20.19C83.3769 20.478 83.0049 20.718 82.5009 20.91C82.0089 21.09 81.3729 21.18 80.5929 21.18ZM82.0329 15.258C82.0329 14.646 81.9789 14.112 81.8709 13.656C81.7629 13.2 81.5889 12.852 81.3489 12.612C81.1209 12.36 80.8089 12.234 80.4129 12.234C80.0289 12.234 79.6989 12.348 79.4229 12.576C79.1589 12.804 78.9489 13.146 78.7929 13.602C78.6489 14.046 78.5589 14.598 78.5229 15.258H82.0329ZM94.5503 21.18C93.8183 21.18 93.2003 21.114 92.6963 20.982C92.1923 20.838 91.7843 20.646 91.4723 20.406C91.1603 20.166 90.9323 19.896 90.7883 19.596C90.6443 19.284 90.5723 18.972 90.5723 18.66C90.5723 18.312 90.6503 18.03 90.8063 17.814C90.9623 17.586 91.1723 17.418 91.4363 17.31C91.7123 17.202 92.0063 17.148 92.3183 17.148C92.3303 17.76 92.4323 18.294 92.6243 18.75C92.8163 19.206 93.0923 19.56 93.4523 19.812C93.8243 20.052 94.2683 20.172 94.7843 20.172C95.5283 20.172 96.1043 19.986 96.5123 19.614C96.9323 19.23 97.1423 18.726 97.1423 18.102C97.1423 17.682 97.0403 17.322 96.8363 17.022C96.6323 16.722 96.3143 16.446 95.8823 16.194C95.4503 15.942 94.8923 15.678 94.2083 15.402C93.6203 15.162 93.1103 14.904 92.6783 14.628C92.2463 14.352 91.8983 14.058 91.6343 13.746C91.3703 13.434 91.1723 13.092 91.0403 12.72C90.9203 12.336 90.8603 11.91 90.8603 11.442C90.8603 10.734 91.0463 10.122 91.4183 9.606C91.7903 9.078 92.2943 8.676 92.9303 8.4C93.5663 8.112 94.2923 7.968 95.1083 7.968C95.9243 7.968 96.6023 8.064 97.1423 8.256C97.6823 8.436 98.0843 8.682 98.3483 8.994C98.6243 9.306 98.7623 9.648 98.7623 10.02C98.7623 10.428 98.6003 10.764 98.2763 11.028C97.9523 11.28 97.4723 11.406 96.8363 11.406C96.8363 11.058 96.7703 10.698 96.6383 10.326C96.5183 9.954 96.3143 9.642 96.0263 9.39C95.7503 9.126 95.3723 8.994 94.8923 8.994C94.5203 8.994 94.1843 9.066 93.8843 9.21C93.5963 9.342 93.3683 9.546 93.2003 9.822C93.0323 10.086 92.9483 10.41 92.9483 10.794C92.9483 11.19 93.0323 11.538 93.2003 11.838C93.3683 12.138 93.6623 12.426 94.0823 12.702C94.5023 12.978 95.0963 13.272 95.8643 13.584C96.6443 13.896 97.2803 14.232 97.7723 14.592C98.2763 14.94 98.6483 15.342 98.8883 15.798C99.1403 16.242 99.2663 16.764 99.2663 17.364C99.2663 18.132 99.0683 18.804 98.6723 19.38C98.2883 19.944 97.7423 20.388 97.0343 20.712C96.3383 21.024 95.5103 21.18 94.5503 21.18ZM105.554 21.18C104.114 21.18 103.004 20.748 102.224 19.884C101.456 19.008 101.072 17.79 101.072 16.23C101.072 14.55 101.444 13.284 102.188 12.432C102.944 11.568 104 11.136 105.356 11.136C106.616 11.136 107.6 11.502 108.308 12.234C109.028 12.954 109.388 14.028 109.388 15.456V16.338H103.448C103.472 17.178 103.58 17.862 103.772 18.39C103.976 18.906 104.258 19.29 104.618 19.542C104.99 19.794 105.44 19.92 105.968 19.92C106.388 19.92 106.76 19.86 107.084 19.74C107.42 19.608 107.708 19.44 107.948 19.236C108.188 19.02 108.38 18.786 108.524 18.534C108.656 18.594 108.758 18.696 108.83 18.84C108.914 18.972 108.956 19.128 108.956 19.308C108.956 19.608 108.83 19.902 108.578 20.19C108.338 20.478 107.966 20.718 107.462 20.91C106.97 21.09 106.334 21.18 105.554 21.18ZM106.994 15.258C106.994 14.646 106.94 14.112 106.832 13.656C106.724 13.2 106.55 12.852 106.31 12.612C106.082 12.36 105.77 12.234 105.374 12.234C104.99 12.234 104.66 12.348 104.384 12.576C104.12 12.804 103.91 13.146 103.754 13.602C103.61 14.046 103.52 14.598 103.484 15.258H106.994ZM114.547 21.18C113.695 21.18 113.041 20.97 112.585 20.55C112.141 20.13 111.919 19.398 111.919 18.354V12.504H110.551V11.658C110.875 11.658 111.181 11.592 111.469 11.46C111.757 11.328 111.997 11.166 112.189 10.974C112.369 10.77 112.531 10.518 112.675 10.218C112.819 9.918 112.933 9.552 113.017 9.12H114.259V11.352H116.581V12.504H114.259V18.264C114.259 18.828 114.361 19.248 114.565 19.524C114.781 19.788 115.093 19.92 115.501 19.92C115.741 19.92 115.957 19.908 116.149 19.884C116.353 19.848 116.551 19.806 116.743 19.758V20.784C116.563 20.868 116.275 20.952 115.879 21.036C115.495 21.132 115.051 21.18 114.547 21.18ZM121.473 21.18C120.621 21.18 119.967 20.97 119.511 20.55C119.067 20.13 118.845 19.398 118.845 18.354V12.504H117.477V11.658C117.801 11.658 118.107 11.592 118.395 11.46C118.683 11.328 118.923 11.166 119.115 10.974C119.295 10.77 119.457 10.518 119.601 10.218C119.745 9.918 119.859 9.552 119.943 9.12H121.185V11.352H123.507V12.504H121.185V18.264C121.185 18.828 121.287 19.248 121.491 19.524C121.707 19.788 122.019 19.92 122.427 19.92C122.667 19.92 122.883 19.908 123.075 19.884C123.279 19.848 123.477 19.806 123.669 19.758V20.784C123.489 20.868 123.201 20.952 122.805 21.036C122.421 21.132 121.977 21.18 121.473 21.18ZM124.385 21V20.118H124.619C124.823 20.118 125.027 20.094 125.231 20.046C125.447 19.986 125.621 19.872 125.753 19.704C125.897 19.536 125.969 19.284 125.969 18.948V13.368C125.969 13.032 125.897 12.786 125.753 12.63C125.609 12.462 125.435 12.354 125.231 12.306C125.027 12.258 124.823 12.234 124.619 12.234H124.457V11.352H128.309V18.912C128.309 19.26 128.375 19.524 128.507 19.704C128.639 19.872 128.813 19.986 129.029 20.046C129.245 20.094 129.455 20.118 129.659 20.118H129.875V21H124.385ZM127.049 9.66C126.677 9.66 126.359 9.564 126.095 9.372C125.843 9.18 125.717 8.868 125.717 8.436C125.717 7.992 125.843 7.68 126.095 7.5C126.359 7.308 126.683 7.212 127.067 7.212C127.427 7.212 127.739 7.308 128.003 7.5C128.267 7.68 128.399 7.992 128.399 8.436C128.399 8.868 128.267 9.18 128.003 9.372C127.739 9.564 127.421 9.66 127.049 9.66ZM130.574 21V20.118H130.646C130.922 20.118 131.168 20.088 131.384 20.028C131.6 19.968 131.768 19.848 131.888 19.668C132.02 19.488 132.086 19.218 132.086 18.858V13.422C132.086 13.074 132.026 12.816 131.906 12.648C131.786 12.48 131.624 12.372 131.42 12.324C131.228 12.264 131 12.234 130.736 12.234H130.664V11.352H134.12L134.354 12.702H134.444C134.684 12.246 134.942 11.91 135.218 11.694C135.506 11.466 135.812 11.316 136.136 11.244C136.472 11.172 136.832 11.136 137.216 11.136C138.152 11.136 138.884 11.412 139.412 11.964C139.94 12.516 140.204 13.404 140.204 14.628V18.84C140.204 19.212 140.252 19.488 140.348 19.668C140.456 19.848 140.6 19.968 140.78 20.028C140.972 20.088 141.2 20.118 141.464 20.118H141.536V21H137.864V14.97C137.864 14.19 137.738 13.59 137.486 13.17C137.246 12.738 136.826 12.522 136.226 12.522C135.77 12.522 135.41 12.654 135.146 12.918C134.894 13.182 134.708 13.53 134.588 13.962C134.48 14.394 134.426 14.862 134.426 15.366V18.93C134.426 19.278 134.48 19.536 134.588 19.704C134.708 19.872 134.87 19.986 135.074 20.046C135.278 20.094 135.512 20.118 135.776 20.118H135.848V21H130.574ZM146.237 25.32C144.881 25.32 143.867 25.098 143.195 24.654C142.535 24.222 142.205 23.592 142.205 22.764C142.205 22.32 142.301 21.948 142.493 21.648C142.685 21.348 142.961 21.114 143.321 20.946C143.681 20.766 144.095 20.652 144.563 20.604C144.275 20.484 144.005 20.298 143.753 20.046C143.501 19.782 143.375 19.446 143.375 19.038C143.375 18.666 143.501 18.336 143.753 18.048C144.017 17.76 144.371 17.49 144.815 17.238C144.287 17.034 143.861 16.692 143.537 16.212C143.213 15.732 143.051 15.15 143.051 14.466C143.051 13.422 143.345 12.606 143.933 12.018C144.533 11.43 145.445 11.136 146.669 11.136C147.101 11.136 147.503 11.196 147.875 11.316C148.259 11.424 148.565 11.556 148.793 11.712C148.973 11.52 149.153 11.352 149.333 11.208C149.513 11.052 149.705 10.932 149.909 10.848C150.125 10.764 150.359 10.722 150.611 10.722C151.019 10.722 151.319 10.824 151.511 11.028C151.715 11.22 151.817 11.448 151.817 11.712C151.817 11.964 151.733 12.192 151.565 12.396C151.397 12.6 151.097 12.702 150.665 12.702C150.665 12.498 150.605 12.33 150.485 12.198C150.365 12.066 150.209 12 150.017 12C149.897 12 149.777 12.018 149.657 12.054C149.537 12.09 149.435 12.138 149.351 12.198C149.579 12.462 149.771 12.786 149.927 13.17C150.083 13.554 150.161 13.98 150.161 14.448C150.161 15.348 149.879 16.098 149.315 16.698C148.751 17.286 147.869 17.58 146.669 17.58C146.537 17.58 146.363 17.574 146.147 17.562C145.943 17.538 145.781 17.52 145.661 17.508C145.469 17.604 145.301 17.736 145.157 17.904C145.013 18.072 144.941 18.276 144.941 18.516C144.941 18.708 145.013 18.858 145.157 18.966C145.313 19.074 145.559 19.128 145.895 19.128H148.019C148.787 19.128 149.411 19.242 149.891 19.47C150.371 19.686 150.725 19.998 150.953 20.406C151.181 20.814 151.295 21.294 151.295 21.846C151.295 22.926 150.881 23.772 150.053 24.384C149.237 25.008 147.965 25.32 146.237 25.32ZM146.273 24.312C147.041 24.312 147.653 24.234 148.109 24.078C148.565 23.922 148.889 23.7 149.081 23.412C149.285 23.124 149.387 22.776 149.387 22.368C149.387 21.924 149.249 21.618 148.973 21.45C148.709 21.294 148.313 21.216 147.785 21.216H145.823C145.547 21.216 145.271 21.252 144.995 21.324C144.731 21.396 144.509 21.534 144.329 21.738C144.161 21.954 144.077 22.278 144.077 22.71C144.077 23.046 144.149 23.334 144.293 23.574C144.449 23.814 144.689 23.994 145.013 24.114C145.337 24.246 145.757 24.312 146.273 24.312ZM146.615 16.59C146.975 16.59 147.251 16.512 147.443 16.356C147.647 16.188 147.785 15.942 147.857 15.618C147.941 15.294 147.983 14.898 147.983 14.43C147.983 13.95 147.941 13.542 147.857 13.206C147.773 12.858 147.629 12.594 147.425 12.414C147.233 12.234 146.957 12.144 146.597 12.144C146.261 12.144 145.991 12.24 145.787 12.432C145.583 12.612 145.439 12.876 145.355 13.224C145.271 13.56 145.229 13.968 145.229 14.448C145.229 14.904 145.271 15.294 145.355 15.618C145.451 15.93 145.601 16.17 145.805 16.338C146.009 16.506 146.279 16.59 146.615 16.59ZM155.971 21.18C155.203 21.18 154.567 21.096 154.063 20.928C153.571 20.76 153.205 20.526 152.965 20.226C152.725 19.914 152.605 19.554 152.605 19.146C152.605 18.774 152.689 18.498 152.857 18.318C153.025 18.126 153.223 18 153.451 17.94C153.679 17.868 153.883 17.832 154.063 17.832C154.063 18.3 154.135 18.714 154.279 19.074C154.435 19.422 154.657 19.698 154.945 19.902C155.233 20.094 155.587 20.19 156.007 20.19C156.643 20.19 157.111 20.058 157.411 19.794C157.711 19.53 157.861 19.2 157.861 18.804C157.861 18.528 157.795 18.294 157.663 18.102C157.543 17.91 157.321 17.724 156.997 17.544C156.673 17.364 156.223 17.166 155.647 16.95C155.023 16.71 154.495 16.458 154.063 16.194C153.631 15.918 153.307 15.6 153.091 15.24C152.875 14.88 152.767 14.43 152.767 13.89C152.767 12.99 153.103 12.312 153.775 11.856C154.447 11.388 155.335 11.154 156.439 11.154C157.135 11.154 157.699 11.232 158.131 11.388C158.563 11.544 158.881 11.754 159.085 12.018C159.289 12.27 159.391 12.54 159.391 12.828C159.391 13.2 159.259 13.488 158.995 13.692C158.743 13.896 158.335 13.998 157.771 13.998C157.771 13.398 157.639 12.936 157.375 12.612C157.111 12.276 156.715 12.108 156.187 12.108C155.887 12.108 155.617 12.156 155.377 12.252C155.149 12.348 154.969 12.492 154.837 12.684C154.705 12.864 154.639 13.086 154.639 13.35C154.639 13.614 154.711 13.848 154.855 14.052C154.999 14.244 155.245 14.43 155.593 14.61C155.941 14.79 156.415 14.988 157.015 15.204C157.591 15.42 158.077 15.66 158.473 15.924C158.881 16.176 159.193 16.482 159.409 16.842C159.625 17.202 159.733 17.634 159.733 18.138C159.733 19.11 159.397 19.86 158.725 20.388C158.065 20.916 157.147 21.18 155.971 21.18Z" fill="#F2EDE7"/>
<path d="M10 11.449C9.29985 11.449 8.61543 11.6566 8.03328 12.0456C7.45113 12.4346 6.9974 12.9875 6.72947 13.6343C6.46153 14.2812 6.39143 14.9929 6.52802 15.6796C6.66461 16.3663 7.00176 16.9971 7.49684 17.4922C7.99192 17.9872 8.62269 18.3244 9.30938 18.461C9.99607 18.5976 10.7078 18.5275 11.3547 18.2595C12.0016 17.9916 12.5544 17.5379 12.9434 16.9557C13.3324 16.3736 13.54 15.6891 13.54 14.989C13.5392 14.0504 13.1659 13.1505 12.5022 12.4868C11.8385 11.8231 10.9386 11.4498 10 11.449ZM10 18.0274C9.39874 18.0274 8.81099 17.8491 8.31107 17.5151C7.81114 17.181 7.4215 16.7062 7.19141 16.1508C6.96132 15.5953 6.90111 14.984 7.01841 14.3943C7.13571 13.8046 7.42524 13.2629 7.8504 12.8378C8.27555 12.4126 8.81722 12.1231 9.40693 12.0058C9.99663 11.8885 10.6079 11.9487 11.1634 12.1788C11.7188 12.4089 12.1936 12.7985 12.5277 13.2985C12.8617 13.7984 13.04 14.3861 13.04 14.9874C13.0393 15.7934 12.7188 16.5663 12.1488 17.1362C11.5789 17.7062 10.806 18.0267 10 18.0274ZM18.7842 13.5474L16.7968 13.2736C16.6315 12.6201 16.372 11.9942 16.0266 11.4154L17.2386 9.8154C17.2751 9.76726 17.2929 9.70755 17.2887 9.64731C17.2846 9.58706 17.2589 9.53034 17.2162 9.4876L15.5118 7.7832C15.4691 7.74054 15.4123 7.71477 15.3521 7.71065C15.2918 7.70654 15.2321 7.72435 15.184 7.7608L13.584 8.9728C13.0053 8.62735 12.3794 8.36784 11.726 8.2024L11.4528 6.216C11.4446 6.15616 11.415 6.10132 11.3695 6.06161C11.324 6.0219 11.2656 6.00002 11.2052 6H8.7948C8.73443 6.00001 8.6761 6.02187 8.63059 6.06154C8.58508 6.1012 8.55546 6.156 8.5472 6.2158L8.2734 8.2032C7.62004 8.36862 6.99418 8.62806 6.4154 8.9734L4.8154 7.7614C4.76726 7.72495 4.70755 7.70714 4.64731 7.71125C4.58706 7.71537 4.53034 7.74114 4.4876 7.7838L2.7832 9.4882C2.74054 9.53094 2.71477 9.58766 2.71065 9.64791C2.70654 9.70815 2.72435 9.76786 2.7608 9.816L3.9728 11.416C3.62733 11.9947 3.36788 12.6206 3.2026 13.274L1.216 13.5472C1.15616 13.5554 1.10132 13.585 1.06161 13.6305C1.0219 13.676 1.00002 13.7344 1 13.7948V16.2052C1.00001 16.2656 1.02187 16.3239 1.06154 16.3694C1.1012 16.4149 1.156 16.4445 1.2158 16.4528L3.2032 16.7266C3.36852 17.3801 3.62797 18.006 3.9734 18.5848L2.7614 20.1848C2.72495 20.2329 2.70714 20.2926 2.71125 20.3529C2.71537 20.4131 2.74114 20.4699 2.7838 20.5126L4.4882 22.217C4.53094 22.2597 4.58766 22.2854 4.64791 22.2895C4.70815 22.2937 4.76786 22.2759 4.816 22.2394L6.416 21.0272C6.99473 21.3727 7.6206 21.6323 8.274 21.7978L8.5478 23.7848C8.55618 23.8444 8.58577 23.899 8.63114 23.9385C8.67651 23.978 8.73462 23.9999 8.7948 24H11.2052C11.2656 24 11.3239 23.9781 11.3694 23.9385C11.4149 23.8988 11.4445 23.844 11.4528 23.7842L11.7266 21.7968C12.38 21.6314 13.0059 21.3719 13.5846 21.0264L15.1846 22.2386C15.2327 22.2751 15.2924 22.2929 15.3527 22.2887C15.4129 22.2846 15.4697 22.2589 15.5124 22.2162L17.2168 20.5118C17.2595 20.4691 17.2852 20.4123 17.2893 20.3521C17.2935 20.2918 17.2757 20.2321 17.2392 20.184L16.0272 18.584C16.3726 18.0053 16.632 17.3794 16.7974 16.726L18.7846 16.4522C18.8442 16.4439 18.8988 16.4143 18.9384 16.3689C18.978 16.3235 18.9999 16.2654 19 16.2052V13.7948C19 13.7344 18.9781 13.6761 18.9385 13.6306C18.8988 13.5851 18.844 13.5557 18.7842 13.5474ZM18.5 15.9872L16.56 16.2546C16.5097 16.2615 16.4627 16.2837 16.4252 16.318C16.3878 16.3523 16.3617 16.3973 16.3504 16.4468C16.1882 17.1628 15.9051 17.8459 15.5132 18.4668C15.4861 18.5098 15.4728 18.5601 15.475 18.6109C15.4772 18.6617 15.4949 18.7107 15.5256 18.7512L16.7092 20.3128L15.313 21.709L13.7512 20.5254C13.7106 20.4947 13.6617 20.4771 13.6109 20.475C13.5601 20.4728 13.5098 20.4861 13.4668 20.5132C12.846 20.9051 12.1628 21.1882 11.4468 21.3504C11.3972 21.3616 11.3523 21.3877 11.318 21.4252C11.2836 21.4626 11.2615 21.5097 11.2546 21.56L10.9872 23.5H9.0128L8.7456 21.56C8.73862 21.5097 8.71646 21.4626 8.68209 21.4252C8.64772 21.3877 8.60276 21.3617 8.5532 21.3504C7.83717 21.1881 7.15406 20.9049 6.5332 20.513C6.49016 20.4859 6.4399 20.4726 6.3891 20.4748C6.33829 20.4769 6.28936 20.4945 6.2488 20.5252L4.687 21.709L3.291 20.3128L4.4744 18.751C4.50514 18.7105 4.52279 18.6616 4.52501 18.6108C4.52722 18.5601 4.51389 18.5098 4.4868 18.4668C4.0949 17.846 3.81177 17.1628 3.6496 16.4468C3.63833 16.3973 3.61224 16.3523 3.57479 16.318C3.53735 16.2837 3.49033 16.2615 3.44 16.2546L1.5 15.9872V14.0128L3.44 13.7454C3.49033 13.7385 3.53735 13.7163 3.57479 13.682C3.61224 13.6477 3.63833 13.6027 3.6496 13.5532C3.81178 12.8372 4.09491 12.154 4.4868 11.5332C4.51388 11.4902 4.52722 11.4399 4.52504 11.3891C4.52287 11.3383 4.50527 11.2894 4.4746 11.2488L3.2908 9.687L4.687 8.2908L6.2488 9.4746C6.28935 9.5053 6.33829 9.52291 6.3891 9.52509C6.43991 9.52727 6.49017 9.51391 6.5332 9.4868C7.15405 9.09494 7.83717 8.81182 8.5532 8.6496C8.60275 8.63836 8.6477 8.61227 8.68204 8.57482C8.71638 8.53737 8.73848 8.49034 8.7454 8.44L9.0128 6.5H10.9872L11.2546 8.44C11.2615 8.49033 11.2837 8.53735 11.318 8.57479C11.3523 8.61224 11.3973 8.63833 11.4468 8.6496C12.1628 8.81189 12.846 9.09508 13.4668 9.487C13.5098 9.51408 13.5601 9.52742 13.6109 9.52524C13.6617 9.52307 13.7106 9.50547 13.7512 9.4748L15.313 8.291L16.709 9.6872L15.5256 11.249C15.4949 11.2895 15.4772 11.3384 15.475 11.3892C15.4728 11.4399 15.4861 11.4902 15.5132 11.5332C15.905 12.1541 16.1881 12.8372 16.3504 13.5532C16.3617 13.6027 16.3878 13.6477 16.4252 13.682C16.4627 13.7163 16.5097 13.7385 16.56 13.7454L18.5 14.0128V15.9872Z" fill="#DA9B3C" stroke="#DA9B3C" stroke-width="0.8"/>
</svg>
