<svg width="194" height="92" viewBox="0 0 194 92" fill="none" xmlns="http://www.w3.org/2000/svg">
<rect x="1.5" y="1.5" width="191" height="89" rx="8.5" fill="#DA9B3C" stroke="black" stroke-width="3"/>
<path d="M57.799 62.176C57.799 63.152 57.879 63.936 58.039 64.528C58.199 65.104 58.479 65.656 58.879 66.184L59.191 66.616L58.879 67H53.623L53.335 66.184L53.887 66.04C54.495 65.88 54.903 65.648 55.111 65.344C55.319 65.04 55.423 64.528 55.423 63.808V51.952C55.423 51.744 55.383 51.6 55.303 51.52C55.223 51.424 55.087 51.376 54.895 51.376H53.503L53.215 50.488C53.903 50.216 54.807 49.976 55.927 49.768C57.063 49.544 58.151 49.432 59.191 49.432C61.559 49.432 63.319 49.968 64.471 51.04C65.623 52.096 66.199 53.464 66.199 55.144C66.199 56.184 65.991 57.128 65.575 57.976C65.159 58.808 64.519 59.48 63.655 59.992C62.791 60.488 61.719 60.736 60.439 60.736C59.847 60.736 59.343 60.664 58.927 60.52C58.527 60.376 58.327 60.168 58.327 59.896C58.327 59.736 58.359 59.6 58.423 59.488C58.487 59.376 58.583 59.32 58.711 59.32C58.775 59.32 58.903 59.352 59.095 59.416C59.303 59.464 59.567 59.488 59.887 59.488C61.087 59.488 62.023 59.104 62.695 58.336C63.367 57.568 63.703 56.528 63.703 55.216C63.703 53.92 63.343 52.856 62.623 52.024C61.919 51.192 60.919 50.776 59.623 50.776C58.407 50.776 57.799 51.144 57.799 51.88V62.176ZM71.7119 58.336C71.9839 57.264 72.3999 56.4 72.9599 55.744C73.5359 55.088 74.1599 54.76 74.8319 54.76C75.5039 54.76 76.0559 54.984 76.4879 55.432C76.9359 55.864 77.1599 56.456 77.1599 57.208C77.1599 57.816 76.9359 58.328 76.4879 58.744C76.0399 59.16 75.4799 59.368 74.8079 59.368C74.5039 59.368 74.3519 59.28 74.3519 59.104C74.3519 59.056 74.4159 58.936 74.5439 58.744C74.6879 58.552 74.7999 58.352 74.8799 58.144C74.9759 57.936 75.0239 57.704 75.0239 57.448C75.0239 57.16 74.9439 56.936 74.7839 56.776C74.6399 56.6 74.4559 56.512 74.2319 56.512C73.8479 56.512 73.4479 56.744 73.0319 57.208C72.6319 57.656 72.2879 58.392 71.9999 59.416C71.7119 60.424 71.5679 61.704 71.5679 63.256C71.5679 63.976 71.6239 64.56 71.7359 65.008C71.8479 65.44 72.0479 65.856 72.3359 66.256L72.6239 66.64L72.3359 67H68.1359L67.8719 66.256L68.3759 66.136C68.7759 66.04 69.0399 65.872 69.1679 65.632C69.3119 65.376 69.3839 64.944 69.3839 64.336V57.592C69.3839 57.4 69.3439 57.264 69.2639 57.184C69.1999 57.104 69.0799 57.064 68.9039 57.064H67.8479L67.6319 56.44C68.0959 56.024 68.6239 55.68 69.2159 55.408C69.8239 55.136 70.3519 55 70.7999 55C71.0239 55 71.2079 55.072 71.3519 55.216C71.4959 55.36 71.5679 55.544 71.5679 55.768V58.336H71.7119ZM78.2284 61.048C78.2284 59.768 78.4604 58.656 78.9244 57.712C79.4044 56.768 80.0844 56.04 80.9644 55.528C81.8604 55.016 82.9004 54.76 84.0844 54.76C85.2684 54.76 86.3004 55.016 87.1804 55.528C88.0604 56.04 88.7404 56.768 89.2204 57.712C89.7004 58.656 89.9404 59.768 89.9404 61.048C89.9404 62.312 89.7004 63.424 89.2204 64.384C88.7404 65.328 88.0604 66.056 87.1804 66.568C86.3004 67.08 85.2684 67.336 84.0844 67.336C82.9004 67.336 81.8604 67.08 80.9644 66.568C80.0844 66.056 79.4044 65.328 78.9244 64.384C78.4604 63.424 78.2284 62.312 78.2284 61.048ZM87.4204 61.12C87.4204 60.368 87.3164 59.6 87.1084 58.816C86.9004 58.032 86.5484 57.368 86.0524 56.824C85.5724 56.28 84.9404 56.008 84.1564 56.008C83.4844 56.008 82.8844 56.224 82.3564 56.656C81.8444 57.072 81.4444 57.664 81.1564 58.432C80.8684 59.2 80.7244 60.08 80.7244 61.072C80.7244 62.592 81.0204 63.8 81.6124 64.696C82.2044 65.592 83.0044 66.04 84.0124 66.04C84.6684 66.04 85.2524 65.84 85.7644 65.44C86.2924 65.024 86.7004 64.448 86.9884 63.712C87.2764 62.96 87.4204 62.096 87.4204 61.12ZM97.7194 65.776C98.7114 65.776 99.4634 65.208 99.9754 64.072C100.503 62.936 100.767 61.56 100.767 59.944C100.767 59.176 100.679 58.432 100.503 57.712C100.327 56.992 100.063 56.352 99.7114 55.792L99.4714 55.408L99.7594 55.096L102.615 54.76C102.695 55.752 102.735 56.6 102.735 57.304C102.735 59.432 102.495 61.256 102.015 62.776C101.535 64.28 100.887 65.416 100.071 66.184C99.2714 66.952 98.3994 67.336 97.4554 67.336C96.6234 67.336 95.9514 67.184 95.4394 66.88C94.9434 66.56 94.5434 66.056 94.2394 65.368C93.9354 64.664 93.6954 63.688 93.5194 62.44L92.7754 57.352C92.7434 57.144 92.6954 57.008 92.6314 56.944C92.5674 56.864 92.4554 56.824 92.2954 56.824H91.2394L91.0234 56.2C91.4394 55.784 91.9354 55.44 92.5114 55.168C93.0874 54.896 93.5994 54.76 94.0474 54.76C94.4794 54.76 94.7354 55.016 94.8154 55.528L95.8954 63.016C96.0394 64.008 96.2474 64.72 96.5194 65.152C96.7914 65.568 97.1914 65.776 97.7194 65.776ZM115.641 65.2C115.049 65.888 114.345 66.416 113.529 66.784C112.713 67.152 111.833 67.336 110.889 67.336C109.785 67.336 108.817 67.08 107.985 66.568C107.153 66.056 106.505 65.336 106.041 64.408C105.593 63.48 105.369 62.408 105.369 61.192C105.369 59.912 105.625 58.792 106.137 57.832C106.649 56.856 107.369 56.104 108.297 55.576C109.241 55.032 110.337 54.76 111.585 54.76C112.465 54.76 113.209 54.928 113.817 55.264C114.441 55.584 114.905 56.016 115.209 56.56C115.513 57.088 115.665 57.664 115.665 58.288C115.665 58.96 115.481 59.608 115.113 60.232C114.761 60.856 114.241 61.368 113.553 61.768C112.865 62.152 112.041 62.344 111.081 62.344C110.569 62.344 110.001 62.248 109.377 62.056C108.753 61.864 108.441 61.584 108.441 61.216C108.441 61.088 108.473 60.968 108.537 60.856C108.617 60.744 108.705 60.688 108.801 60.688C108.849 60.688 109.009 60.744 109.281 60.856C109.553 60.952 109.905 61 110.337 61C111.297 61 112.041 60.728 112.569 60.184C113.113 59.64 113.385 59 113.385 58.264C113.385 57.64 113.185 57.104 112.785 56.656C112.385 56.192 111.825 55.96 111.105 55.96C110.081 55.96 109.281 56.416 108.705 57.328C108.129 58.224 107.841 59.512 107.841 61.192C107.841 62.616 108.145 63.736 108.753 64.552C109.361 65.352 110.241 65.752 111.393 65.752C112.801 65.752 113.969 65.296 114.897 64.384C114.961 64.32 115.033 64.288 115.113 64.288C115.241 64.288 115.377 64.368 115.521 64.528C115.665 64.672 115.737 64.824 115.737 64.984C115.737 65.064 115.705 65.136 115.641 65.2ZM122.032 58.336C122.304 57.264 122.72 56.4 123.28 55.744C123.856 55.088 124.48 54.76 125.152 54.76C125.824 54.76 126.376 54.984 126.808 55.432C127.256 55.864 127.48 56.456 127.48 57.208C127.48 57.816 127.256 58.328 126.808 58.744C126.36 59.16 125.8 59.368 125.128 59.368C124.824 59.368 124.672 59.28 124.672 59.104C124.672 59.056 124.736 58.936 124.864 58.744C125.008 58.552 125.12 58.352 125.2 58.144C125.296 57.936 125.344 57.704 125.344 57.448C125.344 57.16 125.264 56.936 125.104 56.776C124.96 56.6 124.776 56.512 124.552 56.512C124.168 56.512 123.768 56.744 123.352 57.208C122.952 57.656 122.608 58.392 122.32 59.416C122.032 60.424 121.888 61.704 121.888 63.256C121.888 63.976 121.944 64.56 122.056 65.008C122.168 65.44 122.368 65.856 122.656 66.256L122.944 66.64L122.656 67H118.456L118.192 66.256L118.696 66.136C119.096 66.04 119.36 65.872 119.488 65.632C119.632 65.376 119.704 64.944 119.704 64.336V57.592C119.704 57.4 119.664 57.264 119.584 57.184C119.52 57.104 119.4 57.064 119.224 57.064H118.168L117.952 56.44C118.416 56.024 118.944 55.68 119.536 55.408C120.144 55.136 120.672 55 121.12 55C121.344 55 121.528 55.072 121.672 55.216C121.816 55.36 121.888 55.544 121.888 55.768V58.336H122.032ZM134.693 56.104C134.261 56.104 133.909 56.16 133.637 56.272C133.365 56.368 133.205 56.416 133.157 56.416C133.061 56.416 132.973 56.36 132.893 56.248C132.829 56.136 132.797 56.016 132.797 55.888C132.797 55.696 132.869 55.552 133.013 55.456C133.749 54.992 134.557 54.76 135.437 54.76C136.429 54.76 137.309 55.008 138.077 55.504C138.861 56 139.469 56.688 139.901 57.568C140.333 58.448 140.549 59.448 140.549 60.568C140.549 61.848 140.277 63.008 139.733 64.048C139.189 65.072 138.445 65.88 137.501 66.472C136.557 67.048 135.493 67.336 134.309 67.336C133.381 67.336 132.517 67.2 131.717 66.928C130.917 66.656 130.285 66.288 129.821 65.824V50.824C129.821 50.632 129.781 50.496 129.701 50.416C129.637 50.336 129.517 50.296 129.341 50.296H128.285L128.069 49.672C128.533 49.256 129.061 48.912 129.653 48.64C130.245 48.368 130.773 48.232 131.237 48.232C131.461 48.232 131.645 48.304 131.789 48.448C131.933 48.592 132.005 48.776 132.005 49V65.224C132.389 65.496 132.773 65.696 133.157 65.824C133.557 65.936 134.013 65.992 134.525 65.992C135.597 65.992 136.445 65.552 137.069 64.672C137.693 63.776 138.005 62.568 138.005 61.048C138.005 60.088 137.861 59.232 137.573 58.48C137.301 57.728 136.917 57.144 136.421 56.728C135.925 56.312 135.349 56.104 134.693 56.104Z" fill="#1D1D1B"/>
<path d="M93 30.125H92.5V30.625V34.174C92.5 35.8349 91.3663 37.325 89.7996 37.5799L89.7995 37.5799C87.7588 37.9123 86 36.3491 86 34.375V12.8125C86 11.9761 85.7941 11.1932 85.4403 10.5H104.25C107.076 10.5 109.375 12.7992 109.375 15.625V30.125H93ZM108.938 39.5H92.6013C94.2707 38.4048 95.375 36.5165 95.375 34.375V33H114.562C114.804 33 115 33.1957 115 33.4375C115 36.786 112.286 39.5 108.938 39.5ZM78.5 12.8125C78.5 11.5377 79.5377 10.5 80.8125 10.5C82.0873 10.5 83.125 11.5377 83.125 12.8125V17H78.9375C78.6957 17 78.5 16.8043 78.5 16.5625V12.8125Z" fill="#1D1D1B" stroke="#1D1D1B"/>
</svg>
