<svg width="762" height="357" viewBox="0 0 762 357" fill="none" xmlns="http://www.w3.org/2000/svg">
<path fill-rule="evenodd" clip-rule="evenodd" d="M707.825 0.181291C707.752 0.323723 707.033 2.18488 706.227 4.31747C705.422 6.45007 704.696 8.11372 704.615 8.01449C704.533 7.91525 704.061 6.3018 703.566 4.42897C703.07 2.55614 702.567 0.945405 702.448 0.849478C702.322 0.747323 701.347 0.773786 700.093 0.9133C698.917 1.04406 696.611 1.36764 694.969 1.63227C693.327 1.89671 690.798 2.38218 689.35 2.71102C687.901 3.03986 685.544 3.72653 684.112 4.23672C682.68 4.7471 680.185 5.78441 678.567 6.54191C675.627 7.91934 675.627 7.91934 672.268 7.97402C668.909 8.02869 668.909 8.02869 667.671 12.8443C666.99 15.493 666.352 17.6382 666.254 17.6116C666.156 17.5849 664.878 16.5999 663.413 15.4227C661.949 14.2455 660.589 13.1602 660.39 13.0111C660.086 12.7817 659.698 12.936 657.886 14.0097C656.708 14.7082 655.12 15.7498 654.359 16.3242C653.598 16.8986 652.468 17.8501 651.847 18.4387C651.225 19.0273 650.212 20.1755 649.595 20.9902C648.977 21.8051 648.176 23.0748 647.814 23.8116C647.452 24.5487 646.965 25.6771 646.732 26.3192C646.499 26.9613 646.104 28.3623 645.854 29.4325C645.578 30.6171 645.332 33.2015 645.227 36.0384C645.053 40.6986 645.053 40.6986 642.488 40.9596C641.078 41.1032 638.179 41.6202 636.047 42.1088C632.17 42.997 632.17 42.997 629.429 42.838C627.922 42.7507 625.578 42.6783 624.221 42.6771C621.973 42.6752 621.536 42.7407 619.288 43.4179C617.931 43.8265 616.266 44.2908 615.587 44.4497C614.808 44.6325 612.792 44.7726 610.105 44.8311C607.769 44.8819 605.608 44.959 605.303 45.0022C604.999 45.0455 603.704 45.6227 602.425 46.2846C601.147 46.9468 599.39 47.923 598.521 48.4542C597.404 49.1368 596.842 49.365 596.602 49.2321C596.416 49.1288 594.312 47.9808 591.927 46.681C589.542 45.3812 587.507 44.3207 587.405 44.3244C587.302 44.3279 586.4 45.138 585.401 46.1243C584.401 47.1106 582.639 48.6838 581.484 49.6201C580.331 50.5566 579.298 51.3215 579.191 51.3202C579.083 51.3188 578.39 50.657 577.65 49.8495C576.91 49.042 575.75 47.9938 575.074 47.5202C574.339 47.0059 573.249 46.5016 572.369 46.2677C571.135 45.9398 569.345 45.8134 561.377 45.4915C556.142 45.2798 551.043 45.0564 550.044 44.995C548.23 44.8829 548.23 44.8829 546.755 46.4422C545.944 47.2999 545.207 48.0047 545.118 48.0082C545.028 48.0119 544.686 47.3581 544.357 46.5555C543.76 45.0961 543.76 45.0961 529.582 45.1006C521.784 45.1029 513.862 45.1878 511.978 45.2888C510.093 45.39 507.973 45.5267 507.267 45.5929C505.982 45.713 505.982 45.713 505.411 47.44C505.097 48.39 504.664 50.0245 504.45 51.0719C504.235 52.1195 503.978 54.2025 503.879 55.7007C503.718 58.1244 503.627 58.5 503.049 59.1059C502.692 59.4804 501.054 60.7384 499.409 61.9012C496.418 64.0157 496.418 64.0157 497.369 62.0958C497.892 61.04 498.802 58.8228 499.393 57.1688C499.983 55.5149 500.466 53.7047 500.466 53.1463C500.466 52.2754 500.322 51.9971 499.455 51.1917C498.899 50.6751 497.667 49.2893 496.718 48.1121C495.769 46.9349 494.651 45.6857 494.234 45.3359C493.476 44.7002 493.476 44.7002 469.151 44.2752C448.918 43.9218 444.425 43.8917 442.439 44.0954C441.126 44.2303 439.306 44.5153 438.395 44.729C437.483 44.9428 436.147 45.374 435.425 45.6873C434.252 46.1963 434.097 46.221 433.961 45.9196C433.877 45.7344 433.397 44.9697 432.892 44.2205C432.388 43.4714 431.443 42.474 430.793 42.0039C430.143 41.534 428.97 40.9387 428.187 40.6811C427.095 40.3219 424.479 39.9641 416.949 39.1434C411.551 38.5551 406.869 38.121 406.544 38.1788C406.22 38.2366 404.733 39.1984 403.241 40.3163C400.528 42.3487 400.528 42.3487 399.622 41.2736C399.124 40.6823 398.077 39.7462 397.295 39.1936C396.514 38.6408 395.253 37.9506 394.494 37.6599C393.736 37.3692 392.384 36.9861 391.491 36.8086C390.258 36.5638 387.983 36.4506 382.055 36.3387C375.131 36.2079 373.837 36.1315 370.68 35.6664C367.852 35.2496 366.579 35.1568 364.512 35.2165C362.755 35.2673 361.62 35.4 361.021 35.625C360.533 35.8083 359.691 36.2346 359.148 36.5726C358.345 37.0736 358.116 37.1357 357.909 36.9094C357.769 36.7568 357.355 35.9314 356.989 35.0753C356.623 34.2191 356.249 33.1904 356.157 32.789C355.99 32.0593 355.99 32.0593 352.479 32.0593C350.548 32.0593 347.378 31.9704 345.434 31.8618C343.49 31.7532 340.419 31.5333 338.61 31.3732C336.801 31.2129 333.532 30.8554 331.346 30.5787C329.16 30.3019 324.968 29.6455 322.031 29.1202C319.093 28.5948 314.714 27.6914 312.3 27.1127C309.886 26.534 307.862 26.0948 307.803 26.1369C307.743 26.1789 306.818 29.32 305.747 33.1172C303.799 40.0211 303.799 40.0211 300.963 32.5677C298.127 25.1142 298.127 25.1142 291.095 24.9924C287.228 24.9254 282.892 24.7762 281.46 24.661C280.028 24.5458 277.068 24.1897 274.882 23.87C272.696 23.5501 269.797 23.1125 268.441 22.8975C267.084 22.6825 264.432 22.4556 262.547 22.3935C259.873 22.3054 258.73 22.3502 257.34 22.5982C256.36 22.773 254.551 23.2664 253.32 23.6947C251.988 24.1578 250.46 24.8904 249.549 25.5023C248.016 26.5311 248.016 26.5311 246.876 25.1605C246.249 24.4065 244.8 23.123 243.657 22.3081C242.322 21.3562 240.965 20.6069 239.861 20.2119C238.916 19.8739 237.128 19.4289 235.887 19.2229C234.645 19.0168 232.615 18.7522 231.374 18.6347C230.133 18.5173 226.125 18.3025 222.466 18.1573C215.813 17.8933 215.813 17.8933 214.661 18.3638C214.027 18.6224 212.609 19.3143 211.51 19.9012C210.411 20.488 209.413 20.9682 209.293 20.9682C209.173 20.9682 208.722 20.4382 208.29 19.7903C207.858 19.1425 207.301 18.0211 207.052 17.2987C206.598 15.9853 206.598 15.9853 200.787 15.7479C197.59 15.6173 193.188 15.3809 191.004 15.2223C188.82 15.0637 184.751 14.7098 181.962 14.436C179.173 14.1622 174.856 13.6742 172.369 13.3516C169.881 13.029 165.646 12.4143 162.958 11.9859C160.27 11.5572 158.034 11.236 157.99 11.2716C157.946 11.3074 157.138 12.1958 156.194 13.2458C155.218 14.3311 154.374 15.082 154.238 14.9855C154.107 14.8923 153.69 13.9517 153.313 12.8953C152.935 11.839 152.577 10.9392 152.515 10.8958C152.454 10.8526 148.725 10.4821 144.227 10.0728C139.73 9.66355 134.364 9.14558 132.303 8.92181C130.242 8.69824 128.315 8.51514 128.021 8.51514C127.727 8.51514 126.353 9.27342 124.964 10.2018C122.44 11.8884 122.44 11.8884 121.789 11.3206C121.432 11.0083 120.763 10.2167 120.303 9.5614C119.844 8.90625 119.468 8.26958 119.468 8.1468C119.468 7.98122 117.676 7.9565 112.547 8.05107C108.726 8.12151 105.473 8.26452 105.284 8.36999C105.097 8.47525 104.799 8.90119 104.624 9.31662C104.449 9.73185 104.197 10.0718 104.066 10.0718C103.934 10.0718 103.059 9.23353 102.122 8.20907C100.418 6.34636 100.418 6.34636 84.794 6.43294C72.7736 6.49949 68.4434 6.58919 66.0182 6.82152C64.2845 6.9875 62.3548 7.18363 61.7302 7.25718C60.5943 7.39086 60.5943 7.39086 57.4929 12.3548C54.3911 17.3187 54.3911 17.3187 52.1701 12.5885C50.9485 9.98694 49.8203 7.82789 49.6629 7.79072C49.5056 7.75356 44.5178 9.20415 38.5792 11.0145C32.6403 12.8249 25.8007 14.9602 23.3798 15.7597C20.959 16.5593 17.6964 17.7172 16.1293 18.3331C14.5626 18.9489 12.3495 19.8944 11.2115 20.4339C10.0737 20.9735 7.96667 22.2558 6.52956 23.2834C4.50616 24.7301 3.65152 25.5152 2.74316 26.7621C2.09765 27.6478 1.25534 29.2239 0.871331 30.2645C0.280098 31.8665 0.15182 32.7236 0.0353276 35.8536C-0.0597848 38.4069 0.0353277 40.6751 0.342867 43.1852C0.587912 45.1843 1.52067 51.0071 2.41588 56.1247C3.31109 61.2426 4.4782 68.1879 5.00913 71.559C5.54007 74.9301 6.28397 80.0086 6.66168 82.8446C7.03966 85.6806 7.59608 90.2776 7.89814 93.06C8.19992 95.8425 8.63245 100.177 8.85913 102.692C9.08581 105.207 9.45475 109.979 9.67924 113.296C9.90373 116.614 10.2157 122.043 10.3724 125.36C10.5292 128.678 10.7776 136.077 10.9247 141.802C11.0717 147.528 11.192 156.547 11.192 161.844C11.192 167.141 11.0714 176.904 10.9239 183.54C10.7765 190.175 10.5309 198.975 10.3779 203.095C10.2252 207.215 9.97499 213.344 9.82177 216.715C9.66882 220.087 9.35937 226.216 9.13433 230.336C8.90929 234.456 8.47704 241.724 8.17361 246.486C7.87046 251.249 7.31486 259.26 6.93907 264.29C6.56355 269.32 5.94655 277.069 5.56802 281.511C5.18949 285.952 4.50945 293.482 4.05691 298.244C3.60438 303.007 3.11429 307.823 2.96792 308.946C2.82155 310.07 2.70149 311.963 2.70149 313.153C2.70122 314.343 2.89199 316.094 3.12525 317.045C3.35851 317.995 3.73923 319.237 3.97139 319.805C4.20356 320.373 4.98118 321.905 5.69932 323.21C6.41773 324.515 7.44972 326.59 7.99271 327.821C8.53597 329.051 9.44845 330.604 10.0208 331.27C10.5931 331.936 13.5281 334.602 16.5432 337.193C19.5583 339.785 22.6099 342.452 23.3242 343.121C24.0385 343.79 25.0869 344.661 25.654 345.056C26.2211 345.452 27.1783 345.933 27.7813 346.124C28.3843 346.316 29.6178 346.528 30.5223 346.596C31.5515 346.673 33.0347 346.608 34.4861 346.424C35.7614 346.261 36.8345 346.149 36.8707 346.175C36.9066 346.2 37.1349 347.181 37.3778 348.355C37.6209 349.529 38.0099 351.089 38.242 351.822C38.5252 352.715 38.9193 353.357 39.4363 353.768C40.0878 354.285 40.4019 354.381 41.4553 354.381C42.444 354.381 43.3874 354.132 46.0001 353.183C47.8136 352.524 49.3455 352.042 49.4045 352.112C49.4631 352.183 49.6572 352.744 49.8356 353.36C50.1004 354.275 50.3339 354.574 51.1146 354.996C51.6395 355.281 53.4502 355.849 55.1378 356.259C57.4846 356.83 58.6254 357.004 59.988 357C61.0257 356.997 62.3419 356.845 63.1401 356.635C63.8939 356.438 65.189 356.076 66.0182 355.831C67.3941 355.424 67.9807 355.383 72.7336 355.357C76.8911 355.335 78.183 355.263 79.1388 355.002C79.7974 354.821 81.2899 354.368 82.4554 353.994C83.6208 353.621 85.5231 353.186 86.6825 353.029C87.842 352.871 89.3958 352.509 90.1356 352.223C90.8754 351.937 92.1963 351.267 93.071 350.734C93.9459 350.201 95.1426 349.512 95.7305 349.203C96.6978 348.694 97.0059 348.641 98.9696 348.641C100.91 348.641 101.124 348.605 100.992 348.3C100.91 348.113 100.479 346.865 100.033 345.527C99.5866 344.19 99.1354 342.789 99.0296 342.414C98.8446 341.758 98.9446 341.806 101.756 343.727C103.361 344.824 104.791 345.722 104.934 345.722C105.077 345.722 106.589 344.737 108.294 343.533C110.115 342.247 112.108 340.598 113.122 339.538C114.072 338.545 115.45 336.837 116.184 335.744C116.917 334.65 117.83 333.071 118.213 332.234C118.596 331.397 119.121 329.953 119.38 329.023C119.71 327.843 119.856 326.337 119.865 324.026C119.873 322.207 119.64 312.599 119.349 302.674C119.057 292.75 118.892 284.578 118.982 284.515C119.071 284.451 121.098 284.675 123.486 285.012C125.874 285.349 131.416 286.186 135.802 286.871C140.188 287.557 144.531 288.285 145.454 288.489C146.377 288.693 147.68 289.087 148.349 289.366C149.019 289.644 149.959 290.224 150.438 290.653C150.917 291.083 151.417 291.434 151.55 291.434C151.682 291.434 152.31 290.887 152.943 290.218C153.577 289.549 154.4 288.739 154.771 288.418C155.143 288.097 155.79 287.555 156.209 287.214C156.972 286.594 156.972 286.594 158.709 287.258C159.94 287.73 160.804 287.924 161.679 287.927C162.416 287.929 163.256 287.782 163.766 287.561C164.619 287.191 164.619 287.192 165.067 288.812C165.314 289.703 165.798 291.074 166.142 291.857C166.769 293.283 166.769 293.283 168.404 293.432C169.303 293.515 170.87 293.668 171.885 293.772C172.9 293.876 174.441 294.164 175.308 294.411C176.885 294.861 176.885 294.861 178.494 293.488C179.38 292.733 180.14 292.087 180.184 292.053C180.229 292.018 180.677 292.541 181.182 293.215C181.686 293.889 182.796 294.969 183.648 295.617C185.197 296.794 185.197 296.794 187.768 297.039C189.183 297.173 193.173 297.807 196.635 298.447C201.386 299.325 204.564 299.777 209.589 300.288C213.251 300.66 217.26 301.148 218.497 301.372C219.735 301.596 221.659 302.079 222.773 302.444C223.887 302.81 224.882 303.109 224.984 303.109C225.086 303.109 225.463 302.605 225.821 301.99C226.18 301.375 227.499 299.368 228.753 297.532C231.034 294.192 231.034 294.192 233.839 292.846C235.382 292.105 236.83 291.426 237.056 291.335C237.282 291.245 236.873 291.627 236.146 292.184C235.419 292.742 234.559 293.611 234.235 294.116C233.707 294.939 233.636 295.449 233.542 299.042C233.439 303.049 233.439 303.049 234.681 303.566C235.365 303.851 236.641 304.208 237.518 304.361C238.395 304.514 240.284 304.695 241.716 304.762C243.148 304.83 244.976 305.016 245.779 305.174C246.581 305.333 248.554 305.845 250.164 306.312C251.774 306.78 254.016 307.296 255.147 307.459C256.277 307.623 259.484 307.899 262.273 308.072C265.062 308.245 269.503 308.601 272.141 308.862C274.779 309.123 279.281 309.678 282.146 310.097C287.353 310.857 287.353 310.857 288.769 310.203C289.548 309.843 291.118 308.97 292.258 308.264C294.332 306.981 294.332 306.981 295.973 307.772C296.875 308.207 298.871 308.999 300.408 309.533C301.945 310.066 303.845 310.647 304.631 310.822C306.061 311.142 306.061 311.142 308.493 309.658C309.831 308.842 311.024 308.151 311.143 308.122C311.263 308.094 311.896 308.965 312.55 310.057C313.204 311.15 314.069 312.443 314.472 312.932C314.875 313.42 315.67 314.038 316.238 314.305C316.966 314.647 318.732 315.019 322.223 315.566C324.947 315.992 330.056 316.685 333.578 317.106C337.099 317.527 342.139 318.051 344.777 318.27C347.415 318.489 350.144 318.716 350.841 318.773C352.107 318.877 352.107 318.877 354.521 316.976C355.849 315.931 357.007 315.053 357.094 315.026C357.182 314.999 358.319 315.631 359.622 316.429C361.99 317.882 361.99 317.882 364.553 316.304C367.116 314.726 367.116 314.726 367.272 315.99C367.379 316.86 367.656 317.532 368.157 318.139C368.559 318.626 369.29 319.265 369.783 319.561C370.276 319.857 371.443 320.354 372.376 320.665C373.309 320.976 375.221 321.398 376.624 321.603C378.028 321.809 380.904 322.12 383.014 322.295C385.561 322.506 387.819 322.575 389.729 322.499C391.696 322.42 393.822 322.163 396.445 321.686C399.419 321.145 400.604 321.012 401.71 321.097C402.496 321.157 404.862 321.507 406.969 321.874C409.075 322.241 412.071 322.653 413.627 322.789C415.182 322.924 419.168 323.039 422.484 323.044C428.158 323.053 428.58 323.028 429.623 322.632C430.233 322.4 431.22 321.831 431.817 321.367C432.413 320.903 434.689 318.537 436.875 316.11C440.849 311.695 440.849 311.695 441.017 316.693C441.109 319.442 441.279 322.36 441.394 323.177C441.604 324.663 441.604 324.663 452.739 324.785C458.863 324.853 467.45 324.994 471.822 325.099C476.399 325.209 480.701 325.411 481.964 325.576C483.17 325.733 484.958 326.048 485.938 326.276C486.918 326.504 489.2 327.177 491.009 327.77C492.818 328.364 495.162 329.066 496.217 329.33C497.647 329.689 498.911 329.836 501.177 329.909C503.958 329.999 504.641 329.944 509.126 329.266C513.318 328.632 514.513 328.525 517.323 328.535C519.132 328.542 521.784 328.692 523.216 328.87C524.648 329.048 528.348 329.624 531.439 330.15C534.529 330.676 538.369 331.242 539.971 331.409C541.573 331.576 543.869 331.712 545.073 331.712C546.277 331.712 547.926 331.625 548.738 331.518C549.55 331.411 551.129 331.005 552.247 330.616C553.672 330.12 554.955 329.448 556.537 328.37C557.778 327.524 559.083 326.529 559.438 326.16C559.792 325.79 560.158 325.488 560.251 325.487C560.345 325.486 560.758 325.848 561.17 326.29C561.583 326.732 562.432 327.49 563.057 327.974C563.682 328.458 564.821 329.141 565.587 329.49C566.353 329.84 567.648 330.26 568.465 330.424C569.282 330.589 571.677 330.817 573.787 330.932C575.898 331.046 578.348 331.283 579.232 331.458C580.146 331.639 581.786 332.223 583.035 332.813C584.243 333.384 585.728 333.946 586.337 334.062C586.945 334.178 587.881 334.215 588.417 334.144C588.953 334.072 589.718 333.894 590.116 333.748C590.515 333.602 592.235 332.447 593.94 331.183C597.039 328.884 597.039 328.884 598.403 329.909C599.154 330.472 600.425 331.242 601.228 331.621C602.031 331.999 603.466 332.517 604.416 332.771C605.366 333.025 607.683 333.414 609.564 333.635C611.445 333.856 615.142 334.174 617.78 334.341C620.418 334.508 623.995 334.776 625.729 334.937C627.463 335.098 631.225 335.642 634.089 336.146C639.297 337.063 639.297 337.063 644.916 337.055C649.958 337.048 651.224 336.973 657.25 336.33C660.944 335.936 666.248 335.511 669.037 335.387C672.322 335.241 677.775 335.203 684.523 335.28C690.252 335.346 696.913 335.486 699.325 335.591C701.737 335.696 704.574 335.83 705.629 335.889C707.548 335.996 707.548 335.996 709.974 333.661C712.399 331.325 712.399 331.325 714.599 333.319C715.809 334.415 716.958 335.432 717.152 335.58C717.452 335.808 717.81 335.796 719.516 335.503C720.622 335.313 722.76 334.856 724.268 334.487C725.775 334.118 728.304 333.357 729.887 332.797C731.47 332.237 733.779 331.332 735.018 330.786C736.257 330.24 738.259 329.259 739.466 328.606C740.674 327.954 742.779 326.665 744.145 325.742C745.512 324.819 747.41 323.399 748.364 322.586C749.317 321.773 750.801 320.341 751.66 319.403C752.52 318.466 753.697 316.977 754.276 316.095C754.855 315.213 755.643 313.748 756.027 312.838C756.411 311.928 756.972 310.308 757.275 309.238C757.577 308.168 758.009 306.198 758.235 304.86C758.461 303.522 758.774 301.086 758.931 299.445C759.087 297.804 759.214 295.046 759.213 293.316C759.211 291.585 759.086 289.119 758.935 287.834C758.783 286.55 758.415 284.317 758.117 282.873C757.819 281.428 757.271 278.407 756.9 276.16C756.53 273.912 755.855 269.578 755.401 266.528C754.947 263.478 754.206 258.137 753.753 254.659C753.301 251.18 752.62 245.577 752.24 242.205C751.859 238.834 751.243 232.705 750.87 228.585C750.497 224.465 750.004 218.467 749.774 215.256C749.544 212.046 749.234 207.317 749.083 204.749C748.933 202.18 748.654 196.927 748.463 193.074C748.237 188.531 748.115 177.728 748.116 162.33C748.117 146.996 748.24 136.112 748.464 131.587C748.656 127.734 748.997 121.474 749.223 117.674C749.449 113.875 749.879 107.658 750.178 103.859C750.478 100.06 750.91 94.9815 751.139 92.5736C751.368 90.1657 751.865 85.3498 752.243 81.8717C752.622 78.3936 753.362 72.2206 753.889 68.1538C754.416 64.0871 755.278 57.9141 755.805 54.436C756.331 50.9579 757.192 45.6166 757.717 42.5666C758.243 39.5166 758.981 35.4012 759.359 33.4214C759.736 31.4415 760.551 27.4417 761.17 24.5331C762.296 19.2447 762.296 19.2447 761.049 17.5804C760.363 16.6651 759.126 15.2797 758.3 14.502C757.474 13.7242 755.831 12.4231 754.649 11.6107C753.467 10.7983 751.457 9.58669 750.182 8.91812C748.907 8.24935 746.73 7.22839 745.344 6.64932C743.957 6.07005 741.742 5.24328 740.421 4.81209C739.101 4.3811 736.982 3.76817 735.713 3.45023C734.445 3.13248 733.262 2.87389 733.086 2.87583C732.909 2.87778 732.025 3.5804 731.12 4.43733C729.476 5.99553 729.476 5.99553 729.3 4.13107C729.204 3.10563 729.081 2.23625 729.026 2.19928C728.972 2.16211 724.549 1.68306 719.197 1.13493C713.845 0.5866 709.127 0.0896436 708.712 0.0302967C708.221 -0.0399466 707.912 0.01259 707.825 0.181291ZM711.152 4.28303C711.064 4.52392 709.418 8.908 707.495 14.0256C705.203 20.1244 703.942 23.1748 703.835 22.879C703.746 22.6307 702.574 18.4218 701.23 13.5256C698.914 5.08898 698.755 4.62355 698.198 4.62355C697.874 4.62355 696.083 4.8946 694.219 5.22577C692.354 5.55714 689.903 6.0969 688.772 6.42555C687.641 6.7542 685.652 7.44612 684.35 7.96312C683.049 8.48012 680.952 9.42811 679.69 10.0696C677.397 11.236 677.397 11.236 675.17 11.2377C672.943 11.2393 672.943 11.2393 672.77 11.851C672.675 12.1874 671.914 15.1425 671.078 18.4181C670.243 21.6934 669.469 24.5335 669.359 24.7293C669.197 25.0188 668.274 24.3775 664.399 21.2835C659.698 17.5294 659.631 17.486 659.044 17.8143C658.717 17.9972 657.886 18.5985 657.196 19.1505C656.505 19.7025 655.545 20.5629 655.06 21.0626C654.576 21.5623 653.708 22.6866 653.131 23.5614C652.554 24.436 651.826 25.8061 651.514 26.606C651.203 27.4057 650.737 29.0256 650.48 30.2057C650.13 31.8143 650.014 33.5928 650.018 37.3129C650.021 40.0419 650.177 43.7195 650.363 45.4853C650.551 47.2511 651.131 51.9794 651.653 55.9926C652.175 60.0058 652.967 66.1351 653.414 69.6132C653.861 73.0913 654.656 79.9211 655.181 84.7904C655.706 89.6598 656.386 96.3144 656.693 99.5785C657 102.843 657.496 108.403 657.795 111.934C658.094 115.466 658.584 121.77 658.884 125.944C659.184 130.118 659.616 136.86 659.844 140.927C660.073 144.993 660.386 151.166 660.54 154.645C660.694 158.123 660.896 166.397 660.99 173.032C661.096 180.577 661.042 187.903 660.844 192.588C660.671 196.708 660.345 202.618 660.12 205.722C659.896 208.825 659.523 213.685 659.293 216.521C659.063 219.357 658.571 225.048 658.201 229.169C657.831 233.289 657.027 241.607 656.415 247.654C655.803 253.7 654.905 262.216 654.42 266.577C653.936 270.938 653.566 274.506 653.6 274.506C653.633 274.506 654.054 274.1 654.534 273.605C655.014 273.11 655.954 272.227 656.622 271.645C657.838 270.585 657.838 270.585 657.912 266.465C657.963 263.638 658.127 261.832 658.435 260.711C658.682 259.812 658.935 259.041 658.998 258.996C659.06 258.952 660.389 259.368 661.95 259.921C663.511 260.474 665.792 261.403 667.018 261.985C668.245 262.567 669.466 263.214 669.733 263.423C670 263.633 670.381 263.804 670.582 263.804C670.781 263.804 671.648 263.485 672.507 263.095C673.366 262.704 675.434 261.919 677.103 261.35C678.772 260.78 681.618 259.97 683.427 259.549C685.236 259.129 688.011 258.602 689.594 258.378C691.177 258.155 693.582 257.884 694.939 257.776C696.296 257.668 698.393 257.58 699.599 257.578C701.574 257.577 702.138 257.48 705.289 256.608C707.212 256.076 709.134 255.512 709.56 255.356C710.01 255.19 711.876 253.583 714.027 251.509C716.058 249.549 718.378 247.264 719.184 246.431C719.989 245.599 720.748 244.873 720.87 244.82C720.992 244.766 721.081 246.761 721.067 249.253C721.048 252.612 721.161 254.326 721.503 255.883C721.756 257.037 722.021 258.088 722.092 258.218C722.162 258.347 723.667 259.11 725.437 259.912C727.206 260.715 731.298 262.672 734.53 264.262C737.762 265.851 742.511 268.277 745.083 269.653C747.655 271.028 750.16 272.388 750.65 272.674C751.235 273.015 751.541 273.102 751.541 272.925C751.541 272.778 751.171 270.205 750.718 267.209C750.266 264.212 749.466 258.433 748.941 254.367C748.416 250.3 747.678 244.127 747.301 240.649C746.925 237.171 746.37 231.611 746.069 228.293C745.767 224.975 745.275 218.759 744.974 214.478C744.673 210.197 744.302 204.33 744.148 201.441C743.994 198.551 743.749 192.904 743.603 188.891C743.457 184.877 743.258 176.647 743.162 170.6C743.065 164.497 743.122 154.023 743.291 147.056C743.459 140.153 743.721 131.879 743.873 128.668C744.025 125.458 744.336 119.766 744.563 116.02C744.791 112.275 745.161 106.89 745.385 104.054C745.609 101.218 746.041 96.2268 746.346 92.9628C746.65 89.6987 747.208 84.2261 747.585 80.8015C747.963 77.3769 748.577 72.2108 748.95 69.3213C749.324 66.4318 749.94 61.8786 750.321 59.2032C750.701 56.5277 751.381 52.0183 751.831 49.1823C752.282 46.3463 753.143 41.2824 753.744 37.9292C754.345 34.576 755.32 29.4975 755.913 26.6436C756.504 23.7897 757.07 21.0971 757.17 20.66C757.315 20.0273 757.213 19.6704 756.667 18.9061C756.291 18.3784 755.416 17.4121 754.725 16.7591C754.033 16.1059 752.321 14.7936 750.92 13.8431C749.519 12.8926 747.117 11.5216 745.583 10.7962C744.048 10.071 741.031 8.86714 738.878 8.12073C736.726 7.37452 734.88 6.76392 734.776 6.76392C734.672 6.76392 732.587 8.60484 730.143 10.855C727.698 13.1051 725.652 14.9135 725.596 14.8738C725.54 14.8339 725.311 12.8399 725.087 10.4423C724.864 8.04465 724.68 5.86166 724.68 5.59119C724.679 5.09949 724.679 5.09949 718.443 4.46477C715.014 4.11569 712.006 3.83355 711.76 3.83764C711.513 3.84173 711.24 4.04214 711.152 4.28303ZM73.1448 9.81065C72.4664 9.84373 70.3695 9.96496 68.4851 10.08C66.6006 10.1949 64.7888 10.3358 64.4591 10.393C63.9685 10.4781 62.9529 11.9532 58.8738 18.5055C56.1317 22.91 53.855 26.5412 53.8144 26.5747C53.7739 26.6079 52.231 23.412 50.3855 19.4725C48.5402 15.5329 46.9902 12.2764 46.9411 12.2357C46.8921 12.1952 44.0414 13.0177 40.6059 14.0634C37.1706 15.1091 32.0161 16.7023 29.1518 17.6038C26.2875 18.5053 22.3136 19.8426 20.3209 20.5758C18.3282 21.3088 15.6146 22.4083 14.2907 23.0193C12.9668 23.6303 10.9563 24.7978 9.82287 25.6138C8.33944 26.6819 7.48206 27.5063 6.76227 28.5569C6.21243 29.3595 5.53623 30.7167 5.25966 31.5728C4.84961 32.8427 4.76053 33.9183 4.77615 37.4102C4.78794 40.0349 4.97597 42.8577 5.26213 44.707C5.51869 46.3658 6.46351 51.9259 7.362 57.0628C8.26023 62.1997 9.42433 69.1608 9.94868 72.5319C10.4733 75.903 11.2115 81.0691 11.5894 84.0121C11.9674 86.9551 12.5266 91.7272 12.8322 94.6167C13.1381 97.5062 13.5693 102.016 13.7907 104.638C14.0122 107.26 14.3219 111.375 14.4787 113.783C14.6358 116.191 14.8838 120.437 15.0297 123.22C15.1755 126.002 15.4378 133.182 15.6127 139.175C15.8144 146.087 15.8714 157.259 15.7686 169.724C15.6795 180.533 15.4781 192.967 15.3213 197.355C15.1642 201.743 14.8493 209.579 14.6215 214.77C14.3937 219.96 13.9607 228.585 13.6589 233.936C13.3574 239.287 12.8643 247.342 12.563 251.837C12.2621 256.332 11.644 264.782 11.1895 270.614C10.7353 276.447 10.058 284.629 9.68445 288.798C9.31112 292.967 9.0055 296.684 9.0055 297.057C9.0055 297.722 9.04059 297.7 10.5799 296.093C11.4461 295.19 13.697 293.344 15.5822 291.992C17.4675 290.64 20.2554 288.882 21.7774 288.085C23.2995 287.287 25.9742 286.046 27.721 285.325C29.4681 284.605 32.2316 283.598 33.8619 283.087C35.4925 282.576 37.9551 281.872 39.334 281.523C41.8418 280.888 41.8418 280.888 42.726 279.302C43.2126 278.43 44.2188 276.451 44.9621 274.905C45.7055 273.358 46.8655 271.344 47.5395 270.429C48.2138 269.514 49.4894 268.037 50.3745 267.146C51.9837 265.527 51.9837 265.527 52.2729 266.173C52.4319 266.529 52.8249 267.564 53.1462 268.474C53.4672 269.383 54.1017 270.959 54.5562 271.976C55.0103 272.993 55.8609 274.7 56.4461 275.77C57.5101 277.716 57.5101 277.716 59.7769 277.745C61.0238 277.762 63.7706 278.005 65.8811 278.288C68.7882 278.676 70.5907 278.801 73.3161 278.802C75.2945 278.803 79.3032 278.616 82.2243 278.386C86.3643 278.06 88.5623 277.989 92.1947 278.062C96.0781 278.139 98.0642 278.303 104.118 279.041C108.113 279.529 114.095 280.29 117.412 280.732C120.728 281.175 127.17 282.101 131.726 282.79C136.282 283.48 141.573 284.307 143.484 284.629C145.395 284.952 147.711 285.437 148.631 285.709C149.551 285.98 150.443 286.247 150.613 286.301C150.784 286.355 151.863 285.612 153.012 284.651C154.522 283.388 155.331 282.868 155.933 282.774C156.511 282.684 157.075 282.76 157.783 283.023C158.342 283.232 159.424 283.648 160.187 283.949C161.572 284.496 161.572 284.496 164.651 282.686C166.344 281.691 167.776 280.909 167.832 280.95C167.889 280.991 168.386 282.835 168.937 285.048C169.488 287.261 170.032 289.319 170.145 289.621C170.333 290.12 170.498 290.182 171.964 290.313C172.851 290.392 173.987 290.553 174.49 290.671C175.334 290.869 175.449 290.844 176.01 290.335C176.344 290.032 177.772 288.794 179.183 287.582C180.594 286.371 181.797 285.414 181.856 285.456C181.915 285.498 182.453 286.508 183.052 287.7C183.651 288.892 184.569 290.461 185.092 291.186C185.614 291.911 186.326 292.736 186.674 293.019C187.199 293.445 187.752 293.588 189.911 293.854C191.343 294.031 194.797 294.603 197.586 295.126C200.375 295.649 203.643 296.211 204.849 296.377C206.056 296.542 208.584 296.813 210.469 296.978C212.353 297.144 215.21 297.454 216.817 297.667C218.425 297.881 220.26 298.185 220.895 298.344C221.53 298.503 222.2 298.634 222.384 298.634C222.568 298.634 223.656 297.248 224.802 295.555C226.438 293.137 227.145 292.306 228.091 291.687C228.754 291.253 231.073 290.07 233.245 289.057C235.416 288.044 238.858 286.513 240.894 285.656C242.929 284.799 247.184 283.133 250.35 281.953C253.516 280.773 257.507 279.31 259.218 278.701C260.93 278.093 262.366 277.622 262.408 277.656C262.45 277.689 257.256 281.525 250.865 286.18C244.474 290.836 239.045 294.904 238.799 295.221C238.477 295.637 238.315 296.505 238.215 298.355C238.121 300.11 238.173 300.955 238.381 301.046C238.547 301.119 240.137 301.266 241.913 301.372C243.689 301.479 245.848 301.692 246.711 301.846C247.574 302 249.644 302.524 251.31 303.012C252.976 303.499 255.23 304.025 256.319 304.18C257.408 304.335 260.581 304.597 263.37 304.763C266.159 304.929 270.561 305.282 273.153 305.547C275.745 305.812 279.79 306.299 282.141 306.629C285.977 307.168 286.479 307.2 287.022 306.944C287.355 306.787 289.096 305.733 290.891 304.602C294.154 302.544 294.154 302.544 295.002 303.034C295.469 303.303 296.467 303.852 297.221 304.255C297.975 304.657 299.332 305.292 300.236 305.666C301.141 306.04 302.577 306.571 303.429 306.848C304.977 307.35 304.977 307.35 309.185 304.755C311.499 303.327 313.468 302.22 313.56 302.294C313.651 302.368 314.307 303.654 315.017 305.152C315.726 306.65 316.884 308.707 317.591 309.722C318.683 311.292 318.998 311.59 319.697 311.719C320.149 311.803 323.541 312.302 327.235 312.828C330.928 313.355 336.109 314.011 338.747 314.287C341.385 314.563 345.024 314.913 346.833 315.065C350.122 315.341 350.122 315.341 352.178 313.749C353.309 312.873 354.802 311.727 355.496 311.201C356.757 310.245 356.757 310.245 359.384 311.84C362.011 313.435 362.011 313.435 365.249 311.448C367.03 310.356 368.776 309.28 369.129 309.058C369.771 308.654 369.771 308.654 370.716 309.433C371.237 309.861 371.849 310.457 372.077 310.758C372.306 311.059 372.505 311.716 372.519 312.218C372.532 312.719 372.381 313.768 372.182 314.548C371.845 315.875 371.856 316 372.359 316.494C372.655 316.784 373.593 317.27 374.444 317.575C375.434 317.929 377.055 318.257 378.954 318.487C380.584 318.684 383.355 318.934 385.112 319.042C387.149 319.168 389.185 319.174 390.731 319.059C392.065 318.96 394.266 318.639 395.623 318.345C397.646 317.906 398.607 317.81 400.968 317.811C403.376 317.812 404.494 317.929 407.82 318.527C410.006 318.921 412.966 319.334 414.398 319.446C415.831 319.557 419.288 319.671 422.081 319.697C426.415 319.738 427.259 319.699 427.837 319.425C428.21 319.249 432.03 315.227 436.326 310.487C440.623 305.748 444.846 301.032 445.712 300.008C446.602 298.956 447.287 298.316 447.288 298.536C447.289 298.75 446.975 300.589 446.59 302.622C446.074 305.347 445.848 307.599 445.73 311.184C445.641 313.859 445.659 317.242 445.771 318.701C445.973 321.354 445.972 321.354 458.486 321.478C465.369 321.546 473.162 321.686 475.805 321.789C478.447 321.891 481.645 322.115 482.911 322.285C484.177 322.455 486.205 322.818 487.419 323.09C488.632 323.362 491.17 324.09 493.058 324.709C494.946 325.327 497.108 325.991 497.862 326.183C498.856 326.437 500.023 326.533 502.11 326.531C504.429 326.53 505.735 326.402 508.826 325.874C512.38 325.266 512.996 325.218 517.186 325.217C520.337 325.216 522.498 325.319 524.312 325.557C525.744 325.745 529.163 326.284 531.909 326.755C534.655 327.226 537.986 327.757 539.31 327.936C540.634 328.115 543.136 328.27 544.87 328.281C547.853 328.299 548.117 328.267 549.804 327.698C550.783 327.367 552.194 326.712 552.939 326.242C553.683 325.773 555.013 324.699 555.893 323.856C556.774 323.013 558.187 321.499 559.034 320.492C560.573 318.66 560.573 318.66 562.384 321.095C563.379 322.434 564.723 324.045 565.37 324.675C566.017 325.305 567.069 326.087 567.707 326.412C568.345 326.737 569.358 327.093 569.957 327.202C570.556 327.311 572.218 327.458 573.65 327.528C575.082 327.598 577.056 327.739 578.036 327.841C579.016 327.944 580.584 328.206 581.521 328.424C582.458 328.642 584.121 329.252 585.218 329.78C586.314 330.307 587.405 330.739 587.641 330.739C587.878 330.739 590.327 329.032 593.084 326.945C595.84 324.858 598.186 323.189 598.295 323.237C598.405 323.285 598.839 323.932 599.259 324.673C599.68 325.415 600.477 326.447 601.03 326.967C601.583 327.486 602.705 328.243 603.522 328.649C604.34 329.054 605.765 329.552 606.689 329.754C607.613 329.957 609.716 330.261 611.362 330.429C613.007 330.597 617.066 330.917 620.382 331.139C623.697 331.361 627.413 331.667 628.639 331.819C629.866 331.971 632.624 332.401 634.768 332.775C636.912 333.148 639.734 333.555 641.038 333.679C642.441 333.813 644.695 333.856 646.561 333.785C648.294 333.72 652.673 333.361 656.291 332.988C659.909 332.615 664.72 332.211 666.981 332.09C669.242 331.969 675.286 331.872 680.412 331.874C685.538 331.877 692.383 331.972 695.624 332.086C698.866 332.201 702.381 332.338 703.436 332.392C705.355 332.49 705.355 332.49 708.77 329.182C710.649 327.363 712.252 325.88 712.334 325.887C712.415 325.893 714.02 327.296 715.9 329.004C717.82 330.749 719.465 332.07 719.652 332.019C719.835 331.969 720.478 331.834 721.08 331.719C721.682 331.604 723.386 331.154 724.866 330.718C726.346 330.283 728.482 329.569 729.613 329.131C730.743 328.693 732.746 327.824 734.062 327.199C735.379 326.575 737.569 325.401 738.929 324.591C740.289 323.781 742.234 322.462 743.25 321.659C744.267 320.857 745.785 319.52 746.623 318.689C747.461 317.858 748.659 316.479 749.285 315.625C749.911 314.771 750.791 313.291 751.24 312.336C751.689 311.381 752.304 309.725 752.607 308.654C752.909 307.584 753.346 305.527 753.577 304.082C753.808 302.637 754.136 299.605 754.306 297.343C754.535 294.289 754.535 292.296 754.305 289.602C754.134 287.606 753.754 284.972 753.46 283.749C753.165 282.526 752.664 280.975 752.346 280.302C752.029 279.629 751.392 278.608 750.931 278.034C750.47 277.459 749.401 276.488 748.555 275.876C747.71 275.263 744.859 273.625 742.221 272.235C739.583 270.844 737.097 269.556 736.697 269.372C735.97 269.037 735.97 269.037 735.807 270.847C735.717 271.843 735.394 277.867 735.088 284.235C734.783 290.602 734.409 296.425 734.257 297.174C734.106 297.923 733.608 299.536 733.152 300.758C732.695 301.981 731.581 304.418 730.675 306.175C729.77 307.932 728.62 310.006 728.121 310.784C727.621 311.562 726.756 312.706 726.198 313.325C725.64 313.944 724.546 314.932 723.766 315.521C722.987 316.109 720.992 317.381 719.334 318.347C717.676 319.313 715.331 320.562 714.123 321.122C712.916 321.683 711.209 322.367 710.33 322.643C709.451 322.919 707.725 323.376 706.495 323.658C704.422 324.134 703.767 324.182 697.543 324.307C691.954 324.419 690.65 324.393 689.766 324.154C689.032 323.956 688.465 323.599 687.925 322.994C687.495 322.513 686.812 321.52 686.407 320.787C686.002 320.053 685.578 319.454 685.464 319.454C685.351 319.454 684.599 319.82 683.794 320.267C682.989 320.714 681.591 321.537 680.686 322.096C679.041 323.112 679.041 323.112 674.793 321.715C672.456 320.946 669.456 319.897 668.127 319.382C666.798 318.867 664.608 317.922 663.261 317.283C661.914 316.643 659.765 315.417 658.486 314.557C657.206 313.697 655.594 312.46 654.904 311.808C654.213 311.155 653.324 310.23 652.929 309.751C652.534 309.273 651.315 307.45 650.219 305.701C649.123 303.952 647.897 301.799 647.493 300.918C646.876 299.569 646.74 298.867 646.634 296.493C646.556 294.733 646.675 292.354 646.951 290.169C647.195 288.243 647.818 283.077 648.337 278.689C648.856 274.301 649.777 266.114 650.383 260.496C650.99 254.877 651.856 246.515 652.309 241.914C652.762 237.312 653.503 229.3 653.955 224.11C654.407 218.919 655.024 211.258 655.326 207.084C655.628 202.91 655.998 196.387 656.148 192.588C656.299 188.788 656.422 182.791 656.422 179.259C656.422 175.727 656.302 168.854 656.155 163.984C656.007 159.115 655.759 152.504 655.602 149.294C655.446 146.083 655.133 140.392 654.908 136.646C654.682 132.9 654.252 126.552 653.95 122.539C653.649 118.526 653.095 111.74 652.72 107.459C652.344 103.178 651.664 96.042 651.209 91.6007C650.753 87.1594 650.012 80.3734 649.56 76.5208C649.109 72.6681 648.315 66.3199 647.796 62.4137C647.277 58.5075 646.601 53.2761 646.295 50.7882C645.989 48.3005 645.738 45.8241 645.738 45.2853C645.738 44.584 645.619 44.2731 645.318 44.191C645.086 44.1279 643.794 44.2196 642.446 44.3947C641.098 44.5698 638.541 45.0529 636.765 45.4684C634.989 45.884 632.853 46.2844 632.018 46.3586C631.055 46.444 629.375 46.3755 627.415 46.1706C625.718 45.9933 623.935 45.9062 623.453 45.9772C622.971 46.0482 621.413 46.4555 619.99 46.8824C618.567 47.3091 616.532 47.7747 615.467 47.9168C614.403 48.0588 611.939 48.2189 609.992 48.2728C606.454 48.3705 606.454 48.3705 604.142 49.5859C602.87 50.2544 600.855 51.498 599.664 52.3495C597.584 53.8361 597.474 53.8859 596.881 53.6072C596.541 53.4475 594.476 52.3403 592.292 51.1466C588.32 48.9761 588.32 48.9761 587.769 49.517C587.466 49.8145 586.151 50.9335 584.846 52.0037C583.541 53.0739 581.919 54.3307 581.243 54.7965C580.013 55.6437 580.013 55.6437 578.968 55.3803C578.394 55.2355 577.269 54.6792 576.468 54.1441C575.667 53.609 574.305 52.4269 573.44 51.5173C572.36 50.3801 571.569 49.7606 570.909 49.5343C570.149 49.2738 567.955 49.1224 560.356 48.8068C550.763 48.4085 550.763 48.4085 550.149 48.9412C549.811 49.2345 548.393 50.6749 546.997 52.1423C545.601 53.6098 544.389 54.8138 544.303 54.8177C544.218 54.8218 543.448 53.7964 542.593 52.5388C541.737 51.2814 540.869 49.9023 540.665 49.4742C540.374 48.8657 540.119 48.669 539.498 48.5729C539.06 48.5054 534.015 48.441 528.287 48.4299C522.558 48.4188 516.093 48.496 513.919 48.6013C511.746 48.7066 509.919 48.8276 509.859 48.87C509.8 48.9126 509.565 49.6789 509.339 50.5728C509.112 51.4669 508.824 53.6868 508.699 55.5062C508.574 57.3255 508.316 59.1205 508.125 59.495C507.935 59.8696 507.406 60.5701 506.949 61.0517C506.492 61.5333 504.446 63.1131 502.401 64.5623C500.357 66.0113 497.389 67.9462 495.806 68.8617C494.223 69.7772 491.509 71.2679 489.776 72.1742C488.042 73.0808 485.59 74.3353 484.327 74.962C482.557 75.8405 482.111 75.995 482.382 75.6366C482.574 75.3809 483.906 73.8116 485.341 72.1491C486.777 70.4868 488.656 68.076 489.517 66.7918C490.379 65.5076 491.642 63.3623 492.325 62.0246C493.008 60.6868 493.873 58.8043 494.248 57.8411C494.623 56.8779 495.123 55.477 495.358 54.7278C495.786 53.3658 495.786 53.3658 494.744 52.2956C494.171 51.707 493.175 50.5403 492.531 49.703C491.887 48.8657 491.219 48.146 491.047 48.1036C490.876 48.0613 480.52 47.845 468.034 47.6231C451.745 47.3336 444.778 47.275 443.366 47.4161C442.283 47.5243 440.78 47.7442 440.027 47.9045C439.273 48.0648 438.129 48.4392 437.484 48.7361C436.761 49.0689 436.116 49.5756 435.803 50.0562C435.524 50.4852 434.954 52.0183 434.538 53.4631C434.121 54.9078 433.697 56.1576 433.594 56.2403C433.492 56.323 432.715 54.7907 431.868 52.8352C431.021 50.8796 430.061 48.6229 429.733 47.8203C429.406 47.0176 428.847 45.9537 428.493 45.4559C428.138 44.958 427.519 44.3672 427.117 44.1431C426.716 43.9189 425.941 43.6504 425.395 43.5467C424.85 43.443 420.703 42.9567 416.18 42.4664C407.957 41.5746 407.957 41.5746 406.521 42.703C405.731 43.3235 404.548 44.4005 403.89 45.0961C403.233 45.7918 402.091 47.17 401.352 48.1588C400.613 49.1477 399.947 49.9567 399.871 49.9569C399.796 49.9569 399.315 49.1479 398.803 48.1588C398.291 47.17 397.347 45.5729 396.706 44.6097C396.065 43.6465 395.02 42.439 394.383 41.926C393.747 41.4133 392.779 40.8321 392.231 40.6344C391.685 40.4369 390.744 40.1684 390.141 40.0378C389.473 39.8935 385.938 39.7409 381.095 39.6479C374.148 39.5144 372.715 39.4317 369.72 38.9924C367.836 38.7159 365.702 38.4874 364.978 38.4849C364.255 38.4826 363.326 38.604 362.915 38.755C362.503 38.906 361.137 39.8291 359.879 40.8062C358.621 41.7834 357.469 42.554 357.319 42.5183C357.169 42.4827 356.321 41.6342 355.434 40.6323C354.548 39.6306 353.435 38.0868 352.961 37.2018C352.33 36.0213 351.946 35.5633 351.522 35.4825C351.205 35.422 350.008 35.3712 348.864 35.3699C347.72 35.3683 344.821 35.2344 342.423 35.0722C340.024 34.9097 336.108 34.561 333.719 34.2968C331.331 34.0327 327.423 33.507 325.035 33.1283C322.648 32.7499 318.622 32.0097 316.09 31.4835C313.557 30.9574 311.448 30.5538 311.401 30.5867C311.355 30.6196 309.939 36.218 308.255 43.0278C306.571 49.8373 305.122 55.4089 305.034 55.4089C304.947 55.4089 304.224 53.7672 303.427 51.7605C302.631 49.754 300.291 43.6903 298.227 38.2858C294.475 28.4596 294.475 28.4596 288.721 28.3315C285.557 28.2613 281.439 28.0617 279.571 27.8881C277.702 27.7147 274.002 27.224 271.348 26.7977C268.694 26.3715 265.254 25.9215 263.706 25.7977C261.53 25.624 260.478 25.6265 259.081 25.8092C258.086 25.9394 256.532 26.3112 255.627 26.6356C254.722 26.9599 253.393 27.6157 252.675 28.0926C251.953 28.5716 251.124 29.371 250.823 29.8773C250.452 30.5011 250.129 31.853 249.816 34.1024C249.562 35.9217 249.292 37.5416 249.216 37.7021C249.14 37.8626 248.166 36.2079 247.053 34.0247C245.939 31.8418 244.587 29.3978 244.049 28.5938C243.511 27.7898 242.522 26.586 241.851 25.9184C241.18 25.2508 240.146 24.4318 239.553 24.0981C238.959 23.7646 237.816 23.2781 237.011 23.017C236.207 22.756 234.483 22.4109 233.181 22.2501C231.88 22.0894 229.228 21.8709 227.288 21.7647C225.349 21.6584 222.221 21.5183 220.336 21.4531C216.91 21.3348 216.91 21.3348 215.539 21.9752C214.786 22.3276 213.014 23.4054 211.603 24.3703C209.037 26.1246 209.037 26.1246 207.949 25.249C207.351 24.7674 206.386 23.9342 205.803 23.3978C205.221 22.8611 204.381 21.8542 203.938 21.1601C203.494 20.4658 203.059 19.7449 202.971 19.5575C202.881 19.3661 202.537 19.217 202.186 19.217C201.842 19.217 199.155 19.0841 196.215 18.9217C193.276 18.7594 189.76 18.5358 188.404 18.4251C187.047 18.3144 184.518 18.092 182.784 17.9309C181.051 17.7696 177.412 17.3751 174.699 17.0541C171.985 16.733 167.749 16.1691 165.286 15.8006C162.822 15.4323 160.655 15.1309 160.468 15.1309C160.282 15.1309 158.861 16.5096 157.31 18.1947C154.491 21.2588 154.491 21.2588 153.152 20.2251C152.416 19.6566 151.487 18.796 151.088 18.3126C150.689 17.8293 149.971 16.6313 149.493 15.65C148.623 13.8661 148.623 13.8661 145.626 13.6118C143.978 13.4717 139.61 13.0562 135.92 12.6883C129.212 12.0193 129.212 12.0193 127.604 13.1372C126.72 13.7523 125.495 14.7806 124.882 15.4227C124.269 16.0648 123.729 16.6244 123.681 16.6661C123.633 16.7079 122.898 16.4018 122.047 15.986C121.197 15.5702 119.806 14.7008 118.956 14.0541C118.107 13.4075 117.168 12.5533 116.87 12.1561C116.328 11.4338 116.328 11.4338 112.559 11.4338C108.948 11.4338 108.774 11.4521 108.402 11.8716C108.188 12.1123 107.609 13.0757 107.115 14.012C106.621 14.9485 106.084 15.7136 105.921 15.7125C105.758 15.7115 104.885 15.3176 103.981 14.8374C103.076 14.3572 101.746 13.4606 101.025 12.8449C100.304 12.2295 99.2659 11.2661 98.7182 10.7042C97.7227 9.68262 97.7227 9.68262 86.0505 9.71667C79.6308 9.73535 73.8232 9.77758 73.1448 9.81065ZM715.078 256.048C714.253 256.831 713.17 257.665 712.672 257.901C712.173 258.138 709.722 258.906 707.224 259.608C702.775 260.859 702.63 260.885 700.127 260.885C698.721 260.885 696.116 261.02 694.336 261.184C692.557 261.348 690.094 261.651 688.863 261.857C687.631 262.063 685.843 262.418 684.888 262.645C683.934 262.873 682.259 263.322 681.166 263.644C679.178 264.229 679.178 264.229 679.178 272.092C679.178 279.955 679.178 279.955 681.257 278.719C682.4 278.038 684.281 277.125 685.437 276.688C686.593 276.251 688.649 275.661 690.005 275.378C691.841 274.994 693.209 274.849 695.35 274.809C698.228 274.756 698.228 274.756 700.85 272.928C702.292 271.923 704.821 269.921 706.469 268.478C709.466 265.856 709.466 265.856 709.641 268.381C709.737 269.77 709.829 271.921 709.846 273.162C709.878 275.417 709.878 275.417 712.565 275.917C714.043 276.192 716.261 276.694 717.495 277.031C718.729 277.369 720.458 277.987 721.338 278.404C722.218 278.821 723.996 279.941 725.289 280.893C726.581 281.845 728.237 283.263 728.969 284.044C729.7 284.825 730.323 285.34 730.354 285.19C730.384 285.039 730.612 280.809 730.86 275.789C731.237 268.148 731.25 266.636 730.941 266.503C730.738 266.416 727.737 265.007 724.271 263.372C717.971 260.399 717.971 260.399 717.64 259.328C717.458 258.74 717.145 257.441 716.944 256.442C716.578 254.626 716.578 254.626 715.078 256.048ZM662.464 266.458C662.467 267.834 662.584 269.521 662.723 270.207C662.977 271.454 662.977 271.454 661.537 272.639C660.745 273.291 659.703 274.188 659.22 274.633C658.738 275.077 657.665 276.255 656.836 277.251C656.007 278.247 654.845 279.941 654.253 281.016C653.661 282.091 652.93 283.846 652.628 284.916C652.326 285.986 651.921 287.912 651.729 289.196C651.537 290.481 651.375 293.195 651.369 295.228C651.358 298.597 651.413 299.034 651.98 300.148C652.323 300.821 653.408 302.66 654.391 304.235C655.374 305.809 656.69 307.711 657.315 308.46C657.968 309.243 659.507 310.574 660.934 311.59C662.427 312.652 664.561 313.895 666.282 314.703C667.857 315.443 671.177 316.767 673.66 317.646C678.174 319.243 678.174 319.243 679.841 318.283C680.758 317.755 682.842 316.652 684.473 315.832C686.105 315.012 687.535 314.419 687.655 314.514C687.774 314.609 688.716 316.118 689.746 317.869C691.62 321.051 691.62 321.051 697.665 320.968C703.031 320.894 703.907 320.836 705.459 320.45C706.421 320.212 708.148 319.68 709.297 319.27C710.446 318.859 712.187 318.105 713.167 317.593C714.147 317.081 715.942 316.075 717.157 315.356C718.372 314.637 719.948 313.589 720.66 313.026C721.372 312.464 722.376 311.469 722.89 310.816C723.405 310.162 724.497 308.401 725.317 306.903C726.137 305.405 727.246 303.212 727.782 302.031C728.318 300.849 729.011 298.996 729.322 297.914C729.632 296.831 729.887 295.253 729.887 294.406C729.887 293.557 729.689 292.393 729.445 291.81C729.202 291.229 728.57 290.141 728.041 289.391C727.513 288.642 726.401 287.285 725.57 286.375C724.74 285.465 722.922 283.911 721.531 282.921C719.477 281.461 718.609 280.993 716.924 280.44C715.782 280.066 714.729 279.759 714.583 279.759C714.435 279.759 714.249 280.893 714.16 282.338C714.072 283.755 713.931 288.199 713.847 292.212C713.763 296.226 713.561 299.991 713.398 300.579C713.236 301.168 712.801 302.073 712.432 302.591C712.064 303.109 711.277 303.907 710.683 304.364C710.09 304.821 708.885 305.467 708.006 305.8C707.126 306.132 705.682 306.539 704.795 306.703C703.909 306.866 702.254 307 701.117 306.998C699.981 306.997 698.388 306.871 697.578 306.718C696.767 306.564 695.8 306.237 695.428 305.99C695.056 305.743 694.623 305.372 694.466 305.164C694.309 304.957 694.104 304.155 694.011 303.382C693.843 301.977 693.843 301.977 690.715 303.842C687.587 305.708 687.587 305.708 685.818 305.056C684.845 304.698 683.382 304.02 682.567 303.548C681.752 303.077 680.465 302.11 679.706 301.398C678.947 300.686 677.973 299.576 677.541 298.931C677.11 298.286 676.499 297.189 676.185 296.493C675.87 295.798 675.409 294.572 675.16 293.769C674.775 292.526 674.683 290.371 674.544 279.205C674.382 266.101 674.382 266.101 672.328 267.169C670.274 268.237 670.274 268.237 668.442 267.01C667.435 266.336 665.864 265.424 664.951 264.984C664.038 264.544 663.104 264.133 662.875 264.07C662.515 263.972 662.459 264.299 662.464 266.458ZM50.0604 274.511C49.8444 274.883 49.0692 276.444 48.3377 277.98C47.6061 279.516 46.567 281.392 46.0284 282.148C45.49 282.904 44.8646 283.586 44.6384 283.664C44.4123 283.741 42.5928 284.226 40.5955 284.741C36.9636 285.677 36.9636 285.677 36.9636 293.906C36.9636 298.433 37.0607 302.136 37.1796 302.136C37.2983 302.136 37.9633 301.72 38.6576 301.212C39.3519 300.704 40.1191 300.006 40.3625 299.662C40.6061 299.318 41.9111 296.569 43.2627 293.554C44.614 290.539 45.7567 288.046 45.8017 288.014C45.8466 287.982 47.6025 289.302 49.7035 290.947C53.5236 293.937 53.5236 293.937 54.6315 293.451C55.2409 293.184 56.2822 292.793 56.9455 292.583C57.6085 292.373 58.657 292.118 59.2753 292.017C59.8934 291.916 60.9462 291.831 61.615 291.828C62.2838 291.825 63.75 292.006 64.873 292.23C66.8429 292.622 66.9526 292.625 67.9763 292.297C68.6216 292.09 70.1269 291.126 71.8192 289.834C73.3492 288.666 75.2737 287.405 76.0957 287.031C76.9177 286.658 77.6224 286.38 77.6616 286.413C77.7008 286.445 78.3831 287.217 79.1777 288.126C79.9723 289.036 81.1093 290.218 81.7043 290.753C82.2994 291.288 83.2017 291.97 83.7096 292.268C84.2175 292.567 85.1626 292.974 85.8101 293.175C86.4572 293.375 88.3436 293.726 90.0019 293.955C91.6602 294.184 93.757 294.617 94.6616 294.916C95.5661 295.216 96.8612 295.791 97.5396 296.194C98.218 296.597 99.68 297.638 100.788 298.506C101.897 299.374 103.87 300.687 105.174 301.423C106.478 302.159 108.142 303.168 108.873 303.665C109.603 304.162 110.822 305.216 111.581 306.008C112.34 306.8 113.381 308.07 113.894 308.83C114.826 310.211 114.826 310.211 114.682 306.709C114.603 304.782 114.475 300.404 114.397 296.98C114.319 293.555 114.181 289.16 114.091 287.214C113.927 283.674 113.927 283.674 112.655 283.481C111.954 283.375 107.99 282.879 103.844 282.378C97.9135 281.663 95.4002 281.448 92.0576 281.372C88.7564 281.297 86.6173 281.371 82.4641 281.706C79.5244 281.943 75.3924 282.14 73.2818 282.144C70.2116 282.15 68.6523 282.045 65.4828 281.618C63.3038 281.324 60.7135 281.077 59.7268 281.068C58.7397 281.059 57.2747 281.166 56.471 281.305C55.6471 281.447 54.9111 281.483 54.7834 281.388C54.6587 281.295 54.2168 280.65 53.8013 279.954C53.3858 279.258 52.4623 277.597 51.7494 276.262C50.4532 273.835 50.4532 273.835 50.0604 274.511ZM703.025 276.099C701.894 276.844 700.592 277.663 700.13 277.92C699.337 278.362 699.195 278.376 697.526 278.184C696.555 278.073 695.237 278.036 694.597 278.104C693.432 278.227 693.432 278.227 693.432 279.351C693.432 279.97 693.512 281.66 693.609 283.107C693.787 285.738 693.787 285.738 696.282 285.846C697.83 285.914 699.608 286.145 700.969 286.455C702.175 286.73 703.798 287.216 704.576 287.534C705.354 287.853 706.724 288.596 707.621 289.186C709.253 290.258 709.253 290.258 709.392 284.571C709.491 280.498 709.444 278.844 709.224 278.744C709.056 278.668 708.021 278.502 706.923 278.376C705.826 278.251 704.866 278.076 704.789 277.988C704.713 277.9 704.789 277.263 704.958 276.572C705.128 275.881 705.225 275.187 705.174 275.03C705.112 274.841 704.396 275.197 703.025 276.099ZM686.86 279.902C685.884 280.305 684.269 281.209 683.271 281.911C682.115 282.725 681.142 283.642 680.588 284.441C680.109 285.131 679.585 286.264 679.422 286.959C679.251 287.693 679.201 289.04 679.304 290.169C679.402 291.24 679.67 292.772 679.9 293.574C680.131 294.377 680.634 295.603 681.019 296.299C681.404 296.994 682.273 298.161 682.951 298.892C683.628 299.623 684.799 300.566 685.551 300.988C686.711 301.64 686.986 301.718 687.364 301.508C687.609 301.372 690.379 299.742 693.519 297.886C696.659 296.03 699.271 294.542 699.323 294.578C699.374 294.615 699.244 295.739 699.034 297.077C698.823 298.415 698.649 300.397 698.645 301.483C698.641 303.106 698.717 303.477 699.073 303.575C699.312 303.64 700.214 303.693 701.079 303.693C701.944 303.693 703.27 303.562 704.027 303.403C704.783 303.243 705.912 302.85 706.536 302.53C707.16 302.209 707.93 301.584 708.249 301.141C708.567 300.698 708.896 299.868 708.979 299.296C709.062 298.725 708.979 297.707 708.795 297.035C708.611 296.362 708.081 295.243 707.617 294.547C707.06 293.711 706.162 292.848 704.968 292.001C703.767 291.148 702.566 290.52 701.38 290.124C700.401 289.797 698.945 289.432 698.146 289.314C697.347 289.196 696.052 289.1 695.268 289.101C694.484 289.101 692.817 289.276 691.564 289.49C690.311 289.703 689.232 289.877 689.166 289.877C689.1 289.877 689.032 288.586 689.015 287.007C688.997 285.429 688.905 283.019 688.809 281.653C688.635 279.169 688.635 279.169 686.86 279.902ZM29.9006 288.268C28.6543 288.779 26.4958 289.762 25.1039 290.454C23.712 291.146 21.0256 292.809 19.134 294.151C16.8045 295.803 15.1039 297.222 13.8647 298.547C12.8582 299.623 11.5472 301.243 10.9513 302.147C10.3554 303.051 9.55918 304.447 9.18202 305.249C8.80459 306.052 8.27475 307.453 8.00449 308.363C7.65118 309.552 7.51468 310.864 7.51906 313.032C7.52345 315.457 7.63994 316.376 8.11276 317.72C8.4362 318.64 9.30811 320.479 10.0506 321.807C10.7929 323.134 11.7997 325.14 12.2878 326.264C12.7757 327.387 13.4251 328.657 13.7307 329.085C14.0363 329.513 14.6706 330.214 15.1404 330.642C15.6099 331.07 18.338 333.435 21.2024 335.897C24.067 338.36 26.8825 340.832 27.4592 341.392C28.0359 341.951 28.8237 342.585 29.2094 342.801C29.7551 343.105 30.3219 343.192 31.759 343.192C32.9818 343.192 34.8629 342.962 37.3175 342.511C39.3584 342.137 41.0872 341.83 41.1595 341.83C41.2319 341.83 41.3714 342.64 41.4698 343.63C41.5682 344.62 41.8434 346.437 42.0819 347.668C42.3201 348.898 42.5945 350.058 42.6912 350.245C42.8527 350.555 42.984 350.54 44.2328 350.071C44.9835 349.789 46.0911 349.317 46.6942 349.023C47.2972 348.729 48.7765 347.869 49.9817 347.113C51.7617 345.997 52.2036 345.801 52.3362 346.071C52.4259 346.253 52.9187 347.752 53.4313 349.402C54.3632 352.4 54.3632 352.4 55.774 352.843C56.5502 353.087 57.9265 353.395 58.8324 353.528C60.4794 353.769 60.48 353.769 63.4545 352.908C66.4293 352.046 66.4293 352.046 71.5002 352.03C74.2891 352.021 76.8794 351.947 77.2562 351.865C77.6331 351.783 79.0113 351.371 80.319 350.949C81.6268 350.527 83.6003 350.052 84.7046 349.893C85.809 349.734 87.0726 349.501 87.5122 349.377C87.9519 349.252 89.4731 348.465 90.8927 347.627C92.3122 346.79 93.8335 345.972 94.2732 345.811C94.7128 345.649 95.0727 345.482 95.0727 345.438C95.0727 345.394 94.8817 344.718 94.6481 343.935C94.4146 343.152 94.0536 341.636 93.8461 340.566C93.6386 339.495 93.3848 336.912 93.2817 334.825C93.1617 332.387 93.1894 331.101 93.359 331.226C93.5046 331.333 94.7504 332.613 96.1274 334.07C97.7835 335.823 99.6666 337.49 101.69 338.994C104.749 341.268 104.749 341.268 105.839 340.528C106.439 340.121 107.631 339.123 108.488 338.311C109.345 337.5 110.629 336.034 111.341 335.055C112.053 334.076 112.936 332.71 113.302 332.019C113.669 331.328 114.228 329.86 114.545 328.756C114.956 327.326 115.118 326.052 115.109 324.318C115.103 322.96 114.908 321.177 114.668 320.28C114.432 319.397 113.759 317.688 113.173 316.481C112.587 315.274 111.495 313.261 110.746 312.007C109.998 310.754 108.811 309.073 108.108 308.273C107.384 307.448 106.095 306.354 105.132 305.748C104.197 305.16 102.538 304.159 101.445 303.524C100.351 302.889 98.6121 301.71 97.5799 300.903C96.5474 300.096 95.3145 299.204 94.8394 298.92C93.9763 298.404 93.9763 298.404 93.976 299.054C93.976 299.411 93.4848 305.308 92.8846 312.157C92.284 319.006 91.6511 325.179 91.4779 325.875C91.3047 326.57 90.814 327.825 90.3875 328.664C89.961 329.502 89.1694 330.75 88.6281 331.437C88.0867 332.125 86.9213 333.321 86.0384 334.097C85.1555 334.872 83.2387 336.286 81.7789 337.239C79.1248 338.972 79.1248 338.972 79.3227 336.136C79.5113 333.435 79.4921 333.267 78.9258 332.616C78.5083 332.137 77.9453 331.832 77.0397 331.596C76.3298 331.411 75.348 331.147 74.8579 331.01C74.3678 330.872 73.967 330.807 73.967 330.865C73.967 330.923 74.1956 331.203 74.4752 331.488C74.7548 331.772 75.0654 332.244 75.1651 332.538C75.2742 332.857 75.1802 333.354 74.9308 333.778C74.7019 334.167 73.9775 335.021 73.3207 335.677C72.664 336.332 71.9327 337.137 71.6956 337.465C71.4588 337.792 71.1775 338.609 71.0706 339.28C70.8999 340.351 70.7911 340.521 70.1691 340.689C69.7802 340.794 67.8544 340.882 65.8899 340.885C63.9251 340.888 61.4977 340.795 60.4956 340.679C59.4932 340.562 57.5937 340.245 56.2742 339.974C54.955 339.702 52.9617 339.18 51.845 338.814C50.7284 338.448 48.981 337.755 47.9622 337.274C46.9433 336.793 45.316 335.848 44.3462 335.174C43.3762 334.5 41.9838 333.381 41.2516 332.687C40.5195 331.992 38.927 330.241 37.7127 328.795C36.4985 327.35 34.9696 325.442 34.3156 324.557C33.5697 323.547 33.1262 322.692 33.1262 322.264C33.1262 321.889 33.2998 321.287 33.5122 320.926C33.7243 320.565 34.4025 319.933 35.0192 319.522C35.6359 319.11 36.1405 318.702 36.1408 318.615C36.1411 318.528 35.5276 317.997 34.7771 317.434C34.0269 316.87 33.1945 316.066 32.927 315.645C32.4807 314.944 32.4298 313.751 32.3039 301.11C32.1669 287.339 32.1669 287.339 29.9006 288.268ZM73.83 293.069C72.2802 294.203 70.9002 295.024 70.1179 295.276C69.4332 295.498 68.3113 295.739 67.6247 295.812C66.7185 295.908 65.76 295.827 64.1266 295.514C62.6942 295.239 61.4772 295.121 60.7777 295.187C60.173 295.245 59.0388 295.523 58.257 295.806C57.4753 296.089 56.6303 296.429 56.3792 296.562C55.9804 296.774 55.865 297.798 55.4656 304.675C55.2143 309.004 55.0498 312.832 55.1 313.182C55.1912 313.818 55.1912 313.818 56.687 313.101C57.5098 312.707 59.1616 312.083 60.3575 311.715C61.5536 311.347 63.9569 310.791 65.698 310.478C67.5378 310.149 70.023 309.861 71.632 309.791C73.3152 309.718 75.1481 309.76 76.3079 309.9C77.3571 310.026 78.9792 310.306 79.9123 310.522C80.8456 310.739 82.3353 311.249 83.2228 311.656C84.1104 312.064 85.5362 312.906 86.3914 313.527C87.2463 314.149 87.9532 314.577 87.9623 314.478C87.9711 314.378 88.3194 310.488 88.7366 305.833C89.1538 301.178 89.4665 297.34 89.4315 297.306C89.3964 297.271 88.462 297.115 87.3549 296.958C86.2478 296.801 84.4755 296.375 83.4161 296.01C82.0004 295.523 80.9824 294.971 79.5757 293.926C78.5229 293.144 77.3544 292.225 76.9791 291.884C76.2969 291.263 76.2969 291.263 73.83 293.069ZM46.4245 297.369C45.7326 298.921 44.9202 300.599 44.6187 301.098C44.2851 301.651 43.178 302.658 41.7856 303.676C40.5286 304.595 39.3563 305.544 39.1803 305.786C39.0043 306.028 38.7428 307.177 38.5992 308.34C38.4556 309.502 38.1011 311.012 37.8117 311.694C37.5223 312.377 37.2059 313.211 37.1089 313.548C36.9513 314.095 37.0999 314.293 38.4934 315.396C39.3519 316.076 40.2221 316.914 40.4277 317.258C40.633 317.603 40.801 318.242 40.801 318.679C40.801 319.116 40.6056 319.741 40.3666 320.069C40.1278 320.397 39.4571 321.031 38.8763 321.479C37.8205 322.292 37.8205 322.292 40.5724 325.689C42.086 327.557 44.014 329.74 44.8566 330.54C45.6995 331.34 46.942 332.376 47.6182 332.842C48.2941 333.309 49.5812 334.044 50.4781 334.477C51.3752 334.909 52.9916 335.552 54.0696 335.906C55.1477 336.259 57.0129 336.738 58.2146 336.969C59.5574 337.227 61.6194 337.429 63.5658 337.494C66.7325 337.6 66.7325 337.6 67.068 336.805C67.2527 336.367 68.0388 335.335 68.8154 334.511C70.2272 333.013 70.2272 333.013 69.7177 332.411C69.4376 332.08 68.7427 331.192 68.174 330.438C67.6052 329.684 66.5867 328.13 65.9107 326.984C65.2348 325.839 64.7302 324.902 64.7894 324.902C64.8486 324.902 68.2255 325.772 72.2934 326.837C76.361 327.901 80.0523 328.904 80.4958 329.067C80.9396 329.23 81.6229 329.634 82.0149 329.964C82.4066 330.295 82.8459 330.714 82.9909 330.895C83.2341 331.2 83.2886 331.195 83.6861 330.837C83.9232 330.622 84.6035 329.747 85.198 328.891C85.7925 328.035 86.4671 326.765 86.6973 326.069C86.9273 325.374 87.1175 324.101 87.1197 323.24C87.1219 322.38 86.9352 321.162 86.705 320.534C86.4745 319.906 85.8523 318.806 85.3222 318.09C84.7921 317.374 83.6713 316.301 82.8317 315.704C81.9834 315.102 80.5572 314.36 79.6231 314.034C78.6983 313.712 77.0852 313.342 76.0387 313.214C74.9072 313.075 73.1834 313.027 71.7869 313.098C70.4948 313.163 68.2674 313.427 66.8372 313.686C65.4067 313.944 63.4625 314.379 62.5163 314.652C61.5701 314.926 59.9293 315.559 58.8705 316.058C57.7735 316.576 56.4891 317.398 55.8861 317.967C55.3039 318.517 54.1434 320.062 53.3074 321.399C51.8516 323.729 51.7546 323.829 51.0222 323.776C50.6017 323.746 50.133 323.691 49.9812 323.654C49.7986 323.611 49.9617 319.086 50.4617 310.319C51.2184 297.05 51.2184 297.05 49.6613 295.799C48.805 295.111 48.0093 294.547 47.8933 294.547C47.7774 294.547 47.1163 295.817 46.4245 297.369Z" fill="#1D1D1B"/>
<path fill-rule="evenodd" clip-rule="evenodd" d="M711.152 4.28308C711.064 4.52397 709.418 8.90805 707.494 14.0257C705.202 20.1244 703.942 23.1748 703.835 22.8791C703.746 22.6308 702.574 18.4218 701.23 13.5256C698.914 5.08903 698.755 4.6236 698.198 4.6236C697.874 4.6236 696.083 4.89465 694.218 5.22582C692.354 5.55719 689.902 6.09696 688.772 6.4256C687.641 6.75425 685.651 7.44617 684.35 7.96317C683.049 8.48017 680.952 9.42816 679.69 10.0697C677.397 11.236 677.397 11.236 675.17 11.2378C672.943 11.2393 672.943 11.2393 672.77 11.8511C672.675 12.1875 671.914 15.1426 671.078 18.4181C670.242 21.6935 669.469 24.5336 669.359 24.7293C669.197 25.0189 668.274 24.3775 664.399 21.2835C659.698 17.5295 659.631 17.4861 659.044 17.8144C658.717 17.9973 657.885 18.5985 657.196 19.1505C656.505 19.7026 655.545 20.563 655.06 21.0627C654.576 21.5623 653.708 22.6866 653.131 23.5615C652.554 24.4361 651.826 25.8061 651.514 26.6061C651.202 27.4058 650.737 29.0257 650.48 30.2058C650.13 31.8144 650.014 33.5928 650.018 37.313C650.021 40.042 650.176 43.7195 650.363 45.4854C650.551 47.2512 651.131 51.9794 651.653 55.9927C652.175 60.0059 652.967 66.1351 653.414 69.6132C653.861 73.0914 654.656 79.9211 655.181 84.7905C655.706 89.6598 656.386 96.3144 656.693 99.5785C657 102.843 657.495 108.403 657.795 111.934C658.094 115.466 658.584 121.77 658.884 125.944C659.184 130.118 659.616 136.86 659.844 140.927C660.073 144.993 660.386 151.166 660.54 154.645C660.694 158.123 660.896 166.397 660.99 173.032C661.096 180.577 661.042 187.903 660.844 192.588C660.671 196.708 660.345 202.618 660.12 205.722C659.895 208.825 659.523 213.685 659.293 216.521C659.062 219.357 658.571 225.048 658.201 229.169C657.831 233.289 657.027 241.607 656.415 247.654C655.803 253.7 654.905 262.216 654.42 266.577C653.935 270.938 653.566 274.506 653.6 274.506C653.633 274.506 654.054 274.1 654.534 273.605C655.014 273.11 655.954 272.227 656.622 271.645C657.838 270.585 657.838 270.585 657.912 266.465C657.963 263.638 658.127 261.832 658.435 260.711C658.681 259.812 658.935 259.041 658.997 258.996C659.06 258.952 660.389 259.368 661.95 259.921C663.511 260.474 665.792 261.403 667.018 261.985C668.245 262.567 669.466 263.214 669.733 263.423C670 263.633 670.381 263.804 670.581 263.804C670.781 263.804 671.647 263.485 672.506 263.095C673.365 262.704 675.434 261.919 677.103 261.35C678.772 260.78 681.618 259.97 683.427 259.549C685.236 259.129 688.011 258.602 689.594 258.378C691.177 258.155 693.582 257.884 694.939 257.776C696.296 257.669 698.393 257.58 699.599 257.578C701.574 257.577 702.138 257.48 705.289 256.608C707.212 256.076 709.134 255.512 709.56 255.356C710.01 255.19 711.876 253.583 714.026 251.509C716.058 249.549 718.378 247.264 719.184 246.431C719.989 245.599 720.748 244.873 720.87 244.82C720.992 244.766 721.081 246.761 721.067 249.253C721.048 252.612 721.161 254.326 721.503 255.883C721.756 257.038 722.021 258.088 722.092 258.218C722.162 258.347 723.667 259.11 725.436 259.912C727.206 260.715 731.298 262.672 734.53 264.262C737.762 265.851 742.511 268.277 745.083 269.653C747.655 271.028 750.16 272.388 750.65 272.674C751.235 273.015 751.541 273.102 751.541 272.925C751.541 272.778 751.171 270.206 750.718 267.209C750.266 264.212 749.466 258.433 748.941 254.367C748.416 250.3 747.678 244.127 747.301 240.649C746.924 237.171 746.37 231.611 746.068 228.293C745.767 224.975 745.275 218.759 744.974 214.478C744.673 210.197 744.302 204.331 744.148 201.441C743.994 198.552 743.749 192.904 743.603 188.891C743.457 184.877 743.258 176.647 743.162 170.6C743.065 164.497 743.122 154.023 743.291 147.056C743.459 140.153 743.72 131.879 743.873 128.668C744.025 125.458 744.336 119.766 744.563 116.021C744.791 112.275 745.161 106.89 745.385 104.054C745.609 101.218 746.041 96.2269 746.346 92.9628C746.65 89.6987 747.208 84.2262 747.585 80.8016C747.962 77.377 748.577 72.2109 748.95 69.3214C749.324 66.4319 749.94 61.8787 750.321 59.2032C750.701 56.5277 751.381 52.0184 751.831 49.1824C752.282 46.3464 753.143 41.2824 753.744 37.9292C754.345 34.576 755.32 29.4975 755.912 26.6436C756.504 23.7897 757.07 21.0971 757.17 20.6601C757.315 20.0273 757.213 19.6705 756.667 18.9061C756.29 18.3784 755.416 17.4122 754.725 16.7591C754.033 16.1059 752.321 14.7937 750.92 13.8432C749.519 12.8927 747.117 11.5216 745.583 10.7963C744.048 10.0711 741.031 8.86719 738.878 8.12078C736.725 7.37457 734.879 6.76398 734.776 6.76398C734.672 6.76398 732.587 8.6049 730.142 10.855C727.698 13.1051 725.652 14.9136 725.596 14.8739C725.54 14.834 725.311 12.8399 725.087 10.4423C724.864 8.0447 724.68 5.86171 724.68 5.59124C724.679 5.09954 724.679 5.09954 718.443 4.46482C715.014 4.11574 712.006 3.8336 711.76 3.83769C711.513 3.84178 711.24 4.04219 711.152 4.28308ZM73.1447 9.81071C72.4663 9.84378 70.3694 9.96501 68.485 10.08C66.6006 10.195 64.7888 10.3359 64.459 10.3931C63.9684 10.4781 62.9528 11.9532 58.8737 18.5055C56.1316 22.91 53.8549 26.5413 53.8144 26.5747C53.7738 26.608 52.2309 23.412 50.3854 19.4726C48.5402 15.5329 46.9901 12.2764 46.9411 12.2358C46.892 12.1953 44.0414 13.0178 40.6058 14.0634C37.1705 15.1091 32.0161 16.7023 29.1517 17.6038C26.2874 18.5053 22.3135 19.8427 20.3208 20.5758C18.3281 21.3088 15.6145 22.4084 14.2906 23.0194C12.9667 23.6303 10.9562 24.7978 9.8228 25.6139C8.33937 26.6819 7.48199 27.5064 6.76221 28.5569C6.21236 29.3596 5.53616 30.7167 5.25959 31.5729C4.84954 32.8427 4.76046 33.9184 4.77608 37.4103C4.78787 40.035 4.9759 42.8577 5.26206 44.707C5.51862 46.3658 6.46344 51.9259 7.36194 57.0628C8.26016 62.1997 9.42426 69.1608 9.94861 72.5319C10.4732 75.903 11.2114 81.0691 11.5894 84.0121C11.9674 86.9552 12.5265 91.7272 12.8321 94.6167C13.138 97.5062 13.5692 102.016 13.7907 104.638C14.0121 107.26 14.3219 111.375 14.4787 113.783C14.6357 116.191 14.8838 120.437 15.0296 123.22C15.1754 126.002 15.4377 133.182 15.6126 139.176C15.8143 146.087 15.8713 157.259 15.7686 169.725C15.6795 180.533 15.478 192.967 15.3212 197.355C15.1642 201.743 14.8492 209.579 14.6215 214.77C14.3937 219.96 13.9606 228.585 13.6588 233.936C13.3573 239.287 12.8642 247.342 12.563 251.837C12.262 256.332 11.6439 264.782 11.1895 270.614C10.7353 276.447 10.058 284.63 9.68438 288.798C9.31106 292.967 9.00543 296.684 9.00543 297.058C9.00543 297.722 9.04052 297.7 10.5799 296.093C11.446 295.19 13.6969 293.344 15.5822 291.992C17.4674 290.64 20.2553 288.882 21.7774 288.085C23.2994 287.287 25.9741 286.046 27.7209 285.326C29.468 284.605 32.2315 283.598 33.8619 283.087C35.4925 282.577 37.955 281.872 39.334 281.523C41.8417 280.888 41.8417 280.888 42.726 279.302C43.2125 278.43 44.2187 276.451 44.9621 274.905C45.7054 273.358 46.8654 271.344 47.5394 270.429C48.2137 269.514 49.4894 268.037 50.3744 267.146C51.9837 265.527 51.9837 265.527 52.2728 266.173C52.4318 266.529 52.8249 267.564 53.1461 268.474C53.4671 269.383 54.1016 270.96 54.5561 271.976C55.0103 272.993 55.8608 274.7 56.446 275.771C57.5101 277.716 57.5101 277.716 59.7769 277.745C61.0237 277.762 63.7705 278.005 65.8811 278.288C68.7881 278.676 70.5906 278.801 73.316 278.802C75.2944 278.803 79.3032 278.616 82.2242 278.386C86.3642 278.06 88.5622 277.989 92.1946 278.062C96.078 278.139 98.0642 278.303 104.118 279.041C108.113 279.529 114.095 280.29 117.412 280.732C120.728 281.175 127.17 282.101 131.726 282.79C136.282 283.48 141.573 284.307 143.484 284.63C145.395 284.952 147.711 285.437 148.631 285.709C149.551 285.98 150.443 286.247 150.613 286.301C150.784 286.355 151.863 285.612 153.012 284.651C154.522 283.388 155.331 282.868 155.933 282.774C156.511 282.684 157.075 282.76 157.782 283.023C158.342 283.232 159.424 283.648 160.187 283.949C161.572 284.496 161.572 284.496 164.651 282.686C166.344 281.691 167.776 280.91 167.832 280.95C167.889 280.991 168.386 282.835 168.937 285.048C169.488 287.261 170.032 289.319 170.145 289.621C170.333 290.12 170.498 290.182 171.964 290.313C172.851 290.392 173.987 290.553 174.49 290.671C175.334 290.869 175.449 290.844 176.01 290.335C176.344 290.032 177.772 288.794 179.183 287.582C180.594 286.371 181.797 285.414 181.856 285.456C181.914 285.498 182.453 286.508 183.052 287.7C183.651 288.892 184.569 290.461 185.092 291.186C185.614 291.911 186.326 292.736 186.674 293.019C187.199 293.445 187.752 293.588 189.911 293.854C191.343 294.031 194.797 294.603 197.586 295.126C200.375 295.649 203.643 296.211 204.849 296.377C206.055 296.542 208.584 296.813 210.468 296.979C212.353 297.144 215.21 297.454 216.817 297.667C218.425 297.881 220.26 298.185 220.895 298.344C221.53 298.503 222.2 298.634 222.384 298.634C222.567 298.634 223.656 297.248 224.802 295.555C226.438 293.137 227.145 292.306 228.091 291.687C228.754 291.253 231.073 290.07 233.244 289.057C235.416 288.044 238.858 286.513 240.893 285.656C242.929 284.799 247.184 283.133 250.35 281.953C253.516 280.773 257.507 279.31 259.218 278.701C260.93 278.093 262.366 277.622 262.408 277.656C262.45 277.689 257.256 281.525 250.865 286.181C244.474 290.836 239.045 294.904 238.799 295.221C238.476 295.637 238.315 296.505 238.215 298.355C238.121 300.11 238.173 300.955 238.381 301.046C238.547 301.119 240.137 301.266 241.913 301.372C243.689 301.479 245.848 301.692 246.711 301.846C247.574 302 249.644 302.524 251.31 303.012C252.976 303.499 255.23 304.025 256.319 304.18C257.408 304.335 260.581 304.597 263.37 304.763C266.159 304.929 270.561 305.282 273.153 305.547C275.745 305.812 279.79 306.299 282.141 306.629C285.977 307.168 286.479 307.2 287.022 306.944C287.355 306.787 289.096 305.733 290.891 304.602C294.154 302.544 294.154 302.544 295.002 303.034C295.469 303.303 296.467 303.852 297.221 304.255C297.975 304.657 299.331 305.292 300.236 305.666C301.141 306.04 302.577 306.572 303.429 306.848C304.977 307.35 304.977 307.35 309.185 304.755C311.499 303.327 313.468 302.22 313.56 302.294C313.651 302.368 314.307 303.654 315.017 305.152C315.726 306.65 316.884 308.707 317.591 309.722C318.683 311.292 318.998 311.59 319.697 311.719C320.149 311.803 323.541 312.302 327.235 312.828C330.928 313.355 336.109 314.011 338.747 314.287C341.385 314.563 345.024 314.913 346.833 315.065C350.122 315.341 350.122 315.341 352.178 313.749C353.308 312.873 354.801 311.727 355.496 311.201C356.757 310.245 356.757 310.245 359.384 311.84C362.011 313.435 362.011 313.435 365.249 311.448C367.03 310.356 368.776 309.28 369.129 309.058C369.771 308.654 369.771 308.654 370.716 309.433C371.236 309.861 371.849 310.457 372.077 310.758C372.306 311.059 372.504 311.716 372.518 312.218C372.532 312.719 372.381 313.768 372.182 314.548C371.844 315.876 371.856 316 372.359 316.494C372.655 316.784 373.593 317.27 374.443 317.575C375.434 317.93 377.055 318.257 378.954 318.487C380.584 318.684 383.355 318.934 385.112 319.043C387.149 319.168 389.185 319.174 390.731 319.059C392.064 318.96 394.266 318.639 395.623 318.345C397.646 317.906 398.607 317.81 400.967 317.811C403.376 317.812 404.494 317.929 407.82 318.527C410.006 318.921 412.966 319.334 414.398 319.446C415.831 319.558 419.288 319.671 422.081 319.697C426.415 319.738 427.259 319.699 427.837 319.425C428.21 319.249 432.03 315.227 436.326 310.487C440.623 305.748 444.846 301.032 445.712 300.009C446.602 298.956 447.287 298.316 447.288 298.536C447.289 298.75 446.975 300.589 446.59 302.622C446.074 305.347 445.848 307.599 445.73 311.184C445.641 313.859 445.659 317.242 445.771 318.701C445.972 321.354 445.972 321.354 458.486 321.478C465.369 321.546 473.162 321.686 475.805 321.789C478.447 321.891 481.645 322.115 482.911 322.285C484.177 322.455 486.205 322.818 487.419 323.09C488.632 323.362 491.17 324.09 493.058 324.709C494.946 325.327 497.108 325.991 497.862 326.183C498.856 326.437 500.023 326.533 502.11 326.531C504.428 326.53 505.735 326.402 508.826 325.874C512.38 325.267 512.996 325.218 517.186 325.217C520.337 325.216 522.498 325.319 524.312 325.557C525.744 325.745 529.163 326.284 531.909 326.755C534.655 327.226 537.986 327.758 539.31 327.937C540.634 328.115 543.136 328.27 544.87 328.281C547.853 328.299 548.117 328.267 549.803 327.698C550.783 327.367 552.194 326.712 552.939 326.243C553.683 325.773 555.013 324.699 555.893 323.856C556.774 323.013 558.187 321.499 559.034 320.492C560.573 318.66 560.573 318.66 562.383 321.095C563.379 322.434 564.723 324.045 565.37 324.675C566.017 325.305 567.069 326.087 567.707 326.412C568.345 326.738 569.358 327.093 569.957 327.202C570.556 327.311 572.218 327.458 573.65 327.528C575.082 327.598 577.056 327.739 578.036 327.841C579.016 327.944 580.584 328.206 581.521 328.424C582.457 328.642 584.121 329.252 585.218 329.78C586.314 330.307 587.405 330.739 587.641 330.739C587.878 330.739 590.327 329.032 593.083 326.945C595.84 324.858 598.186 323.189 598.295 323.237C598.405 323.286 598.839 323.932 599.259 324.673C599.68 325.415 600.476 326.447 601.03 326.967C601.583 327.486 602.705 328.243 603.522 328.649C604.34 329.054 605.765 329.552 606.689 329.755C607.613 329.957 609.716 330.261 611.362 330.429C613.007 330.597 617.066 330.917 620.382 331.139C623.697 331.361 627.413 331.667 628.639 331.819C629.866 331.971 632.624 332.401 634.768 332.775C636.912 333.148 639.734 333.555 641.037 333.679C642.441 333.813 644.695 333.856 646.56 333.785C648.294 333.72 652.673 333.361 656.291 332.988C659.909 332.615 664.72 332.211 666.981 332.09C669.242 331.969 675.286 331.872 680.412 331.874C685.537 331.877 692.383 331.972 695.624 332.086C698.866 332.201 702.381 332.338 703.436 332.392C705.355 332.49 705.355 332.49 708.77 329.182C710.649 327.363 712.252 325.88 712.334 325.887C712.415 325.893 714.02 327.296 715.9 329.004C717.82 330.749 719.465 332.07 719.652 332.019C719.835 331.969 720.478 331.834 721.08 331.719C721.682 331.604 723.386 331.154 724.866 330.718C726.346 330.283 728.482 329.569 729.613 329.131C730.743 328.693 732.746 327.824 734.062 327.199C735.379 326.575 737.569 325.401 738.929 324.591C740.289 323.781 742.233 322.462 743.25 321.659C744.267 320.857 745.785 319.52 746.623 318.689C747.461 317.858 748.659 316.479 749.285 315.625C749.911 314.771 750.791 313.291 751.24 312.336C751.689 311.381 752.304 309.725 752.607 308.654C752.909 307.584 753.346 305.527 753.577 304.082C753.808 302.637 754.136 299.605 754.306 297.343C754.535 294.289 754.535 292.296 754.305 289.602C754.134 287.606 753.754 284.972 753.46 283.749C753.165 282.526 752.664 280.975 752.346 280.302C752.029 279.629 751.392 278.608 750.931 278.034C750.47 277.459 749.401 276.488 748.555 275.876C747.71 275.263 744.859 273.625 742.221 272.235C739.583 270.844 737.097 269.556 736.697 269.372C735.97 269.037 735.97 269.037 735.807 270.847C735.717 271.843 735.394 277.867 735.088 284.235C734.783 290.602 734.409 296.425 734.257 297.174C734.106 297.923 733.608 299.536 733.151 300.758C732.695 301.981 731.581 304.418 730.675 306.175C729.77 307.932 728.62 310.006 728.121 310.784C727.621 311.562 726.756 312.706 726.198 313.325C725.64 313.944 724.546 314.932 723.766 315.521C722.987 316.109 720.992 317.381 719.334 318.347C717.676 319.313 715.331 320.562 714.123 321.122C712.916 321.683 711.209 322.367 710.329 322.643C709.45 322.919 707.725 323.376 706.495 323.659C704.422 324.134 703.767 324.182 697.543 324.307C691.954 324.419 690.65 324.393 689.766 324.155C689.032 323.956 688.465 323.599 687.925 322.994C687.495 322.513 686.812 321.52 686.407 320.787C686.002 320.054 685.577 319.454 685.464 319.454C685.35 319.454 684.599 319.82 683.794 320.267C682.989 320.714 681.59 321.537 680.686 322.096C679.041 323.112 679.041 323.112 674.793 321.715C672.456 320.946 669.456 319.897 668.127 319.382C666.797 318.867 664.608 317.923 663.261 317.283C661.914 316.643 659.765 315.417 658.486 314.557C657.206 313.697 655.594 312.46 654.904 311.808C654.213 311.155 653.324 310.23 652.929 309.751C652.534 309.273 651.314 307.45 650.219 305.701C649.123 303.952 647.897 301.799 647.493 300.918C646.876 299.569 646.74 298.867 646.634 296.493C646.556 294.733 646.675 292.354 646.951 290.169C647.195 288.243 647.818 283.077 648.337 278.689C648.856 274.301 649.777 266.114 650.383 260.496C650.99 254.877 651.856 246.515 652.309 241.914C652.762 237.312 653.503 229.3 653.955 224.11C654.407 218.919 655.024 211.258 655.326 207.084C655.628 202.91 655.998 196.387 656.148 192.588C656.298 188.788 656.422 182.791 656.422 179.259C656.422 175.727 656.302 168.854 656.155 163.984C656.007 159.115 655.758 152.504 655.602 149.294C655.445 146.083 655.133 140.392 654.908 136.646C654.682 132.9 654.251 126.552 653.95 122.539C653.649 118.526 653.095 111.74 652.72 107.459C652.344 103.178 651.664 96.042 651.209 91.6008C650.753 87.1595 650.011 80.3735 649.56 76.5208C649.109 72.6681 648.315 66.32 647.796 62.4138C647.277 58.5076 646.601 53.2761 646.295 50.7882C645.989 48.3005 645.738 45.8241 645.738 45.2853C645.738 44.5841 645.619 44.2731 645.318 44.191C645.086 44.128 643.794 44.2196 642.445 44.3947C641.097 44.5699 638.541 45.053 636.765 45.4684C634.989 45.884 632.853 46.2845 632.018 46.3586C631.054 46.444 629.375 46.3756 627.415 46.1707C625.717 45.9934 623.934 45.9062 623.453 45.9772C622.971 46.0483 621.413 46.4555 619.99 46.8824C618.567 47.3091 616.532 47.7748 615.467 47.9168C614.403 48.0589 611.939 48.219 609.992 48.2729C606.453 48.3706 606.453 48.3706 604.142 49.5859C602.87 50.2545 600.855 51.4981 599.664 52.3495C597.584 53.8361 597.473 53.8859 596.881 53.6073C596.541 53.4476 594.476 52.3404 592.292 51.1466C588.32 48.9761 588.32 48.9761 587.769 49.517C587.466 49.8146 586.151 50.9336 584.845 52.0038C583.54 53.074 581.919 54.3307 581.243 54.7966C580.013 55.6438 580.013 55.6438 578.968 55.3803C578.394 55.2355 577.268 54.6792 576.468 54.1441C575.667 53.6091 574.305 52.427 573.44 51.5173C572.36 50.3802 571.569 49.7607 570.909 49.5344C570.149 49.2738 567.955 49.1224 560.356 48.8068C550.763 48.4085 550.763 48.4085 550.149 48.9413C549.811 49.2345 548.393 50.675 546.997 52.1423C545.601 53.6098 544.389 54.8139 544.303 54.8178C544.218 54.8219 543.448 53.7964 542.592 52.5389C541.737 51.2815 540.869 49.9023 540.665 49.4742C540.374 48.8658 540.119 48.6691 539.498 48.5729C539.06 48.5054 534.015 48.441 528.287 48.4299C522.558 48.4188 516.093 48.4961 513.919 48.6014C511.746 48.7066 509.919 48.8276 509.859 48.8701C509.799 48.9127 509.565 49.6789 509.338 50.5728C509.112 51.4669 508.824 53.6869 508.699 55.5062C508.574 57.3255 508.315 59.1205 508.125 59.4951C507.935 59.8697 507.406 60.5701 506.949 61.0517C506.492 61.5333 504.446 63.1131 502.401 64.5623C500.357 66.0114 497.389 67.9463 495.806 68.8618C494.223 69.7773 491.509 71.2679 489.776 72.1743C488.042 73.0808 485.59 74.3353 484.327 74.962C482.557 75.8406 482.111 75.9951 482.382 75.6367C482.574 75.381 483.906 73.8117 485.341 72.1492C486.776 70.4869 488.656 68.0761 489.517 66.7918C490.379 65.5076 491.642 63.3624 492.325 62.0246C493.008 60.6869 493.873 58.8043 494.248 57.8412C494.623 56.878 495.123 55.477 495.358 54.7279C495.786 53.3658 495.786 53.3658 494.744 52.2956C494.171 51.707 493.175 50.5403 492.531 49.7031C491.887 48.8658 491.219 48.146 491.047 48.1036C490.876 48.0614 480.52 47.845 468.034 47.6232C451.745 47.3337 444.778 47.2751 443.365 47.4162C442.283 47.5244 440.78 47.7442 440.027 47.9046C439.273 48.0649 438.129 48.4393 437.484 48.7362C436.761 49.0689 436.116 49.5756 435.803 50.0562C435.524 50.4853 434.954 52.0184 434.538 53.4631C434.121 54.9079 433.697 56.1577 433.594 56.2404C433.492 56.3231 432.715 54.7907 431.868 52.8352C431.021 50.8797 430.061 48.6229 429.733 47.8203C429.406 47.0177 428.847 45.9537 428.493 45.456C428.138 44.958 427.519 44.3673 427.117 44.1431C426.716 43.919 425.941 43.6505 425.395 43.5468C424.849 43.443 420.703 42.9568 416.18 42.4664C407.957 41.5747 407.957 41.5747 406.521 42.7031C405.731 43.3236 404.547 44.4006 403.89 45.0962C403.233 45.7918 402.09 47.17 401.352 48.1589C400.613 49.1477 399.946 49.9568 399.871 49.957C399.796 49.957 399.315 49.1479 398.803 48.1589C398.291 47.17 397.347 45.5729 396.706 44.6097C396.065 43.6466 395.02 42.439 394.383 41.9261C393.747 41.4134 392.779 40.8322 392.231 40.6345C391.685 40.437 390.744 40.1685 390.141 40.0379C389.473 39.8935 385.938 39.741 381.095 39.648C374.148 39.5145 372.715 39.4318 369.72 38.9924C367.836 38.7159 365.702 38.4875 364.978 38.485C364.255 38.4826 363.326 38.604 362.915 38.755C362.503 38.906 361.137 39.8291 359.879 40.8063C358.621 41.7835 357.469 42.554 357.319 42.5184C357.169 42.4828 356.321 41.6342 355.434 40.6323C354.548 39.6306 353.435 38.0868 352.961 37.2019C352.33 36.0214 351.946 35.5633 351.522 35.4826C351.204 35.4221 350.008 35.3713 348.864 35.3699C347.72 35.3684 344.821 35.2345 342.423 35.0722C340.024 34.9097 336.108 34.5611 333.719 34.2968C331.331 34.0328 327.423 33.507 325.035 33.1284C322.647 32.7499 318.622 32.0097 316.09 31.4836C313.557 30.9574 311.448 30.5539 311.401 30.5868C311.355 30.6197 309.939 36.2181 308.255 43.0278C306.571 49.8373 305.122 55.4089 305.034 55.4089C304.947 55.4089 304.224 53.7673 303.427 51.7605C302.631 49.754 300.291 43.6903 298.227 38.2859C294.475 28.4596 294.475 28.4596 288.721 28.3316C285.557 28.2613 281.439 28.0617 279.571 27.8881C277.702 27.7148 274.002 27.224 271.348 26.7977C268.693 26.3716 265.254 25.9215 263.706 25.7978C261.53 25.624 260.478 25.6265 259.081 25.8092C258.086 25.9394 256.532 26.3113 255.627 26.6356C254.722 26.96 253.393 27.6157 252.675 28.0926C251.953 28.5717 251.124 29.371 250.823 29.8773C250.452 30.5012 250.129 31.8531 249.816 34.1024C249.562 35.9218 249.292 37.5416 249.216 37.7022C249.14 37.8627 248.166 36.208 247.052 34.0248C245.939 31.8418 244.587 29.3979 244.049 28.5939C243.511 27.7899 242.522 26.586 241.851 25.9184C241.18 25.2508 240.146 24.4318 239.553 24.0981C238.959 23.7646 237.816 23.2782 237.011 23.017C236.207 22.7561 234.483 22.4109 233.181 22.2502C231.879 22.0895 229.228 21.871 227.288 21.7647C225.349 21.6585 222.22 21.5184 220.336 21.4532C216.91 21.3349 216.91 21.3349 215.539 21.9752C214.786 22.3276 213.014 23.4054 211.603 24.3703C209.037 26.1247 209.037 26.1247 207.949 25.2491C207.351 24.7675 206.385 23.9343 205.803 23.3978C205.221 22.8612 204.381 21.8542 203.937 21.1602C203.494 20.4659 203.059 19.745 202.971 19.5576C202.881 19.3661 202.537 19.2171 202.185 19.2171C201.842 19.2171 199.155 19.0842 196.215 18.9217C193.276 18.7594 189.76 18.5359 188.403 18.4251C187.047 18.3144 184.518 18.092 182.784 17.9309C181.051 17.7696 177.412 17.3752 174.699 17.0541C171.985 16.7331 167.749 16.1692 165.286 15.8006C162.822 15.4323 160.654 15.1309 160.468 15.1309C160.282 15.1309 158.86 16.5097 157.31 18.1948C154.491 21.2588 154.491 21.2588 153.152 20.2252C152.416 19.6566 151.487 18.796 151.088 18.3127C150.689 17.8293 149.971 16.6313 149.493 15.65C148.623 13.8661 148.623 13.8661 145.626 13.6118C143.977 13.4717 139.61 13.0563 135.92 12.6883C129.211 12.0194 129.211 12.0194 127.604 13.1372C126.72 13.7523 125.495 14.7807 124.882 15.4228C124.269 16.0649 123.729 16.6245 123.681 16.6661C123.633 16.708 122.898 16.4019 122.047 15.9861C121.197 15.5703 119.806 14.7009 118.956 14.0541C118.107 13.4075 117.168 12.5533 116.87 12.1562C116.328 11.4339 116.328 11.4339 112.559 11.4339C108.948 11.4339 108.774 11.4522 108.402 11.8717C108.188 12.1124 107.609 13.0758 107.115 14.0121C106.621 14.9486 106.083 15.7137 105.921 15.7125C105.758 15.7115 104.885 15.3177 103.981 14.8375C103.076 14.3573 101.746 13.4606 101.025 12.845C100.304 12.2295 99.2658 11.2662 98.7182 10.7042C97.7226 9.68267 97.7226 9.68267 86.0504 9.71672C79.6307 9.7354 73.8231 9.77763 73.1447 9.81071ZM715.078 256.048C714.253 256.831 713.17 257.665 712.671 257.901C712.173 258.138 709.722 258.906 707.224 259.608C702.774 260.859 702.63 260.885 700.127 260.885C698.721 260.885 696.115 261.02 694.336 261.184C692.557 261.348 690.094 261.651 688.863 261.857C687.631 262.064 685.843 262.418 684.888 262.646C683.934 262.873 682.259 263.322 681.166 263.644C679.178 264.229 679.178 264.229 679.178 272.092C679.178 279.955 679.178 279.955 681.257 278.719C682.4 278.039 684.281 277.125 685.437 276.688C686.593 276.251 688.648 275.661 690.005 275.378C691.841 274.994 693.209 274.849 695.35 274.809C698.228 274.756 698.228 274.756 700.85 272.928C702.292 271.923 704.821 269.921 706.469 268.478C709.466 265.856 709.466 265.856 709.641 268.381C709.737 269.77 709.829 271.921 709.846 273.162C709.877 275.417 709.877 275.417 712.565 275.917C714.043 276.192 716.261 276.694 717.495 277.031C718.729 277.369 720.458 277.987 721.338 278.404C722.218 278.821 723.996 279.941 725.288 280.893C726.581 281.845 728.237 283.263 728.968 284.044C729.699 284.825 730.323 285.34 730.353 285.19C730.384 285.039 730.612 280.809 730.86 275.789C731.237 268.148 731.25 266.636 730.941 266.503C730.738 266.416 727.737 265.007 724.271 263.372C717.971 260.399 717.971 260.399 717.64 259.329C717.458 258.74 717.145 257.441 716.943 256.442C716.578 254.626 716.578 254.626 715.078 256.048ZM662.464 266.458C662.467 267.834 662.584 269.521 662.723 270.207C662.977 271.454 662.977 271.454 661.537 272.639C660.745 273.291 659.703 274.188 659.22 274.633C658.738 275.077 657.665 276.255 656.836 277.251C656.007 278.247 654.845 279.941 654.253 281.016C653.661 282.091 652.93 283.846 652.627 284.916C652.325 285.986 651.921 287.912 651.729 289.197C651.537 290.481 651.375 293.195 651.369 295.228C651.358 298.597 651.413 299.034 651.98 300.148C652.323 300.821 653.407 302.66 654.391 304.235C655.374 305.809 656.69 307.711 657.315 308.46C657.968 309.243 659.507 310.574 660.934 311.59C662.426 312.652 664.561 313.895 666.282 314.703C667.857 315.443 671.177 316.767 673.66 317.646C678.174 319.243 678.174 319.243 679.841 318.283C680.758 317.755 682.842 316.652 684.473 315.833C686.105 315.012 687.535 314.419 687.655 314.514C687.774 314.609 688.716 316.119 689.746 317.869C691.62 321.051 691.62 321.051 697.665 320.968C703.031 320.894 703.907 320.836 705.459 320.451C706.421 320.212 708.148 319.68 709.297 319.27C710.445 318.859 712.187 318.105 713.167 317.593C714.147 317.082 715.942 316.075 717.157 315.356C718.372 314.637 719.948 313.589 720.66 313.026C721.372 312.464 722.376 311.469 722.89 310.816C723.405 310.162 724.497 308.402 725.317 306.903C726.137 305.405 727.246 303.212 727.782 302.031C728.318 300.849 729.011 298.997 729.322 297.914C729.632 296.831 729.887 295.253 729.887 294.406C729.887 293.557 729.689 292.393 729.445 291.81C729.202 291.229 728.57 290.141 728.041 289.391C727.513 288.642 726.4 287.285 725.57 286.375C724.74 285.465 722.922 283.911 721.531 282.921C719.477 281.461 718.609 280.993 716.924 280.44C715.782 280.066 714.728 279.759 714.583 279.759C714.435 279.759 714.249 280.893 714.16 282.338C714.072 283.755 713.931 288.199 713.847 292.212C713.763 296.226 713.561 299.991 713.398 300.579C713.235 301.168 712.801 302.073 712.432 302.591C712.063 303.109 711.276 303.907 710.683 304.364C710.09 304.821 708.885 305.467 708.006 305.8C707.126 306.132 705.682 306.539 704.795 306.703C703.909 306.866 702.254 307 701.117 306.998C699.981 306.997 698.388 306.871 697.578 306.718C696.767 306.564 695.8 306.237 695.428 305.99C695.056 305.743 694.623 305.372 694.466 305.164C694.309 304.957 694.104 304.155 694.011 303.382C693.843 301.977 693.843 301.977 690.715 303.842C687.587 305.708 687.587 305.708 685.818 305.056C684.844 304.698 683.382 304.02 682.567 303.548C681.752 303.077 680.465 302.11 679.706 301.398C678.947 300.686 677.973 299.576 677.541 298.931C677.109 298.286 676.499 297.189 676.185 296.493C675.87 295.798 675.409 294.572 675.16 293.769C674.774 292.526 674.683 290.371 674.544 279.205C674.382 266.101 674.382 266.101 672.328 267.169C670.274 268.237 670.274 268.237 668.442 267.01C667.435 266.336 665.864 265.424 664.951 264.984C664.038 264.544 663.104 264.133 662.875 264.07C662.515 263.972 662.459 264.299 662.464 266.458ZM50.0603 274.511C49.8443 274.883 49.0692 276.444 48.3376 277.98C47.606 279.516 46.5669 281.392 46.0283 282.148C45.49 282.904 44.8645 283.586 44.6383 283.664C44.4122 283.741 42.5927 284.226 40.5954 284.741C36.9636 285.677 36.9636 285.677 36.9636 293.906C36.9636 298.433 37.0606 302.136 37.1796 302.136C37.2982 302.136 37.9632 301.72 38.6575 301.212C39.3518 300.704 40.119 300.006 40.3624 299.662C40.6061 299.318 41.9111 296.569 43.2626 293.554C44.614 290.539 45.7567 288.046 45.8016 288.014C45.8466 287.982 47.6025 289.302 49.7034 290.947C53.5236 293.937 53.5236 293.937 54.6315 293.451C55.2408 293.184 56.2821 292.793 56.9454 292.583C57.6085 292.373 58.6569 292.118 59.2753 292.017C59.8933 291.916 60.9462 291.831 61.615 291.828C62.2838 291.825 63.7499 292.006 64.8729 292.23C66.8429 292.622 66.9525 292.625 67.9763 292.297C68.6215 292.09 70.1268 291.126 71.8191 289.834C73.3492 288.666 75.2736 287.405 76.0956 287.031C76.9177 286.658 77.6224 286.38 77.6616 286.413C77.7008 286.446 78.383 287.217 79.1776 288.126C79.9722 289.036 81.1092 290.218 81.7043 290.753C82.2993 291.288 83.2017 291.97 83.7096 292.268C84.2175 292.567 85.1626 292.974 85.81 293.175C86.4571 293.375 88.3435 293.726 90.0018 293.955C91.6601 294.184 93.757 294.617 94.6615 294.916C95.566 295.216 96.8611 295.791 97.5395 296.194C98.2179 296.597 99.68 297.638 100.788 298.506C101.897 299.374 103.87 300.687 105.174 301.423C106.478 302.159 108.142 303.168 108.872 303.665C109.603 304.162 110.822 305.216 111.581 306.008C112.34 306.8 113.381 308.07 113.894 308.83C114.826 310.211 114.826 310.211 114.682 306.709C114.603 304.782 114.474 300.404 114.397 296.98C114.319 293.555 114.181 289.161 114.091 287.214C113.927 283.674 113.927 283.674 112.654 283.481C111.954 283.375 107.99 282.879 103.844 282.378C97.9134 281.663 95.4002 281.448 92.0575 281.372C88.7563 281.297 86.6172 281.371 82.4641 281.706C79.5243 281.943 75.3923 282.14 73.2817 282.144C70.2115 282.15 68.6522 282.045 65.4828 281.618C63.3037 281.324 60.7135 281.077 59.7267 281.068C58.7397 281.059 57.2746 281.166 56.4709 281.305C55.647 281.447 54.911 281.483 54.7833 281.388C54.6586 281.295 54.2168 280.65 53.8012 279.954C53.3857 279.258 52.4622 277.597 51.7493 276.262C50.4531 273.835 50.4531 273.835 50.0603 274.511ZM703.025 276.099C701.894 276.844 700.591 277.663 700.13 277.92C699.337 278.362 699.195 278.376 697.526 278.184C696.555 278.073 695.237 278.036 694.596 278.104C693.432 278.227 693.432 278.227 693.432 279.351C693.432 279.97 693.512 281.66 693.609 283.107C693.787 285.738 693.787 285.738 696.282 285.846C697.83 285.914 699.608 286.145 700.969 286.455C702.175 286.73 703.798 287.216 704.576 287.534C705.353 287.853 706.724 288.596 707.621 289.186C709.253 290.258 709.253 290.258 709.391 284.571C709.491 280.498 709.444 278.844 709.224 278.744C709.056 278.668 708.02 278.502 706.923 278.376C705.826 278.251 704.866 278.076 704.789 277.988C704.713 277.9 704.789 277.263 704.958 276.572C705.128 275.881 705.225 275.187 705.174 275.03C705.112 274.841 704.395 275.197 703.025 276.099ZM686.86 279.902C685.884 280.305 684.269 281.209 683.271 281.911C682.114 282.725 681.142 283.642 680.588 284.441C680.109 285.131 679.585 286.264 679.422 286.959C679.251 287.693 679.201 289.04 679.304 290.169C679.402 291.24 679.67 292.772 679.9 293.575C680.131 294.377 680.634 295.603 681.019 296.299C681.404 296.994 682.273 298.161 682.951 298.892C683.628 299.623 684.798 300.566 685.551 300.988C686.711 301.64 686.986 301.718 687.364 301.508C687.609 301.372 690.379 299.742 693.519 297.886C696.659 296.03 699.271 294.542 699.322 294.578C699.374 294.615 699.244 295.739 699.034 297.077C698.823 298.415 698.648 300.397 698.645 301.483C698.641 303.106 698.716 303.477 699.073 303.575C699.311 303.64 700.214 303.693 701.079 303.693C701.944 303.693 703.27 303.562 704.027 303.403C704.783 303.243 705.912 302.85 706.536 302.53C707.159 302.209 707.93 301.584 708.249 301.141C708.567 300.698 708.896 299.868 708.979 299.296C709.062 298.725 708.979 297.707 708.795 297.035C708.611 296.362 708.081 295.243 707.617 294.547C707.06 293.712 706.161 292.848 704.968 292.001C703.766 291.148 702.566 290.52 701.38 290.124C700.4 289.797 698.945 289.433 698.146 289.314C697.347 289.196 696.052 289.1 695.268 289.101C694.484 289.101 692.817 289.276 691.564 289.49C690.311 289.703 689.232 289.878 689.166 289.878C689.1 289.878 689.032 288.586 689.015 287.007C688.997 285.429 688.905 283.019 688.809 281.653C688.635 279.169 688.635 279.169 686.86 279.902ZM29.9006 288.268C28.6542 288.779 26.4957 289.762 25.1038 290.454C23.712 291.146 21.0255 292.809 19.134 294.151C16.8044 295.803 15.1039 297.222 13.8647 298.547C12.8582 299.623 11.5472 301.243 10.9513 302.147C10.3554 303.051 9.55912 304.447 9.18196 305.249C8.80452 306.052 8.27469 307.453 8.00442 308.363C7.65111 309.552 7.51461 310.864 7.51899 313.033C7.52338 315.457 7.63987 316.376 8.11269 317.721C8.43613 318.64 9.30804 320.479 10.0506 321.807C10.7928 323.135 11.7996 325.14 12.2878 326.264C12.7757 327.387 13.425 328.657 13.7306 329.085C14.0363 329.513 14.6705 330.214 15.1403 330.642C15.6099 331.07 18.338 333.435 21.2023 335.897C24.0669 338.36 26.8825 340.832 27.4592 341.392C28.0359 341.951 28.8236 342.585 29.2093 342.801C29.755 343.105 30.3219 343.192 31.759 343.192C32.9817 343.192 34.8629 342.962 37.3174 342.511C39.3584 342.137 41.0871 341.83 41.1595 341.83C41.2318 341.83 41.3714 342.64 41.4698 343.63C41.5682 344.62 41.8434 346.437 42.0818 347.668C42.32 348.898 42.5944 350.058 42.6911 350.245C42.8526 350.555 42.9839 350.54 44.2327 350.071C44.9834 349.789 46.0911 349.317 46.6941 349.023C47.2971 348.729 48.7764 347.869 49.9816 347.113C51.7616 345.997 52.2035 345.801 52.3362 346.071C52.4258 346.254 52.9186 347.752 53.4312 349.402C54.3631 352.4 54.3631 352.4 55.7739 352.843C56.5502 353.087 57.9264 353.395 58.8323 353.528C60.4794 353.769 60.4799 353.769 63.4544 352.908C66.4292 352.046 66.4292 352.046 71.5001 352.03C74.289 352.021 76.8793 351.947 77.2562 351.865C77.6331 351.783 79.0112 351.371 80.319 350.949C81.6267 350.527 83.6002 350.052 84.7046 349.893C85.8089 349.734 87.0725 349.501 87.5121 349.377C87.9518 349.252 89.4731 348.465 90.8926 347.627C92.3122 346.79 93.8334 345.972 94.2731 345.811C94.7127 345.649 95.0726 345.482 95.0726 345.438C95.0726 345.394 94.8816 344.718 94.648 343.935C94.4145 343.152 94.0535 341.636 93.846 340.566C93.6385 339.495 93.3847 336.912 93.2817 334.825C93.1616 332.387 93.1893 331.101 93.359 331.226C93.5045 331.333 94.7503 332.613 96.1274 334.07C97.7835 335.823 99.6665 337.49 101.69 338.995C104.749 341.268 104.749 341.268 105.839 340.528C106.439 340.121 107.631 339.123 108.488 338.311C109.345 337.5 110.629 336.034 111.341 335.055C112.053 334.076 112.936 332.71 113.302 332.019C113.669 331.328 114.228 329.86 114.545 328.757C114.956 327.326 115.118 326.052 115.109 324.318C115.103 322.96 114.908 321.177 114.668 320.28C114.432 319.397 113.759 317.688 113.173 316.481C112.586 315.274 111.495 313.261 110.746 312.007C109.998 310.754 108.81 309.073 108.108 308.273C107.384 307.448 106.094 306.355 105.132 305.748C104.197 305.16 102.538 304.159 101.445 303.524C100.351 302.889 98.6121 301.71 97.5798 300.903C96.5473 300.096 95.3144 299.204 94.8394 298.92C93.9762 298.404 93.9762 298.404 93.976 299.054C93.976 299.411 93.4848 305.308 92.8845 312.157C92.2839 319.006 91.6511 325.179 91.4778 325.875C91.3046 326.57 90.814 327.825 90.3875 328.664C89.961 329.502 89.1694 330.75 88.628 331.437C88.0867 332.125 86.9212 333.321 86.0383 334.097C85.1554 334.872 83.2387 336.286 81.7788 337.239C79.1247 338.972 79.1247 338.972 79.3226 336.136C79.5112 333.435 79.492 333.267 78.9257 332.616C78.5083 332.137 77.9453 331.832 77.0396 331.596C76.3297 331.411 75.3479 331.147 74.8578 331.01C74.3677 330.872 73.967 330.807 73.967 330.865C73.967 330.923 74.1956 331.204 74.4752 331.488C74.7547 331.772 75.0653 332.244 75.1651 332.538C75.2742 332.857 75.1801 333.354 74.9307 333.778C74.7018 334.167 73.9774 335.021 73.3207 335.677C72.6639 336.332 71.9326 337.137 71.6955 337.465C71.4587 337.792 71.1775 338.609 71.0706 339.28C70.8998 340.351 70.791 340.521 70.1691 340.689C69.7801 340.794 67.8543 340.882 65.8898 340.885C63.9251 340.888 61.4977 340.795 60.4955 340.679C59.4932 340.562 57.5937 340.245 56.2741 339.974C54.9549 339.702 52.9617 339.18 51.845 338.814C50.7283 338.448 48.9809 337.755 47.9621 337.274C46.9433 336.793 45.3159 335.848 44.3462 335.174C43.3761 334.5 41.9837 333.381 41.2516 332.687C40.5195 331.992 38.9269 330.241 37.7127 328.795C36.4984 327.35 34.9695 325.442 34.3155 324.557C33.5697 323.547 33.1262 322.692 33.1262 322.264C33.1262 321.889 33.2997 321.287 33.5121 320.926C33.7243 320.565 34.4024 319.933 35.0191 319.522C35.6358 319.11 36.1404 318.702 36.1407 318.615C36.141 318.528 35.5276 317.997 34.7771 317.434C34.0269 316.87 33.1944 316.066 32.9269 315.645C32.4807 314.944 32.4297 313.751 32.3039 301.11C32.1668 287.339 32.1668 287.339 29.9006 288.268ZM73.8299 293.069C72.2802 294.203 70.9001 295.024 70.1178 295.277C69.4331 295.498 68.3112 295.739 67.6246 295.812C66.7184 295.908 65.7599 295.827 64.1265 295.514C62.6941 295.239 61.4771 295.121 60.7776 295.187C60.1729 295.245 59.0387 295.523 58.257 295.806C57.4752 296.089 56.6302 296.429 56.3791 296.562C55.9803 296.774 55.8649 297.798 55.4655 304.675C55.2142 309.004 55.0497 312.832 55.0999 313.182C55.1912 313.818 55.1912 313.818 56.6869 313.101C57.5098 312.707 59.1615 312.083 60.3574 311.715C61.5536 311.347 63.9569 310.791 65.698 310.478C67.5377 310.149 70.023 309.861 71.6319 309.791C73.3152 309.718 75.1481 309.76 76.3078 309.9C77.357 310.026 78.9792 310.306 79.9122 310.522C80.8455 310.739 82.3352 311.249 83.2228 311.656C84.1103 312.064 85.5362 312.906 86.3914 313.527C87.2463 314.149 87.9532 314.577 87.9622 314.478C87.971 314.378 88.3194 310.488 88.7366 305.833C89.1537 301.178 89.4665 297.34 89.4314 297.306C89.3963 297.271 88.4619 297.115 87.3548 296.958C86.2477 296.801 84.4754 296.375 83.416 296.01C82.0003 295.523 80.9823 294.971 79.5756 293.926C78.5228 293.144 77.3543 292.225 76.9791 291.884C76.2968 291.264 76.2968 291.264 73.8299 293.069ZM46.4244 297.369C45.7326 298.921 44.9201 300.599 44.6186 301.098C44.285 301.651 43.1779 302.658 41.7855 303.676C40.5285 304.595 39.3562 305.544 39.1802 305.786C39.0042 306.028 38.7427 307.177 38.5991 308.34C38.4555 309.502 38.1011 311.012 37.8116 311.694C37.5222 312.377 37.2059 313.211 37.1088 313.548C36.9512 314.095 37.0998 314.293 38.4933 315.396C39.3518 316.076 40.2221 316.914 40.4276 317.258C40.6329 317.603 40.801 318.242 40.801 318.679C40.801 319.116 40.6055 319.741 40.3665 320.069C40.1278 320.397 39.457 321.031 38.8762 321.479C37.8204 322.292 37.8204 322.292 40.5724 325.689C42.0859 327.557 44.014 329.74 44.8565 330.54C45.6994 331.34 46.9419 332.376 47.6181 332.842C48.294 333.309 49.5812 334.044 50.478 334.477C51.3752 334.909 52.9915 335.552 54.0696 335.906C55.1476 336.259 57.0128 336.738 58.2145 336.969C59.5573 337.227 61.6194 337.43 63.5657 337.494C66.7324 337.6 66.7324 337.6 67.0679 336.805C67.2526 336.367 68.0388 335.335 68.8153 334.511C70.2272 333.013 70.2272 333.013 69.7176 332.411C69.4375 332.08 68.7426 331.192 68.1739 330.438C67.6051 329.684 66.5866 328.13 65.9107 326.984C65.2347 325.839 64.7301 324.902 64.7893 324.902C64.8485 324.902 68.2254 325.772 72.2933 326.837C76.361 327.901 80.0523 328.904 80.4958 329.067C80.9395 329.23 81.6228 329.634 82.0148 329.964C82.4065 330.295 82.8459 330.714 82.9909 330.896C83.234 331.2 83.2886 331.195 83.686 330.837C83.9231 330.623 84.6034 329.747 85.1979 328.891C85.7924 328.035 86.467 326.765 86.6973 326.069C86.9272 325.374 87.1174 324.101 87.1196 323.24C87.1218 322.38 86.9352 321.162 86.7049 320.534C86.4744 319.906 85.8522 318.806 85.3221 318.09C84.792 317.374 83.6712 316.301 82.8316 315.704C81.9833 315.102 80.5572 314.36 79.623 314.034C78.6982 313.712 77.0851 313.342 76.0386 313.214C74.9072 313.075 73.1833 313.027 71.7868 313.098C70.4947 313.163 68.2674 313.428 66.8371 313.686C65.4066 313.944 63.4624 314.379 62.5162 314.652C61.57 314.926 59.9293 315.559 58.8704 316.058C57.7735 316.576 56.489 317.398 55.886 317.967C55.3038 318.517 54.1433 320.062 53.3073 321.399C51.8515 323.729 51.7545 323.829 51.0221 323.776C50.6017 323.746 50.1329 323.691 49.9811 323.654C49.7985 323.611 49.9616 319.086 50.4616 310.319C51.2184 297.05 51.2184 297.05 49.6612 295.799C48.8049 295.111 48.0092 294.547 47.8933 294.547C47.7773 294.547 47.1162 295.817 46.4244 297.369Z" fill="#DA9B3C"/>
</svg>
