<svg width="96" height="28" viewBox="0 0 96 28" fill="none" xmlns="http://www.w3.org/2000/svg">
<path d="M38.8137 25.248C38.2977 25.248 37.7877 25.176 37.2837 25.032C36.7797 24.888 36.3177 24.648 35.8977 24.312C35.4897 23.988 35.1477 23.562 34.8717 23.034C34.6077 22.506 34.4457 21.864 34.3857 21.108C33.3057 20.952 32.4057 20.586 31.6857 20.01C30.9777 19.434 30.4437 18.678 30.0837 17.742C29.7237 16.806 29.5437 15.738 29.5437 14.538C29.5437 13.206 29.7597 12.048 30.1917 11.064C30.6357 10.08 31.2957 9.318 32.1717 8.778C33.0597 8.226 34.1697 7.95 35.5017 7.95C36.7737 7.95 37.8477 8.226 38.7237 8.778C39.5997 9.318 40.2657 10.086 40.7217 11.082C41.1777 12.066 41.4057 13.224 41.4057 14.556C41.4057 15.696 41.2377 16.716 40.9017 17.616C40.5657 18.504 40.0677 19.242 39.4077 19.83C38.7597 20.418 37.9617 20.82 37.0137 21.036C37.0617 21.672 37.1637 22.2 37.3197 22.62C37.4757 23.04 37.6677 23.37 37.8957 23.61C38.1357 23.862 38.3997 24.036 38.6877 24.132C38.9877 24.228 39.2997 24.276 39.6237 24.276H39.9117V25.248H38.8137ZM35.4837 20.082C36.0957 20.082 36.6057 19.962 37.0137 19.722C37.4337 19.47 37.7697 19.11 38.0217 18.642C38.2857 18.162 38.4777 17.58 38.5977 16.896C38.7177 16.212 38.7777 15.432 38.7777 14.556C38.7777 13.68 38.7177 12.906 38.5977 12.234C38.4777 11.55 38.2917 10.974 38.0397 10.506C37.7877 10.026 37.4517 9.666 37.0317 9.426C36.6237 9.174 36.1137 9.048 35.5017 9.048C34.9017 9.048 34.3857 9.174 33.9537 9.426C33.5337 9.666 33.1917 10.026 32.9277 10.506C32.6757 10.974 32.4897 11.55 32.3697 12.234C32.2497 12.906 32.1897 13.68 32.1897 14.556C32.1897 15.432 32.2497 16.212 32.3697 16.896C32.4897 17.58 32.6757 18.162 32.9277 18.642C33.1917 19.11 33.5337 19.47 33.9537 19.722C34.3857 19.962 34.8957 20.082 35.4837 20.082ZM47.1573 21.18C46.2093 21.18 45.4833 20.898 44.9793 20.334C44.4753 19.758 44.2233 18.858 44.2233 17.634V13.494C44.2233 13.134 44.1693 12.864 44.0613 12.684C43.9533 12.504 43.7973 12.384 43.5933 12.324C43.4013 12.264 43.1673 12.234 42.8913 12.234H42.8553V11.352H46.5633V17.274C46.5633 17.802 46.6053 18.252 46.6893 18.624C46.7853 18.996 46.9473 19.284 47.1753 19.488C47.4033 19.692 47.7153 19.794 48.1113 19.794C48.5553 19.794 48.9153 19.68 49.1913 19.452C49.4673 19.212 49.6713 18.882 49.8033 18.462C49.9353 18.042 50.0013 17.55 50.0013 16.986V13.44C50.0013 13.08 49.9353 12.816 49.8033 12.648C49.6833 12.48 49.5213 12.372 49.3173 12.324C49.1133 12.264 48.8853 12.234 48.6333 12.234H48.5793V11.352H52.3413V18.966C52.3413 19.314 52.3953 19.572 52.5033 19.74C52.6233 19.896 52.7853 19.998 52.9893 20.046C53.1933 20.094 53.4153 20.118 53.6553 20.118H53.7633V21H50.4513L50.1093 19.65H50.0193C49.8393 19.974 49.6413 20.238 49.4253 20.442C49.2093 20.634 48.9813 20.784 48.7413 20.892C48.5013 21 48.2493 21.072 47.9853 21.108C47.7213 21.156 47.4453 21.18 47.1573 21.18ZM59.5642 21.18C58.1842 21.18 57.0922 20.766 56.2882 19.938C55.4962 19.11 55.1002 17.844 55.1002 16.14C55.1002 14.46 55.4782 13.206 56.2342 12.378C57.0022 11.55 58.1302 11.136 59.6182 11.136C61.0102 11.136 62.1022 11.55 62.8942 12.378C63.6862 13.206 64.0822 14.46 64.0822 16.14C64.0822 17.844 63.6982 19.11 62.9302 19.938C62.1742 20.766 61.0522 21.18 59.5642 21.18ZM59.6002 20.118C60.1162 20.118 60.5242 19.974 60.8242 19.686C61.1362 19.386 61.3582 18.936 61.4902 18.336C61.6222 17.736 61.6882 17.004 61.6882 16.14C61.6882 15.264 61.6162 14.538 61.4722 13.962C61.3402 13.386 61.1182 12.954 60.8062 12.666C60.5062 12.366 60.0982 12.216 59.5822 12.216C59.0782 12.216 58.6702 12.366 58.3582 12.666C58.0462 12.954 57.8242 13.386 57.6922 13.962C57.5602 14.538 57.4942 15.264 57.4942 16.14C57.4942 17.016 57.5602 17.748 57.6922 18.336C57.8362 18.924 58.0582 19.368 58.3582 19.668C58.6702 19.968 59.0842 20.118 59.6002 20.118ZM69.3316 21.18C68.4796 21.18 67.8256 20.97 67.3696 20.55C66.9256 20.13 66.7036 19.398 66.7036 18.354V12.504H65.3356V11.658C65.6596 11.658 65.9656 11.592 66.2536 11.46C66.5416 11.328 66.7816 11.166 66.9736 10.974C67.1536 10.77 67.3156 10.518 67.4596 10.218C67.6036 9.918 67.7176 9.552 67.8016 9.12H69.0436V11.352H71.3656V12.504H69.0436V18.264C69.0436 18.828 69.1456 19.248 69.3496 19.524C69.5656 19.788 69.8776 19.92 70.2856 19.92C70.5256 19.92 70.7416 19.908 70.9336 19.884C71.1376 19.848 71.3356 19.806 71.5276 19.758V20.784C71.3476 20.868 71.0596 20.952 70.6636 21.036C70.2796 21.132 69.8356 21.18 69.3316 21.18ZM77.2834 21.18C75.8434 21.18 74.7334 20.748 73.9534 19.884C73.1854 19.008 72.8014 17.79 72.8014 16.23C72.8014 14.55 73.1734 13.284 73.9174 12.432C74.6734 11.568 75.7294 11.136 77.0854 11.136C78.3454 11.136 79.3294 11.502 80.0374 12.234C80.7574 12.954 81.1174 14.028 81.1174 15.456V16.338H75.1774C75.2014 17.178 75.3094 17.862 75.5014 18.39C75.7054 18.906 75.9874 19.29 76.3474 19.542C76.7194 19.794 77.1694 19.92 77.6974 19.92C78.1174 19.92 78.4894 19.86 78.8134 19.74C79.1494 19.608 79.4374 19.44 79.6774 19.236C79.9174 19.02 80.1094 18.786 80.2534 18.534C80.3854 18.594 80.4874 18.696 80.5594 18.84C80.6434 18.972 80.6854 19.128 80.6854 19.308C80.6854 19.608 80.5594 19.902 80.3074 20.19C80.0674 20.478 79.6954 20.718 79.1914 20.91C78.6994 21.09 78.0634 21.18 77.2834 21.18ZM78.7234 15.258C78.7234 14.646 78.6694 14.112 78.5614 13.656C78.4534 13.2 78.2794 12.852 78.0394 12.612C77.8114 12.36 77.4994 12.234 77.1034 12.234C76.7194 12.234 76.3894 12.348 76.1134 12.576C75.8494 12.804 75.6394 13.146 75.4834 13.602C75.3394 14.046 75.2494 14.598 75.2134 15.258H78.7234ZM85.9349 21.18C85.1669 21.18 84.5309 21.096 84.0269 20.928C83.5349 20.76 83.1689 20.526 82.9289 20.226C82.6889 19.914 82.5689 19.554 82.5689 19.146C82.5689 18.774 82.6529 18.498 82.8209 18.318C82.9889 18.126 83.1869 18 83.4149 17.94C83.6429 17.868 83.8469 17.832 84.0269 17.832C84.0269 18.3 84.0989 18.714 84.2429 19.074C84.3989 19.422 84.6209 19.698 84.9089 19.902C85.1969 20.094 85.5509 20.19 85.9709 20.19C86.6069 20.19 87.0749 20.058 87.3749 19.794C87.6749 19.53 87.8249 19.2 87.8249 18.804C87.8249 18.528 87.7589 18.294 87.6269 18.102C87.5069 17.91 87.2849 17.724 86.9609 17.544C86.6369 17.364 86.1869 17.166 85.6109 16.95C84.9869 16.71 84.4589 16.458 84.0269 16.194C83.5949 15.918 83.2709 15.6 83.0549 15.24C82.8389 14.88 82.7309 14.43 82.7309 13.89C82.7309 12.99 83.0669 12.312 83.7389 11.856C84.4109 11.388 85.2989 11.154 86.4029 11.154C87.0989 11.154 87.6629 11.232 88.0949 11.388C88.5269 11.544 88.8449 11.754 89.0489 12.018C89.2529 12.27 89.3549 12.54 89.3549 12.828C89.3549 13.2 89.2229 13.488 88.9589 13.692C88.7069 13.896 88.2989 13.998 87.7349 13.998C87.7349 13.398 87.6029 12.936 87.3389 12.612C87.0749 12.276 86.6789 12.108 86.1509 12.108C85.8509 12.108 85.5809 12.156 85.3409 12.252C85.1129 12.348 84.9329 12.492 84.8009 12.684C84.6689 12.864 84.6029 13.086 84.6029 13.35C84.6029 13.614 84.6749 13.848 84.8189 14.052C84.9629 14.244 85.2089 14.43 85.5569 14.61C85.9049 14.79 86.3789 14.988 86.9789 15.204C87.5549 15.42 88.0409 15.66 88.4369 15.924C88.8449 16.176 89.1569 16.482 89.3729 16.842C89.5889 17.202 89.6969 17.634 89.6969 18.138C89.6969 19.11 89.3609 19.86 88.6889 20.388C88.0289 20.916 87.1109 21.18 85.9349 21.18Z" fill="#F2EDE7"/>
<path d="M3.49676 6.85C2.02579 6.85 0.85 8.13177 0.85 9.68726C0.85 9.95122 1.05156 10.1841 1.32242 10.1841H5.19867V23.3127C5.19867 24.8682 6.37419 26.15 7.84518 26.15H20.5035C21.9745 26.15 23.15 24.8682 23.15 23.3127C23.15 23.0489 22.9488 22.8159 22.6778 22.8159H18.8016V9.68726C18.8016 8.13179 17.6261 6.85 16.1551 6.85H3.49676ZM6.14327 9.68726C6.14327 8.98504 5.9046 8.34056 5.50809 7.84385H16.1551C17.084 7.84385 17.857 8.6594 17.857 9.68726V22.8159H10.0195C9.74833 22.8159 9.54709 23.0489 9.54709 23.3127C9.54709 24.3406 8.77415 25.1561 7.84518 25.1561C6.91621 25.1561 6.14327 24.3406 6.14327 23.3127V9.68726ZM20.5035 25.1561H9.85644C10.1575 24.7793 10.3675 24.3175 10.4513 23.8098H10.4555H10.4631H10.471H10.479H10.4872H10.4956H10.5042H10.513H10.522H10.5312H10.5406H10.5501H10.5599H10.5699H10.58H10.5904H10.6009H10.6116H10.6225H10.6336H10.6449H10.6563H10.668H10.6798H10.6918H10.704H10.7163H10.7289H10.7416H10.7545H10.7676H10.7809H10.7943H10.8079H10.8217H10.8357H10.8498H10.8641H10.8786H10.8932H10.908H10.923H10.9381H10.9535H10.9689H10.9846H11.0004H11.0164H11.0325H11.0488H11.0653H11.0819H11.0987H11.1156H11.1327H11.15H11.1674H11.1849H11.2027H11.2205H11.2386H11.2567H11.2751H11.2936H11.3122H11.331H11.3499H11.369H11.3882H11.4076H11.4271H11.4468H11.4666H11.4865H11.5066H11.5268H11.5472H11.5677H11.5884H11.6092H11.6301H11.6511H11.6723H11.6937H11.7151H11.7367H11.7585H11.7803H11.8023H11.8244H11.8467H11.8691H11.8916H11.9142H11.937H11.9599H11.9829H12.006H12.0293H12.0526H12.0761H12.0997H12.1235H12.1473H12.1713H12.1954H12.2196H12.2439H12.2684H12.2929H12.3176H12.3424H12.3673H12.3923H12.4174H12.4426H12.4679H12.4933H12.5189H12.5445H12.5703H12.5961H12.6221H12.6482H12.6743H12.7006H12.7269H12.7534H12.78H12.8066H12.8334H12.8602H12.8872H12.9142H12.9414H12.9686H12.9959H13.0233H13.0508H13.0784H13.1061H13.1339H13.1617H13.1897H13.2177H13.2458H13.274H13.3023H13.3307H13.3591H13.3876H13.4163H13.4449H13.4737H13.5025H13.5315H13.5605H13.5895H13.6187H13.6479H13.6772H13.7066H13.736H13.7655H13.7951H13.8247H13.8544H13.8842H13.9141H13.944H13.9739H14.004H14.0341H14.0642H14.0945H14.1248H14.1551H14.1855H14.216H14.2465H14.2771H14.3077H14.3384H14.3692H14.4H14.4308H14.4617H14.4927H14.5237H14.5547H14.5858H14.617H14.6482H14.6794H14.7107H14.7421H14.7734H14.8049H14.8363H14.8678H14.8994H14.931H14.9626H14.9943H15.026H15.0577H15.0895H15.1213H15.1531H15.185H15.2169H15.2488H15.2808H15.3128H15.3449H15.3769H15.409H15.4411H15.4733H15.5054H15.5376H15.5698H15.6021H15.6343H15.6666H15.6989H15.7312H15.7636H15.7959H15.8283H15.8607H15.8931H15.9256H15.958H15.9904H16.0229H16.0554H16.0879H16.1204H16.1529H16.1854H16.2179H16.2505H16.283H16.3155H16.3481H16.3806H16.4132H16.4457H16.4783H16.5109H16.5434H16.576H16.6085H16.6411H16.6736H16.7062H16.7387H16.7712H16.8038H16.8363H16.8688H16.9013H16.9338H16.9663H16.9987H17.0312H17.0636H17.0961H17.1285H17.1609H17.1933H17.2256H17.258H17.2903H17.3226H17.3549H17.3872H17.4194H17.4516H17.4838H17.516H17.5482H17.5803H17.6124H17.6445H17.6765H17.7085H17.7405H17.7724H17.8044H17.8362H17.8681H17.8999H17.9317H17.9635H17.9952H18.0268H18.0585H18.0901H18.1216H18.1532H18.1846H18.2161H18.2475H18.2788H18.3101H18.3414H18.3726H18.4037H18.4349H18.4659H18.497H18.5279H18.5588H18.5897H18.6205H18.6513H18.682H18.7127H18.7433H18.7738H18.8043H18.8347H18.8651H18.8954H18.9256H18.9558H18.9859H19.016H19.046H19.0759H19.1058H19.1356H19.1653H19.195H19.2246H19.2541H19.2836H19.3129H19.3423H19.3715H19.4007H19.4298H19.4588H19.4877H19.5166H19.5454H19.5741H19.6027H19.6313H19.6597H19.6881H19.7164H19.7447H19.7728H19.8009H19.8288H19.8567H19.8845H19.9122H19.9398H19.9674H19.9948H20.0222H20.0494H20.0766H20.1037H20.1306H20.1575H20.1843H20.211H20.2376H20.2641H20.2905H20.3168H20.343H20.369H20.395H20.4209H20.4467H20.4724H20.498H20.5234H20.5488H20.574H20.5992H20.6242H20.6491H20.6739H20.6986H20.7232H20.7477H20.7721H20.7963H20.8204H20.8444H20.8683H20.8921H20.9158H20.9393H20.9627H20.986H21.0092H21.0322H21.0551H21.0779H21.1006H21.1232H21.1456H21.1679H21.19H21.2121H21.234H21.2557H21.2774H21.2989H21.3203H21.3415H21.3626H21.3836H21.4044H21.4251H21.4456H21.466H21.4863H21.5064H21.5264H21.5463H21.566H21.5856H21.605H21.6242H21.6434H21.6623H21.6812H21.6998H21.7184H21.7368H21.755H21.7731H21.791H21.8088H21.8264H21.8438H21.8611H21.8783H21.8953H21.9121H21.9288H21.9453H21.9616H21.9778H21.9938H22.0097H22.0254H22.0409H22.0563H22.0715H22.0865H22.1014H22.1161H22.1306H22.1429C21.941 24.5923 21.2769 25.1561 20.5035 25.1561ZM3.49676 7.84385C4.26992 7.84385 4.93401 8.40745 5.13592 9.1902H1.85735C2.05928 8.40765 2.72338 7.84385 3.49676 7.84385Z" fill="#DA9B3C" stroke="#DA9B3C" stroke-width="0.3"/>
</svg>
