<svg xmlns="http://www.w3.org/2000/svg" width="20" height="20" viewBox="0 0 20 20" fill="none">
  <path d="M10 6.449C9.29985 6.449 8.61543 6.65662 8.03328 7.0456C7.45113 7.43458 6.9974 7.98745 6.72947 8.6343C6.46153 9.28115 6.39143 9.99293 6.52802 10.6796C6.66461 11.3663 7.00176 11.9971 7.49684 12.4922C7.99192 12.9872 8.62269 13.3244 9.30938 13.461C9.99607 13.5976 10.7078 13.5275 11.3547 13.2595C12.0016 12.9916 12.5544 12.5379 12.9434 11.9557C13.3324 11.3736 13.54 10.6891 13.54 9.989C13.5392 9.05039 13.1659 8.15047 12.5022 7.48678C11.8385 6.82308 10.9386 6.44985 10 6.449ZM10 13.0274C9.39874 13.0274 8.81099 12.8491 8.31107 12.5151C7.81114 12.181 7.4215 11.7062 7.19141 11.1508C6.96132 10.5953 6.90111 9.98403 7.01841 9.39433C7.13571 8.80462 7.42524 8.26295 7.8504 7.8378C8.27555 7.41264 8.81722 7.12311 9.40693 7.00581C9.99663 6.88851 10.6079 6.94872 11.1634 7.17881C11.7188 7.4089 12.1936 7.79854 12.5277 8.29847C12.8617 8.79839 13.04 9.38614 13.04 9.9874C13.0393 10.7934 12.7188 11.5663 12.1488 12.1362C11.5789 12.7062 10.806 13.0267 10 13.0274ZM18.7842 8.5474L16.7968 8.2736C16.6315 7.62015 16.372 6.9942 16.0266 6.4154L17.2386 4.8154C17.2751 4.76726 17.2929 4.70755 17.2887 4.64731C17.2846 4.58706 17.2589 4.53034 17.2162 4.4876L15.5118 2.7832C15.4691 2.74054 15.4123 2.71477 15.3521 2.71065C15.2918 2.70654 15.2321 2.72435 15.184 2.7608L13.584 3.9728C13.0053 3.62735 12.3794 3.36784 11.726 3.2024L11.4528 1.216C11.4446 1.15616 11.415 1.10132 11.3695 1.06161C11.324 1.0219 11.2656 1.00002 11.2052 1H8.7948C8.73443 1.00001 8.6761 1.02187 8.63059 1.06154C8.58508 1.1012 8.55546 1.156 8.5472 1.2158L8.2734 3.2032C7.62004 3.36862 6.99418 3.62806 6.4154 3.9734L4.8154 2.7614C4.76726 2.72495 4.70755 2.70714 4.64731 2.71125C4.58706 2.71537 4.53034 2.74114 4.4876 2.7838L2.7832 4.4882C2.74054 4.53094 2.71477 4.58766 2.71065 4.64791C2.70654 4.70815 2.72435 4.76786 2.7608 4.816L3.9728 6.416C3.62733 6.99471 3.36788 7.6206 3.2026 8.274L1.216 8.5472C1.15616 8.55541 1.10132 8.58502 1.06161 8.63053C1.0219 8.67605 1.00002 8.7344 1 8.7948V11.2052C1.00001 11.2656 1.02187 11.3239 1.06154 11.3694C1.1012 11.4149 1.156 11.4445 1.2158 11.4528L3.2032 11.7266C3.36852 12.3801 3.62797 13.006 3.9734 13.5848L2.7614 15.1848C2.72495 15.2329 2.70714 15.2926 2.71125 15.3529C2.71537 15.4131 2.74114 15.4699 2.7838 15.5126L4.4882 17.217C4.53094 17.2597 4.58766 17.2854 4.64791 17.2895C4.70815 17.2937 4.76786 17.2759 4.816 17.2394L6.416 16.0272C6.99473 16.3727 7.6206 16.6323 8.274 16.7978L8.5478 18.7848C8.55618 18.8444 8.58577 18.899 8.63114 18.9385C8.67651 18.978 8.73462 18.9999 8.7948 19H11.2052C11.2656 19 11.3239 18.9781 11.3694 18.9385C11.4149 18.8988 11.4445 18.844 11.4528 18.7842L11.7266 16.7968C12.38 16.6314 13.0059 16.3719 13.5846 16.0264L15.1846 17.2386C15.2327 17.2751 15.2924 17.2929 15.3527 17.2887C15.4129 17.2846 15.4697 17.2589 15.5124 17.2162L17.2168 15.5118C17.2595 15.4691 17.2852 15.4123 17.2893 15.3521C17.2935 15.2918 17.2757 15.2321 17.2392 15.184L16.0272 13.584C16.3726 13.0053 16.632 12.3794 16.7974 11.726L18.7846 11.4522C18.8442 11.4439 18.8988 11.4143 18.9384 11.3689C18.978 11.3235 18.9999 11.2654 19 11.2052V8.7948C19 8.73443 18.9781 8.6761 18.9385 8.63059C18.8988 8.58508 18.844 8.55566 18.7842 8.5474ZM18.5 10.9872L16.56 11.2546C16.5097 11.2615 16.4627 11.2837 16.4252 11.318C16.3878 11.3523 16.3617 11.3973 16.3504 11.4468C16.1882 12.1628 15.9051 12.8459 15.5132 13.4668C15.4861 13.5098 15.4728 13.5601 15.475 13.6109C15.4772 13.6617 15.4949 13.7107 15.5256 13.7512L16.7092 15.3128L15.313 16.709L13.7512 15.5254C13.7106 15.4947 13.6617 15.4771 13.6109 15.475C13.5601 15.4728 13.5098 15.4861 13.4668 15.5132C12.846 15.9051 12.1628 16.1882 11.4468 16.3504C11.3972 16.3616 11.3523 16.3877 11.318 16.4252C11.2836 16.4626 11.2615 16.5097 11.2546 16.56L10.9872 18.5H9.0128L8.7456 16.56C8.73862 16.5097 8.71646 16.4626 8.68209 16.4252C8.64772 16.3877 8.60276 16.3617 8.5532 16.3504C7.83717 16.1881 7.15406 15.9049 6.5332 15.513C6.49016 15.4859 6.4399 15.4726 6.3891 15.4748C6.33829 15.4769 6.28936 15.4945 6.2488 15.5252L4.687 16.709L3.291 15.3128L4.4744 13.751C4.50514 13.7105 4.52279 13.6616 4.52501 13.6108C4.52722 13.5601 4.51389 13.5098 4.4868 13.4668C4.0949 12.846 3.81177 12.1628 3.6496 11.4468C3.63833 11.3973 3.61224 11.3523 3.57479 11.318C3.53735 11.2837 3.49033 11.2615 3.44 11.2546L1.5 10.9872V9.0128L3.44 8.7454C3.49033 8.73846 3.53735 8.71634 3.57479 8.68201C3.61224 8.64767 3.63833 8.60274 3.6496 8.5532C3.81178 7.83716 4.09491 7.15403 4.4868 6.5332C4.51388 6.49016 4.52722 6.4399 4.52504 6.3891C4.52287 6.33829 4.50527 6.28936 4.4746 6.2488L3.2908 4.687L4.687 3.2908L6.2488 4.4746C6.28935 4.5053 6.33829 4.52291 6.3891 4.52509C6.43991 4.52727 6.49017 4.51391 6.5332 4.4868C7.15405 4.09494 7.83717 3.81182 8.5532 3.6496C8.60275 3.63836 8.6477 3.61227 8.68204 3.57482C8.71638 3.53737 8.73848 3.49034 8.7454 3.44L9.0128 1.5H10.9872L11.2546 3.44C11.2615 3.49033 11.2837 3.53735 11.318 3.57479C11.3523 3.61224 11.3973 3.63833 11.4468 3.6496C12.1628 3.81189 12.846 4.09508 13.4668 4.487C13.5098 4.51408 13.5601 4.52742 13.6109 4.52524C13.6617 4.52307 13.7106 4.50547 13.7512 4.4748L15.313 3.291L16.709 4.6872L15.5256 6.249C15.4949 6.28948 15.4772 6.33838 15.475 6.38916C15.4728 6.43994 15.4861 6.49019 15.5132 6.5332C15.905 7.15407 16.1881 7.83719 16.3504 8.5532C16.3617 8.60274 16.3878 8.64767 16.4252 8.68201C16.4627 8.71634 16.5097 8.73846 16.56 8.7454L18.5 9.0128V10.9872Z" fill="black" stroke="black" stroke-width="0.8"/>
</svg>