<svg xmlns="http://www.w3.org/2000/svg" width="28" height="28" viewBox="0 0 28 28" fill="none">
  <path d="M21.875 17.5C21.2142 17.5048 20.5631 17.6593 19.9706 17.9518C19.378 18.2443 18.8595 18.6672 18.4538 19.1888L10.3338 15.1288C10.4382 14.7614 10.4941 14.3819 10.5 14C10.4941 13.6181 10.4382 13.2386 10.3338 12.8713L18.4538 8.81125C18.8595 9.33283 19.378 9.75574 19.9706 10.0482C20.5631 10.3407 21.2142 10.4952 21.875 10.5C22.7403 10.5 23.5862 10.2434 24.3056 9.76268C25.0251 9.28195 25.5858 8.59867 25.917 7.79924C26.2481 6.99981 26.3347 6.12015 26.1659 5.27148C25.9971 4.42282 25.5804 3.64326 24.9686 3.03141C24.3567 2.41956 23.5772 2.00288 22.7285 1.83407C21.8799 1.66526 21.0002 1.7519 20.2008 2.08303C19.4013 2.41416 18.7181 2.97492 18.2373 3.69438C17.7566 4.41385 17.5 5.25971 17.5 6.125C17.5059 6.5069 17.5618 6.88637 17.6663 7.25375L9.54625 11.3138C9.14054 10.7922 8.62195 10.3693 8.02941 10.0768C7.43687 9.7843 6.78578 9.62984 6.125 9.625C4.96468 9.625 3.85188 10.0859 3.03141 10.9064C2.21094 11.7269 1.75 12.8397 1.75 14C1.75 15.1603 2.21094 16.2731 3.03141 17.0936C3.85188 17.9141 4.96468 18.375 6.125 18.375C6.78578 18.3702 7.43687 18.2157 8.02941 17.9232C8.62195 17.6307 9.14054 17.2078 9.54625 16.6863L17.6663 20.7463C17.4303 21.63 17.4772 22.5655 17.8005 23.4212C18.1238 24.277 18.7072 25.0098 19.4686 25.5167C20.2301 26.0236 21.1312 26.2792 22.0454 26.2473C22.9596 26.2155 23.8408 25.8979 24.5652 25.3392C25.2895 24.7805 25.8205 24.0089 26.0834 23.1328C26.3464 22.2566 26.3282 21.3201 26.0313 20.4549C25.7344 19.5897 25.1737 18.8393 24.4282 18.3093C23.6826 17.7792 22.7897 17.4962 21.875 17.5ZM21.875 3.5C22.3942 3.5 22.9017 3.65396 23.3334 3.94239C23.7651 4.23083 24.1015 4.6408 24.3002 5.12046C24.4989 5.60011 24.5508 6.12791 24.4496 6.63711C24.3483 7.14631 24.0983 7.61404 23.7312 7.98116C23.364 8.34827 22.8963 8.59828 22.3871 8.69956C21.8779 8.80085 21.3501 8.74887 20.8705 8.55019C20.3908 8.35151 19.9808 8.01505 19.6924 7.58337C19.404 7.15169 19.25 6.64418 19.25 6.125C19.25 5.42881 19.5266 4.76113 20.0188 4.26885C20.5111 3.77656 21.1788 3.5 21.875 3.5ZM6.125 16.625C5.60582 16.625 5.09831 16.471 4.66663 16.1826C4.23495 15.8942 3.8985 15.4842 3.69982 15.0045C3.50114 14.5249 3.44915 13.9971 3.55044 13.4879C3.65173 12.9787 3.90173 12.511 4.26884 12.1438C4.63596 11.7767 5.10369 11.5267 5.61289 11.4254C6.12209 11.3242 6.64989 11.3761 7.12954 11.5748C7.6092 11.7735 8.01917 12.11 8.30761 12.5416C8.59605 12.9733 8.75 13.4808 8.75 14C8.75 14.6962 8.47344 15.3639 7.98116 15.8562C7.48887 16.3484 6.82119 16.625 6.125 16.625ZM21.875 24.5C21.3558 24.5 20.8483 24.346 20.4166 24.0576C19.9849 23.7692 19.6485 23.3592 19.4498 22.8795C19.2511 22.3999 19.1992 21.8721 19.3004 21.3629C19.4017 20.8537 19.6517 20.386 20.0188 20.0188C20.386 19.6517 20.8537 19.4017 21.3629 19.3004C21.8721 19.1992 22.3999 19.2511 22.8795 19.4498C23.3592 19.6485 23.7692 19.985 24.0576 20.4166C24.346 20.8483 24.5 21.3558 24.5 21.875C24.5 22.5712 24.2234 23.2389 23.7312 23.7312C23.2389 24.2234 22.5712 24.5 21.875 24.5Z" fill="black"/>
</svg>