<svg width="191" height="28" viewBox="0 0 191 28" fill="none" xmlns="http://www.w3.org/2000/svg">
<path d="M55.644 21.18C54.912 21.18 54.294 21.114 53.79 20.982C53.286 20.838 52.878 20.646 52.566 20.406C52.254 20.166 52.026 19.896 51.882 19.596C51.738 19.284 51.666 18.972 51.666 18.66C51.666 18.312 51.744 18.03 51.9 17.814C52.056 17.586 52.266 17.418 52.53 17.31C52.806 17.202 53.1 17.148 53.412 17.148C53.424 17.76 53.526 18.294 53.718 18.75C53.91 19.206 54.186 19.56 54.546 19.812C54.918 20.052 55.362 20.172 55.878 20.172C56.622 20.172 57.198 19.986 57.606 19.614C58.026 19.23 58.236 18.726 58.236 18.102C58.236 17.682 58.134 17.322 57.93 17.022C57.726 16.722 57.408 16.446 56.976 16.194C56.544 15.942 55.986 15.678 55.302 15.402C54.714 15.162 54.204 14.904 53.772 14.628C53.34 14.352 52.992 14.058 52.728 13.746C52.464 13.434 52.266 13.092 52.134 12.72C52.014 12.336 51.954 11.91 51.954 11.442C51.954 10.734 52.14 10.122 52.512 9.606C52.884 9.078 53.388 8.676 54.024 8.4C54.66 8.112 55.386 7.968 56.202 7.968C57.018 7.968 57.696 8.064 58.236 8.256C58.776 8.436 59.178 8.682 59.442 8.994C59.718 9.306 59.856 9.648 59.856 10.02C59.856 10.428 59.694 10.764 59.37 11.028C59.046 11.28 58.566 11.406 57.93 11.406C57.93 11.058 57.864 10.698 57.732 10.326C57.612 9.954 57.408 9.642 57.12 9.39C56.844 9.126 56.466 8.994 55.986 8.994C55.614 8.994 55.278 9.066 54.978 9.21C54.69 9.342 54.462 9.546 54.294 9.822C54.126 10.086 54.042 10.41 54.042 10.794C54.042 11.19 54.126 11.538 54.294 11.838C54.462 12.138 54.756 12.426 55.176 12.702C55.596 12.978 56.19 13.272 56.958 13.584C57.738 13.896 58.374 14.232 58.866 14.592C59.37 14.94 59.742 15.342 59.982 15.798C60.234 16.242 60.36 16.764 60.36 17.364C60.36 18.132 60.162 18.804 59.766 19.38C59.382 19.944 58.836 20.388 58.128 20.712C57.432 21.024 56.604 21.18 55.644 21.18ZM61.6076 21V20.118H61.8416C62.0456 20.118 62.2496 20.094 62.4536 20.046C62.6696 19.986 62.8436 19.872 62.9756 19.704C63.1196 19.536 63.1916 19.284 63.1916 18.948V13.368C63.1916 13.032 63.1196 12.786 62.9756 12.63C62.8316 12.462 62.6576 12.354 62.4536 12.306C62.2496 12.258 62.0456 12.234 61.8416 12.234H61.6796V11.352H65.5316V18.912C65.5316 19.26 65.5976 19.524 65.7296 19.704C65.8616 19.872 66.0356 19.986 66.2516 20.046C66.4676 20.094 66.6776 20.118 66.8816 20.118H67.0976V21H61.6076ZM64.2716 9.66C63.8996 9.66 63.5816 9.564 63.3176 9.372C63.0656 9.18 62.9396 8.868 62.9396 8.436C62.9396 7.992 63.0656 7.68 63.3176 7.5C63.5816 7.308 63.9056 7.212 64.2896 7.212C64.6496 7.212 64.9616 7.308 65.2256 7.5C65.4896 7.68 65.6216 7.992 65.6216 8.436C65.6216 8.868 65.4896 9.18 65.2256 9.372C64.9616 9.564 64.6436 9.66 64.2716 9.66ZM71.5948 25.32C70.2388 25.32 69.2248 25.098 68.5528 24.654C67.8928 24.222 67.5628 23.592 67.5628 22.764C67.5628 22.32 67.6588 21.948 67.8508 21.648C68.0428 21.348 68.3188 21.114 68.6788 20.946C69.0388 20.766 69.4528 20.652 69.9208 20.604C69.6328 20.484 69.3628 20.298 69.1108 20.046C68.8588 19.782 68.7328 19.446 68.7328 19.038C68.7328 18.666 68.8588 18.336 69.1108 18.048C69.3748 17.76 69.7288 17.49 70.1728 17.238C69.6448 17.034 69.2188 16.692 68.8948 16.212C68.5708 15.732 68.4088 15.15 68.4088 14.466C68.4088 13.422 68.7028 12.606 69.2908 12.018C69.8908 11.43 70.8028 11.136 72.0268 11.136C72.4588 11.136 72.8608 11.196 73.2328 11.316C73.6168 11.424 73.9228 11.556 74.1508 11.712C74.3308 11.52 74.5108 11.352 74.6908 11.208C74.8708 11.052 75.0628 10.932 75.2668 10.848C75.4828 10.764 75.7168 10.722 75.9688 10.722C76.3768 10.722 76.6768 10.824 76.8688 11.028C77.0728 11.22 77.1748 11.448 77.1748 11.712C77.1748 11.964 77.0908 12.192 76.9228 12.396C76.7548 12.6 76.4548 12.702 76.0228 12.702C76.0228 12.498 75.9628 12.33 75.8428 12.198C75.7228 12.066 75.5668 12 75.3748 12C75.2548 12 75.1348 12.018 75.0148 12.054C74.8948 12.09 74.7928 12.138 74.7088 12.198C74.9368 12.462 75.1288 12.786 75.2848 13.17C75.4408 13.554 75.5188 13.98 75.5188 14.448C75.5188 15.348 75.2368 16.098 74.6728 16.698C74.1088 17.286 73.2268 17.58 72.0268 17.58C71.8948 17.58 71.7208 17.574 71.5048 17.562C71.3008 17.538 71.1388 17.52 71.0188 17.508C70.8268 17.604 70.6588 17.736 70.5148 17.904C70.3708 18.072 70.2988 18.276 70.2988 18.516C70.2988 18.708 70.3708 18.858 70.5148 18.966C70.6708 19.074 70.9168 19.128 71.2528 19.128H73.3768C74.1448 19.128 74.7688 19.242 75.2488 19.47C75.7288 19.686 76.0828 19.998 76.3108 20.406C76.5388 20.814 76.6528 21.294 76.6528 21.846C76.6528 22.926 76.2388 23.772 75.4108 24.384C74.5948 25.008 73.3228 25.32 71.5948 25.32ZM71.6308 24.312C72.3988 24.312 73.0108 24.234 73.4668 24.078C73.9228 23.922 74.2468 23.7 74.4388 23.412C74.6428 23.124 74.7448 22.776 74.7448 22.368C74.7448 21.924 74.6068 21.618 74.3308 21.45C74.0668 21.294 73.6708 21.216 73.1428 21.216H71.1808C70.9048 21.216 70.6288 21.252 70.3528 21.324C70.0888 21.396 69.8668 21.534 69.6868 21.738C69.5188 21.954 69.4348 22.278 69.4348 22.71C69.4348 23.046 69.5068 23.334 69.6508 23.574C69.8068 23.814 70.0468 23.994 70.3708 24.114C70.6948 24.246 71.1148 24.312 71.6308 24.312ZM71.9728 16.59C72.3328 16.59 72.6088 16.512 72.8008 16.356C73.0048 16.188 73.1428 15.942 73.2148 15.618C73.2988 15.294 73.3408 14.898 73.3408 14.43C73.3408 13.95 73.2988 13.542 73.2148 13.206C73.1308 12.858 72.9868 12.594 72.7828 12.414C72.5908 12.234 72.3148 12.144 71.9548 12.144C71.6188 12.144 71.3488 12.24 71.1448 12.432C70.9408 12.612 70.7968 12.876 70.7128 13.224C70.6288 13.56 70.5868 13.968 70.5868 14.448C70.5868 14.904 70.6288 15.294 70.7128 15.618C70.8088 15.93 70.9588 16.17 71.1628 16.338C71.3668 16.506 71.6368 16.59 71.9728 16.59ZM77.7285 21V20.118H77.8005C78.0765 20.118 78.3225 20.088 78.5385 20.028C78.7545 19.968 78.9225 19.848 79.0425 19.668C79.1745 19.488 79.2405 19.218 79.2405 18.858V13.422C79.2405 13.074 79.1805 12.816 79.0605 12.648C78.9405 12.48 78.7785 12.372 78.5745 12.324C78.3825 12.264 78.1545 12.234 77.8905 12.234H77.8185V11.352H81.2745L81.5085 12.702H81.5985C81.8385 12.246 82.0965 11.91 82.3725 11.694C82.6605 11.466 82.9665 11.316 83.2905 11.244C83.6265 11.172 83.9865 11.136 84.3705 11.136C85.3065 11.136 86.0385 11.412 86.5665 11.964C87.0945 12.516 87.3585 13.404 87.3585 14.628V18.84C87.3585 19.212 87.4065 19.488 87.5025 19.668C87.6105 19.848 87.7545 19.968 87.9345 20.028C88.1265 20.088 88.3545 20.118 88.6185 20.118H88.6905V21H85.0185V14.97C85.0185 14.19 84.8925 13.59 84.6405 13.17C84.4005 12.738 83.9805 12.522 83.3805 12.522C82.9245 12.522 82.5645 12.654 82.3005 12.918C82.0485 13.182 81.8625 13.53 81.7425 13.962C81.6345 14.394 81.5805 14.862 81.5805 15.366V18.93C81.5805 19.278 81.6345 19.536 81.7425 19.704C81.8625 19.872 82.0245 19.986 82.2285 20.046C82.4325 20.094 82.6665 20.118 82.9305 20.118H83.0025V21H77.7285ZM99.2195 21.18C97.8395 21.18 96.7475 20.766 95.9435 19.938C95.1515 19.11 94.7555 17.844 94.7555 16.14C94.7555 14.46 95.1335 13.206 95.8895 12.378C96.6575 11.55 97.7855 11.136 99.2735 11.136C100.665 11.136 101.757 11.55 102.549 12.378C103.341 13.206 103.737 14.46 103.737 16.14C103.737 17.844 103.353 19.11 102.585 19.938C101.829 20.766 100.707 21.18 99.2195 21.18ZM99.2555 20.118C99.7715 20.118 100.179 19.974 100.479 19.686C100.791 19.386 101.013 18.936 101.145 18.336C101.277 17.736 101.343 17.004 101.343 16.14C101.343 15.264 101.271 14.538 101.127 13.962C100.995 13.386 100.773 12.954 100.461 12.666C100.161 12.366 99.7535 12.216 99.2375 12.216C98.7335 12.216 98.3255 12.366 98.0135 12.666C97.7015 12.954 97.4795 13.386 97.3475 13.962C97.2155 14.538 97.1495 15.264 97.1495 16.14C97.1495 17.016 97.2155 17.748 97.3475 18.336C97.4915 18.924 97.7135 19.368 98.0135 19.668C98.3255 19.968 98.7395 20.118 99.2555 20.118ZM109.383 21.18C108.435 21.18 107.709 20.898 107.205 20.334C106.701 19.758 106.449 18.858 106.449 17.634V13.494C106.449 13.134 106.395 12.864 106.287 12.684C106.179 12.504 106.023 12.384 105.819 12.324C105.627 12.264 105.393 12.234 105.117 12.234H105.081V11.352H108.789V17.274C108.789 17.802 108.831 18.252 108.915 18.624C109.011 18.996 109.173 19.284 109.401 19.488C109.629 19.692 109.941 19.794 110.337 19.794C110.781 19.794 111.141 19.68 111.417 19.452C111.693 19.212 111.897 18.882 112.029 18.462C112.161 18.042 112.227 17.55 112.227 16.986V13.44C112.227 13.08 112.161 12.816 112.029 12.648C111.909 12.48 111.747 12.372 111.543 12.324C111.339 12.264 111.111 12.234 110.859 12.234H110.805V11.352H114.567V18.966C114.567 19.314 114.621 19.572 114.729 19.74C114.849 19.896 115.011 19.998 115.215 20.046C115.419 20.094 115.641 20.118 115.881 20.118H115.989V21H112.677L112.335 19.65H112.245C112.065 19.974 111.867 20.238 111.651 20.442C111.435 20.634 111.207 20.784 110.967 20.892C110.727 21 110.475 21.072 110.211 21.108C109.947 21.156 109.671 21.18 109.383 21.18ZM120.782 21.18C119.93 21.18 119.276 20.97 118.82 20.55C118.376 20.13 118.154 19.398 118.154 18.354V12.504H116.786V11.658C117.11 11.658 117.416 11.592 117.704 11.46C117.992 11.328 118.232 11.166 118.424 10.974C118.604 10.77 118.766 10.518 118.91 10.218C119.054 9.918 119.168 9.552 119.252 9.12H120.494V11.352H122.816V12.504H120.494V18.264C120.494 18.828 120.596 19.248 120.8 19.524C121.016 19.788 121.328 19.92 121.736 19.92C121.976 19.92 122.192 19.908 122.384 19.884C122.588 19.848 122.786 19.806 122.978 19.758V20.784C122.798 20.868 122.51 20.952 122.114 21.036C121.73 21.132 121.286 21.18 120.782 21.18Z" fill="#F2EDE7"/>
<path d="M51 23.25H123.356V24.15H51V23.25Z" fill="#F2EDE7"/>
<path d="M34.1429 4H22V21C22 21.6441 22.2559 22.2618 22.7113 22.7173C23.1668 23.1727 23.7845 23.4286 24.4286 23.4286H34.1429M35.3571 17.3571L39 13.7143M39 13.7143L35.3571 10.0714M39 13.7143H26.8571" stroke="#F2EDE7" stroke-width="1.82143" stroke-linecap="round" stroke-linejoin="round"/>
</svg>
