<svg width="218" height="41" viewBox="0 0 218 41" fill="none" xmlns="http://www.w3.org/2000/svg">
<path d="M186.25 13.9984H186.255L189.158 12.7885C189.221 12.7527 189.273 12.7018 189.311 12.6403C189.349 12.5789 189.37 12.5089 189.374 12.4369C189.37 12.3649 189.349 12.2949 189.311 12.2334C189.274 12.1719 189.221 12.121 189.158 12.0854L186.254 10.8742H186.25L185.039 7.96563C185.007 7.90071 184.957 7.8461 184.895 7.80793C184.833 7.76976 184.762 7.74954 184.69 7.74954C184.617 7.74954 184.546 7.76976 184.485 7.80793C184.423 7.8461 184.373 7.90071 184.341 7.96563L183.128 10.8736H183.125L180.217 12.0859C180.154 12.1214 180.101 12.1723 180.063 12.2338C180.025 12.2953 180.003 12.3653 180 12.4375C180.004 12.5095 180.025 12.5795 180.063 12.6409C180.1 12.7023 180.153 12.7533 180.216 12.7891L183.121 13.9961H183.125L184.336 16.9059C184.368 16.971 184.418 17.0258 184.48 17.0641C184.541 17.1024 184.613 17.1227 184.685 17.1227C184.758 17.1227 184.829 17.1024 184.891 17.0641C184.952 17.0258 185.002 16.971 185.034 16.9059L186.247 13.9984H186.25ZM207.62 31.3873L207.561 31.3627L207.503 31.3334C207.127 31.145 206.811 30.8558 206.59 30.4981C206.369 30.1403 206.252 29.7282 206.252 29.3078C206.252 28.8874 206.369 28.4753 206.59 28.1176C206.811 27.7598 207.127 27.4706 207.503 27.2822L207.561 27.2535L207.62 27.2283L209.817 26.3125L210.732 24.1164L210.756 24.0578L210.784 24.0021C211.01 23.5486 211.404 23.2035 211.859 22.9861C211.859 22.9082 211.874 22.8285 211.875 22.7518V12.4375C211.875 11.9402 211.677 11.4633 211.326 11.1117C210.974 10.76 210.497 10.5625 210 10.5625C209.503 10.5625 209.026 10.76 208.674 11.1117C208.323 11.4633 208.125 11.9402 208.125 12.4375V16.6562C208.125 16.7806 208.076 16.8998 207.988 16.9877C207.9 17.0756 207.781 17.125 207.656 17.125H206.719C206.594 17.125 206.475 17.0756 206.387 16.9877C206.299 16.8998 206.25 16.7806 206.25 16.6562V7.75C206.25 7.25272 206.052 6.77581 205.701 6.42417C205.349 6.07254 204.872 5.875 204.375 5.875C203.878 5.875 203.401 6.07254 203.049 6.42417C202.698 6.77581 202.5 7.25272 202.5 7.75V16.6562C202.5 16.7806 202.451 16.8998 202.363 16.9877C202.275 17.0756 202.156 17.125 202.031 17.125H201.094C200.969 17.125 200.85 17.0756 200.762 16.9877C200.674 16.8998 200.625 16.7806 200.625 16.6562V5.875C200.625 5.37772 200.427 4.90081 200.076 4.54917C199.724 4.19754 199.247 4 198.75 4C198.253 4 197.776 4.19754 197.424 4.54917C197.073 4.90081 196.875 5.37772 196.875 5.875V16.6562C196.875 16.7806 196.826 16.8998 196.738 16.9877C196.65 17.0756 196.531 17.125 196.406 17.125H195.469C195.344 17.125 195.225 17.0756 195.137 16.9877C195.049 16.8998 195 16.7806 195 16.6562V7.75C195 7.25272 194.802 6.77581 194.451 6.42417C194.099 6.07254 193.622 5.875 193.125 5.875C192.628 5.875 192.151 6.07254 191.799 6.42417C191.448 6.77581 191.25 7.25272 191.25 7.75V21.8711L189.868 19.9674C189.502 19.4646 188.951 19.1277 188.337 19.0309C187.723 18.9341 187.095 19.0853 186.592 19.4512C186.09 19.8171 185.753 20.3677 185.656 20.982C185.559 21.5962 185.71 22.2238 186.076 22.7266L193.436 32.8404C193.696 33.199 194.038 33.4909 194.433 33.6923C194.828 33.8938 195.265 33.9993 195.708 34H207.287C208.414 34 209.376 33.3127 209.821 32.3131L209.817 32.3031L207.62 31.3873ZM200.496 23.8937L198.75 24.6209L198.022 26.3658C198.003 26.4047 197.973 26.4373 197.936 26.4602C197.899 26.483 197.856 26.4951 197.813 26.4951C197.769 26.4951 197.727 26.483 197.69 26.4602C197.653 26.4373 197.623 26.4047 197.603 26.3658L196.875 24.6209L195.129 23.8937C195.09 23.8743 195.058 23.8444 195.035 23.8073C195.012 23.7703 195 23.7276 195 23.684C195 23.6404 195.012 23.5977 195.035 23.5606C195.058 23.5236 195.09 23.4937 195.129 23.4742L196.875 22.7465L197.603 21.0016C197.622 20.9627 197.652 20.9301 197.689 20.9072C197.726 20.8844 197.769 20.8723 197.812 20.8723C197.856 20.8723 197.898 20.8844 197.935 20.9072C197.972 20.9301 198.002 20.9627 198.022 21.0016L198.75 22.7465L200.496 23.4742C200.535 23.4937 200.567 23.5236 200.59 23.5606C200.613 23.5977 200.625 23.6404 200.625 23.684C200.625 23.7276 200.613 23.7703 200.59 23.8073C200.567 23.8444 200.535 23.8743 200.496 23.8937ZM217.5 29.3072C217.497 29.2352 217.475 29.1651 217.437 29.1037C217.4 29.0422 217.347 28.9913 217.284 28.9557L214.38 27.7445H214.376L213.164 24.8377C213.132 24.7728 213.082 24.7182 213.02 24.68C212.958 24.6418 212.887 24.6216 212.815 24.6216C212.742 24.6216 212.671 24.6418 212.61 24.68C212.548 24.7182 212.498 24.7728 212.466 24.8377L211.253 27.7457H211.25L208.342 28.9609C208.279 28.9965 208.226 29.0474 208.189 29.1089C208.151 29.1704 208.129 29.2404 208.126 29.3125C208.13 29.384 208.152 29.4534 208.189 29.5144C208.227 29.5753 208.28 29.6258 208.342 29.6611L211.246 30.8723H211.25L212.461 33.7779C212.493 33.843 212.543 33.8978 212.605 33.9361C212.666 33.9744 212.738 33.9947 212.81 33.9947C212.883 33.9947 212.954 33.9744 213.016 33.9361C213.077 33.8978 213.127 33.843 213.159 33.7779L214.372 30.8705H214.377L217.28 29.66C217.343 29.6246 217.395 29.5741 217.433 29.5132C217.47 29.4523 217.492 29.3829 217.496 29.3113L217.5 29.3072Z" fill="#1D1D1B"/>
<path d="M12.8634 30V28.536H13.6554C13.9594 28.536 14.2154 28.496 14.4234 28.416C14.6314 28.32 14.7914 28.176 14.9034 27.984C15.0154 27.776 15.0714 27.52 15.0714 27.216V15.648C15.0714 15.344 15.0154 15.096 14.9034 14.904C14.8074 14.712 14.6794 14.568 14.5194 14.472C14.3754 14.376 14.2154 14.328 14.0394 14.328H12.8634V12.864H20.8314L24.0954 22.872L27.0954 12.864H34.9674V14.328H33.6954C33.5514 14.328 33.4074 14.376 33.2634 14.472C33.1354 14.552 33.0234 14.68 32.9274 14.856C32.8314 15.016 32.7834 15.224 32.7834 15.48V27.408C32.7834 27.648 32.8234 27.856 32.9034 28.032C32.9834 28.192 33.1114 28.32 33.2874 28.416C33.4634 28.496 33.6794 28.536 33.9354 28.536H34.9674V30H26.3274V28.536H26.6874C27.0234 28.536 27.2874 28.488 27.4794 28.392C27.6874 28.296 27.8314 28.144 27.9114 27.936C28.0074 27.712 28.0554 27.424 28.0554 27.072V15.672L23.6874 30H21.7914L17.1114 15.624V27.096C17.1114 27.512 17.1834 27.824 17.3274 28.032C17.4714 28.24 17.6714 28.376 17.9274 28.44C18.1994 28.504 18.5274 28.536 18.9114 28.536H19.1274V30H12.8634ZM40.8213 30.24C40.1333 30.24 39.5013 30.096 38.9253 29.808C38.3493 29.52 37.8853 29.088 37.5333 28.512C37.1973 27.92 37.0293 27.176 37.0293 26.28C37.0293 24.952 37.4693 23.976 38.3493 23.352C39.2293 22.728 40.5573 22.384 42.3333 22.32L44.2773 22.248V21C44.2773 20.408 44.2293 19.928 44.1333 19.56C44.0533 19.176 43.9173 18.896 43.7253 18.72C43.5493 18.528 43.3173 18.432 43.0293 18.432C42.7733 18.432 42.5493 18.528 42.3573 18.72C42.1813 18.912 42.0373 19.2 41.9253 19.584C41.8293 19.952 41.7813 20.424 41.7813 21C40.5173 21 39.5733 20.872 38.9493 20.616C38.3413 20.36 38.0373 19.928 38.0373 19.32C38.0373 18.712 38.2773 18.224 38.7573 17.856C39.2533 17.472 39.9093 17.2 40.7253 17.04C41.5573 16.864 42.4613 16.776 43.4373 16.776C45.2773 16.776 46.6533 17.08 47.5653 17.688C48.4933 18.28 48.9573 19.32 48.9573 20.808V26.856C48.9573 27.288 48.9973 27.624 49.0773 27.864C49.1733 28.104 49.3253 28.28 49.5333 28.392C49.7413 28.488 50.0213 28.536 50.3733 28.536H50.4693V30H45.1173L44.5173 28.656H44.2773C43.9253 29.072 43.5893 29.4 43.2693 29.64C42.9653 29.864 42.6213 30.016 42.2373 30.096C41.8693 30.192 41.3973 30.24 40.8213 30.24ZM42.7173 28.296C43.0373 28.296 43.3173 28.176 43.5573 27.936C43.7973 27.696 43.9813 27.36 44.1093 26.928C44.2373 26.496 44.3013 25.992 44.3013 25.416V23.712L43.5573 23.784C43.1093 23.816 42.7573 23.936 42.5013 24.144C42.2453 24.336 42.0613 24.616 41.9493 24.984C41.8373 25.352 41.7813 25.808 41.7813 26.352C41.7813 26.768 41.8133 27.128 41.8773 27.432C41.9413 27.72 42.0453 27.936 42.1893 28.08C42.3333 28.224 42.5093 28.296 42.7173 28.296ZM52.0528 30V28.536H52.4128C52.5568 28.536 52.7488 28.504 52.9888 28.44C53.2288 28.376 53.4448 28.24 53.6368 28.032C53.8288 27.824 53.9248 27.512 53.9248 27.096V14.568C53.9248 14.168 53.8208 13.88 53.6128 13.704C53.4208 13.512 53.2048 13.384 52.9648 13.32C52.7248 13.256 52.5408 13.224 52.4128 13.224H52.0528V11.76H58.6048V20.904C58.6048 21.112 58.5968 21.328 58.5808 21.552C58.5808 21.76 58.5728 21.968 58.5568 22.176C58.5408 22.368 58.5248 22.552 58.5088 22.728C58.4928 22.888 58.4768 23.024 58.4608 23.136L61.5088 19.68C61.5568 19.616 61.5888 19.56 61.6048 19.512C61.6368 19.448 61.6528 19.392 61.6528 19.344C61.6528 19.296 61.6528 19.264 61.6528 19.248C61.6528 19.04 61.5328 18.864 61.2928 18.72C61.0688 18.56 60.7568 18.48 60.3568 18.48V17.136H66.9568V18.48C66.6848 18.48 66.4128 18.512 66.1408 18.576C65.8688 18.64 65.5968 18.752 65.3248 18.912C65.0528 19.056 64.7728 19.248 64.4848 19.488C64.1968 19.728 63.8928 20.024 63.5728 20.376L62.3968 21.744L65.5888 26.496C65.8928 26.944 66.1648 27.32 66.4048 27.624C66.6608 27.928 66.8928 28.16 67.1008 28.32C67.3248 28.464 67.5328 28.536 67.7248 28.536H67.8208V30H67.4848C66.4768 30 65.6288 29.968 64.9408 29.904C64.2528 29.824 63.6688 29.688 63.1888 29.496C62.7248 29.304 62.3168 29.048 61.9648 28.728C61.6288 28.392 61.3008 27.96 60.9808 27.432L59.2528 24.6L58.6048 25.224V27C58.6048 27.448 58.7008 27.784 58.8928 28.008C59.0848 28.216 59.3008 28.36 59.5408 28.44C59.7808 28.504 59.9648 28.536 60.0928 28.536H60.5488V30H52.0528ZM75.6519 30.24C73.3799 30.24 71.6919 29.664 70.5879 28.512C69.4999 27.344 68.9559 25.712 68.9559 23.616C68.9559 21.36 69.5159 19.656 70.6359 18.504C71.7559 17.352 73.3319 16.776 75.3639 16.776C77.2519 16.776 78.7319 17.272 79.8039 18.264C80.8919 19.24 81.4359 20.68 81.4359 22.584V23.904H73.6599C73.6919 24.896 73.8279 25.712 74.0679 26.352C74.3079 26.992 74.6599 27.464 75.1239 27.768C75.5879 28.072 76.1639 28.224 76.8519 28.224C77.3959 28.224 77.8599 28.128 78.2439 27.936C78.6439 27.744 78.9799 27.48 79.2519 27.144C79.5239 26.808 79.7479 26.432 79.9239 26.016C80.2279 26.096 80.4759 26.24 80.6679 26.448C80.8759 26.656 80.9799 26.92 80.9799 27.24C80.9799 27.72 80.8039 28.192 80.4519 28.656C80.0999 29.12 79.5319 29.504 78.7479 29.808C77.9799 30.096 76.9479 30.24 75.6519 30.24ZM76.8519 22.2C76.8519 21.4 76.8039 20.728 76.7079 20.184C76.6119 19.64 76.4599 19.232 76.2519 18.96C76.0599 18.672 75.8039 18.528 75.4839 18.528C75.1479 18.528 74.8439 18.672 74.5719 18.96C74.2999 19.232 74.0839 19.64 73.9239 20.184C73.7799 20.728 73.7079 21.4 73.7079 22.2H76.8519ZM94.526 30.24C93.838 30.24 93.206 30.096 92.63 29.808C92.054 29.52 91.59 29.088 91.238 28.512C90.902 27.92 90.734 27.176 90.734 26.28C90.734 24.952 91.174 23.976 92.054 23.352C92.934 22.728 94.262 22.384 96.038 22.32L97.982 22.248V21C97.982 20.408 97.934 19.928 97.838 19.56C97.758 19.176 97.622 18.896 97.43 18.72C97.254 18.528 97.022 18.432 96.734 18.432C96.478 18.432 96.254 18.528 96.062 18.72C95.886 18.912 95.742 19.2 95.63 19.584C95.534 19.952 95.486 20.424 95.486 21C94.222 21 93.278 20.872 92.654 20.616C92.046 20.36 91.742 19.928 91.742 19.32C91.742 18.712 91.982 18.224 92.462 17.856C92.958 17.472 93.614 17.2 94.43 17.04C95.262 16.864 96.166 16.776 97.142 16.776C98.982 16.776 100.358 17.08 101.27 17.688C102.198 18.28 102.662 19.32 102.662 20.808V26.856C102.662 27.288 102.702 27.624 102.782 27.864C102.878 28.104 103.03 28.28 103.238 28.392C103.446 28.488 103.726 28.536 104.078 28.536H104.174V30H98.822L98.222 28.656H97.982C97.63 29.072 97.294 29.4 96.974 29.64C96.67 29.864 96.326 30.016 95.942 30.096C95.574 30.192 95.102 30.24 94.526 30.24ZM96.422 28.296C96.742 28.296 97.022 28.176 97.262 27.936C97.502 27.696 97.686 27.36 97.814 26.928C97.942 26.496 98.006 25.992 98.006 25.416V23.712L97.262 23.784C96.814 23.816 96.462 23.936 96.206 24.144C95.95 24.336 95.766 24.616 95.654 24.984C95.542 25.352 95.486 25.808 95.486 26.352C95.486 26.768 95.518 27.128 95.582 27.432C95.646 27.72 95.75 27.936 95.894 28.08C96.038 28.224 96.214 28.296 96.422 28.296ZM114.08 15.6C113.984 15.264 113.856 15.008 113.696 14.832C113.552 14.64 113.376 14.512 113.168 14.448C112.96 14.368 112.696 14.328 112.376 14.328H112.064V12.864H121.112V14.328H120.56C120.08 14.328 119.72 14.424 119.48 14.616C119.24 14.792 119.12 15.08 119.12 15.48C119.12 15.56 119.136 15.696 119.168 15.888C119.2 16.08 119.232 16.288 119.264 16.512C119.312 16.72 119.36 16.912 119.408 17.088L120.752 22.032C120.848 22.352 120.936 22.688 121.016 23.04C121.096 23.392 121.168 23.736 121.232 24.072C121.312 24.408 121.376 24.728 121.424 25.032C121.52 24.584 121.632 24.144 121.76 23.712C121.888 23.264 122.048 22.752 122.24 22.176L125.336 13.032H127.808L130.472 21.288C130.632 21.784 130.776 22.264 130.904 22.728C131.032 23.192 131.144 23.624 131.24 24.024C131.336 24.424 131.416 24.792 131.48 25.128C131.544 24.776 131.632 24.36 131.744 23.88C131.856 23.384 131.976 22.88 132.104 22.368C132.248 21.84 132.376 21.352 132.488 20.904L133.4 17.328C133.48 17.008 133.56 16.664 133.64 16.296C133.736 15.928 133.784 15.64 133.784 15.432C133.784 15.016 133.672 14.728 133.448 14.568C133.224 14.408 132.848 14.328 132.32 14.328H131.768V12.864H138.344V14.328H137.888C137.584 14.328 137.32 14.376 137.096 14.472C136.872 14.552 136.68 14.728 136.52 15C136.36 15.272 136.208 15.672 136.064 16.2L132.344 30H128.84L125.456 19.368L122 30H118.472L114.08 15.6ZM139.065 30V28.536H139.353C139.657 28.536 139.921 28.48 140.145 28.368C140.369 28.256 140.545 28.072 140.673 27.816C140.801 27.56 140.865 27.208 140.865 26.76V20.184C140.865 19.784 140.793 19.472 140.649 19.248C140.521 19.024 140.345 18.864 140.121 18.768C139.897 18.656 139.641 18.6 139.353 18.6H138.897V17.136H145.521V26.856C145.521 27.272 145.585 27.608 145.713 27.864C145.841 28.104 146.017 28.28 146.241 28.392C146.481 28.488 146.745 28.536 147.033 28.536H147.297V30H139.065ZM143.073 15.144C142.353 15.144 141.745 14.984 141.249 14.664C140.769 14.328 140.529 13.856 140.529 13.248C140.529 12.592 140.769 12.112 141.249 11.808C141.745 11.504 142.353 11.352 143.073 11.352C143.761 11.352 144.361 11.504 144.873 11.808C145.385 12.112 145.641 12.592 145.641 13.248C145.641 13.856 145.385 14.328 144.873 14.664C144.361 14.984 143.761 15.144 143.073 15.144ZM154.232 30.24C152.888 30.24 151.832 30.112 151.064 29.856C150.312 29.6 149.776 29.256 149.456 28.824C149.152 28.376 149 27.896 149 27.384C149 26.92 149.112 26.552 149.336 26.28C149.56 25.992 149.864 25.792 150.248 25.68C150.632 25.552 151.056 25.488 151.52 25.488C151.52 26.224 151.64 26.816 151.88 27.264C152.12 27.712 152.448 28.04 152.864 28.248C153.28 28.44 153.76 28.536 154.304 28.536C155.072 28.536 155.608 28.4 155.912 28.128C156.232 27.856 156.392 27.544 156.392 27.192C156.392 26.888 156.288 26.632 156.08 26.424C155.872 26.2 155.552 26 155.12 25.824C154.704 25.632 154.168 25.448 153.512 25.272C152.536 24.984 151.72 24.664 151.064 24.312C150.424 23.944 149.944 23.496 149.624 22.968C149.304 22.424 149.144 21.744 149.144 20.928C149.144 19.504 149.656 18.464 150.68 17.808C151.72 17.136 153.088 16.8 154.784 16.8C155.888 16.8 156.768 16.92 157.424 17.16C158.096 17.384 158.576 17.672 158.864 18.024C159.168 18.376 159.32 18.744 159.32 19.128C159.32 19.704 159.112 20.136 158.696 20.424C158.28 20.712 157.616 20.856 156.704 20.856C156.704 20.072 156.48 19.48 156.032 19.08C155.584 18.664 155.032 18.456 154.376 18.456C154.056 18.456 153.76 18.504 153.488 18.6C153.232 18.68 153.032 18.808 152.888 18.984C152.744 19.144 152.672 19.36 152.672 19.632C152.672 19.92 152.752 20.176 152.912 20.4C153.088 20.608 153.384 20.808 153.8 21C154.216 21.176 154.792 21.376 155.528 21.6C156.392 21.856 157.152 22.152 157.808 22.488C158.464 22.824 158.968 23.256 159.32 23.784C159.688 24.296 159.872 24.976 159.872 25.824C159.872 27.136 159.4 28.2 158.456 29.016C157.512 29.832 156.104 30.24 154.232 30.24ZM161.551 30V28.536H161.647C161.967 28.536 162.247 28.504 162.487 28.44C162.743 28.36 162.943 28.208 163.087 27.984C163.231 27.744 163.303 27.392 163.303 26.928V14.568C163.303 14.168 163.199 13.88 162.991 13.704C162.799 13.512 162.583 13.384 162.343 13.32C162.103 13.256 161.919 13.224 161.791 13.224H161.431V11.76H167.983V15.072C167.983 15.504 167.975 15.936 167.959 16.368C167.959 16.784 167.951 17.176 167.935 17.544C167.919 17.912 167.895 18.24 167.863 18.528H168.055C168.247 18.224 168.487 17.944 168.775 17.688C169.063 17.416 169.439 17.2 169.903 17.04C170.367 16.864 170.943 16.776 171.631 16.776C172.959 16.776 173.935 17.136 174.559 17.856C175.199 18.576 175.519 19.744 175.519 21.36V26.856C175.519 27.336 175.559 27.696 175.639 27.936C175.735 28.176 175.887 28.336 176.095 28.416C176.303 28.496 176.583 28.536 176.935 28.536H177.031V30H170.839V22.392C170.839 21.368 170.735 20.576 170.527 20.016C170.335 19.456 169.983 19.176 169.471 19.176C169.039 19.176 168.719 19.36 168.511 19.728C168.303 20.096 168.167 20.56 168.103 21.12C168.039 21.664 168.007 22.216 168.007 22.776V27C168.007 27.432 168.055 27.76 168.151 27.984C168.263 28.192 168.423 28.336 168.631 28.416C168.855 28.496 169.143 28.536 169.495 28.536H169.591V30H161.551Z" fill="#1D1D1B"/>
</svg>
