<svg width="46" height="46" viewBox="0 0 46 46" fill="none" xmlns="http://www.w3.org/2000/svg">
<path d="M44.0665 7.57115C44.0667 7.2326 43.9772 6.90004 43.8071 6.60734C43.637 6.31464 43.3923 6.07225 43.0981 5.90486C42.8038 5.73746 42.4704 5.65105 42.1319 5.65441C41.7934 5.65777 41.4618 5.7508 41.1709 5.924C40.049 6.59174 38.8412 7.10311 37.581 7.44392C35.7812 5.89953 33.4857 5.05442 31.1141 5.06305C28.5124 5.06605 26.0137 6.08002 24.1455 7.89087C22.2774 9.70171 21.1862 12.1677 21.1022 14.7681C15.9731 13.9501 11.3246 11.2731 8.04287 7.24733C7.84514 7.00743 7.59262 6.81859 7.3066 6.69676C7.02059 6.57492 6.70947 6.52364 6.39948 6.54726C6.08967 6.57277 5.79074 6.67337 5.52853 6.84034C5.26633 7.00732 5.04874 7.23565 4.89459 7.5056C4.10402 8.88524 3.64997 10.4319 3.56931 12.0199C3.48866 13.608 3.78367 15.1927 4.4304 16.6453L4.42666 16.6491C4.13599 16.8281 3.89611 17.0787 3.72996 17.3769C3.56381 17.6751 3.47695 18.011 3.47768 18.3524C3.47416 18.634 3.49105 18.9155 3.52822 19.1946C3.72398 21.6063 4.7928 23.8637 6.53424 25.5436C6.41611 25.7687 6.34401 26.015 6.32215 26.2682C6.3003 26.5215 6.32913 26.7766 6.40696 27.0185C7.16618 29.384 8.78075 31.381 10.9347 32.6188C8.74635 33.465 6.38344 33.7601 4.05417 33.4779C3.62306 33.4238 3.18636 33.5179 2.81572 33.7446C2.44507 33.9713 2.16247 34.3173 2.01429 34.7257C1.86611 35.1341 1.86114 35.5808 2.0002 35.9925C2.13925 36.4041 2.41408 36.7563 2.77959 36.9912C6.7856 39.5713 11.45 40.9431 16.215 40.9425C21.6186 41.0033 26.8908 39.2765 31.2114 36.0309C35.5321 32.7853 38.6591 28.2027 40.1059 22.9961C40.7826 20.728 41.1281 18.374 41.1316 16.0071C41.1316 15.8817 41.1316 15.7525 41.1297 15.6234C42.1304 14.5442 42.9057 13.2761 43.41 11.8934C43.9142 10.5107 44.1374 9.04122 44.0665 7.57115ZM37.7287 13.7273C37.4122 14.1017 37.252 14.5837 37.2814 15.0731C37.3001 15.3893 37.2982 15.7075 37.2982 16.0071C37.2943 18.0072 37.0012 19.9962 36.4279 21.9125C35.2463 26.3426 32.6121 30.2481 28.9473 33.0034C25.2825 35.7587 20.799 37.2045 16.215 37.1091C14.5683 37.1096 12.9274 36.9162 11.326 36.5326C13.368 35.8746 15.2774 34.86 16.9655 33.536C17.2765 33.2912 17.504 32.9561 17.617 32.5768C17.73 32.1976 17.7228 31.7926 17.5965 31.4176C17.4701 31.0425 17.2309 30.7158 16.9115 30.4821C16.5921 30.2485 16.2082 30.1194 15.8125 30.1126C14.2194 30.0878 12.6981 29.4456 11.5692 28.3213C11.8556 28.267 12.1401 28.1996 12.4228 28.1192C12.8368 28.0013 13.1991 27.7476 13.4514 27.3987C13.7036 27.0499 13.8312 26.6264 13.8134 26.1963C13.7957 25.7662 13.6338 25.3546 13.3537 25.0277C13.0735 24.7008 12.6916 24.4778 12.2693 24.3944C11.3446 24.2118 10.4744 23.8183 9.72646 23.2447C8.97852 22.6711 8.37293 21.9327 7.95677 21.087C8.30317 21.1343 8.65178 21.1636 9.0012 21.175C9.41632 21.1812 9.82268 21.0553 10.1615 20.8154C10.5003 20.5755 10.7541 20.234 10.8861 19.8404C11.0125 19.4432 11.006 19.0156 10.8675 18.6224C10.729 18.2293 10.4661 17.892 10.1186 17.6617C9.27559 17.1001 8.58501 16.3381 8.10874 15.444C7.63247 14.55 7.38539 13.5518 7.38963 12.5388C7.38963 12.4115 7.39337 12.2842 7.40086 12.1588C11.6966 16.1651 17.2685 18.5268 23.1348 18.8278C23.4309 18.8395 23.7258 18.7837 23.9972 18.6647C24.2686 18.5457 24.5094 18.3666 24.7014 18.1409C24.8915 17.913 25.0261 17.6441 25.0947 17.3554C25.1632 17.0666 25.1637 16.7659 25.0963 16.4769C24.9867 16.0195 24.9308 15.5509 24.9297 15.0806C24.9314 13.4409 25.5836 11.869 26.743 10.7096C27.9024 9.55017 29.4744 8.89806 31.114 8.89633C31.9576 8.89407 32.7925 9.06672 33.566 9.40338C34.3395 9.74004 35.0348 10.2334 35.608 10.8523C35.8291 11.0901 36.1073 11.2674 36.4163 11.3674C36.7252 11.4673 37.0546 11.4866 37.3731 11.4233C38.1604 11.27 38.9365 11.0637 39.6959 10.8056C39.1779 11.8655 38.5159 12.8487 37.7287 13.7273Z" fill="black"/>
</svg>
