<svg xmlns="http://www.w3.org/2000/svg" width="31" height="31" viewBox="0 0 31 31" fill="none">
  <path fill-rule="evenodd" clip-rule="evenodd" d="M10.6304 13.928C10.3965 12.7155 10.274 11.4634 10.274 10.1826V1.39062H29.9266V29.8352C25.1677 29.8352 20.8039 28.1438 17.4036 25.3292C14.0112 27.5891 8.57172 29.7371 2 28.5423C3.81011 27.7665 10.792 23.1119 10.5334 13.8028C10.5644 13.8455 10.5968 13.8872 10.6304 13.928Z" fill="#1D1D1B"/>
  <path d="M10.6304 13.928L10.3197 14.1844L11.0261 13.8516L10.6304 13.928ZM10.274 1.39062V0.987699H9.87104V1.39062H10.274ZM29.9266 1.39062H30.3295V0.987699H29.9266V1.39062ZM29.9266 29.8352V30.2381H30.3295V29.8352H29.9266ZM17.4036 25.3292L17.6605 25.0189L17.4296 24.8278L17.1802 24.9939L17.4036 25.3292ZM2 28.5423L1.84128 28.1719L0.610886 28.6992L1.92792 28.9387L2 28.5423ZM10.5334 13.8028L10.8592 13.5658L10.0945 12.5143L10.1306 13.814L10.5334 13.8028ZM9.87104 10.1826C9.87104 11.4891 9.99603 12.7668 10.2348 14.0043L11.0261 13.8516C10.7969 12.6642 10.6769 11.4376 10.6769 10.1826H9.87104ZM9.87104 1.39062V10.1826H10.6769V1.39062H9.87104ZM29.9266 0.987699H10.274V1.79355H29.9266V0.987699ZM30.3295 29.8352V1.39062H29.5237V29.8352H30.3295ZM17.1467 25.6396C20.6166 28.5117 25.0705 30.2381 29.9266 30.2381V29.4323C25.2649 29.4323 20.9913 27.7758 17.6605 25.0189L17.1467 25.6396ZM1.92792 28.9387C8.62798 30.1569 14.1721 27.966 17.627 25.6646L17.1802 24.9939C13.8502 27.2122 8.51547 29.3174 2.07208 28.1458L1.92792 28.9387ZM10.1306 13.814C10.2568 18.3573 8.61843 21.7576 6.72782 24.1208C4.8293 26.494 2.68461 27.8105 1.84128 28.1719L2.15872 28.9126C3.1255 28.4983 5.3768 27.0996 7.35708 24.6243C9.34528 22.139 11.0685 18.5574 10.9361 13.7916L10.1306 13.814ZM10.9412 13.6715C10.9127 13.637 10.8854 13.6018 10.8592 13.5658L10.2075 14.0398C10.2435 14.0892 10.2809 14.1374 10.3197 14.1844L10.9412 13.6715Z" fill="#1D1D1B"/>
</svg>