<svg width="20" height="22" viewBox="0 0 20 22" fill="none" xmlns="http://www.w3.org/2000/svg">
<path d="M19.5307 18.6135C19.2373 17.2071 18.6933 15.8787 17.9304 14.7051C17.1674 13.5316 16.2006 12.5362 15.0859 11.7765C15.8401 10.6912 16.3035 9.39535 16.4238 8.03539C16.544 6.67544 16.3162 5.30558 15.7663 4.08058C15.2163 2.85559 14.366 1.8243 13.3114 1.10321C12.2569 0.382129 11.0401 0 9.7986 0C8.55709 0 7.34033 0.382129 6.28578 1.10321C5.23123 1.8243 4.38093 2.85559 3.83094 4.08058C3.28096 5.30558 3.05322 6.67544 3.17344 8.03539C3.29367 9.39535 3.75708 10.6912 4.51131 11.7765C3.39559 12.5349 2.42795 13.5298 1.66461 14.7034C0.90128 15.8769 0.357476 17.2057 0.0648042 18.6126C-0.0207373 19.0183 -0.0216037 19.4402 0.06227 19.8464C0.146144 20.2526 0.312576 20.6325 0.54906 20.9578C0.781501 21.2817 1.07775 21.5434 1.41545 21.7229C1.75316 21.9025 2.12351 21.9953 2.49857 21.9944H17.0928C17.4679 21.9953 17.8382 21.9025 18.1759 21.7229C18.5136 21.5434 18.8099 21.2817 19.0423 20.9578C19.2795 20.6331 19.4467 20.2535 19.5313 19.8474C19.6159 19.4413 19.6157 19.0194 19.5307 18.6135ZM9.79569 1.84804C10.7831 1.84804 11.7483 2.17028 12.5693 2.77402C13.3903 3.37776 14.0301 4.23588 14.408 5.23986C14.7859 6.24384 14.8847 7.3486 14.6921 8.41442C14.4995 9.48024 14.024 10.4593 13.3258 11.2277C12.6276 11.9961 11.7381 12.5194 10.7696 12.7314C9.80123 12.9434 8.79743 12.8346 7.88521 12.4187C6.97298 12.0029 6.19328 11.2986 5.64472 10.3951C5.09615 9.4915 4.80336 8.4292 4.80336 7.3425C4.80468 5.88573 5.33108 4.48903 6.26704 3.45894C7.20299 2.42884 8.47204 1.84949 9.79569 1.84804ZM17.741 19.8177C17.6641 19.9259 17.5657 20.0133 17.4533 20.0731C17.341 20.133 17.2176 20.1637 17.0928 20.1629H2.49857C2.37374 20.1637 2.25042 20.133 2.13806 20.0731C2.0257 20.0133 1.9273 19.9259 1.85039 19.8177C1.76992 19.7073 1.71315 19.5782 1.68433 19.4403C1.65552 19.3023 1.6554 19.159 1.68398 19.021C1.94226 17.7803 2.435 16.6135 3.13014 15.5963C3.82528 14.5791 4.70724 13.7344 5.71862 13.1172C6.88328 14.1228 8.32079 14.6693 9.8011 14.6693C11.2814 14.6693 12.7189 14.1228 13.8836 13.1172C14.8927 13.7369 15.7724 14.5829 16.4658 15.6003C17.1593 16.6177 17.6509 17.784 17.9091 19.0237C17.9371 19.1615 17.9366 19.3044 17.9075 19.4419C17.8784 19.5793 17.8215 19.7078 17.741 19.8177Z" fill="black"/>
</svg>
