<svg width="256" height="64" viewBox="0 0 256 64" fill="none" xmlns="http://www.w3.org/2000/svg">
<rect x="-0.5" y="0.5" width="243" height="63" rx="14.5" transform="matrix(-1 0 0 1 243 0)" fill="white"/>
<rect x="-0.5" y="0.5" width="243" height="63" rx="14.5" transform="matrix(-1 0 0 1 243 0)" stroke="black"/>
<path d="M10.912 41V39.992H11.224C11.592 39.992 11.92 39.952 12.208 39.872C12.512 39.792 12.752 39.632 12.928 39.392C13.104 39.136 13.192 38.76 13.192 38.264V26.504C13.192 26.024 13.096 25.672 12.904 25.448C12.728 25.208 12.488 25.056 12.184 24.992C11.896 24.912 11.576 24.872 11.224 24.872H10.912V23.864H17.896V24.872H17.584C17.232 24.872 16.904 24.912 16.6 24.992C16.296 25.072 16.056 25.232 15.88 25.472C15.704 25.712 15.616 26.088 15.616 26.6V31.448H23.416V26.6C23.416 26.088 23.328 25.712 23.152 25.472C22.976 25.232 22.736 25.072 22.432 24.992C22.144 24.912 21.816 24.872 21.448 24.872H21.136V23.864H28.12V24.872H27.808C27.456 24.872 27.128 24.912 26.824 24.992C26.52 25.072 26.28 25.232 26.104 25.472C25.928 25.712 25.84 26.088 25.84 26.6V38.384C25.84 38.848 25.928 39.2 26.104 39.44C26.296 39.664 26.536 39.816 26.824 39.896C27.128 39.96 27.456 39.992 27.808 39.992H28.12V41H21.136V39.992H21.448C21.816 39.992 22.144 39.952 22.432 39.872C22.736 39.792 22.976 39.632 23.152 39.392C23.328 39.136 23.416 38.76 23.416 38.264V32.648H15.616V38.264C15.616 38.76 15.704 39.136 15.88 39.392C16.056 39.632 16.296 39.792 16.6 39.872C16.904 39.952 17.232 39.992 17.584 39.992H17.896V41H10.912ZM29.5833 41V39.992H29.8953C30.2473 39.992 30.5673 39.96 30.8553 39.896C31.1593 39.816 31.3993 39.664 31.5753 39.44C31.7673 39.2 31.8633 38.848 31.8633 38.384V30.776C31.8633 30.296 31.7673 29.944 31.5753 29.72C31.3993 29.48 31.1593 29.328 30.8553 29.264C30.5673 29.184 30.2473 29.144 29.8953 29.144H29.8232V28.136H34.1193V38.264C34.1193 38.76 34.2073 39.136 34.3833 39.392C34.5593 39.632 34.7993 39.792 35.1033 39.872C35.4073 39.952 35.7353 39.992 36.0872 39.992H36.3993V41H29.5833ZM32.8953 25.736C32.5113 25.736 32.1833 25.624 31.9113 25.4C31.6553 25.176 31.5273 24.792 31.5273 24.248C31.5273 23.688 31.6553 23.304 31.9113 23.096C32.1833 22.872 32.5113 22.76 32.8953 22.76C33.2633 22.76 33.5833 22.872 33.8553 23.096C34.1273 23.304 34.2633 23.688 34.2633 24.248C34.2633 24.792 34.1273 25.176 33.8553 25.4C33.5833 25.624 33.2633 25.736 32.8953 25.736ZM37.4388 43.688C37.9668 43.512 38.3988 43.312 38.7348 43.088C39.0708 42.88 39.3188 42.64 39.4788 42.368C39.6388 42.112 39.7188 41.832 39.7188 41.528C39.7188 41.336 39.6548 41.176 39.5268 41.048C39.4148 40.936 39.2708 40.84 39.0948 40.76C38.9348 40.664 38.7668 40.56 38.5908 40.448C38.4148 40.336 38.2628 40.192 38.1348 40.016C38.0228 39.84 37.9668 39.608 37.9668 39.32C37.9668 38.856 38.1108 38.504 38.3988 38.264C38.7028 38.024 39.0788 37.904 39.5268 37.904C40.0228 37.904 40.4548 38.088 40.8228 38.456C41.1908 38.808 41.3748 39.32 41.3748 39.992C41.3748 41.016 41.0708 41.952 40.4628 42.8C39.8708 43.648 38.8628 44.28 37.4388 44.696V43.688ZM49.8651 41V39.992H50.1771C50.5291 39.992 50.8491 39.96 51.1371 39.896C51.4411 39.816 51.6811 39.664 51.8571 39.44C52.0491 39.2 52.1451 38.848 52.1451 38.384V26.504C52.1451 26.024 52.0491 25.672 51.8571 25.448C51.6811 25.208 51.4411 25.056 51.1371 24.992C50.8491 24.912 50.5291 24.872 50.1771 24.872H49.8651V23.864H55.3371L60.3051 37.592L65.2251 23.864H70.5531V24.872H70.2411C69.8891 24.872 69.5611 24.912 69.2571 24.992C68.9531 25.072 68.7131 25.232 68.5371 25.472C68.3611 25.712 68.2731 26.088 68.2731 26.6V38.264C68.2731 38.76 68.3611 39.136 68.5371 39.392C68.7131 39.632 68.9531 39.792 69.2571 39.872C69.5611 39.952 69.8891 39.992 70.2411 39.992H70.5531V41H64.1691V39.992H64.2411C64.5931 39.992 64.8891 39.96 65.1291 39.896C65.3851 39.816 65.5851 39.672 65.7291 39.464C65.8731 39.24 65.9531 38.912 65.9691 38.48V25.664L60.4731 41H59.1771L53.6091 25.712V38.264C53.6091 38.76 53.6731 39.136 53.8011 39.392C53.9451 39.632 54.1451 39.792 54.4011 39.872C54.6731 39.952 54.9851 39.992 55.3371 39.992H55.4091V41H49.8651ZM76.3966 41.24C75.6926 41.24 75.0526 41.104 74.4766 40.832C73.9166 40.544 73.4766 40.12 73.1566 39.56C72.8366 38.984 72.6766 38.264 72.6766 37.4C72.6766 36.12 73.1246 35.176 74.0206 34.568C74.9326 33.96 76.3086 33.624 78.1486 33.56L80.1406 33.488V32.048C80.1406 31.472 80.0926 30.968 79.9966 30.536C79.9006 30.088 79.6926 29.736 79.3726 29.48C79.0526 29.224 78.5646 29.096 77.9086 29.096C77.3006 29.096 76.8366 29.208 76.5166 29.432C76.1966 29.656 75.9806 29.968 75.8686 30.368C75.7726 30.752 75.7246 31.2 75.7246 31.712C75.0526 31.712 74.5406 31.6 74.1886 31.376C73.8526 31.136 73.6846 30.744 73.6846 30.2C73.6846 29.64 73.8766 29.192 74.2606 28.856C74.6606 28.52 75.1886 28.28 75.8446 28.136C76.5006 27.976 77.2206 27.896 78.0046 27.896C79.4766 27.896 80.5726 28.208 81.2926 28.832C82.0286 29.456 82.3966 30.528 82.3966 32.048V38.264C82.3966 38.712 82.4446 39.064 82.5406 39.32C82.6366 39.56 82.7966 39.736 83.0206 39.848C83.2446 39.944 83.5326 39.992 83.8846 39.992H83.9566V41H80.7166L80.3326 38.936H80.1406C79.8046 39.384 79.4766 39.784 79.1566 40.136C78.8366 40.472 78.4606 40.744 78.0286 40.952C77.6126 41.144 77.0686 41.24 76.3966 41.24ZM76.9486 39.752C77.6046 39.752 78.1646 39.616 78.6286 39.344C79.1086 39.072 79.4766 38.688 79.7326 38.192C80.0046 37.68 80.1406 37.088 80.1406 36.416V34.472L78.6046 34.544C77.6926 34.576 76.9726 34.712 76.4446 34.952C75.9326 35.192 75.5646 35.528 75.3406 35.96C75.1166 36.376 75.0046 36.896 75.0046 37.52C75.0046 38.016 75.0766 38.432 75.2206 38.768C75.3646 39.088 75.5806 39.336 75.8686 39.512C76.1566 39.672 76.5166 39.752 76.9486 39.752ZM91.216 41.24C90.16 41.24 89.264 41.008 88.528 40.544C87.808 40.08 87.256 39.36 86.872 38.384C86.504 37.392 86.32 36.128 86.32 34.592C86.32 33.04 86.504 31.776 86.872 30.8C87.256 29.808 87.808 29.08 88.528 28.616C89.264 28.136 90.16 27.896 91.216 27.896C92.144 27.896 92.896 28.096 93.472 28.496C94.064 28.88 94.536 29.384 94.888 30.008H95.032C95 29.736 94.968 29.448 94.936 29.144C94.92 28.84 94.904 28.536 94.888 28.232C94.888 27.912 94.888 27.624 94.888 27.368V25.4C94.888 24.92 94.792 24.568 94.6 24.344C94.424 24.104 94.184 23.952 93.88 23.888C93.592 23.808 93.272 23.768 92.92 23.768H92.728V22.76H97.144V38.36C97.144 38.824 97.232 39.176 97.408 39.416C97.6 39.656 97.84 39.816 98.128 39.896C98.432 39.96 98.76 39.992 99.112 39.992H99.304V41H95.248L94.984 38.84H94.888C94.536 39.576 94.072 40.16 93.496 40.592C92.92 41.024 92.16 41.24 91.216 41.24ZM91.624 39.704C92.872 39.704 93.728 39.288 94.192 38.456C94.656 37.608 94.888 36.32 94.888 34.592C94.888 33.472 94.784 32.536 94.576 31.784C94.384 31.016 94.048 30.432 93.568 30.032C93.104 29.632 92.448 29.432 91.6 29.432C90.896 29.432 90.328 29.632 89.896 30.032C89.464 30.432 89.144 31.016 88.936 31.784C88.744 32.552 88.648 33.496 88.648 34.616C88.648 35.752 88.744 36.696 88.936 37.448C89.144 38.2 89.464 38.768 89.896 39.152C90.344 39.52 90.92 39.704 91.624 39.704ZM104.662 41.24C103.958 41.24 103.318 41.104 102.742 40.832C102.182 40.544 101.742 40.12 101.422 39.56C101.102 38.984 100.942 38.264 100.942 37.4C100.942 36.12 101.39 35.176 102.286 34.568C103.198 33.96 104.574 33.624 106.414 33.56L108.406 33.488V32.048C108.406 31.472 108.358 30.968 108.262 30.536C108.166 30.088 107.958 29.736 107.638 29.48C107.318 29.224 106.83 29.096 106.174 29.096C105.566 29.096 105.102 29.208 104.782 29.432C104.462 29.656 104.246 29.968 104.134 30.368C104.038 30.752 103.99 31.2 103.99 31.712C103.318 31.712 102.806 31.6 102.454 31.376C102.118 31.136 101.95 30.744 101.95 30.2C101.95 29.64 102.142 29.192 102.526 28.856C102.926 28.52 103.454 28.28 104.11 28.136C104.766 27.976 105.486 27.896 106.27 27.896C107.742 27.896 108.838 28.208 109.558 28.832C110.294 29.456 110.662 30.528 110.662 32.048V38.264C110.662 38.712 110.71 39.064 110.806 39.32C110.902 39.56 111.062 39.736 111.286 39.848C111.51 39.944 111.798 39.992 112.15 39.992H112.222V41H108.982L108.598 38.936H108.406C108.07 39.384 107.742 39.784 107.422 40.136C107.102 40.472 106.726 40.744 106.294 40.952C105.878 41.144 105.334 41.24 104.662 41.24ZM105.214 39.752C105.87 39.752 106.43 39.616 106.894 39.344C107.374 39.072 107.742 38.688 107.998 38.192C108.27 37.68 108.406 37.088 108.406 36.416V34.472L106.87 34.544C105.958 34.576 105.238 34.712 104.71 34.952C104.198 35.192 103.83 35.528 103.606 35.96C103.382 36.376 103.27 36.896 103.27 37.52C103.27 38.016 103.342 38.432 103.486 38.768C103.63 39.088 103.846 39.336 104.134 39.512C104.422 39.672 104.782 39.752 105.214 39.752ZM113.938 41V39.992H114.25C114.618 39.992 114.938 39.952 115.21 39.872C115.482 39.792 115.698 39.632 115.858 39.392C116.018 39.136 116.098 38.76 116.098 38.264V30.776C116.098 30.296 116.018 29.944 115.858 29.72C115.698 29.48 115.474 29.328 115.186 29.264C114.914 29.184 114.602 29.144 114.25 29.144H114.178V28.136H117.946L118.258 30.08H118.378C118.698 29.472 119.042 29.016 119.41 28.712C119.778 28.392 120.178 28.176 120.61 28.064C121.042 27.952 121.506 27.896 122.002 27.896C122.514 27.896 122.994 27.968 123.442 28.112C123.906 28.256 124.314 28.488 124.666 28.808C125.018 29.112 125.29 29.536 125.482 30.08H125.674C125.994 29.472 126.346 29.016 126.73 28.712C127.13 28.392 127.554 28.176 128.002 28.064C128.466 27.952 128.946 27.896 129.442 27.896C130.674 27.896 131.634 28.272 132.322 29.024C133.01 29.76 133.354 30.952 133.354 32.6V38.264C133.354 38.76 133.434 39.136 133.594 39.392C133.754 39.632 133.97 39.792 134.242 39.872C134.53 39.952 134.85 39.992 135.202 39.992H135.274V41H131.098V32.72C131.098 31.68 130.906 30.872 130.522 30.296C130.154 29.72 129.506 29.432 128.578 29.432C127.922 29.432 127.394 29.6 126.994 29.936C126.61 30.256 126.33 30.688 126.154 31.232C125.994 31.776 125.914 32.368 125.914 33.008V38.264C125.914 38.76 125.994 39.136 126.154 39.392C126.314 39.632 126.53 39.792 126.802 39.872C127.09 39.952 127.41 39.992 127.762 39.992H127.834V41H123.658V32.72C123.658 31.68 123.466 30.872 123.082 30.296C122.714 29.72 122.066 29.432 121.138 29.432C120.45 29.432 119.898 29.616 119.482 29.984C119.082 30.336 118.794 30.808 118.618 31.4C118.442 31.992 118.354 32.632 118.354 33.32V38.384C118.354 38.848 118.442 39.2 118.618 39.44C118.81 39.664 119.05 39.816 119.338 39.896C119.642 39.96 119.97 39.992 120.322 39.992H120.394V41H113.938ZM142.188 41V39.992H142.644C142.964 39.992 143.22 39.944 143.412 39.848C143.604 39.752 143.78 39.568 143.94 39.296C144.1 39.024 144.276 38.632 144.468 38.12L149.796 23.864H151.668L157.092 38.72C157.22 39.056 157.356 39.32 157.5 39.512C157.644 39.688 157.82 39.816 158.028 39.896C158.236 39.96 158.492 39.992 158.796 39.992H159.108V41H152.508V39.992H153.06C153.54 39.992 153.9 39.904 154.14 39.728C154.38 39.536 154.5 39.24 154.5 38.84C154.5 38.744 154.492 38.656 154.476 38.576C154.46 38.48 154.436 38.384 154.404 38.288C154.388 38.176 154.356 38.064 154.307 37.952L153.348 35.264H147.036L146.124 37.784C146.076 37.912 146.036 38.04 146.004 38.168C145.972 38.296 145.948 38.416 145.932 38.528C145.916 38.624 145.908 38.72 145.908 38.816C145.908 39.216 146.036 39.512 146.292 39.704C146.564 39.896 146.964 39.992 147.492 39.992H148.044V41H142.188ZM147.492 34.064H152.916L151.428 29.864C151.268 29.384 151.108 28.928 150.948 28.496C150.804 28.064 150.668 27.648 150.54 27.248C150.428 26.848 150.324 26.456 150.228 26.072C150.164 26.36 150.092 26.64 150.012 26.912C149.948 27.184 149.868 27.464 149.772 27.752C149.692 28.024 149.596 28.32 149.484 28.64C149.388 28.944 149.268 29.28 149.124 29.648L147.492 34.064ZM159.421 41V39.992H159.733C160.101 39.992 160.429 39.952 160.717 39.872C161.021 39.792 161.261 39.632 161.437 39.392C161.613 39.136 161.701 38.76 161.701 38.264V25.4C161.701 24.92 161.605 24.568 161.413 24.344C161.237 24.104 160.997 23.952 160.693 23.888C160.405 23.808 160.085 23.768 159.733 23.768H159.421V22.76H163.957V38.264C163.957 38.76 164.045 39.136 164.221 39.392C164.397 39.632 164.637 39.792 164.941 39.872C165.245 39.952 165.573 39.992 165.925 39.992H166.237V41H159.421ZM172.299 41.24C171.083 41.24 170.195 40.968 169.635 40.424C169.091 39.864 168.819 38.896 168.819 37.52V29.504H166.995V28.544C167.283 28.544 167.603 28.488 167.955 28.376C168.307 28.248 168.611 28.048 168.867 27.776C169.139 27.488 169.363 27.136 169.539 26.72C169.715 26.304 169.859 25.792 169.971 25.184H171.075V28.136H174.219V29.504H171.075V37.592C171.075 38.408 171.243 39.008 171.579 39.392C171.915 39.776 172.355 39.968 172.899 39.968C173.187 39.968 173.451 39.952 173.691 39.92C173.931 39.888 174.179 39.848 174.435 39.8V40.856C174.227 40.952 173.915 41.04 173.499 41.12C173.083 41.2 172.683 41.24 172.299 41.24ZM175.409 41V39.992H175.601C175.969 39.992 176.297 39.952 176.585 39.872C176.889 39.792 177.129 39.632 177.305 39.392C177.481 39.136 177.569 38.76 177.569 38.264V25.4C177.569 24.92 177.473 24.568 177.281 24.344C177.105 24.104 176.865 23.952 176.561 23.888C176.273 23.808 175.953 23.768 175.601 23.768H175.409V22.76H179.825V28.04C179.825 28.328 179.817 28.632 179.801 28.952C179.785 29.256 179.769 29.52 179.753 29.744C179.737 29.968 179.729 30.08 179.729 30.08H179.849C180.089 29.6 180.377 29.2 180.713 28.88C181.065 28.544 181.457 28.296 181.889 28.136C182.337 27.976 182.833 27.896 183.377 27.896C184.753 27.896 185.801 28.272 186.521 29.024C187.257 29.76 187.625 30.952 187.625 32.6V38.264C187.625 38.76 187.705 39.136 187.865 39.392C188.025 39.632 188.241 39.792 188.513 39.872C188.801 39.952 189.121 39.992 189.473 39.992H189.545V41H185.369V32.72C185.369 31.68 185.169 30.872 184.769 30.296C184.385 29.72 183.705 29.432 182.729 29.432C182.073 29.432 181.529 29.592 181.097 29.912C180.665 30.232 180.345 30.688 180.137 31.28C179.929 31.856 179.825 32.536 179.825 33.32V38.384C179.825 38.848 179.913 39.2 180.089 39.44C180.281 39.664 180.521 39.816 180.809 39.896C181.113 39.96 181.441 39.992 181.793 39.992H181.865V41H175.409ZM197.099 41.24C195.355 41.24 193.987 40.664 192.995 39.512C192.019 38.36 191.531 36.744 191.531 34.664C191.531 32.424 191.995 30.736 192.923 29.6C193.851 28.464 195.163 27.896 196.859 27.896C198.411 27.896 199.627 28.376 200.507 29.336C201.403 30.296 201.851 31.728 201.851 33.632V34.736H193.859C193.891 35.904 194.043 36.856 194.315 37.592C194.587 38.328 194.979 38.872 195.491 39.224C196.019 39.56 196.667 39.728 197.435 39.728C197.995 39.728 198.491 39.648 198.923 39.488C199.371 39.328 199.755 39.12 200.075 38.864C200.411 38.608 200.675 38.336 200.867 38.048C200.979 38.096 201.083 38.192 201.179 38.336C201.275 38.48 201.323 38.656 201.323 38.864C201.323 39.184 201.171 39.528 200.867 39.896C200.563 40.264 200.099 40.584 199.475 40.856C198.851 41.112 198.059 41.24 197.099 41.24ZM199.427 33.44C199.427 32.592 199.339 31.848 199.163 31.208C199.003 30.568 198.731 30.072 198.347 29.72C197.963 29.368 197.451 29.192 196.811 29.192C196.219 29.192 195.715 29.36 195.299 29.696C194.899 30.016 194.579 30.488 194.339 31.112C194.115 31.736 193.971 32.512 193.907 33.44H199.427ZM207.975 41.24C207.271 41.24 206.631 41.104 206.055 40.832C205.495 40.544 205.055 40.12 204.735 39.56C204.415 38.984 204.255 38.264 204.255 37.4C204.255 36.12 204.703 35.176 205.599 34.568C206.511 33.96 207.887 33.624 209.727 33.56L211.719 33.488V32.048C211.719 31.472 211.671 30.968 211.575 30.536C211.479 30.088 211.271 29.736 210.951 29.48C210.631 29.224 210.143 29.096 209.487 29.096C208.879 29.096 208.415 29.208 208.095 29.432C207.775 29.656 207.559 29.968 207.447 30.368C207.351 30.752 207.303 31.2 207.303 31.712C206.631 31.712 206.119 31.6 205.767 31.376C205.431 31.136 205.263 30.744 205.263 30.2C205.263 29.64 205.455 29.192 205.839 28.856C206.239 28.52 206.767 28.28 207.423 28.136C208.079 27.976 208.799 27.896 209.583 27.896C211.055 27.896 212.151 28.208 212.871 28.832C213.607 29.456 213.975 30.528 213.975 32.048V38.264C213.975 38.712 214.023 39.064 214.119 39.32C214.215 39.56 214.375 39.736 214.599 39.848C214.823 39.944 215.111 39.992 215.463 39.992H215.535V41H212.295L211.911 38.936H211.719C211.383 39.384 211.055 39.784 210.735 40.136C210.415 40.472 210.039 40.744 209.607 40.952C209.191 41.144 208.647 41.24 207.975 41.24ZM208.527 39.752C209.183 39.752 209.743 39.616 210.207 39.344C210.687 39.072 211.055 38.688 211.311 38.192C211.583 37.68 211.719 37.088 211.719 36.416V34.472L210.183 34.544C209.271 34.576 208.551 34.712 208.023 34.952C207.511 35.192 207.143 35.528 206.919 35.96C206.695 36.376 206.583 36.896 206.583 37.52C206.583 38.016 206.655 38.432 206.799 38.768C206.943 39.088 207.159 39.336 207.447 39.512C207.735 39.672 208.095 39.752 208.527 39.752ZM219.578 41.168C219.162 41.168 218.802 41.048 218.498 40.808C218.21 40.568 218.066 40.144 218.066 39.536C218.066 38.912 218.21 38.488 218.498 38.264C218.802 38.024 219.162 37.904 219.578 37.904C219.994 37.904 220.346 38.024 220.634 38.264C220.938 38.488 221.09 38.912 221.09 39.536C221.09 40.144 220.938 40.568 220.634 40.808C220.346 41.048 219.994 41.168 219.578 41.168Z" fill="black"/>
<path d="M253.484 23.9853L244.25 16.6003L244.25 31.3703L253.484 23.9853Z" stroke="black" stroke-width="2.5"/>
<path d="M243 15.4142L243 32.5564L254.071 23.9853L243 15.4142Z" fill="white"/>
</svg>
