<svg width="17" height="27" viewBox="0 0 17 27" fill="none" xmlns="http://www.w3.org/2000/svg">
<path d="M8.2312 5.21325C8.44542 5.21325 8.65086 5.12879 8.80233 4.97843C8.9538 4.82808 9.03889 4.62415 9.03889 4.41152V3.60978H9.84658C10.0608 3.60978 10.2662 3.52531 10.4177 3.37496C10.5692 3.2246 10.6543 3.02068 10.6543 2.80804C10.6543 2.59541 10.5692 2.39148 10.4177 2.24113C10.2662 2.09078 10.0608 2.00631 9.84658 2.00631H9.03889V1.20457C9.03889 0.991935 8.9538 0.78801 8.80233 0.637656C8.65086 0.487301 8.44542 0.402832 8.2312 0.402832C8.01699 0.402832 7.81155 0.487301 7.66008 0.637656C7.50861 0.78801 7.42351 0.991935 7.42351 1.20457V2.00631H6.61582C6.40161 2.00631 6.19617 2.09078 6.0447 2.24113C5.89323 2.39148 5.80813 2.59541 5.80813 2.80804C5.80813 3.02068 5.89323 3.2246 6.0447 3.37496C6.19617 3.52531 6.40161 3.60978 6.61582 3.60978H7.42351V4.41152C7.42351 4.62415 7.50861 4.82808 7.66008 4.97843C7.81155 5.12879 8.01699 5.21325 8.2312 5.21325ZM5.00044 16.4376C5.00044 16.2249 4.91535 16.021 4.76387 15.8707C4.6124 15.7203 4.40696 15.6358 4.19275 15.6358H3.38506V14.8341C3.38506 14.6215 3.29996 14.4175 3.14849 14.2672C2.99702 14.1168 2.79158 14.0324 2.57737 14.0324C2.36316 14.0324 2.15772 14.1168 2.00624 14.2672C1.85477 14.4175 1.76968 14.6215 1.76968 14.8341V15.6358H0.961987C0.747775 15.6358 0.542335 15.7203 0.390863 15.8707C0.239392 16.021 0.154297 16.2249 0.154297 16.4376C0.154297 16.6502 0.239392 16.8541 0.390863 17.0045C0.542335 17.1548 0.747775 17.2393 0.961987 17.2393H1.76968V18.041C1.76968 18.2537 1.85477 18.4576 2.00624 18.608C2.15772 18.7583 2.36316 18.8428 2.57737 18.8428C2.79158 18.8428 2.99702 18.7583 3.14849 18.608C3.29996 18.4576 3.38506 18.2537 3.38506 18.041V17.2393H4.19275C4.40696 17.2393 4.6124 17.1548 4.76387 17.0045C4.91535 16.8541 5.00044 16.6502 5.00044 16.4376ZM13.885 26.8602C14.0992 26.8602 14.3047 26.7757 14.4562 26.6253C14.6076 26.475 14.6927 26.2711 14.6927 26.0584V25.2567H15.5004C15.7146 25.2567 15.9201 25.1722 16.0715 25.0219C16.223 24.8715 16.3081 24.6676 16.3081 24.4549C16.3081 24.2423 16.223 24.0384 16.0715 23.888C15.9201 23.7377 15.7146 23.6532 15.5004 23.6532H14.6927V22.8515C14.6927 22.6388 14.6076 22.4349 14.4562 22.2846C14.3047 22.1342 14.0992 22.0497 13.885 22.0497C13.6708 22.0497 13.4654 22.1342 13.3139 22.2846C13.1624 22.4349 13.0773 22.6388 13.0773 22.8515V23.6532H12.2697C12.0554 23.6532 11.85 23.7377 11.6985 23.888C11.5471 24.0384 11.462 24.2423 11.462 24.4549C11.462 24.6676 11.5471 24.8715 11.6985 25.0219C11.85 25.1722 12.0554 25.2567 12.2697 25.2567H13.0773V26.0584C13.0773 26.2711 13.1624 26.475 13.3139 26.6253C13.4654 26.7757 13.6708 26.8602 13.885 26.8602Z" fill="black"/>
</svg>
