<svg width="42" height="52" viewBox="0 0 42 52" fill="none" xmlns="http://www.w3.org/2000/svg">
<path d="M4.15226e-06 20.834C-0.00207569 24.1156 0.77721 27.3513 2.27432 30.2772C3.77143 33.2031 5.94398 35.7364 8.61483 37.6705H7.26922C6.41237 37.6705 5.59061 38.0083 4.98473 38.6098C4.37884 39.2112 4.03846 40.0269 4.03846 40.8774V42.4809C4.04142 43.0589 4.2031 43.6252 4.50611 44.1188C3.50025 44.2012 2.56213 44.6552 1.87729 45.3911C1.19245 46.127 0.810755 47.0912 0.807695 48.093V50.4983C0.807695 50.7109 0.892791 50.9148 1.04426 51.0652C1.19573 51.2155 1.40117 51.3 1.61539 51.3H40.3845C40.5987 51.3 40.8042 51.2155 40.9557 51.0652C41.1071 50.9148 41.1922 50.7109 41.1922 50.4983V48.093C41.1892 47.0912 40.8075 46.127 40.1226 45.3911C39.4378 44.6552 38.4997 44.2012 37.4938 44.1188C37.7968 43.6252 37.9585 43.0589 37.9615 42.4809V40.8774C37.9615 40.0269 37.6211 39.2112 37.0152 38.6098C36.4093 38.0083 35.5875 37.6705 34.7307 37.6705H33.3851C37.1084 34.9696 39.8332 31.128 41.1394 26.738C42.4456 22.3479 42.2607 17.6532 40.6131 13.3778C40.5762 13.2779 40.5197 13.1863 40.4468 13.1083C40.3738 13.0304 40.286 12.9676 40.1884 12.9236C40.0908 12.8797 39.9853 12.8554 39.8782 12.8523C39.7711 12.8493 39.6644 12.8674 39.5644 12.9056C39.4643 12.9439 39.373 13.0015 39.2956 13.0752C39.2183 13.1488 39.1565 13.237 39.1138 13.3346C39.0711 13.4322 39.0485 13.5373 39.0471 13.6437C39.0458 13.7501 39.0658 13.8556 39.106 13.9543C40.7752 18.2878 40.8112 23.074 39.2073 27.4318C37.6034 31.7896 34.4676 35.4256 30.3772 37.6705H14.5384C14.3242 37.6705 14.1188 37.7549 13.9673 37.9053C13.8158 38.0556 13.7307 38.2596 13.7307 38.4722C13.7307 38.6848 13.8158 38.8888 13.9673 39.0391C14.1188 39.1895 14.3242 39.2739 14.5384 39.2739H34.7307C35.1591 39.2739 35.57 39.4429 35.8729 39.7436C36.1759 40.0443 36.3461 40.4521 36.3461 40.8774V42.4809C36.3461 42.9062 36.1759 43.314 35.8729 43.6147C35.57 43.9154 35.1591 44.0844 34.7307 44.0844C34.5165 44.0844 34.311 44.1688 34.1596 44.3192C34.0081 44.4695 33.923 44.6735 33.923 44.8861C33.923 45.0987 34.0081 45.3027 34.1596 45.453C34.311 45.6034 34.5165 45.6878 34.7307 45.6878H37.1538C37.7964 45.6878 38.4127 45.9412 38.8671 46.3923C39.3216 46.8434 39.5768 47.4551 39.5768 48.093V49.6965H2.42308V48.093C2.42308 47.4551 2.67836 46.8434 3.13278 46.3923C3.58719 45.9412 4.20351 45.6878 4.84615 45.6878H31.4999C31.7141 45.6878 31.9196 45.6034 32.0711 45.453C32.2225 45.3027 32.3076 45.0987 32.3076 44.8861C32.3076 44.6735 32.2225 44.4695 32.0711 44.3192C31.9196 44.1688 31.7141 44.0844 31.4999 44.0844H7.26922C6.84079 44.0844 6.42992 43.9154 6.12697 43.6147C5.82403 43.314 5.65384 42.9062 5.65384 42.4809V40.8774C5.65384 40.4521 5.82403 40.0443 6.12697 39.7436C6.42992 39.4429 6.84079 39.2739 7.26922 39.2739H11.4062C11.5948 39.2697 11.7762 39.201 11.9198 39.0795C12.0634 38.958 12.1604 38.7911 12.1945 38.6069C12.2178 38.443 12.1919 38.2758 12.1201 38.1264C12.0483 37.977 11.9337 37.8519 11.7907 37.7667C9.15388 36.3552 6.88253 34.3564 5.15493 31.927C3.42732 29.4976 2.29048 26.7038 1.83363 23.7649C1.37678 20.826 1.61236 17.822 2.52189 14.9887C3.43141 12.1554 4.99012 9.5699 7.07566 7.43516C9.1612 5.30042 11.7168 3.67454 14.5419 2.68515C17.367 1.69576 20.3846 1.36978 23.3579 1.73281C26.3313 2.09584 29.1794 3.13799 31.6787 4.77746C34.1781 6.41692 36.2606 8.60909 37.7628 11.1819C37.8706 11.3645 38.0469 11.4974 38.2531 11.5515C38.4593 11.6056 38.6787 11.5766 38.8634 11.4707C39.0481 11.3649 39.1831 11.1908 39.239 10.9865C39.2949 10.7821 39.2671 10.5642 39.1617 10.3801C36.8435 6.41604 33.2736 3.32092 29.0046 1.57377C24.7356 -0.173384 20.0055 -0.47514 15.5463 0.715198C11.0872 1.90554 7.14754 4.5216 4.3372 8.15851C1.52685 11.7954 0.00248258 16.2504 4.15226e-06 20.834Z" fill="black"/>
</svg>
