<svg width="29" height="28" viewBox="0 0 29 28" fill="none" xmlns="http://www.w3.org/2000/svg">
<path d="M6.54541 10.1266L7.45729 8.32587L9.27136 7.42552C9.53975 7.29237 9.76547 7.08766 9.92323 6.83432C10.081 6.58098 10.1646 6.28904 10.1646 5.99121C10.1646 5.69338 10.081 5.40144 9.92323 5.1481C9.76547 4.89477 9.53975 4.69005 9.27136 4.5569L7.45729 3.65655L6.54944 1.85585C6.41531 1.58944 6.20907 1.36538 5.95385 1.20878C5.69864 1.05219 5.40453 0.969238 5.10449 0.969238C4.80445 0.969238 4.51034 1.05219 4.25512 1.20878C3.9999 1.36538 3.79367 1.58944 3.65953 1.85585L2.74845 3.65655L0.935188 4.5569C0.666802 4.69005 0.441078 4.89477 0.283317 5.1481C0.125555 5.40144 0.0419922 5.69338 0.0419922 5.99121C0.0419922 6.28904 0.125555 6.58098 0.283317 6.83432C0.441078 7.08766 0.666802 7.29237 0.935188 7.42552L2.74926 8.32587L3.6563 10.1266C3.79044 10.393 3.99667 10.617 4.25189 10.7736C4.5071 10.9302 4.80122 11.0132 5.10126 11.0132C5.4013 11.0132 5.69541 10.9302 5.95062 10.7736C6.20584 10.617 6.41127 10.393 6.54541 10.1266ZM5.10045 9.40982L4.19341 7.60832C4.03651 7.29862 3.78333 7.0473 3.47134 6.89156L1.65726 5.99121L3.47134 5.09086C3.78339 4.93482 4.03656 4.68323 4.19341 4.37331L5.10045 2.5718L6.00748 4.3725C6.16492 4.68228 6.41829 4.93378 6.73037 5.09006L8.54929 5.98801L6.73037 6.89156C6.41831 7.04749 6.16492 7.29874 6.00748 7.60832L5.10045 9.40982ZM5.58183 24.9026L6.85717 25.536L7.49525 26.8011C7.62939 27.0675 7.83562 27.2916 8.09084 27.4482C8.34606 27.6048 8.64017 27.6877 8.94021 27.6877C9.24025 27.6877 9.53436 27.6048 9.78958 27.4482C10.0448 27.2916 10.251 27.0675 10.3852 26.8011L11.0232 25.5352L12.2986 24.9018C12.567 24.7686 12.7927 24.5639 12.9505 24.3106C13.1082 24.0573 13.1918 23.7653 13.1918 23.4675C13.1918 23.1697 13.1082 22.8777 12.9505 22.6244C12.7927 22.371 12.567 22.1663 12.2986 22.0332L11.0232 21.4006L10.3852 20.1339C10.251 19.8675 10.0448 19.6434 9.78958 19.4868C9.53436 19.3302 9.24025 19.2472 8.94021 19.2472C8.64017 19.2472 8.34606 19.3302 8.09084 19.4868C7.83562 19.6434 7.62939 19.8675 7.49525 20.1339L6.85798 21.4014L5.58102 22.034C5.31264 22.1671 5.08691 22.3718 4.92915 22.6252C4.77139 22.8785 4.68783 23.1705 4.68783 23.4683C4.68783 23.7661 4.77139 24.0581 4.92915 24.3114C5.08691 24.5647 5.31344 24.7694 5.58183 24.9026ZM7.58167 22.8349C7.89372 22.6798 8.14656 22.4282 8.30213 22.1182L8.94021 20.8514L9.57828 22.1182C9.73359 22.4305 9.98742 22.6838 10.3012 22.8397L11.5814 23.4699H11.5765L10.3012 24.1033C9.98877 24.2587 9.73525 24.5101 9.57828 24.82L8.94021 26.086L8.30213 24.82C8.14547 24.5102 7.89222 24.2588 7.58006 24.1033L6.30391 23.4699L7.58167 22.8349ZM25.6683 13.0465L27.463 12.155C27.786 11.9947 28.0576 11.7483 28.2474 11.4435C28.4373 11.1386 28.5378 10.7872 28.5378 10.4288C28.5378 10.0704 28.4373 9.71907 28.2474 9.4142C28.0576 9.10932 27.786 8.86294 27.463 8.70269L25.6667 7.81035C25.6037 7.77925 25.5526 7.72858 25.5213 7.66604L24.6231 5.88378C24.4617 5.56318 24.2135 5.29355 23.9063 5.1051C23.5992 4.91666 23.2453 4.81684 22.8842 4.81684C22.5231 4.81684 22.1692 4.91666 21.862 5.1051C21.5549 5.29355 21.3067 5.56318 21.1452 5.88378L20.2471 7.66604C20.2155 7.72913 20.1638 7.78013 20.1001 7.81116L18.3054 8.70269C17.9824 8.86294 17.7108 9.10932 17.5209 9.4142C17.3311 9.71907 17.2305 10.0704 17.2305 10.4288C17.2305 10.7872 17.3311 11.1386 17.5209 11.4435C17.7108 11.7483 17.9824 11.9947 18.3054 12.155L20.1017 13.0473C20.1647 13.0784 20.2157 13.1291 20.2471 13.1916L21.1452 14.9739C21.3067 15.2945 21.5549 15.5641 21.862 15.7526C22.1692 15.941 22.5231 16.0408 22.8842 16.0408C23.2453 16.0408 23.5992 15.941 23.9063 15.7526C24.2135 15.5641 24.4617 15.2945 24.6231 14.9739L25.5213 13.1916C25.5529 13.1285 25.6046 13.0775 25.6683 13.0465ZM24.0763 12.4749L23.1782 14.2563C23.1505 14.31 23.1083 14.3551 23.0565 14.3866C23.0046 14.418 22.945 14.4347 22.8842 14.4347C22.8234 14.4347 22.7638 14.418 22.7119 14.3866C22.66 14.3551 22.6179 14.31 22.5902 14.2563L21.692 12.4749C21.5036 12.1018 21.1988 11.7992 20.823 11.6122L19.0275 10.7207C18.9733 10.6931 18.9279 10.6513 18.8962 10.5998C18.8645 10.5484 18.8477 10.4892 18.8477 10.4288C18.8477 10.3685 18.8645 10.3093 18.8962 10.2578C18.9279 10.2063 18.9733 10.1645 19.0275 10.137L20.8213 9.24627C21.1978 9.05921 21.5032 8.75631 21.692 8.38279L22.5902 6.60133C22.6181 6.54786 22.6603 6.50303 22.7121 6.47174C22.764 6.44045 22.8235 6.4239 22.8842 6.4239C22.9449 6.4239 23.0044 6.44045 23.0562 6.47174C23.1081 6.50303 23.1503 6.54786 23.1782 6.60133L24.0763 8.38279C24.2648 8.75583 24.5696 9.05843 24.9454 9.24546L26.7409 10.137C26.7948 10.1647 26.8399 10.2066 26.8715 10.2581C26.903 10.3095 26.9197 10.3686 26.9197 10.4288C26.9197 10.4891 26.903 10.5481 26.8715 10.5996C26.8399 10.6511 26.7948 10.6929 26.7409 10.7207L24.947 11.6114C24.5706 11.7984 24.2651 12.1013 24.0763 12.4749Z" fill="black"/>
</svg>
